<?xml version="1.0" encoding="utf-8"?>
<!-- Generator: Adobe Illustrator 16.0.4, SVG Export Plug-In . SVG Version: 6.00 Build 0)  -->
<!DOCTYPE svg PUBLIC "-//W3C//DTD SVG 1.1//EN" "http://www.w3.org/Graphics/SVG/1.1/DTD/svg11.dtd">
<svg version="1.1" id="Layer_1" xmlns="http://www.w3.org/2000/svg" xmlns:xlink="http://www.w3.org/1999/xlink" x="0px" y="0px"
	 width="490.828px" height="415.067px" viewBox="0 0 490.828 415.067" style="enable-background:new 0 0 490.828 415.067;"
	 xml:space="preserve">
<style type="text/css">
<![CDATA[
	.st0{fill:#FFFFFF;stroke:#FFFFFF;stroke-width:4;stroke-miterlimit:10;}
	.st1{fill:none;stroke:#FFFFFF;stroke-width:10;stroke-linecap:round;stroke-linejoin:round;stroke-miterlimit:10;}
]]>
</style>
<g>
	<line class="st1" x1="220.704" y1="62.333" x2="313.879" y2="410.067"/>
	<g>
		<path class="st0" d="M204.527,1.963c0,0,252.102,49.27,260.975,56.894c6.855,5.891,18.418,22.994,23.32,30.465
			c1.441,2.198-243.271,65.741-243.271,65.741 M204.527,1.963c0,0-193.691,168.72-197.563,179.759
			C3.973,190.251,2.51,210.844,2,219.766c-0.149,2.624,243.551-64.703,243.551-64.703"/>
		<polygon points="67.415,165.523 205.008,2.352 214.88,126.011 		"/>
		<polygon points="341.981,91.954 204.657,2.446 417.726,71.658 		"/>
		<polygon points="71.467,202.715 67.415,165.523 214.982,125.983 224.489,161.462 		"/>
		<polygon points="356.598,126.343 341.981,91.954 417.726,71.658 432.584,105.982 		"/>
	</g>
</g>
</svg>
