<?xml version="1.0" encoding="utf-8"?>
<!-- Generator: Adobe Illustrator 16.0.4, SVG Export Plug-In . SVG Version: 6.00 Build 0)  -->
<!DOCTYPE svg PUBLIC "-//W3C//DTD SVG 1.1//EN" "http://www.w3.org/Graphics/SVG/1.1/DTD/svg11.dtd">
<svg version="1.1" id="Layer_1" xmlns="http://www.w3.org/2000/svg" xmlns:xlink="http://www.w3.org/1999/xlink" x="0px" y="0px"
	 width="89.156px" height="95.039px" viewBox="0 0 89.156 95.039" enable-background="new 0 0 89.156 95.039" xml:space="preserve">
<g>
	<g>
		<path d="M87.674,3.258C55.814-0.185,31.669,34.49,28.99,55.342C38.55,41.74,54.922,22.499,72.793,12.007
			c-15.908,11.358-32.33,29.028-44.066,47.247c-0.53,0.823-1.049,1.648-1.562,2.475c-0.078,0.124-0.153,0.25-0.229,0.376
			c-0.228,0.371-0.449,0.742-0.674,1.115H13.395c-0.723,0-1.313,0.592-1.313,1.314v3.396c0,0.723,0.591,1.312,1.313,1.312h1.56
			v4.864h-6.77c-1.803,0-3.46,1.466-3.671,3.263l-1.535,12.7c-0.217,1.792,1.085,3.259,2.891,3.259H44.7
			c1.802,0,3.104-1.467,2.89-3.259l-1.531-12.706c-0.217-1.792-1.867-3.259-3.672-3.259h-6.769V69.24h1.561
			c0.723,0,1.313-0.59,1.313-1.312v-3.396c0-0.723-0.591-1.314-1.313-1.314h-7.892c0.759-1.293,1.547-2.6,2.375-3.93
			c11.925,0.059,21.198-2.853,28.521-7.697c-4.691-2.356-12.055-5.028-17.314-6.085c6.328,0.189,11.998,0.204,21.096,3.276
			c9.688-8.034,15.512-19.778,19.686-32.024c-3.76-0.628-7.721-1.049-10.865-1.063c3.795-0.627,7.344-1.269,11.678-1.395
			C85.646,10.619,86.697,6.909,87.674,3.258z M38.486,76.112l1.85,15.517h-4.631l-1.851-15.517H38.486z M31.8,64.03h1.852v4.4H31.8
			V64.03z M31.104,71.401h1.466v2.705h-1.466V71.401z"/>
	</g>
	<g>
		<path fill="#FFFFFF" d="M86.938,2.604c-31.86-3.442-56.005,31.232-58.685,52.084c9.561-13.602,25.932-32.843,43.804-43.335
			C56.147,22.71,39.726,40.381,27.99,58.6c-0.53,0.823-1.049,1.648-1.562,2.475c-0.078,0.124-0.153,0.25-0.229,0.376
			c-0.228,0.371-0.449,0.742-0.674,1.115H12.658c-0.723,0-1.313,0.592-1.313,1.314v3.396c0,0.723,0.591,1.312,1.313,1.312h1.56
			v4.864h-6.77c-1.803,0-3.46,1.466-3.671,3.263l-1.535,12.7c-0.217,1.792,1.085,3.259,2.891,3.259h38.832
			c1.802,0,3.105-1.467,2.89-3.259l-1.531-12.706c-0.217-1.792-1.868-3.259-3.673-3.259h-6.769v-4.864h1.561
			c0.723,0,1.313-0.59,1.313-1.312v-3.396c0-0.723-0.591-1.314-1.313-1.314h-7.892c0.759-1.293,1.547-2.6,2.375-3.93
			c11.925,0.059,21.198-2.853,28.521-7.697c-4.691-2.356-12.056-5.028-17.314-6.085c6.328,0.189,11.998,0.204,21.095,3.276
			c9.688-8.034,15.513-19.778,19.686-32.024c-3.759-0.628-7.721-1.049-10.865-1.063c3.795-0.627,7.344-1.269,11.679-1.395
			C84.909,9.965,85.961,6.254,86.938,2.604z M37.75,75.458l1.85,15.517h-4.631l-1.851-15.517H37.75z M31.063,63.376h1.852v4.4
			h-1.852V63.376z M30.367,70.747h1.466v2.705h-1.466V70.747z"/>
	</g>
</g>
</svg>
