<?xml version="1.0" encoding="utf-8"?>
<!-- Generator: Adobe Illustrator 16.0.0, SVG Export Plug-In . SVG Version: 6.00 Build 0)  -->
<!DOCTYPE svg PUBLIC "-//W3C//DTD SVG 1.1//EN" "http://www.w3.org/Graphics/SVG/1.1/DTD/svg11.dtd">
<svg version="1.1" id="svg2" xmlns="http://www.w3.org/2000/svg" xmlns:xlink="http://www.w3.org/1999/xlink" x="0px" y="0px"
	 width="553px" height="553px" viewBox="0 0 553 553" enable-background="new 0 0 553 553" xml:space="preserve">
<path d="M279.77,513.208l-0.668-0.128l-3.475-1.389l-1.826,0.605l-2.369-1.708v-1.935l-3.812-6.102l-0.255-1.209l0.72-5.039
	l-2.887-4.33l-0.302-0.996v-4.61l-2.359-7.075l0.098-1.374l0.415-0.83l-0.861-1.723l-2.465-0.616l-0.764-1.659l-0.89,0.368
	l-0.817-0.814l-0.337-2.078l0.817-1.637l2.536-0.407l-0.257-1.801l0.051-0.75l1.523-5.327l-0.75-4.504l-0.737-3.679l-4.705-7.059
	l-0.21-0.431l-1.466-4.396l-7.756-6.205l-0.419-0.479l-7.354-12.258l-0.139-0.282l-6.233-16.361l-1.643-0.547l-0.704-0.438
	l-6.826-6.826h-2.522l-0.999-0.303l-2.451-1.635l-0.457-0.438l-6.537-8.987l-0.199-0.353l-2.452-5.72l-0.121-1.005l0.734-4.405
	l-1.447-3.614l-0.108-0.942l1.553-10.093l-7.812-17.19l-6.793-6.792l-5.271-1.507l-1.085-0.868l-4.903-8.986l0.307-2.136
	l1.107-1.106v-1.314l-2.581-5.679l-1.567,1.852l-5.72-4.085l-0.227-2.734l0.576-0.576l-0.096-0.59l0.817-1.637l1.905,0.448
	l-0.258-1.548l-1.424-0.479l-1.04-0.9l-13-26l-4.357-5.812l-4.981-0.712l-0.994-1.562l-0.239,1.668l-0.509,1.019l-3.268,3.268
	l-2.444,0.094l-5.719-4.902l-0.266-0.288l0.72,7.915l1.991,1.99l0.473,0.836l0.817,3.27l0.054,0.438v5.79l1.107,1.105l0.39,0.582
	l13.847,33.396l3.042,5.322l3.817,3.055l-1.125,3.205h-2.156l-0.129,0.259v5.03l2.283,7.611l1.921,2.562l4.369,1.456l0.975,0.782
	l2.3,3.834l5.499,4.714l0.628,1.366v1.633l-1.956,1.793l-75.171-6.536l-0.413-0.085l-2.451-0.815l-0.219-0.928l-0.224,0.299
	l-1.44,0.723h-2.451l-0.271-0.021l-85.794-13.07l-1.514-2.015l8.171-62.099l7.332-44.812l-0.809-19.426l0.301-1.073l4.6-6.9v-9.26
	l0.527-1.273l4.902-4.902l2.979,0.704l0.581,1.744l0.48,0.24l5.996-0.749l0.864,0.104l17.158,6.536l0.632,0.409l3.558,3.559h1.706
	l0.838,0.207l14.939,7.863l6.381-1.418l4.623-3.082l1.435-0.249l2.279,0.57l2.548-2.548l1.05-0.513l6.537-0.817l0.23,1.015
	l0.017-0.034l1.61-0.995h2.452l0.926,0.256l3.517,2.11l4.249-0.708l1.839,0.85l2.451,4.085l-1.455,1.136l2.819-0.666l3.364,3.365
	l2.28-0.57l0.537-0.051l14.155,0.787l3.219-1.931c0.101-1.745,1.512-3.146,3.261-3.229l5.417-8.512l4.833-13.697l0.178-0.104
	l-0.069-0.146l6.447-12.087l1.581-5.535l0.579-0.889l4.255-3.546v-0.569l-0.764-3.053l-0.046-0.6l0.76-8.355l-1.282-1.922
	l-0.112-1.804l2.935-5.87l-1.398-4.195l0.435-1.842l4.221-4.222l-0.228-1.142l-2.663,0.888l-3.835,3.068l-2.051,0.138l-7.267-4.36
	l-4.595,2.626l-3.915,3.915l-0.604,0.398l-4.085,1.634l-0.54,0.124l-11.439,0.817l-0.934-0.186l-4.902-2.451l-0.805-0.805
	l-3.034-6.068l-7.454-4.473l-6.464-1.293l-3.494,7.688l-2.637,0.753l-1.789-1.192l-5.764,1.441l-1.391-0.22l-6.537-4.085
	l-0.777-1.032l-1.093-3.826l-1.569-0.166l-3.186-2.549l-3.872,1.936l-0.805,0.19h-0.817l-1.474-2.044l-2.315,0.385l-0.865-0.067
	l-2.452-0.816l0.346-3.494l4.307-0.539l-5.956-0.794l-1.562-1.784v-1.634l1.446-1.765l1.582-0.316l-3.588-5.98l0.974-2.634
	l1.46-0.487l0.319-1.593l-2.695-1.078l-0.83-0.673l-0.752-1.129l-0.213,0.106l-2.078-0.337l-3.269-3.269l0.274-2.771l1.308-0.872
	l-0.382-1.146l0.435-1.842l0.817-0.817l1.272-0.527h1.634l1.469,1.244v-0.26l0.995-1.61l0.579-0.29l-0.665-1.937l0.581-1.745
	l-1.3-2.602l0.337-2.078l0.196-0.196H66.51l-1.724-2.317l2.451-8.17l1.196-0.89l-0.216-0.206l-0.434,0.434l-1.709,0.473
	l-3.269-0.817v-3.492l3.269-0.817l1.709,0.473l0.685,0.685l0.517-1.034l0.736-0.771l2.327-1.292L69.6,63.805l-1.621-1.791V60.38
	l0.675-1.405l3.573-2.859l0.688-3.443l0.96-1.257l2.273-1.137v-1.556L74.06,45.94l1.003-2.826l2.465-0.617l0.447-0.894l1.314-0.97
	l4.902-0.817l0.296-0.024h3.269l1.61,0.996l0.686,1.372l0.747,0.747l3.141-0.628l2.128,1.469l0.761,4.565l2.053,3.421l6.169,3.856
	l0.741,0.941l1.274-0.321l7.917,2.375h4.639l0.709,0.145l5.38,2.306h4.387l1.1-1.649l0.729-0.63l13.89-6.537l0.471-0.146
	l9.805-1.634l0.618,0.004l8.753,1.592l9.568-0.798l0.955,0.184l1.635,0.817l0.467,2.883l-0.03,0.03l0.297,0.892l2.851,2.281
	l3.112-1.245l1.474,0.062l1.634,0.818l0.849,0.901l2.241,5.227l0.411,0.274l1.414-0.873h2.451l1.272,0.527l2.883,2.883l7.637,1.527
	l0.92,0.493l1.304,1.304l4.852,1.386l11.829-2.366l1.062,0.111l5.38,2.306h3.356l9.221-3.843l4.693-3.911l1.821-0.289l2.548,1.019
	l0.077-0.153l2.046-0.941l4.919,1.229l0.29-0.87l1.708-1.23h2.451l1.152,0.417l4.902,4.085l0.555,0.814l0.239,0.718l2.212,0.916
	l0.622,1.865l1.937,1.292l0.708,0.928l0.817,2.451v1.139l-1.445,4.333l1.445,4.333l-0.135,0.569l1.13,0.563l3.479-0.697l1.539,0.411
	l6.535,5.72l-0.482,0.632l3.115,3.636l5.295,6.049l8.029,1.46l3.292-0.658l10.271-8.688l0.355-0.236l6.536-3.268l2.077,0.337
	l4.086,4.085l-0.274,2.771l-1.129,0.753l1.741,3.481l-1.174,2.551l-1.396,0.349l5.529,4.916l2.348-0.587l2.179,1.283l2.988,11.214
	l12.843,3.022l0.952,0.581l4.641,5.411l6.8,3.022l7.673,1.534l5.242-0.749l18.628-6.479l0.592-0.1h0.745l-0.877-4.384l1.766-2.153
	h2.899l4.593-1.969l1.399-4.896l0.559-0.873l5.72-4.902l1.021-0.427l8.798-0.733l1.184-2.363l1.174-0.941l3.268-0.817h0.873
	l2.833,0.708l2.831-0.708l1.438,0.248l2.449,1.635l0.71,0.929l0.444,1.334l7.814,0.71l1.106,0.52l1.534,1.534l2.108-1.054
	l1.101-0.166l9.806,1.634l1.202,0.777l2.835,4.253l4.135,0.689l0.979,0.503l5.062,5.064l8.893-1.482l2.02,1.258l4.902,16.342
	l-0.016,1.086l-1.512,4.527l0.773,6.961l-0.118,0.868l-1.635,4.085l-0.646,0.698l1.229,1.638l-1.44,2.88h-1.793l-0.47,2.352
	l0.609,4.883l4.356,0.623l1.438,2.397l-3.004,8.26l5.374,10.747l0.172,0.55l1.413,9.894h9.062l1.405,0.675l3.268,4.085l0.396,1.125
	v4.085l-0.237,0.893l-9.08,15.891l6.264,5.566l0.379,0.471l3.922,7.06l4.236,3.533l6.017,0.751l0.854,0.346l2.517,1.885l1.557-0.519
	l2.348,1.427l2.177,13.772l3.963-0.566l1.06,0.172l1.635,0.817l0.986,1.789L545.479,273l-1.223,1.529l-9.099,3.032l-1.3,2.604
	l-1.61,0.995h-0.889l-2.37,2.372l-1.456,6.55l0.784,7.056l-0.183,1.008l-0.814,1.633l-0.336,0.468l-1.636,1.635l-1.271,0.526h-4.902
	l-0.255-0.02l-5.72-0.814l-0.744-0.285l-1.223-0.815l-0.594,0.591l-1.05,0.517l-6.536,0.815h-0.444l-6.132-0.768l-4.517,1.505
	l-1.237-0.037l-3.676-1.47l-7.73,0.773l-0.851-0.121l-3.335-1.334l-0.91,0.455l-1.026,0.178l-6.537-0.817l-1.32-0.86l-2.451-4.084
	l-0.174-0.39l-3.953-12.651l-1.7-1.698l-5.283-0.66l-0.56,0.351l0.6,0.6l-0.002,2.545l-4.084,4.085l-0.471,0.338l-6.536,3.269
	l-1.373,0.099l-2.449-0.815l-0.075-1.052l-6.567,4.136l-1.628,0.146l-7.724-3.09l-5.243,0.75l-1.528-0.51l-3.021-3.023
	l-11.121-4.766l-0.999-1.086l-0.621-1.865l-1.641-1.094l-3.736-0.746l-0.919-0.492l-1.107-1.105h-5.791l-1.271-0.527l-4.086-4.085
	l-0.29-0.38l-3.271-5.72l-0.202-0.541l-0.682-3.411l-2.719-2.038l-0.53-2.245l0.013-0.025l-1.655-0.829l-0.995-1.61v-3.34
	l-6.826-6.826l-0.398-0.604l-0.979-2.45l-4.888,1.833l-1.363-0.041l-6.934-3.082l-0.357,2.508l-1.782,1.545h-1.706l-1.104,1.107
	l-1.77,0.458l-0.593-0.169l0.345,1.459l-0.814,2.451l-0.902,1.041l-1.634,0.817l-0.854-0.392l-1.102,0.551l1.123,0.694l6.536,13.074
	l0.075,0.173l2.312,6.171l2.176,2.175l0.438,0.704l0.813,2.452l-0.135,0.566l4.952,2.479l0.319,1.974l2.188,2.74h0.771l1.438,0.72
	l2.25,2.999l6.252,3.908l-0.788,2.746v0.483l2.741,2.741l0.474,1.71l-0.425,1.698c0.073-0.216,0.168-0.425,0.282-0.619l-0.044-0.131
	l1.708-2.369h1.635l1.775,1.504l0.003,0.017c0.814,0.643,1.326,1.638,1.326,2.707c0,0.677-0.201,1.328-0.562,1.881l0.05,0.302
	l-0.165,1.101l-0.813,1.635l-3.107,0.192l-1.635-2.45l-0.046-0.736c-0.38-0.562-0.588-1.229-0.588-1.92
	c0-0.187,0.015-0.369,0.044-0.549l-0.253,1.012l-1.086,0.498l0.232,0.938l2.137,4.979l2.68,1.341l0.925,1.114l0.556,1.942v-2.269
	l0.076-0.52l2.451-8.17l0.798-1.023l4.085-2.453l2.051,0.141l4.087,3.27l0.655,1.658l-0.746,5.223l2.254,5.255l0.146,0.709v3.27
	l-0.188,0.806l-2.451,4.902l-0.277,0.241l0.339,0.438l-0.83,2.076l1.964,0.395l0.149,0.184l1.696-0.388l3.546,4.255h2.043
	l5.957-2.646h-0.312l-0.813-0.816v-2.544l0.813-0.817l2.546-0.001l0.818,0.816v2.548l-0.141,0.139l4.953-0.232l0.188-2.617
	l3.269-2.451l2.882,1.439v1.635l-0.993,1.607l-0.287,0.146l2.043-0.097l-0.291-0.703l2.45-1.637l1.805-0.109l1.634,0.816
	l-0.094,0.692l1.641-0.655l2.396-1.914l-1.114-2.688l0.815-0.815l2.076-0.339l0.244,0.123l0.514-1.532l0.436-0.703l6.38-6.381
	l4.787-7.979l0.372-0.44l5.248-4.499l0.696-3.477l0.938-1.231l0.75-2.252l1.708-1.23h0.337l0.406-1.221l2.979-0.703l0.815,0.816
	l0.527,1.271v8.171l-0.093,0.567l-0.558,1.664l0.618,0.713l1.604,8.812l1.47,3.67l6.062,7.583l9.93,3.816l9.251,0.771l2.979-0.744
	l1.241,0.137l3.268,1.635l0.559,0.433l10.182,11.748l5.054,0.722l1.547,1.781v4.902l-0.148,0.723l-5.72,13.072l-0.569,0.72
	l-2.895,2.17l-3.478,7.819l1.885-0.174l1.637,2.451v1.996l-3.271,4.901l-3.106-0.192l-0.815-1.635l-0.006-0.211l-0.398,0.335
	l-3.269,0.816l-2.048-0.938l-0.198-0.398l-2.152,3.443l-0.761,9.135l1.592,8.753l-1.202,2.029l-11.853,3.951l-3.351,3.349
	l-0.738,5.923l-0.35,0.856l-2.45,3.27l-1.003,0.666l-12.271,3.067l-1.747,3.494l0.582,1.744l-0.146,1.462l-3.27,5.72l-0.896,0.778
	l-4.087,1.634l-1.104,0.075l-2.855-0.713l-6.638,1.475l-6.271,3.922l-0.388,0.185l-7.23,2.409l-9.153,4.575l-2.724,5.447
	l0.692,3.479l-0.811,1.88l-13.073,8.171l-0.385,0.182l-26.842,8.946l-5.954,2.979l-2.183,3.638l-0.42,0.479l-4.085,3.271
	l-0.997,0.391l-10.894,0.777l-6.922,5.384l-0.5,0.272l-11.438,4.087l-0.417,0.096l-14.891,1.564l-3.636,3.636l-0.836,0.475
	l-2.594,0.647l-1.248,1.873l-0.932,0.709l-2.45,0.814l-0.922,0.059l-3.425-0.686l-5.135,2.934l-0.895,0.236h-4.906V513.208
	L279.77,513.208z M130.957,260.912l-0.048-0.122l-0.775-6.198l-2.993-5.486v5.316l2.183,4.367L130.957,260.912z M125.13,244.738
	l-0.095-0.854l-0.152,0.607L125.13,244.738z M121.655,217.728l0.305-0.916l-0.734,0.573L121.655,217.728z M99.119,68.745
	l-0.105-1.687l2.451-1.634l0.999-0.302h2.191l-1.013-1.013l-0.527-1.272V62.48l-0.664,0.332l-1.514,0.044l-5.205-2.231l-3.537,0.708
	l-0.923-0.058l-1.697-0.566l-7.877,4.412h1.156l1.498,0.801l1.1,1.65h1.29l1.016-2.451h2.451l1.273,0.527l0.816,0.817l0.227,1.399
	L99.119,68.745z M426.842,509.94l-0.926-0.259l-4.086-2.448l-0.347-2.817l1.635-1.634l0.467-0.336l1.634-0.817l1.242-0.137
	l2.832,0.708l6.1-1.525l1.009,0.038l4.899,1.635l0.323,3.271l-5.719,3.268l-0.638,0.223l-5.723,0.814l-0.255,0.021h-2.45
	L426.842,509.94L426.842,509.94z M259.703,494.612l1.502-1.503l-1.034-0.52l-0.469-2.883l0.817-0.817l2.883,0.47l0.817,1.634
	l-2.414,2.416l-0.073-0.036l2.15,2.148l-1.634,1.636L259.703,494.612z M250.875,452.746h-1.339l-1.273-0.527l-2.451-2.452
	l0.468-2.883l0.64-0.316v-0.521l2.605-1.608l1.634,0.816l0.995,1.609v0.881l2.038,0.679l1.139,2.277l-0.817,2.451l-3.317,0.233
	L250.875,452.746z M131.246,165.838l-1.149-1.431l-0.817-5.719l1.113-1.926l4.085-1.635l1.942,0.399l0.29,0.29h0.3l0.477-1.905
	l2.183-1.31l6.076,1.519l14.25-3.958l1.344,3.314l-7.825,4.268l0.474,2.37l0.134,0.09l-0.07,0.231l0.021,0.096l-0.063,0.048
	l-0.885,2.921h-4.157l-1.924,1.924l-1.019,0.509l-5.125,0.732l-1.21,1.21l-1.905,0.413L131.246,165.838z"/>
<path id="gCountries" display="none" fill="#231F20" d="M421.938,329.202l-4.084,0.815l2.45-1.636L421.938,329.202z
	 M403.146,329.202l-0.816-0.817l0.816-0.816l0.815,0.816L403.146,329.202z M412.951,328.385l-0.816,0.817l-0.815-0.817l3.269-2.451
	v1.635L412.951,328.385z M429.293,324.299h-2.451l0.816-0.816L429.293,324.299z M451.354,303.055l2.45,0.818l1.634,8.986
	l-4.084,4.086l-1.635-3.271l-2.451,1.636l0.816,8.172l-0.816,1.635l2.451,0.816l0.816,1.633l-6.535,3.27l0.816,3.27l-3.271,8.17
	l-0.815,8.988l-36.77-0.814l-15.521-17.16l0.813-3.27l4.086,4.901h3.271l7.354-3.269l17.158-0.816l4.085-1.634l4.086-3.269
	l1.634-4.902l6.537-6.537l4.901-8.17l5.72-4.903l0.817-4.085l1.634-0.816L451.354,303.055z M452.171,309.592l0.816-1.635
	L452.171,309.592z M373.73,306.324l-0.815,1.633l-1.635-2.451l0.814-1.633l-0.814-2.452h1.635L373.73,306.324z M372.586,302.213
	c0.9,0,1.634,0.734,1.634,1.635c0,0.902-0.73,1.633-1.634,1.633s-1.637-0.729-1.637-1.633
	C370.949,302.947,371.683,302.213,372.586,302.213z M152.305,160.885l-1.634-0.817l-4.903,0.817l-0.817-2.451l-8.988-0.817h2.451
	l0.817-3.268l6.536,1.634l14.708-4.085l-8.988,4.902L152.305,160.885z M135.963,157.616l0.817,0.817l5.719-0.817l2.451,0.817
	l0.817,2.451l4.903-0.817l2.451,1.634h-4.903l-2.451,2.451l-5.719,0.817l-1.634,1.635l-6.537-2.452l-0.817-5.719l4.085-1.635
	L135.963,157.616z M149.854,218.897l6.537,30.231l-2.451,2.451l-4.902,13.89l-0.817,5.72l-3.268,3.268l-5.719-4.902l-6.537-8.988
	l-0.817-6.537l-4.902-8.988l-0.817-7.354l-1.634,0.817l-1.634,6.537l2.452,2.451v7.354l2.451,4.902l8.171,10.623l0.817,8.987
	l2.451,2.451l0.817,3.27v6.536l1.634,1.634l13.89,33.5l3.269,5.721l4.085,3.271h-3.269l-0.816,1.634v5.72l2.451,8.173l2.451,3.27
	l4.903,1.634l2.451,4.085l5.72,4.903v1.633l-75.171-6.536l-2.451-0.816l0.817-0.813l-0.817-2.452l-2.452,3.271h-2.451L8.5,346.359
	l8.171-62.1l7.354-44.938l-0.817-19.61l4.902-7.354v-9.805l4.902-4.902l0.817,2.452l1.634,0.816L42,200.104l17.158,6.536
	l4.085,4.085h2.452l15.524,8.171l7.354-1.634l4.903-3.269l3.268,0.817l3.269-3.269l6.537-0.817l-4.902,1.634l1.634,0.817
	l4.085-0.817l0.817-1.634h2.452l4.085,2.451l4.903-0.817l2.451,4.085l-2.451-2.451l-2.451,2.451l4.085,3.269h1.634l0.817-2.451
	l4.085,4.085l3.269-0.817l14.707,0.817L149.854,218.897z M149.854,221.348v-2.451l3.269-3.269l0.817,0.817L149.854,221.348z
	 M151.963,216.155c0.902,0,1.634,0.729,1.634,1.634c0,0.904-0.732,1.634-1.634,1.634c-0.903,0-1.634-0.731-1.634-1.634
	C150.329,216.886,151.06,216.155,151.963,216.155z M168.646,204.189l-0.817,9.805l-1.634,4.085l-7.354,1.634l0.816-4.085
	l3.269-1.634l-0.817-1.634h-1.634v-5.719l1.634-4.085l4.085-0.817L168.646,204.189z M164.416,206.605
	c0.901,0,1.634,0.731,1.634,1.634c0,0.903-0.732,1.634-1.634,1.634c-0.903,0-1.635-0.731-1.635-1.634
	C162.781,207.336,163.513,206.605,164.416,206.605z M449.72,283.445l-3.269,3.269l-6.536,3.269l-2.451-0.814l6.536-3.271
	l-0.816-1.633l0.816-0.815l1.635,0.815l4.085-2.451l0.816,0.816L449.72,283.445z M292.023,97.97l5.721,6.537l8.987,1.634
	l4.085-0.817l10.623-8.988l6.533-3.268l4.086,4.085l-2.449,1.634l2.449,4.902l-3.269,0.817v1.634l7.353,6.537l3.271-0.817
	l3.269,12.256l13.893,3.269l4.899,5.72l7.354,3.268l8.171,1.634l5.72-0.817l18.793-6.537h2.451l-3.27,1.634h4.086l-1.638-8.171
	h3.271l5.72-2.452l1.634-5.719l5.722-4.902l9.806-0.817l1.634-3.269l3.271-0.817l3.27,0.817l3.271-0.817l2.45,1.634l0.815,2.451
	l8.987,0.817l2.451,2.451l3.269-1.634l9.806,1.634l3.271,4.903l4.901,0.817l5.721,5.72l9.805-1.635l4.902,16.342l-1.635,4.902
	l0.815,7.354l-1.635,4.085l-1.634,0.816l2.448,3.269h-3.269l-0.816,4.085l0.816,6.537l5.72,0.817l-3.269,8.988l5.72,11.439
	l1.635,11.439h10.622l3.271,4.085v4.085L506.1,228.7l7.354,6.537l4.085,7.354l4.902,4.085l6.534,0.817l3.271,2.451l2.451-0.817
	l2.447,15.524l5.723-0.817l1.635,0.817l-0.815,8.171l-9.807,3.268l-1.634,3.268h-1.635l-3.271,3.271l-1.635,7.354l0.815,7.354
	l-0.815,1.636l-1.634,1.635h-4.902l-5.72-0.816L511,298.152l-1.635,1.635l-6.536,0.816l-6.536-0.816l-4.902,1.634l-4.085-1.634
	l-8.171,0.816l-4.086-1.637l-1.634,0.817l-6.537-0.817l-2.451-4.085l-4.085-13.071l-2.451-2.451l-6.533-0.816l-22.062,13.891
	l-8.171-3.269l-5.72,0.817l-3.271-3.271l-11.438-4.9l-0.816-2.451l-2.451-1.633l-4.085-0.817l-1.635-1.634h-6.536l-4.086-4.085
	l-3.269-5.72L377,261.384l-3.27-2.451l0.815-1.635l-3.269-1.634v-4.085l-7.354-7.354l-1.634-4.085l-6.537,2.451l-7.354-3.268
	l-0.817-1.634h2.451l0.815-1.634h-3.27l0.816,0.817l-1.636,0.817l-0.814,5.72H343.5l-1.635,1.634l-2.45-3.268l0.815-0.817
	l-5.721-4.085v-8.171h-4.9l1.635-12.256l-6.537-9.805l-4.902-1.634l-8.17-5.719h-4.086l0.816-4.902l-4.085-4.086l0.817-0.816
	l-2.453-0.817l-4.084-4.902l1.633-3.269l-1.633-4.902l0.814-1.634l2.451-0.817v-3.268l5.72-4.903l-2.45-7.354l4.085-3.268
	l-4.901-0.817l-1.635,0.817l-2.451-2.451l-3.27-0.817l-1.634-5.72h-1.636l-0.815-4.902l-1.635-0.817l-1.636-8.171l-2.449-2.451
	l-0.816-3.269l0.816-1.634l-4.902-2.452l3.27-7.353l-2.45-0.817l0.817-1.634l-0.817-4.903l-1.634-2.451l0.814-2.451l-1.635-0.817
	l-0.815-2.451l1.636-0.817l2.451,0.817l3.269-6.537L292.023,97.97z M289.573,133.921l7.354,17.159l3.271,0.817l2.449,2.451
	l1.637-0.817l4.9,0.817l-4.086,3.268l2.451,7.354l-5.72,4.903v3.268l-2.451,0.817l-0.815,1.634l1.635,2.451l-1.635,5.72l4.084,4.902
	l2.451,0.817l-0.814,0.816l4.085,4.086l-0.816,4.902h4.086l8.17,5.719l4.902,1.634l6.537,9.805L329.61,228.7h4.9v8.171l5.722,4.085
	l-0.816,0.817l2.45,3.268l-5.72-1.634l-1.636,1.634l-3.269-1.634h-5.721l-3.271,2.451l-4.901,10.623l-4.9,3.268l-22.879-1.634
	L254.439,228.7l-22.878-13.89l-15.524-4.085l1.634-3.269l-3.269,0.817l-0.817-2.451l1.634-0.817l-3.268-13.89l28.598-14.707
	l2.451-3.269l1.634-13.073l1.634-3.269l-0.817-11.439l1.634-2.451l4.902-0.817l12.256-12.256l1.634,0.817l2.451-0.817l5.72,2.452
	h4.086l2.45-1.634l1.635,0.817l0.816,4.903l4.086-3.268L289.573,133.921z M171.915,198.47l-2.451,0.817l-0.817,4.902l-2.451-2.451
	h-2.452l-1.634,0.817l-1.634,4.085v5.719h1.634l0.817,1.634l-3.269,1.634l-0.816,4.085l7.354-1.634l-0.817,5.719l-4.902,10.622
	l0.817,0.817l-0.817,3.268l-4.085,10.622l-6.537-27.78l4.085-4.903l-0.817-0.817l5.72-8.988l4.902-13.891l4.085,0.817l1.634-3.269
	l0.817,0.817l4.085-3.268l-0.817,0.817l0.817,7.354L171.915,198.47z M216.037,210.726l-2.451,2.451l-26.963,6.537l12.256,16.341
	l-4.085,1.634l-3.268,5.72l-10.622,1.634l-3.268,4.902l-6.537,4.903l-13.89-4.085l0.817-1.634l-0.817-1.634l4.085-12.256
	l-0.817-0.817l3.268-5.719l4.085-14.708l1.634-14.707l2.451-0.817l2.451,1.635l0.817,2.451l9.805,4.085l26.963-15.524l3.268,13.89
	l-1.634,0.817l0.817,2.451l3.269-0.817L216.037,210.726z M338.598,249.945l-1.634,0.817l-0.817-3.269l0.817-2.451l2.451,2.451
	L338.598,249.945z M336.964,249.945l-4.901,2.452l-0.815,1.634h4.085l6.536,13.074l-10.621,0.816l-4.086-7.354l-12.256-1.634
	l4.899-6.537l2.451-6.537l3.271-2.451h5.72l3.269,1.634L336.964,249.945z M174.366,187.848l-4.085,3.268l-0.817-0.817l-1.634,3.269
	l-4.085-0.817l6.537-12.256l1.634-5.719l4.903-4.085v-1.634l2.451,0.817l2.451-0.817l0.817,0.817l-1.634,1.634l2.451,1.634
	l0.817,3.269l-4.085,4.085l0.817,1.634L176,182.945l-0.817,1.634l0.817,1.634L174.366,187.848z M173.747,179.435
	c0.902,0,1.634,0.731,1.634,1.634c0,0.902-0.732,1.634-1.634,1.634c-0.903,0-1.634-0.732-1.634-1.634
	C172.113,180.166,172.843,179.435,173.747,179.435z M494.658,381.494l-0.816-1.635l2.451-5.719l1.634,2.448L494.658,381.494z
	 M455.438,312.859l1.638,4.086l6.536,8.172l10.622,4.085l9.805,0.815l3.27-0.815l3.271,1.634l10.622,12.256l5.72,0.816v4.902
	l-5.72,13.071l-3.271,2.451l-6.536,14.707l-3.269,0.815l-1.635-3.27l-4.085,6.536l-0.816,9.806l1.634,8.987l-12.256,4.086
	l-4.086,4.085l-0.815,6.536l-2.45,3.269l-13.073,3.271l-2.451,4.902l0.817,2.448l-3.271,5.723l-4.086,1.634l-3.269-0.816
	l-7.354,1.637l-6.536,4.086l-7.354,2.448l-18.792-34.315l43.305-18.791l7.354-31.867l-7.354-9.804v-8.171l3.27-8.172l-0.82-3.268
	l6.536-3.27l-0.816-1.633l-2.45-0.816l0.815-1.635l-0.815-8.172l2.45-1.636l1.636,3.271L455.438,312.859z M452.987,309.592
	l-0.816-1.635L452.987,309.592z M453.805,292.434v8.172l-0.814,2.449h-1.635l-1.636-6.535l0.816-2.451h1.635l0.816-2.449
	L453.805,292.434z M383.536,325.934l-4.085,0.816l-1.635-1.633l-1.636-7.354v-4.904l2.451-8.17l4.085-2.45l4.085,3.268l-0.814,5.722
	l2.452,5.721v3.269l-2.452,4.903L383.536,325.934z M250.354,450.128h1.634l-0.817-0.815l2.451,0.815l-0.817,2.451l-0.817-1.633
	h-2.451l-2.451-2.452l1.634-0.817v-1.634l1.634,0.817V450.128z M180.085,314.494l-5.72-4.085l0.817-0.817L180.085,314.494z
	 M176,309.592l-0.817-0.816l0.817-1.635V309.592z M290.391,258.116l32.686,1.634l4.085,0.817l4.086,7.354l10.621-0.816l2.451,6.536
	l2.449,2.451l0.816,2.451l-0.816,0.816l6.536,3.27l-0.814,0.816l3.269,4.086h1.636l2.45,3.268l6.536,4.086h-1.634v2.451l3.269,3.27
	l-0.815,3.271l-1.633-0.815l0.813,3.27l2.451,5.719l3.269,1.635l1.637,5.719l4.085,5.724l1.635,1.633l6.536-0.813l-1.633,4.084
	l4.085,0.815v2.45l2.449,3.271l13.072,13.892l17.978,0.815l19.607-0.815l7.354,9.804l-7.354,31.867l-43.305,18.791l-42.488,8.988
	l-13.069,7.354L332.065,443.6l-4.087,2.451h-2.45l-4.085-4.901l-13.894,0.815l-8.985-2.45l-20.426,1.635l-4.088-2.449h-3.269
	l-2.451,2.449l0.817,1.637l-1.635,1.633l0.817,6.538l-5.719,4.898l-0.817-4.084l-4.902-7.354l-1.634-4.901l-8.171-6.537
	l-7.354-12.256l-6.537-17.158l-2.452-0.814l-7.354-7.354h-3.268l-2.451-1.637l-6.537-8.986l-2.452-5.721l0.817-4.9l-1.634-4.086
	l1.634-10.621l-8.171-17.979l-7.354-7.353l-5.719-1.636l-4.903-8.987l1.634-1.636V319.4l-4.085-8.986l-2.451-1.635l-0.817-4.901
	l-2.452-0.817l-13.073-26.146l-4.902-6.537l-5.72-0.817l5.72-18.792l13.89,4.085l4.085-2.451l5.72-7.354l10.622-1.634l2.451-4.903
	l4.902-2.451L186.62,219.72l26.963-6.537l2.451-2.451l11.439,2.451l13.073,6.537l13.89,8.988L290.391,258.116z M259.342,133.921
	l-3.269,4.903l-4.085,3.268l-4.902,0.817l-1.634,2.451l0.817,11.439l-1.634,3.269l-0.817,10.622l-3.269,5.72l-6.537,2.451
	l-49.024,27.781l-9.805-4.085l-0.817-2.451l-2.451-1.635l2.451-2.451l-0.817-7.354l2.451-2.451l-0.817-0.817l0.817-2.452
	l4.902-0.817l-0.817-1.634l4.085-4.085l-0.817-3.269l-2.451-1.634l1.634-1.634l-5.719-0.817L176,165.787l0.817-8.988l-1.635-2.451
	l2.452-4.903l2.451,1.634l1.634-2.451h1.634v-3.269l4.085-0.817l-1.634-3.268l1.634-4.902l4.085,0.817l1.634,1.634h5.72l9.805-3.269
	l5.72,4.085h8.988l15.524-5.72l7.354,0.817l5.72-0.817l4.902-2.451h1.634L259.342,133.921z M66.512,69.372l-3.269-0.817l3.269-0.817
	l0.817,0.817L66.512,69.372z M176,54.665l0.817,2.452l4.085,3.269l4.085-1.635l1.634,0.818l2.451,5.719l2.451,1.634l0.817-1.634
	h2.451l3.269,3.268l8.171,1.634l1.634,1.634l5.72,1.634l12.256-2.451l5.719,2.451h4.085l9.805-4.085l4.902-4.085l4.085,1.634
	l0.817-1.634l6.536,1.634l0.817-2.451h2.451l4.902,4.085l0.817,2.451l1.634-0.817l0.817,2.451l2.451,1.634l0.817,2.451l-1.635,4.902
	l1.635,4.902l-0.817,0.817l3.271,1.634l4.085-0.818l6.536,5.72l-2.45-1.635l-3.269,6.537l-2.453-0.817l-1.633,0.817l0.814,2.451
	l1.635,0.817l-0.816,2.451l1.636,2.451l0.817,4.903l-0.817,1.634l2.45,0.817l-3.27,7.353l4.902,2.452l-0.817,1.634l0.817,3.269
	l2.449,2.451v2.451l-2.449-0.816l-4.086,3.268l-0.816-4.903l-1.635-0.817l-2.45,1.634h-4.086l-2.452-1.634l-7.354-0.817
	l-3.268,4.085h-1.634l-0.817-2.451l-12.256,3.271l-7.354-0.817l-15.524,5.72h-8.988l-5.72-4.085l-9.805,3.269h-5.72l-1.634-1.634
	l-4.085-0.817l-1.634,4.902l1.634,3.268l-4.085,0.817v3.269h-1.634l-1.634,2.451l-2.451-1.634l0.817-1.634l-1.634-4.902l4.902-4.903
	l-0.817-4.085L176,135.555l-4.085,3.269l-8.171-4.903l-5.719,3.269l-4.085,4.085l-4.085,1.634l-11.439,0.817l-4.902-2.451
	l-3.269-6.537l-8.171-4.903l-8.17-1.634l-4.085,8.988l-2.452-1.634l-6.537,1.634l-6.537-4.085l-1.634-5.72l-1.634,0.817
	l-4.085-3.268l-4.902,2.451h-0.817l0.817-2.451l-4.902,0.816l-2.452-0.816l6.537-0.817l4.085-2.452L73.05,120.03v-1.634l4.085-0.818
	l-4.902-8.17l2.451-0.817l0.817-4.085l-4.085-1.634l-1.634-2.451l-1.634,0.817l-3.269-3.271l2.451-1.634l-0.817-2.451l0.817-0.817
	h1.634l0.817,4.902l5.719-0.817h-1.634L72.232,94.7v-2.45l3.268-1.634l-2.451-1.634l0.817-2.452l-1.634-3.27l3.268-3.269h-8.988
	l2.451-8.17h1.634l5.72-4.903h6.536l1.634,2.451h4.085l0.817-0.817l-1.634-1.634h2.451l0.817,0.817l-0.817,1.634l12.256,1.634
	l0.817-0.817l-3.269-1.634l2.451-1.634h10.622l-5.72-1.634l-2.451-2.452v-3.268l1.634-1.634l8.17,2.451h4.903l5.72,2.451h5.719
	l1.634-2.451l13.89-6.537l9.805-1.634l8.988,1.634l9.805-0.817l1.635,0.817L176,54.665z M88.573,43.226l1.635,1.634l4.085-0.817
	l0.817,4.902l2.451,4.085l6.536,4.085l0.817,2.452l-3.268,1.634l-5.719-2.452l-4.085,0.818L89.39,58.75L68.963,70.189l1.634-3.269
	l7.354-4.085l-8.17-0.816v-1.634l4.085-3.269l0.817-4.085l3.269-1.634v-3.269L75.5,44.86l3.268-0.817l0.817-1.634l4.902-0.817h3.269
	L88.573,43.226z M429.293,504.056l6.536-1.635l4.902,1.635l-5.722,3.271l-5.72,0.814h-2.451l-4.086-2.448l1.635-1.637l1.637-0.814
	L429.293,504.056z M261.792,495.067l-0.817,0.814l1.634-1.635L261.792,495.067z M262.61,491.799l-1.634-0.813l0.817-0.817
	L262.61,491.799z M259.342,471.372v0.817l-0.817-0.817l0.817-1.634l0.816,0.814L259.342,471.372z M413.77,439.507l3.27,5.72
	l-9.805,4.901l-3.271,6.537l0.816,4.085l-13.073,8.171l-26.963,8.987l-6.537,3.269l-2.451,4.086l-4.085,3.271l-11.438,0.813
	l-7.354,5.723l-11.438,4.086l-15.524,1.633l-4.086,4.086l-3.269,0.814l-1.635,2.451l-2.451,0.816l-4.086-0.816l-5.721,3.271h-4.9
	l-4.085-1.633l-2.451,0.813v-2.451l-4.085-6.535l0.817-5.721l-3.268-4.899v-4.903l-2.452-7.354l0.817-1.635l-1.634-3.269
	l-3.269-0.816l0.817-1.635l1.634,0.814l-0.817-5.72l1.635-5.72l-0.817-4.902l5.719-4.898l-0.817-6.538l1.635-1.634l-0.817-1.637
	l2.451-2.451h3.269l4.085,2.451l13.891-1.634h6.535l8.986,2.45l13.894-0.816l4.085,4.902h2.451l4.086-2.451l10.622-16.342
	l13.069-7.354l42.488-8.985L413.77,439.507z"/>
</svg>
