<?xml version="1.0" encoding="utf-8"?>
<!-- Generator: Adobe Illustrator 16.0.0, SVG Export Plug-In . SVG Version: 6.00 Build 0)  -->
<!DOCTYPE svg PUBLIC "-//W3C//DTD SVG 1.1//EN" "http://www.w3.org/Graphics/SVG/1.1/DTD/svg11.dtd">
<svg version="1.1" id="North_America" xmlns="http://www.w3.org/2000/svg" xmlns:xlink="http://www.w3.org/1999/xlink" x="0px"
	 y="0px" width="550px" height="549.906px" viewBox="0 0 550 549.906" enable-background="new 0 0 550 549.906"
	 xml:space="preserve">
<path d="M396.261,547.539c-0.339,0.104-0.689,0.158-1.048,0.158c-0.223,0-0.445-0.021-0.667-0.062
	c-0.927-0.178-1.745-0.719-2.271-1.502l-0.692-1.029l-2.971,0.423l-0.554,0.739c-0.59,0.799-1.484,1.312-2.473,1.412
	c-0.124,0.017-0.248,0.021-0.371,0.021c-0.855,0-1.689-0.312-2.342-0.887l-0.623-0.552h-1.789c-1.771,0-3.271-1.311-3.508-3.065
	l-0.197-1.464l-6.182-3.108c-0.036-0.006-0.072-0.01-0.109-0.017l-0.229,0.122c-0.512,0.27-1.075,0.405-1.649,0.405h-0.156
	c-0.521,0.291-1.11,0.447-1.721,0.447h-1.932c-1.955,0-3.541-1.584-3.541-3.539v-2.07c-0.912-0.479-1.584-1.352-1.809-2.393
	c-0.089-0.418-0.101-0.84-0.04-1.248l-11.613-6.885c-0.619-0.367-1.099-0.904-1.395-1.523c-0.646,0.646-1.536,1.029-2.492,1.029
	c-0.137,0-0.271-0.008-0.41-0.023l-20.44-2.377c-0.469-0.055-0.922-0.201-1.332-0.434l-20.62-11.646l-14.835,3.494
	c-0.269,0.062-0.539,0.094-0.812,0.094c-0.354,0-0.705-0.051-1.045-0.155l-24.708-7.625l-7.619-2.375
	c-0.402-0.125-0.78-0.322-1.113-0.578l-5.57-4.312l-10.239-2.69c-0.54-0.144-1.039-0.408-1.456-0.781l-13.809-12.322
	c-0.347-0.309-0.629-0.684-0.831-1.102l-1.387-2.871c-0.454-0.943-0.47-2.037-0.042-2.99c0.249-0.553,0.632-1.027,1.105-1.381
	c0.057-0.436,0.195-0.863,0.419-1.266l1.504-2.695l-3.744-8.236l-12.817-12.858c-0.662-0.664-1.032-1.562-1.032-2.498v-1.334
	l-6.871-4.211c-1.559-0.957-2.133-2.943-1.324-4.589l0.758-1.53l-6.77-6.771c-0.778-0.776-1.15-1.875-1.006-2.967l0.087-0.658
	l-0.784-0.203c-0.795-0.207-1.491-0.682-1.974-1.346l-4.132-5.688c-0.073-0.011-0.146-0.021-0.218-0.029l0.194,1.893l6.582,9.188
	c0.269,0.375,0.462,0.801,0.567,1.25l3.427,14.561l4.2,2.082c0.874,0.437,1.531,1.209,1.815,2.144l1.884,6.188
	c0.541,1.779-0.387,3.674-2.124,4.338l-3.761,1.438c-0.416,0.158-0.842,0.231-1.262,0.231c-1.399,0-2.722-0.836-3.28-2.209
	l-1.632-4.016l-10.796-9.906c-0.775-0.711-1.194-1.729-1.143-2.78l0.38-7.722l-3.058-3.828l-0.251,0.129
	c-0.509,0.261-1.058,0.388-1.604,0.388c-0.947,0-1.882-0.386-2.566-1.104l-8.563-9.01c-1.091-1.148-1.287-2.881-0.48-4.242
	c0.648-1.096,1.817-1.738,3.046-1.738c0.3,0,0.604,0.039,0.905,0.119l1.647,0.437l0.298-0.513l-7.547-9.485
	c-0.159-0.201-0.298-0.42-0.41-0.65l-0.944-1.932c-0.111-0.229-0.197-0.465-0.258-0.711l-6.02-24.51l-4.355-5.978l-7.36-4.338
	l-3.367-1.883c-1.376-0.771-2.078-2.354-1.722-3.892l0.746-3.211l-6.298-16.611c-0.201-0.526-0.271-1.1-0.207-1.659l0.339-2.933
	c-0.983-0.389-1.76-1.203-2.084-2.242l-2.374-7.623c-0.091-0.295-0.144-0.6-0.156-0.905l-0.498-12.324
	c-0.026-0.664,0.134-1.317,0.462-1.896l3.391-5.943l0.455-9.594c0.019-0.422,0.114-0.836,0.28-1.227l9.281-21.709
	c-0.159-0.84-0.01-1.717,0.435-2.464l0.813-1.371c-0.284-0.572-0.41-1.215-0.356-1.864l0.938-11.385
	c0.005-0.055,0.011-0.109,0.018-0.163c-0.438-0.462-0.746-1.039-0.886-1.673c-0.029-0.138-0.052-0.276-0.064-0.415
	c-0.834-0.42-1.494-1.166-1.789-2.11l-2.599-8.346l-2.059-0.892c-1.17-0.507-1.977-1.604-2.113-2.872
	c-0.057-0.538,0.01-1.071,0.186-1.563c-0.065-0.185-0.116-0.376-0.15-0.573l-0.497-2.82c-0.246-1.394,0.361-2.8,1.545-3.575
	c0.589-0.387,1.265-0.58,1.94-0.58c0.273,0,0.547,0.032,0.814,0.095c0.115-0.683,0.427-1.312,0.89-1.814v-0.916
	c0-0.549,0.127-1.083,0.364-1.564c-0.417-0.34-0.762-0.781-0.995-1.306c-0.273-0.617-0.357-1.272-0.273-1.898
	c-0.021-0.16-0.033-0.324-0.033-0.491v-0.42c-0.858-0.929-1.163-2.258-0.77-3.484l0.657-2.045c-0.108-0.213-0.195-0.439-0.26-0.675
	l-1.432-5.246c-0.098-0.356-0.137-0.715-0.124-1.066l-1.589,1.465c0.48,0.72,0.689,1.603,0.56,2.484
	c-0.16,1.084-0.812,2.024-1.748,2.558l0.755,3.253c0.428,1.841-0.666,3.692-2.485,4.206c-0.321,0.091-0.645,0.134-0.964,0.134
	c-1.485,0-2.861-0.941-3.354-2.416l-2.87-8.563c-0.188-0.562-0.232-1.162-0.129-1.745l1.436-8.067
	c0.22-1.239,1.083-2.27,2.265-2.703c0.397-0.146,0.81-0.217,1.22-0.217c0.684,0,1.362,0.199,1.943,0.581l-0.07-0.456l-1.479-2.158
	c-0.84-1.228-0.807-2.81-0.009-3.986c-0.142-0.545-0.154-1.126-0.02-1.697c-0.991-0.992-1.332-2.52-0.757-3.88l1.972-4.669
	c-0.359-0.722-0.464-1.552-0.284-2.349c-0.223-0.041-0.443-0.103-0.66-0.188c-1.626-0.637-2.544-2.364-2.163-4.067l0.9-4.026
	c-0.157-0.252-0.285-0.529-0.376-0.823l-4.223-13.645c-0.535-0.496-0.908-1.148-1.06-1.875l-0.642-3.075l-6.979-3.491
	c-1.333-0.667-2.104-2.096-1.933-3.575l0.192-1.658l-1.02-0.681c-0.798-0.533-1.345-1.367-1.517-2.311
	c-0.056-0.301-0.069-0.604-0.048-0.904c-0.1,0.056-0.203,0.107-0.31,0.153l-3.316,1.436c-0.456,0.197-0.933,0.292-1.404,0.292
	c-0.817,0-1.616-0.283-2.253-0.808c-0.485,0.238-1.02,0.361-1.561,0.361c-0.156,0-0.313-0.01-0.471-0.031
	c-0.154,0.021-0.311,0.031-0.469,0.031c-0.231,0-0.465-0.022-0.698-0.069l-7.131-1.434c-0.188-0.038-0.371-0.09-0.548-0.156
	c0.095,0.673-0.006,1.372-0.31,2.01c-0.588,1.232-1.83,2.018-3.196,2.018h-0.188c-0.163,0.306-0.372,0.592-0.627,0.846l-2.381,2.375
	c-0.668,0.667-1.569,1.034-2.5,1.034c-0.163,0-0.327-0.012-0.491-0.035c-0.162,0.021-0.327,0.035-0.495,0.035H71.18
	c-1.589,0-2.983-1.061-3.409-2.59c-0.336-1.205-0.007-2.469,0.812-3.354v-2.347c0-0.245,0.024-0.487,0.073-0.722l-16.069,1.871
	c-0.138,0.017-0.273,0.024-0.41,0.024c-1.145,0-2.23-0.556-2.897-1.508c-0.324-0.462-0.526-0.985-0.604-1.524l-1.88-0.34
	c-0.443-0.081-0.859-0.243-1.233-0.475c-0.17,0.025-0.341,0.038-0.512,0.038c-0.579,0-1.158-0.143-1.681-0.424
	c-0.268-0.145-0.513-0.321-0.73-0.523c-0.253-0.002-0.507-0.032-0.76-0.09c-0.133-0.031-0.265-0.069-0.394-0.115
	c-0.013,0.005-0.025,0.01-0.039,0.014c-0.375,0.129-0.763,0.191-1.146,0.191c-0.91,0-1.802-0.351-2.474-1.007l-1.958-1.911
	l-2.378-2.374c-0.21-0.21-0.39-0.442-0.537-0.689c-0.495,0.38-1.09,0.63-1.731,0.707l-2.608,0.316
	c-0.381,0.135-0.782,0.204-1.186,0.204c-0.156,0-0.312-0.01-0.466-0.031h-0.002c-0.156,0.021-0.313,0.032-0.47,0.032
	c-0.643,0-1.276-0.175-1.831-0.51l-2.377-1.437c-1.591-0.962-2.167-2.992-1.317-4.646c0.623-1.215,1.86-1.923,3.15-1.923
	c0.466,0,0.939,0.093,1.394,0.287l0.868,0.372l0.223-0.277c0.672-0.836,1.688-1.322,2.759-1.322c0.015,0,0.03,0,0.044,0
	c1.087,0.014,2.109,0.526,2.769,1.391l1.438,1.882c0.083,0.107,0.157,0.218,0.226,0.333c0.613-0.471,1.37-0.733,2.157-0.733
	c0.228,0,0.457,0.022,0.687,0.067l4.751,0.938c0.933,0.184,1.71,0.72,2.217,1.446l0.52-0.057c0.095-0.011,0.189-0.017,0.285-0.02
	l4.486-0.47c0.124-0.013,0.248-0.019,0.37-0.019c1.272,0,2.46,0.687,3.09,1.814l0.142,0.253c0.589-0.408,1.291-0.631,2.017-0.631
	h1.386c0.101,0,0.202,0.004,0.303,0.013l9.188,0.79l1.348-1.487c-1.131-0.791-1.699-2.167-1.456-3.527l0.679-3.785l-3.309-1.379
	c-1.484-0.619-2.365-2.163-2.144-3.756c0.223-1.594,1.49-2.837,3.089-3.026l2.202-0.262l1.686-2.369l-2.059-1.313
	c-0.904-0.577-1.498-1.533-1.615-2.6c-0.04-0.375-0.021-0.75,0.055-1.11h-0.345c-1.049,0-2.043-0.465-2.716-1.269
	c-0.672-0.804-0.953-1.865-0.768-2.897l0.94-5.246c0.215-1.195,1.026-2.198,2.153-2.655c0.429-0.175,0.88-0.26,1.331-0.26
	c0.729,0,1.451,0.226,2.062,0.664l2.755,1.975c0.025-0.06,0.054-0.12,0.082-0.179l1.437-2.87c0.438-0.875,1.219-1.529,2.157-1.809
	l12.813-3.813c0.33-0.098,0.67-0.146,1.009-0.146c0.668,0,1.328,0.188,1.902,0.555c0.866,0.552,1.45,1.452,1.6,2.467l0.002,0.012
	l1.38-0.144c0.123-0.013,0.246-0.019,0.368-0.019c0.167,0,0.332,0.012,0.495,0.035c-0.165-0.438-0.239-0.899-0.226-1.356
	l-2.948-5.94c-0.562-1.131-0.478-2.475,0.22-3.528l2.819-4.259c0.34-0.514,0.806-0.925,1.344-1.2v-1.102
	c0-1.138,0.547-2.206,1.471-2.872c0.609-0.439,1.335-0.668,2.069-0.668c0.376,0,0.754,0.062,1.119,0.182l9.949,3.317
	c0.151,0.05,0.3,0.111,0.441,0.181c0.069-0.085,0.144-0.167,0.222-0.246l2.066-2.101l1.235-6.565
	c0.258-1.363,1.286-2.451,2.632-2.783l3.81-0.938c0.281-0.069,0.564-0.103,0.847-0.103c0.928,0,1.832,0.365,2.504,1.037l2.018,2.018
	l6.203-1.065l2.312-0.482c0.238-0.049,0.48-0.074,0.723-0.074c0.379,0,0.758,0.061,1.119,0.182l4.135,1.379
	c0.308-0.084,0.621-0.125,0.933-0.125c0.921,0,1.826,0.359,2.505,1.038l1.196,1.197l3.587-0.337c0.11-0.011,0.223-0.016,0.332-0.016
	c1.03,0,2.016,0.45,2.691,1.241c0.748,0.876,1.023,2.062,0.737,3.178l-0.161,0.63c0.256,0.615,0.337,1.298,0.219,1.973l-0.14,0.793
	l1.286,1.063c0.917,0.759,1.392,1.927,1.263,3.11c-0.081,0.741-0.391,1.426-0.871,1.967l11.136,10.294
	c0.197,0.182,0.372,0.385,0.522,0.605l0.945,1.386c0.09,0.132,0.171,0.27,0.242,0.412l2.812,5.628l2.612,4.411
	c0.002,0,5.251-1.388,5.251-1.388c0.299-0.079,0.603-0.118,0.904-0.118c0.938,0,1.851,0.373,2.524,1.059
	c0.627,0.637,0.979,1.476,1.014,2.343l5.145-0.936l3.127-0.933c0.335-0.1,0.676-0.147,1.011-0.147c0.652,0,1.287,0.181,1.835,0.513
	c0.538-0.505,1.236-0.845,2.018-0.935c0.137-0.015,0.271-0.023,0.406-0.023c1.627,0,3.07,1.121,3.445,2.74l0.796,3.429
	c0.676-0.641,1.554-0.972,2.438-0.972c0.707,0,1.416,0.211,2.031,0.642c1.254,0.878,1.779,2.443,1.372,3.87l1.327-0.175
	c0.155-0.021,0.31-0.031,0.463-0.031c0.849,0,1.674,0.305,2.322,0.868l3.783,3.288l1.876,1.591l-0.003-0.013
	c-0.055-0.25-0.083-0.507-0.083-0.764v-0.494c0-0.826,0.288-1.621,0.809-2.252c-0.164-0.334-0.277-0.7-0.329-1.086L213.534,107
	c-0.039-0.281-0.043-0.56-0.015-0.831c-0.096,0.021-0.191,0.039-0.289,0.053l-6.631,0.938c-0.168,0.024-0.335,0.035-0.5,0.035
	c-1.734,0-3.249-1.275-3.5-3.042l-0.653-4.595l-0.466-0.185c-1.136-0.45-1.959-1.454-2.178-2.655c-0.22-1.202,0.196-2.431,1.1-3.253
	l8.626-7.852l-0.259-2.476c-0.109-1.043,0.25-2.081,0.98-2.833c0.67-0.688,1.587-1.074,2.54-1.074c0.088,0,0.176,0.003,0.265,0.01
	l6.627,0.497c1.073,0.08,2.05,0.643,2.657,1.53l1.811,2.646l0.956-0.281c0.169-0.05,0.339-0.086,0.51-0.11
	c-0.806-0.725-1.236-1.782-1.164-2.867c-0.857-0.453-1.516-1.252-1.773-2.239c-0.074-0.287-0.111-0.576-0.114-0.862l-0.356,0.089
	c-0.286,0.071-0.574,0.106-0.858,0.106c-1.348,0-2.613-0.774-3.205-2.042c-0.719-1.535-0.248-3.362,1.121-4.359l7.069-5.151
	l1.772-1.351c0.611-0.507,1.397-0.812,2.254-0.812h3.81c0.646,0,1.278,0.176,1.83,0.51l1.266,0.765l0.06-0.312
	c0.128-0.683,0.452-1.308,0.927-1.801c0.16-0.981,0.731-1.879,1.621-2.433l3.81-2.375c0.577-0.36,1.226-0.536,1.871-0.536
	c0.898,0,1.79,0.342,2.47,1.003l1.932,1.879c0.194,0.189,0.364,0.397,0.508,0.62l-0.34-2.318c-0.19-1.291,0.347-2.581,1.394-3.357
	c0.621-0.46,1.361-0.696,2.107-0.696c0.514,0,1.029,0.112,1.511,0.339l7.125,3.361c0.06,0.028,0.118,0.058,0.176,0.089
	c0.453-0.245,0.948-0.384,1.45-0.417c-1.153-0.592-1.923-1.792-1.923-3.149V53.76c0-0.235,0.023-0.468,0.068-0.694
	c-0.091-0.457-0.093-0.935,0.004-1.407c0.14-0.678,0.471-1.286,0.938-1.763c-0.082-0.722,0.058-1.473,0.439-2.145l1.884-3.316
	c0.278-0.49,0.666-0.9,1.124-1.203c0.188-0.625,0.55-1.199,1.064-1.647l3.809-3.315c0.195-0.17,0.405-0.315,0.627-0.437l0.397-0.817
	c0.526-1.084,1.549-1.796,2.685-1.958c0.02-0.026,1.494-1.958,1.494-1.958c0.097-0.125,0.2-0.244,0.312-0.356l1.887-1.882
	c0.48-0.482,1.096-0.815,1.764-0.958l9.055-1.931c0.244-0.052,0.49-0.078,0.736-0.078c0.133,0,0.266,0.007,0.395,0.022l0.111-0.099
	c0.654-0.565,1.48-0.862,2.316-0.862c0.42,0,0.842,0.075,1.247,0.227l3.669,1.381l0.771-1.074c0.092-0.129,0.191-0.252,0.301-0.366
	c-0.049-0.396-0.03-0.805,0.06-1.211c0.207-0.925,0.767-1.7,1.521-2.192c0.002-0.006,0.004-0.012,0.006-0.018l-1.101-1.823
	c-0.628-1.043-0.677-2.335-0.129-3.422c0.172-0.339,0.396-0.644,0.654-0.905c-0.019-0.077-0.033-0.154-0.046-0.229
	c-0.174-1.028,0.117-2.079,0.791-2.874l5.246-6.188c0.69-0.815,1.688-1.25,2.7-1.25c0.239,0,0.479,0.024,0.721,0.074
	c0.233-0.049,0.477-0.074,0.717-0.074c0.545,0,1.09,0.126,1.588,0.376l0.441-0.531c0.674-0.813,1.673-1.281,2.724-1.281
	c0.042,0,0.084,0.001,0.126,0.002c0.742,0.026,1.447,0.285,2.024,0.726c-0.017-0.812,0.252-1.612,0.765-2.259l1.88-2.374
	c0.688-0.866,1.718-1.342,2.776-1.342c0.426,0,0.854,0.077,1.271,0.237l6.186,2.383c0.649,0.251,1.201,0.685,1.6,1.234
	c1.188,0.168,2.229,0.933,2.733,2.058l0.139,0.311c0.146-0.019,0.293-0.028,0.438-0.028c0.567,0,1.144,0.138,1.666,0.418l7.134,3.81
	c0.144,0.077,0.278,0.164,0.414,0.26l3.174,2.31l1.174-0.403l1.387-0.495c0.396-0.14,0.795-0.207,1.19-0.207
	c0.317,0,0.634,0.043,0.937,0.127c0.572-0.372,1.244-0.573,1.935-0.573c0.277,0,0.562,0.034,0.846,0.103l3.812,0.939
	c1.53,0.377,2.625,1.722,2.688,3.288c0.233-0.048,0.474-0.073,0.718-0.073c0.035,0,0.07,0,0.105,0.001
	c0.746,0.022,1.441,0.277,2.016,0.704c0.229-0.082,0.461-0.14,0.7-0.174c0.651-0.908,1.713-1.477,2.877-1.477h3.364
	c1.098,0,2.132,0.508,2.802,1.376c0.44,0.569,0.69,1.25,0.732,1.952c0.853,0.054,1.667,0.415,2.278,1.029l1.438,1.435
	c0.272,0.275,0.501,0.593,0.671,0.936c0.127,0.029,0.252,0.065,0.377,0.109l2.818,0.99c1.258,0.442,2.159,1.554,2.336,2.876
	l0.152,1.175h1.098c1.284,0,2.461,0.695,3.084,1.802l1.04,0.092c0.837,0.075,1.595,0.44,2.166,1.001
	c0.127-0.014,0.253-0.021,0.38-0.021c0.603,0,1.196,0.154,1.727,0.449c0.056-0.002,0.104-0.003,0.155-0.003
	c0.806,0,1.594,0.274,2.229,0.791l1.406,1.14h2.998c1.562,0,2.884,1.009,3.355,2.41c0.017,0.002,0.03,0.005,0.049,0.007
	c1.111,0.169,2.079,0.857,2.603,1.853l0.448,0.854L413,48.271c0.256,0.457,0.407,0.964,0.443,1.486l0.498,7.128
	c0.021,0.317,0,0.633-0.062,0.939c0.15,0.75,0.061,1.55-0.306,2.277l-0.772,1.542c0.08,0.226,0.139,0.461,0.17,0.705l0.312,2.311
	l6.037,7.288c0.676,0.814,0.928,1.854,0.766,2.835c0.383,0.646,0.562,1.416,0.469,2.213l-0.33,2.801
	c0.303,0.621,0.418,1.328,0.314,2.04c-0.066,0.466-0.227,0.905-0.455,1.296c0.135,0.822-0.018,1.691-0.488,2.446l-0.903,1.457
	l0.85,0.851c0.58,0.581,0.935,1.337,1.018,2.137l0.976,0.327c0.975,0.328,1.758,1.063,2.146,2.016
	c0.069,0.17,0.126,0.344,0.167,0.52l1.927,0.981c1.188,0.604,1.936,1.823,1.936,3.154c0,0.159-0.01,0.316-0.031,0.471
	c0.021,0.128,0.027,0.259,0.031,0.389c0.35,0.362,0.623,0.801,0.794,1.292c0.679,0.627,1.104,1.515,1.134,2.495
	c0.003,0.086,0.002,0.171-0.002,0.257c0.119,0.212,0.218,0.438,0.291,0.674c0.129,0.413,0.179,0.841,0.154,1.265
	c0.479,0.245,0.899,0.598,1.227,1.031c1.409,0.182,2.541,1.18,2.938,2.488c0.104,0.07,0.209,0.146,0.309,0.229
	c0.506,0.421,0.872,0.963,1.078,1.556c0.004,0.002,0.006,0.005,0.008,0.007c0.611,0.566,0.986,1.312,1.1,2.101
	c0.234,0.17,0.449,0.37,0.641,0.595c0.686,0.569,1.122,1.371,1.241,2.237c0.949,0.321,1.738,1.039,2.138,1.999
	c0.136,0.329,0.22,0.671,0.253,1.014c1.006,0.506,1.744,1.479,1.914,2.659c0.25,1.742-0.817,3.404-2.507,3.9l-0.346,0.102
	c0.137,1.523-0.729,2.979-2.157,3.579c-0.444,0.187-0.908,0.276-1.367,0.276c-0.024,0-0.049,0-0.073,0
	c-0.261,0.154-0.544,0.277-0.847,0.362c-0.319,0.091-0.645,0.134-0.962,0.134c-0.844,0-1.653-0.302-2.288-0.839
	c-0.418,0.199-0.88,0.318-1.365,0.34c-0.053,0.002-0.104,0.003-0.157,0.003c-0.515,0-1.009-0.112-1.457-0.312l-0.004,0.006
	c-0.398,1.014-1.246,1.786-2.293,2.094c-0.326,0.096-0.664,0.144-0.996,0.144c-0.73,0-1.457-0.228-2.062-0.664l-1.34-0.961
	l-0.842,0.55c-0.593,0.388-1.268,0.58-1.938,0.58c-0.242,0-0.481-0.024-0.719-0.074c-0.236,0.049-0.479,0.074-0.722,0.074
	c-0.721,0-1.442-0.22-2.064-0.667c-0.363-0.262-0.665-0.582-0.897-0.939c-0.229-0.075-0.45-0.171-0.659-0.289
	c-0.147-0.014-0.301-0.037-0.447-0.069c-0.899-0.198-1.666-0.732-2.166-1.466c-0.297,0.077-0.596,0.113-0.891,0.113
	c-1.287,0-2.493-0.708-3.111-1.86c-0.572-0.308-1.063-0.776-1.4-1.372l-0.223-0.393c-0.465,0.209-0.957,0.31-1.443,0.31
	c-0.903,0-1.791-0.348-2.459-0.993c-0.498-0.011-0.996-0.127-1.461-0.354c-0.787-0.38-1.389-1.03-1.719-1.806
	c-0.146-0.062-0.289-0.134-0.428-0.216c-0.024,0-0.052,0.001-0.074,0.001c-0.812,0-1.609-0.277-2.26-0.812l-2.868-2.375
	c-0.122-0.102-0.236-0.21-0.345-0.325c-0.296-0.216-0.558-0.481-0.773-0.787l-0.646-0.902c-0.628-0.038-1.252-0.243-1.801-0.622
	c-0.117-0.082-0.229-0.17-0.336-0.263l-2.416-0.675c-0.549-0.154-1.047-0.436-1.457-0.816c-0.055-0.001-0.108-0.003-0.164-0.005
	c-1.6-0.092-2.897-1.236-3.247-2.737c-0.807-0.399-1.45-1.101-1.766-1.987c-0.001-0.002-0.001-0.004-0.002-0.006
	c-0.121-0.162-0.229-0.333-0.317-0.51c-0.054,0.003-0.104,0.004-0.161,0.004c-1.22,0-2.376-0.633-3.023-1.704
	c-0.13-0.215-0.236-0.44-0.316-0.672c-0.438-0.405-0.755-0.9-0.939-1.436c-0.084-0.114-0.161-0.233-0.231-0.359L374.213,99
	c-0.039-0.027-0.078-0.055-0.116-0.083c-0.176-0.063-0.349-0.141-0.517-0.233c-1.443-0.794-2.147-2.48-1.699-4.065l0.093-0.326
	c-0.562,0.369-1.23,0.575-1.933,0.575c-0.048,0-0.097-0.001-0.146-0.003c-0.729-0.029-1.411-0.281-1.973-0.699
	c-0.388,0.14-0.793,0.208-1.198,0.208c-0.908,0-1.813-0.35-2.503-1.037l-3.316-3.317c-0.469-0.466-0.788-1.047-0.938-1.674
	c-0.729-0.345-1.337-0.936-1.692-1.695c-0.459-0.975-0.441-2.089,0.01-3.034l-3.146,0.72c-0.262,0.061-0.524,0.09-0.791,0.09
	c-0.729,0-1.456-0.229-2.062-0.663c-0.825-0.592-1.356-1.51-1.459-2.52l-0.115-1.134c-1.217-0.112-2.325-0.854-2.873-2.008
	c-0.108-0.231-0.192-0.47-0.25-0.712l-0.781-0.208c-0.515-0.137-0.99-0.388-1.396-0.735l-3.826-3.285
	c-0.46,0.213-0.968,0.329-1.489,0.329c-0.187,0-0.375-0.015-0.562-0.045c-1.541-0.249-2.738-1.479-2.945-3.025l-0.135-1.012
	l-9.646-2.731c-0.113-0.033-0.229-0.071-0.34-0.115l-1.404-0.557l-1.895,0.375l-0.701,1.644c-0.204,0.479-0.506,0.896-0.877,1.233
	c-0.452,1.217-1.546,2.105-2.862,2.276l-3.812,0.494c-0.151,0.02-0.305,0.029-0.455,0.029c-0.548,0-1.09-0.127-1.583-0.374
	l-2.871-1.436c-0.826-0.414-1.457-1.134-1.759-2.002h-1.411c-1.646,0-3.071-1.132-3.446-2.732c-0.134-0.568-0.121-1.143,0.017-1.68
	l-2.759-0.681c-0.39,1.011-1.229,1.81-2.309,2.125c0.938,0.418,1.674,1.235,1.967,2.27l0.938,3.315
	c0.386,1.359-0.074,2.817-1.17,3.71l-0.293,0.236c1.205,0.565,2.039,1.789,2.039,3.207v0.164c0.625,0.321,1.149,0.826,1.5,1.466
	c0.617,1.143,0.561,2.533-0.15,3.621l-0.938,1.437c-0.174,0.264-0.379,0.503-0.615,0.711c0.012,0,5.725,0,5.725,0
	c0.728,0,1.435,0.223,2.027,0.638l4.746,3.316c0.317,0.223,0.595,0.493,0.816,0.796c1.05,0.008,2.042,0.481,2.709,1.293
	c0.152,0.186,0.285,0.386,0.396,0.595c0.077-0.005,0.157-0.008,0.234-0.008c0.812,0,1.616,0.277,2.271,0.824
	c0.271,0.229,0.506,0.494,0.694,0.782c0.117,0.038,0.233,0.083,0.351,0.134c0.455-0.202,0.945-0.304,1.438-0.304
	c0.429,0,0.854,0.077,1.264,0.232l3.761,1.436c0.162,0.062,0.318,0.136,0.467,0.219c0.068-0.004,0.137-0.006,0.202-0.006
	c0.348,0,0.699,0.051,1.045,0.158c0.294,0.091,0.569,0.218,0.821,0.374c0.165-0.024,0.334-0.036,0.505-0.036
	c0.083,0,0.167,0.003,0.251,0.009c0.631,0.044,1.213,0.252,1.707,0.58l3.209,0.374c1.006,0.117,1.907,0.659,2.482,1.478l1.809,0.903
	c1.021,0.129,1.946,0.7,2.52,1.575l0.938,1.436c0.132,0.201,0.24,0.41,0.326,0.625l1.907,1.153c1.274,0.771,1.935,2.258,1.644,3.72
	c-0.006,0.028-0.012,0.056-0.019,0.084c0.896,0.163,1.696,0.667,2.232,1.406c0.149-0.021,0.3-0.028,0.449-0.028
	c0.681,0,1.342,0.198,1.904,0.557c0.27-0.172,0.562-0.308,0.872-0.403c0.339-0.104,0.688-0.154,1.032-0.154
	c0.604,0,1.21,0.156,1.745,0.461l1.709,0.969c0.478-0.28,1.021-0.452,1.608-0.483c0.062-0.003,0.125-0.004,0.188-0.004
	c0.863,0,1.665,0.312,2.285,0.838c0.479-0.229,1-0.345,1.523-0.345c0.461,0,0.926,0.09,1.362,0.274l3.318,1.387
	c1.176,0.491,1.994,1.574,2.148,2.837c0.017,0.135,0.022,0.271,0.024,0.405c0.556,0.6,0.896,1.387,0.937,2.239
	c0.01,0.227-0.001,0.45-0.033,0.669c0.37,0.594,0.566,1.3,0.529,2.041c-0.025,0.543-0.175,1.057-0.42,1.511
	c0.545,1.01,0.579,2.251,0.022,3.317c-0.118,0.229-0.26,0.439-0.42,0.631l0.639,0.925c0.859,1.252,0.826,2.914-0.085,4.13
	c-0.396,0.526-0.915,0.918-1.495,1.155c0.052,0.11,0.097,0.224,0.136,0.34l0.229,0.051c0.896,0.197,1.676,0.732,2.185,1.494
	l2.868,4.306c0.611,0.919,0.746,2.042,0.427,3.043l0.748,0.872c1.007,1.174,1.135,2.865,0.315,4.177
	c-0.259,0.413-0.592,0.758-0.973,1.026l0.395-0.238c0.562-0.34,1.195-0.511,1.831-0.511c0.602,0,1.198,0.152,1.738,0.457
	c1.112,0.627,1.803,1.806,1.803,3.083v2.377c0,1.173-0.581,2.27-1.553,2.928c-0.595,0.404-1.29,0.612-1.988,0.612
	c-0.438,0-0.884-0.083-1.306-0.25l-2.373-0.942c-0.63-0.249-1.16-0.667-1.547-1.191l-20.486-0.437
	c-0.619-0.013-1.227-0.189-1.758-0.51l-2.373-1.436c-0.574-0.348-1.029-0.848-1.326-1.432c-0.897-0.073-1.739-0.488-2.35-1.166
	l-1.074-1.199c-0.033,0.001-0.065,0.001-0.102,0.001c-0.285,0-0.571-0.035-0.854-0.104c-0.32,0.216-0.685,0.38-1.066,0.481
	l-10.938,2.872c-0.297,0.078-0.598,0.116-0.896,0.116c-0.732,0-1.456-0.229-2.063-0.664c-0.854-0.615-1.395-1.579-1.468-2.631
	l-0.496-7.128c-0.067-0.979,0.271-1.942,0.942-2.66c0.669-0.718,1.604-1.125,2.589-1.125h4.274l0.421-0.249l-0.707-0.562
	c-1.232-0.976-1.676-2.649-1.084-4.105l1.676-4.128c0.004-0.053,0.008-0.106,0.014-0.16l0.257-2.435
	c-0.332,0.102-0.683,0.157-1.042,0.157h-0.354l0.002,0.01c0.316,1.456-0.311,2.954-1.567,3.749l-3.764,2.376
	c-0.573,0.362-1.229,0.547-1.893,0.547c-0.436,0-0.869-0.08-1.285-0.242c-1.046-0.408-1.839-1.289-2.132-2.374l-1.929-7.129
	c-0.122-0.449-0.151-0.91-0.097-1.359c-0.786-0.832-1.146-2.021-0.886-3.197l0.241-1.098c-0.34,0.104-0.688,0.157-1.04,0.157
	c-0.578,0-1.154-0.144-1.68-0.424c-0.085-0.046-0.169-0.095-0.249-0.148c-0.382-0.104-0.748-0.274-1.08-0.504l-0.496,1.016
	c-0.416,0.854-1.146,1.489-2.016,1.792c-0.003,0.289-0.04,0.579-0.113,0.861c0.947,0.644,1.527,1.71,1.55,2.863
	c0.018,0.904-0.312,1.768-0.9,2.425l2.719,2.698c1.045,1.036,1.34,2.608,0.742,3.952l-3.657,8.219
	c1.491,0.699,2.307,2.338,1.957,3.953c-0.061,0.281-0.152,0.548-0.273,0.798l5.021,2.385c0.698,0.333,1.258,0.878,1.609,1.542
	c0.062-0.003,0.122-0.005,0.184-0.005c0.603,0,1.203,0.153,1.746,0.46l3.314,1.879c0.641,0.362,1.145,0.909,1.452,1.561
	c0.508-0.503,1.162-0.852,1.896-0.978l2.871-0.494c0.199-0.035,0.398-0.052,0.601-0.052c0.952,0,1.875,0.385,2.548,1.083
	c0.813,0.844,1.157,2.036,0.916,3.183l-0.207,0.995l7.738,0.33l0.438-1.042c0.396-0.946,1.185-1.674,2.157-1.995
	c0.36-0.118,0.733-0.177,1.104-0.177c0.633,0,1.262,0.169,1.814,0.501l5.625,3.361l0.753-0.297c0.421-0.167,0.859-0.249,1.304-0.249
	c0.505,0,1.009,0.108,1.477,0.323c0.877,0.403,1.555,1.146,1.869,2.058l0.229,0.654l1.282,0.086c0.493-1.191,1.61-2.038,2.931-2.165
	c0.112-0.011,0.228-0.017,0.341-0.017c1.412,0,2.703,0.844,3.261,2.164l2.819,6.68c0.212,0.504,0.299,1.031,0.271,1.545l0.248,0.548
	c0.01,0,0.019,0,0.025,0c0.569,0,1.142,0.138,1.661,0.414c0.877,0.466,1.512,1.275,1.762,2.223c0.428-0.173,0.879-0.26,1.33-0.26
	c0.537,0,1.071,0.122,1.562,0.364c0.326,0.161,0.623,0.369,0.88,0.615l0.27-1.415c0.099-0.519,0.31-0.999,0.605-1.412
	c-0.032-0.09-0.062-0.181-0.092-0.273c-0.208-0.726-0.175-1.483,0.071-2.169c-0.646-0.589-1.055-1.401-1.137-2.284l-0.445-4.75
	c-0.092-0.992,0.237-1.977,0.908-2.713c0.67-0.736,1.621-1.156,2.617-1.156h1.883c1.83,0,3.334,1.387,3.521,3.167l5.117,2.417
	c0.08,0.037,0.158,0.078,0.233,0.121c0.821,0.073,1.614,0.434,2.223,1.055l1.792,1.838c0.301,0.044,0.601,0.127,0.889,0.252
	c0.767,0.33,1.364,0.905,1.732,1.606c0.794,0.45,1.397,1.199,1.657,2.106l1.373,0.39c1.093,0.31,1.968,1.125,2.354,2.188
	l0.786,0.067c1.467,0.125,2.703,1.144,3.104,2.56l0.692,2.444c0.072,0.084,0.146,0.171,0.207,0.262
	c0.547,0.078,1.077,0.283,1.545,0.614c0.328,0.232,0.608,0.513,0.834,0.828c0.395-0.244,0.836-0.416,1.314-0.493
	c0.188-0.031,0.379-0.045,0.562-0.045c1.332,0,2.559,0.752,3.155,1.941c0.213-0.04,0.433-0.06,0.65-0.06
	c0.053,0,0.104,0,0.156,0.003c0.432-0.242,0.92-0.396,1.438-0.438c0.098-0.008,0.193-0.012,0.291-0.012
	c0.158,0,0.312,0.011,0.469,0.031c0.157-0.021,0.314-0.031,0.474-0.031c0.646,0,1.272,0.177,1.82,0.506l0.231-0.19
	c0.646-0.534,1.445-0.811,2.254-0.811c0.512,0,1.027,0.111,1.508,0.337c0.371,0.175,0.701,0.409,0.982,0.688l0.3-0.044
	c0.175-0.026,0.35-0.039,0.521-0.039c1.164,0,2.271,0.574,2.935,1.557c0.371,0.549,0.572,1.178,0.604,1.814
	c0.229,0.014,0.451,0.049,0.668,0.105c0.133-0.089,0.271-0.169,0.414-0.241c0.493-0.245,1.031-0.368,1.572-0.368
	c0.381,0,0.763,0.061,1.131,0.186l4.254,1.435c1.297,0.438,2.229,1.584,2.385,2.944l0.201,1.724
	c0.322,0.079,0.627,0.202,0.908,0.362c1.252,0.13,2.381,0.925,2.896,2.145c0.18,0.423,0.271,0.863,0.276,1.299
	c0.715,0.745,1.09,1.786,0.965,2.86l1.556,0.615c1.299,0.514,2.174,1.743,2.231,3.138c0.003,0.075,0.004,0.149,0.002,0.223
	c0.229,0.38,0.386,0.805,0.454,1.256l0.614,3.88c0.366-0.124,0.75-0.187,1.135-0.187c0.524,0,1.054,0.117,1.541,0.354
	c0.312,0.149,0.59,0.34,0.836,0.563c0.438-0.394,0.974-0.681,1.566-0.821c0.27-0.063,0.541-0.094,0.811-0.094
	c0.728,0,1.435,0.223,2.022,0.635l0.683-0.482c0.607-0.428,1.322-0.648,2.043-0.648c0.445,0,0.896,0.084,1.318,0.255
	c1.115,0.448,1.926,1.43,2.156,2.609l0.125,0.644c0.371-0.127,0.76-0.192,1.149-0.192c0.66,0,1.325,0.185,1.914,0.564
	c0.801,0.515,1.33,1.306,1.532,2.178c0.769,0.38,1.388,1.034,1.716,1.854c0.188,0.081,0.371,0.179,0.544,0.293l1.436,0.942
	c0.722,0.475,1.244,1.197,1.471,2.031l1.933,7.126c0.445,1.641-0.339,3.366-1.865,4.11l-1.936,0.94
	c-0.498,0.242-1.023,0.357-1.546,0.357c-0.172,0-0.342-0.013-0.51-0.037c-0.458,0.284-0.985,0.466-1.551,0.517
	c-0.106,0.009-0.216,0.014-0.318,0.014c-0.443,0-0.875-0.083-1.275-0.239c-0.191,0.303-0.437,0.578-0.721,0.812l-2.873,2.376
	c-0.647,0.539-1.451,0.812-2.256,0.812c-0.656,0-1.312-0.182-1.896-0.55c-0.699-0.444-1.201-1.104-1.455-1.851
	c-0.273,0.167-0.571,0.298-0.89,0.387l-5.473,1.541l-1.653,2.34c-0.555,0.786-1.404,1.312-2.354,1.457
	c-0.182,0.027-0.357,0.041-0.536,0.041c-0.771,0-1.526-0.252-2.146-0.726l-1.881-1.435c-1.062-0.811-1.567-2.145-1.336-3.443
	c-0.088-0.042-0.174-0.089-0.258-0.14c-1.235-0.735-1.904-2.144-1.691-3.565l0.938-6.265c-0.291-0.502-0.459-1.075-0.479-1.671
	c-0.024-0.947,0.325-1.857,0.968-2.535l-0.595-1.182c-0.046-0.092-0.088-0.186-0.125-0.282l-1.846-4.662l-0.339,6.847
	c-0.087,1.746-1.427,3.144-3.122,3.341l-5.798,3.01l2.266,0.449c1.657,0.328,2.854,1.782,2.854,3.472v1.881
	c0,0.961-0.394,1.881-1.082,2.548c-0.662,0.638-1.543,0.992-2.459,0.992c-0.041,0-7.104-0.254-7.104-0.254l2.776,3.61
	c0.861,1.121,0.975,2.647,0.285,3.882l-0.562,1.001c0.633,0.649,1.008,1.531,1.008,2.473V242c0.346-0.264,0.738-0.467,1.175-0.592
	c0.323-0.095,0.653-0.14,0.98-0.14c1.192,0,2.333,0.604,2.993,1.65l0.626,0.991l5.173-2.728c0.521-0.274,1.088-0.408,1.65-0.408
	c0.049,0,0.098,0.001,0.146,0.002l0.659-4.148c0.242-1.519,1.438-2.708,2.955-2.942c0.182-0.028,0.363-0.042,0.542-0.042
	c1.323,0,2.558,0.744,3.164,1.955l1.308,2.611l1.156,0.295c0.271,0.068,0.528,0.168,0.773,0.297l0.938,0.496
	c1.729,0.91,2.396,3.048,1.486,4.778l-0.494,0.94c-0.061,0.113-0.125,0.224-0.197,0.33l-1.471,2.188
	c0.178,0.254,0.322,0.533,0.429,0.832c0.396,1.108,0.218,2.341-0.479,3.289l-1.386,1.881c-0.106,0.147-0.229,0.286-0.354,0.414
	l-6.302,6.261c0.345,0.933,0.281,1.976-0.188,2.868c-0.532,1.02-1.526,1.716-2.672,1.866l-0.805,0.107l-1.425,7.9
	c-0.177,0.963-0.737,1.81-1.561,2.342c-0.579,0.375-1.248,0.571-1.926,0.571c-0.283,0-0.568-0.035-0.848-0.104l-3.812-0.938
	c-1.146-0.283-2.078-1.122-2.479-2.234l-1.232-3.413l-2.326,3.992c-0.508,0.871-1.358,1.484-2.35,1.687
	c-0.234,0.048-0.474,0.072-0.709,0.072c-0.211,0-0.42-0.02-0.625-0.056l-0.102,0.175c-0.038,0.072-0.084,0.144-0.13,0.213
	l0.082,1.118c0.07,0.979-0.27,1.947-0.938,2.666c-0.437,0.467-0.982,0.803-1.581,0.98c-0.272,0.905-0.902,1.696-1.81,2.147
	l-0.021,0.013l-0.283,6.252c0.397-0.277,0.856-0.479,1.354-0.578c0.229-0.045,0.457-0.064,0.685-0.064
	c1.225,0,2.381,0.635,3.03,1.711l1.436,2.377c0.979,1.619,0.512,3.723-1.062,4.771l-5.279,3.533
	c-0.282,0.762-0.825,1.426-1.569,1.851l-8.997,5.121l-1.206,2.663l1.62,3.244c0.421,0.84,0.488,1.812,0.192,2.701l-2.374,7.127
	c-0.118,0.354-0.291,0.687-0.507,0.979l0.243,0.438c0.418,0.752,0.547,1.629,0.362,2.471l-2.18,10.014l4.133,6.922
	c0.678,1.131,0.648,2.49,0.039,3.562c-0.053,0.594-0.254,1.171-0.603,1.682c0,0-1.962,2.875-1.981,2.898
	c0.475,1.266,0.188,2.703-0.762,3.69l-11.636,12.121l-5.574,8.752l-2.822,4.306c-0.169,0.258-0.367,0.489-0.591,0.69l-3.146,6.33
	l3.445,6.532l10.443,20.935c0.301,0.604,0.423,1.277,0.354,1.947l-1.384,13.312c-0.188,1.812-1.717,3.178-3.521,3.176
	c-0.062,0-0.122,0-0.187-0.005c-0.535-0.025-1.04-0.175-1.483-0.411l-0.312,0.134c-0.444,0.188-0.918,0.282-1.388,0.282
	c-0.687,0-1.364-0.196-1.952-0.586c-0.991-0.653-1.589-1.766-1.589-2.953V429.4l-2.205-0.646c-1.049-0.305-1.896-1.078-2.299-2.094
	l-1.57-3.967c-0.11,0.012-0.223,0.018-0.334,0.018c-1.115,0-2.199-0.531-2.879-1.48l-2.374-3.315
	c-0.438-0.611-0.666-1.344-0.661-2.082c-0.898-0.666-1.437-1.723-1.437-2.848v-5.443l-5.979-4.854l-0.176-0.084l-0.386-0.077
	l-0.593,0.452c-0.041,0.027-4.876,3.402-4.876,3.402c-0.6,0.418-1.308,0.637-2.023,0.637c-0.245,0-0.491-0.022-0.735-0.073
	c-0.957-0.205-1.789-0.796-2.295-1.636l-1.434-2.371l-3.326,0.259c-0.095,0.008-0.188,0.012-0.277,0.012
	c-0.186,0-0.367-0.014-0.547-0.043l-2.729,0.83c-0.341,0.104-0.688,0.153-1.029,0.153c-0.304,0-0.604-0.038-0.896-0.114
	l-2.435,1.512c-0.578,0.361-1.226,0.535-1.866,0.535c-0.688,0-1.366-0.201-1.949-0.584l-1.644,0.324
	c0.006,0.521-0.104,1.036-0.322,1.51c1.093,0.442,1.894,1.404,2.13,2.561c0.241,1.166-0.118,2.375-0.962,3.222l-2.375,2.375
	c-0.666,0.668-1.565,1.035-2.504,1.035c-0.082,0-0.164-0.003-0.246-0.009c-1.021-0.067-1.964-0.582-2.581-1.397l-0.05-0.066
	c-0.569,0.354-1.22,0.533-1.871,0.533c-0.631,0-1.263-0.166-1.825-0.508l-0.009-0.004l-0.416,0.416
	c-0.686,0.686-1.592,1.037-2.505,1.035c-0.718,0-1.438-0.218-2.062-0.658l-4.413-3.164l-0.771,0.637
	c-0.636,0.527-1.435,0.812-2.257,0.812c-0.059,0-0.115,0-0.175-0.006l-9.121-0.448l-5.326,2.489
	c-0.222,0.922-0.806,1.726-1.629,2.217l-7.127,4.257c-0.212,0.125-0.433,0.227-0.654,0.305c-0.196,0.146-0.412,0.271-0.641,0.375
	l-3.64,1.646l-0.879,3.937l1.771,8.543c0.133,0.639,0.086,1.299-0.135,1.912l-2.373,6.631c-0.367,1.025-1.158,1.777-2.107,2.129
	l-0.057,0.592l0.484,12.939l0.334,2.862l12.641,19.796l2.576-0.271c0.121-0.012,0.242-0.018,0.364-0.018
	c0.813,0,1.608,0.28,2.244,0.803l3.698,3.035l12.812-4.574c0.386-0.137,0.786-0.205,1.189-0.205c0.209,0,0.418,0.021,0.625,0.056
	l3.171,0.567l3.851-4.82l2.2-10.555c0.233-1.125,1-2.065,2.057-2.522l14.256-6.188c0.444-0.193,0.926-0.293,1.41-0.293
	c0.062,0,0.123,0.002,0.186,0.006l9.505,0.496c1.172,0.062,2.237,0.699,2.847,1.705c0.608,1.006,0.677,2.248,0.185,3.312
	l-4.062,8.799c0.196,0.188,0.371,0.403,0.521,0.641c0.513,0.807,0.677,1.789,0.454,2.719l-2.374,9.949
	c-0.24,1.01-0.905,1.84-1.785,2.307v5.438c0,0.662-0.187,1.311-0.536,1.873l-1.484,2.383l20.354-5.309
	c0.293-0.076,0.595-0.113,0.896-0.113c0.289,0,0.577,0.035,0.86,0.104l11.433,2.871c1.175,0.295,2.116,1.17,2.498,2.32l1.884,5.693
	c0.18,0.545,0.226,1.125,0.131,1.69l-3.008,18.076l5.749,5.387c0.022,0.021,3.091,3.062,3.091,3.062
	c0.604-0.449,1.345-0.697,2.108-0.697c0.189,0,0.386,0.016,0.576,0.047l4.277,0.707l6.302-4.365l2.285-1.809
	c0.423-0.334,0.915-0.568,1.44-0.685l4.311-0.94c0.248-0.055,0.502-0.082,0.757-0.082c0.063,0,0.129,0.002,0.192,0.006l8.064,0.443
	c0.623,0.034,1.229,0.229,1.748,0.573l4.035,2.646c0.522,0.342,0.945,0.818,1.228,1.377l1.533,3.072
	c0.636,1.271,0.446,2.803-0.479,3.883l-2.855,3.338c-0.317,0.373-0.707,0.67-1.14,0.881l-0.007,0.023
	c-0.319,1.123-1.174,2.018-2.281,2.387c-0.365,0.123-0.745,0.187-1.122,0.187c-0.762,0-1.515-0.246-2.138-0.722l-4.174-3.159
	c-0.938-0.709-1.427-1.802-1.401-2.896l-1.47-0.889l-4.215,3.235l0.954,1.101c0.625,0.719,0.935,1.662,0.854,2.608
	c-0.078,0.951-0.536,1.83-1.271,2.438l-2.871,2.377c-0.379,0.312-0.817,0.543-1.292,0.678l-3.317,0.941
	c-0.32,0.092-0.646,0.135-0.967,0.135C398.115,549.578,396.85,548.799,396.261,547.539z M177.482,408.107l-2.981-11.888l-3.595-2.28
	l0.194,5.993l6.078,8.517c0.089-0.113,0.184-0.222,0.287-0.326L177.482,408.107z M331.789,307.338l-1.498-7.76l-0.838,6.939
	l1.896,4.563L331.789,307.338z M355.039,291.539l-2.338-2.957c-0.146-0.002-0.289-0.014-0.438-0.033l-1.74-0.242l1.337,4.748
	c0.173,0.016,0.347,0.047,0.517,0.088c0.939,0.236,1.742,0.849,2.219,1.689l0.248,0.438L355.039,291.539z M330.477,292.031
	c-0.112,0.012-0.229,0.018-0.344,0.018c-0.242,0-0.481-0.025-0.723-0.074l-0.109,0.271c0.09,0.062,0.178,0.129,0.262,0.201
	c0.142,0.119,0.27,0.246,0.387,0.383C329.967,292.797,330.477,292.031,330.477,292.031z M318.658,274.642
	c1.053,0.275,1.92,1.02,2.352,2.018l0.029,0.066l0.066-0.029c0.449-0.195,0.931-0.291,1.403-0.291c0.812,0,1.61,0.277,2.256,0.812
	l1.355,1.121l7.951-2.661l-0.685-2.145l-2.187,0.392c-0.209,0.038-0.418,0.056-0.626,0.056c-1.12,0-2.191-0.533-2.864-1.46
	l-2.812-3.875l-2.791-0.138c-0.198,0.732-0.637,1.399-1.27,1.882l-1.791,1.363c-0.203,0.247-0.438,0.468-0.707,0.653
	c-0.6,0.418-1.307,0.637-2.022,0.637c-0.24,0-0.482-0.024-0.724-0.074l-0.382-0.08l-5.392,5.998
	c0.145,0.146,0.272,0.303,0.391,0.469l5.399-4.104c0.622-0.474,1.378-0.723,2.144-0.723
	C318.061,274.526,318.361,274.564,318.658,274.642z M270.929,241.919l-0.363-1.004c-0.059,0.068-0.119,0.134-0.182,0.198
	l0.522,0.812C270.913,241.924,270.921,241.922,270.929,241.919z M353.271,232.051l-5.398-10.36l-3.332-1.86
	c-0.969-0.541-1.629-1.504-1.781-2.604c-0.15-1.099,0.219-2.206,1.004-2.991l4.296-4.296c-0.482,0.411-1.087,0.695-1.754,0.796
	c-0.179,0.027-0.354,0.04-0.532,0.04c-0.288,0-0.573-0.035-0.85-0.104c-0.592,0.397-1.279,0.599-1.971,0.599
	c-0.611,0-1.229-0.158-1.778-0.479c-1.271-0.739-1.954-2.186-1.714-3.637l0.938-5.691c0.25-1.513,1.445-2.694,2.964-2.924
	c0.178-0.027,0.354-0.04,0.528-0.04c1.324,0,2.562,0.745,3.164,1.955l1.887,3.762c0.244,0.492,0.373,1.035,0.373,1.584v1.434
	c0,0.865-0.312,1.666-0.839,2.287l1.667-1.666l1.386-6.637l-4.832-8.226l-6.011-2.42c-1.489-0.601-2.393-2.132-2.188-3.729
	l1.242-9.807l-0.806-1.479c-0.241,0.052-0.488,0.078-0.734,0.078c-0.745,0-1.484-0.235-2.104-0.691
	c-0.979-0.725-1.521-1.905-1.428-3.123l0.328-4.211l-0.553-0.633l-1.258,2.149c-0.644,1.102-1.814,1.755-3.057,1.755
	c-0.253,0-0.509-0.027-0.764-0.083c-1.501-0.332-2.616-1.594-2.763-3.125l-0.492-5.244c-0.152-1.62,0.815-3.135,2.354-3.672
	c0.385-0.135,0.779-0.2,1.17-0.2c0.118,0,0.236,0.006,0.354,0.018l-1.609-1.276c-0.409-0.324-0.729-0.727-0.958-1.174l-1.457,2.222
	c-0.287,0.436-0.658,0.794-1.086,1.061c0.41,1.083,0.271,2.325-0.424,3.305l-4.749,6.683c-0.655,0.923-1.712,1.477-2.845,1.489
	c-0.017,0.001-0.027,0.001-0.041,0.001c-1.117,0-2.168-0.527-2.839-1.424l-1.438-1.929c-0.615-0.825-0.827-1.853-0.632-2.818
	c-0.527,0.307-1.135,0.477-1.767,0.479c-0.006,0-0.01,0-0.014,0c-1.223,0-2.357-0.631-3.006-1.669l-0.812-1.305l-2.006,0.794
	c-0.425,0.168-0.865,0.249-1.304,0.249c-1,0-1.979-0.424-2.664-1.208c-0.639-0.729-0.937-1.667-0.867-2.591l-3.61,0.578
	l-0.637,2.301c0.612,1.133,0.582,2.558-0.188,3.686l-1.932,2.822c-0.322,0.474-0.752,0.854-1.24,1.118
	c-0.187,0.341-0.426,0.654-0.719,0.924l-3.267,3.009c0.261,0.866,0.187,1.821-0.256,2.663l-4.306,8.206l0.38,7.992h3.165
	c1.396,0,2.658,0.82,3.229,2.093l3.782,8.445l2.414-1.142c0.479-0.226,0.996-0.339,1.515-0.339c0.516,0,1.03,0.113,1.51,0.338
	l24.198,11.411l10.798-1.755c0.19-0.031,0.384-0.046,0.569-0.046c1.573,0,2.99,1.051,3.414,2.614l2.971,10.958l0.062-0.043
	c0.623-0.447,1.344-0.664,2.062-0.664c0.995,0,1.981,0.419,2.681,1.223l2.874,3.318c0.971,1.121,1.14,2.728,0.424,4.027
	c-0.103,0.179-0.213,0.347-0.336,0.502c0,0,2.238,1.6,2.279,1.631c0.242-0.397,0.562-0.743,0.939-1.018L353.271,232.051z
	 M418.775,229.602c-0.386-0.278-0.707-0.631-0.953-1.04l-2.854,1.481l-0.104,0.511l-0.036,0.453
	C414.855,230.996,418.775,229.602,418.775,229.602z M87.624,133.112c-0.016-0.122-0.024-0.245-0.027-0.369l-0.943,0.169l0.012,0.023
	c0.088,0.173,0.16,0.351,0.219,0.534c0.169-0.106,0.349-0.197,0.539-0.275L87.624,133.112z M260.503,130.993l0.51-0.068l0.054-0.311
	c0.02-0.114,0.045-0.229,0.075-0.336c-0.158-0.575-0.168-1.18-0.031-1.757c-0.937-0.939-1.3-2.365-0.83-3.687l0.532-1.497
	c-0.365,0.348-0.807,0.62-1.305,0.789c-0.029,0.01-0.058,0.019-0.087,0.028c0.236,0.924,0.091,1.914-0.419,2.738
	c-0.609,0.984-1.66,1.608-2.816,1.672l-2.072,0.114l2.041,2.316L260.503,130.993L260.503,130.993z M294.318,118.402
	c-0.385-0.276-0.717-0.63-0.969-1.049l-0.179,0.125c-0.606,0.429-1.319,0.647-2.041,0.647c-0.548,0-1.098-0.127-1.604-0.385
	l-2.819-1.435c-0.506-0.257-0.942-0.633-1.272-1.094l-0.054-0.074c0.271,0.639,0.349,1.341,0.224,2.02l0.823,0.116
	c0.746,0.105,1.414,0.439,1.935,0.928c0.134-0.015,0.268-0.022,0.397-0.022c0.609,0,1.22,0.158,1.765,0.471l3.36,1.932
	c0.689,0.397,1.228,1.015,1.521,1.753l0.336,0.836c0.078-0.586,0.304-1.131,0.638-1.593
	C296.379,121.575,294.328,118.418,294.318,118.402z M267.239,116.027c-0.507-0.365-0.915-0.862-1.174-1.449
	c-0.314-0.715-0.38-1.505-0.202-2.25c-0.046,0.012-2.517,0.527-2.517,0.527c-0.24,0.05-0.481,0.074-0.722,0.074
	c-0.945,0-1.863-0.379-2.537-1.071l-1.931-1.986l-5.064-5.428l0.188,4.967l7.164,5.175c0.921,0.666,1.467,1.733,1.467,2.87v2.788
	l0.743-2.09c0.394-1.107,1.311-1.947,2.448-2.242c0.293-0.076,0.592-0.113,0.888-0.113
	C266.418,115.799,266.841,115.876,267.239,116.027z M280.965,107.613l-0.244-5.626c-0.51,0.473-1.158,0.794-1.869,0.903
	c-0.176,0.522-0.473,1.002-0.871,1.396l-0.344,0.339l5.271,7.036c-0.248-0.411-0.406-0.863-0.475-1.329
	C281.58,109.716,281.016,108.732,280.965,107.613z M239.362,93.969c0.405,0,0.799,0.069,1.168,0.198
	c0.547-0.615,1.308-1.039,2.174-1.155l0.499-0.067l0.873-1.261c0.67-0.968,1.765-1.525,2.91-1.525c0.254,0,0.511,0.027,0.765,0.083
	l4.254,0.94c1.001,0.222,1.858,0.867,2.348,1.77c0.091,0.169,0.169,0.344,0.231,0.523c0.219-0.296,0.481-0.554,0.776-0.767
	c0.079-0.563,0.295-1.107,0.638-1.582c0.666-0.919,1.732-1.463,2.867-1.463h1.88c0.095,0,0.188,0.004,0.282,0.012l6.187,0.495
	c0.056,0.004,0.111,0.01,0.167,0.017c0.043-0.059,0.087-0.117,0.134-0.174c0.148-0.18,0.313-0.344,0.491-0.489l-1.659-0.505
	c-0.131-0.04-0.258-0.086-0.382-0.14c-0.314,0.137-0.651,0.229-1.001,0.27l-3.812,0.444c-0.138,0.016-0.274,0.024-0.411,0.024
	c-1.229,0-2.384-0.642-3.029-1.711l-1.433-2.374c-0.043-0.071-0.083-0.143-0.119-0.215l-0.325,0.031
	c-0.113,0.011-0.226,0.016-0.338,0.016c-0.869,0-1.682-0.319-2.309-0.859l-0.406,1.539c-0.413,1.565-1.828,2.635-3.419,2.635
	c-0.111,0-0.224-0.005-0.336-0.016l-4.464-0.422l-7.327,2.608c-0.386,0.137-0.787,0.205-1.187,0.205
	c-0.729,0-1.451-0.226-2.06-0.662l-3.319-2.375c-0.209-0.149-0.398-0.319-0.566-0.504l1.81,2.86c0.044,0.069,0.084,0.139,0.123,0.21
	c0.302,0.163,0.583,0.371,0.832,0.622c0.509,0.513,0.838,1.156,0.967,1.838c0.574,0.109,1.125,0.361,1.595,0.749l0.596,0.493
	c0.452-0.205,0.949-0.315,1.46-0.315L239.362,93.969L239.362,93.969z M254.069,77.699c-0.521-1.557,0.098-3.268,1.494-4.132
	c0.485-0.299,1.019-0.47,1.559-0.517c0.529-0.299,1.13-0.459,1.743-0.459c0.271,0,0.546,0.031,0.818,0.096l0.731,0.174
	c0.608-0.724,1.488-1.179,2.442-1.25c0.113-0.214,0.248-0.417,0.402-0.603c-0.01-0.021-0.021-0.041-0.029-0.062
	c-0.342,0.104-0.695,0.159-1.05,0.159c-0.672,0-1.345-0.19-1.935-0.576l-1.337-0.873l-2.681-1.498l-0.817,0.323
	c-0.424,0.168-0.864,0.249-1.302,0.249c-1.042,0-2.059-0.461-2.745-1.304c-0.797-0.979-1.001-2.287-0.586-3.437
	c-0.098-0.132-0.188-0.271-0.266-0.415c-0.026,0.294-0.091,0.589-0.192,0.875c-0.31,0.869-0.938,1.564-1.731,1.967
	c0.045,0.761-0.156,1.526-0.59,2.177l-0.968,1.448c1.172,0.539,1.966,1.679,2.053,2.98l0.132,1.959
	c0.627,0.062,1.235,0.291,1.757,0.675l1.877,1.386c0.549,0.405,0.954,0.947,1.192,1.554c0.094-0.042,0.19-0.081,0.288-0.115
	L254.069,77.699z M241.306,72.497l-2.621-1.136c-0.047,0.053-0.096,0.104-0.146,0.154l-0.405,0.402l1.507,2.4
	c0.148-0.25,0.329-0.482,0.539-0.693L241.306,72.497z M517.549,485.178c-1.176-1.315-1.199-3.303-0.055-4.647l0.578-0.683
	c-0.31-0.526-0.479-1.137-0.48-1.766c-0.004-1.098,0.5-2.135,1.365-2.809l4.258-3.314c0.632-0.492,1.399-0.746,2.175-0.746
	c0.462,0,0.93,0.09,1.368,0.273c1.18,0.494,2,1.586,2.148,2.854l0.493,4.256c0.15,1.318-0.444,2.611-1.549,3.353l-5.69,3.812
	c-0.604,0.404-1.287,0.603-1.969,0.603C519.212,486.361,518.242,485.955,517.549,485.178z M413.865,476.607l-4.754-1.879
	c-1.375-0.546-2.271-1.888-2.237-3.363c0.031-1.479,0.976-2.783,2.372-3.271l9.504-3.315c0.379-0.134,0.773-0.199,1.168-0.199
	c0.404,0,0.809,0.07,1.194,0.207l5.248,1.883c1.404,0.504,2.345,1.838,2.345,3.332c0,1.496-0.938,2.828-2.346,3.332l-5.248,1.881
	c-0.06,0.021-0.113,0.039-0.171,0.058l-4.751,1.438c-0.334,0.1-0.682,0.15-1.023,0.15
	C414.725,476.855,414.282,476.773,413.865,476.607z M438.768,468.119l-4.254-1.383c-1.022-0.334-1.844-1.117-2.222-2.129
	c-0.378-1.013-0.272-2.142,0.284-3.062l1.432-2.379c0.464-0.768,1.203-1.334,2.066-1.578l5.703-1.617h-0.977
	c-1.48,0-2.81-0.926-3.318-2.315c-0.015-0.029-0.023-0.062-0.033-0.097l-4.379,3.519c-0.336,0.27-0.717,0.475-1.126,0.604
	l-17.57,5.688c-0.359,0.117-0.727,0.174-1.09,0.174c-1.133,0-2.228-0.545-2.899-1.51c-0.787-1.123-0.847-2.586-0.19-3.756
	l-0.188,0.024c-0.178,0.029-0.354,0.041-0.533,0.041c-0.932,0-1.835-0.367-2.504-1.037l-3.629-3.633l-6.399,0.354l-12.372,0.983
	c-0.098,0.008-0.188,0.015-0.282,0.015c-0.433,0-0.861-0.078-1.267-0.234c0.554,0.873,0.697,1.949,0.39,2.945
	c-0.34,1.096-1.191,1.959-2.281,2.312l-1.34,0.438c-0.592,0.657-1.428,1.096-2.373,1.164c-0.088,0.008-0.176,0.012-0.262,0.012
	c-1.74,0-3.24-1.277-3.5-3.023l-0.121-0.823l-1.081,1.01c-0.46,0.43-1.028,0.729-1.646,0.867l-6.188,1.387
	c-0.26,0.059-0.521,0.086-0.775,0.086c-1.5,0-2.879-0.959-3.36-2.439c-0.566-1.731,0.274-3.612,1.946-4.346L365,453.26l0.607-3.383
	c0.219-1.219,1.058-2.234,2.213-2.68l18.509-7.125c0.405-0.156,0.837-0.236,1.271-0.236h7.084l0.925-0.287
	c0.342-0.104,0.693-0.158,1.05-0.158c0.346,0,0.689,0.052,1.025,0.152l19.562,5.934l6.771-1.271
	c0.219-0.041,0.438-0.062,0.653-0.062c0.729,0,1.447,0.228,2.051,0.652c0.784,0.56,1.311,1.41,1.45,2.361l0.022,0.149l6.913-0.326
	c-0.271-0.243-0.503-0.53-0.689-0.858c-0.792-1.385-0.559-3.131,0.57-4.26l3.812-3.812c0.68-0.678,1.582-1.037,2.504-1.037
	c0.455,0,0.916,0.088,1.354,0.271c1.323,0.547,2.186,1.838,2.186,3.27v2.822c0,1.053-0.465,2.018-1.221,2.674l17.662-4.662
	c0.299-0.078,0.604-0.116,0.903-0.116c0.929,0,1.832,0.362,2.505,1.036l0.312,0.314l1.677-0.631
	c0.407-0.152,0.829-0.229,1.245-0.229c1.23,0,2.412,0.646,3.062,1.765c0.115,0.196,0.21,0.403,0.283,0.616h2.348
	c1.193,0,2.307,0.603,2.96,1.601c0.05,0.076,0.099,0.151,0.142,0.231c0.097-1.207,0.808-2.319,1.945-2.893l9.502-4.756
	c0.502-0.252,1.045-0.373,1.584-0.373c0.856,0,1.704,0.311,2.369,0.908c1.082,0.975,1.457,2.514,0.945,3.875l-1.436,3.812
	c-0.302,0.805-0.888,1.471-1.646,1.877l-7.129,3.812c-0.521,0.274-1.094,0.416-1.667,0.416c-0.446,0-0.896-0.082-1.317-0.254
	c-0.971-0.392-1.72-1.188-2.046-2.183l-0.694-2.115c-0.041,0.336-0.13,0.668-0.268,0.986l-1.438,3.314
	c-0.435,0.997-1.304,1.739-2.356,2.018l-11.341,2.938l-1.562,2.821l-1.367,3.16c-0.418,0.965-1.243,1.695-2.256,1.99
	c-0.325,0.096-0.66,0.141-0.992,0.141c-0.695,0-1.389-0.205-1.979-0.604l-2.549-1.718l-9.584,4.771
	c-0.494,0.248-1.035,0.371-1.577,0.371C439.494,468.293,439.125,468.236,438.768,468.119z M441.854,446.887l-3.479,0.902
	c-0.134,0.035-0.268,0.061-0.401,0.08c0.411,0.369,0.737,0.836,0.942,1.377c0.014,0.037,0.027,0.072,0.039,0.109L441.854,446.887z
	 M513.381,447.809l-1.436-1.436c-1.281-1.281-1.391-3.324-0.245-4.734l1.929-2.377c0.682-0.84,1.698-1.311,2.749-1.311
	c0.301,0,0.604,0.039,0.903,0.119l1.881,0.496c1.125,0.297,2.031,1.129,2.427,2.223c0.396,1.096,0.229,2.312-0.452,3.26
	l-2.373,3.316c-0.604,0.846-1.553,1.383-2.589,1.469c-0.097,0.008-0.191,0.012-0.29,0.012
	C514.949,448.846,514.048,448.475,513.381,447.809z M406.965,435.926l-1.916-1.914c-0.137-0.137-0.262-0.283-0.373-0.438
	l-2.795-1.209c-1.555-0.674-2.415-2.355-2.05-4.012l0.938-4.255c0.246-1.12,1.023-2.055,2.084-2.5
	c0.439-0.186,0.906-0.274,1.371-0.274c0.652,0,1.305,0.18,1.871,0.535l3.812,2.373c1.196,0.743,1.81,2.104,1.642,3.442
	c0.331,0.353,0.583,0.763,0.747,1.197c0.029,0.029,0.062,0.057,0.088,0.084c0.892,0.865,1.264,2.131,0.98,3.34l-0.448,1.928
	c-0.291,1.257-1.239,2.25-2.478,2.604c-0.32,0.092-0.646,0.135-0.974,0.135C408.543,436.965,407.638,436.602,406.965,435.926z
	 M414.567,425.58l-0.198-0.965l-3.062-2.064c-0.341-0.229-0.63-0.508-0.859-0.822c-0.176,0.027-0.353,0.039-0.527,0.039
	c-0.396,0-0.801-0.063-1.188-0.205l-1.387-0.489c-1.682-0.603-2.651-2.355-2.27-4.101l0.383-1.733l-1.084-0.636
	c-1.593-0.928-2.205-2.924-1.409-4.586c0.604-1.262,1.867-2.012,3.194-2.012c0.42,0,0.848,0.074,1.262,0.232l3.76,1.438
	c1.371,0.523,2.277,1.84,2.277,3.31v3.098c0.434,0.021,0.871,0.123,1.289,0.311l4.257,1.933c1.096,0.496,1.864,1.518,2.04,2.707
	l0.491,3.315c0.279,1.896-0.999,3.671-2.885,4.005c-0.208,0.036-0.416,0.057-0.621,0.057
	C416.383,428.404,414.912,427.248,414.567,425.58z M80.526,83.253l-2.871-0.94c-1.455-0.476-2.438-1.833-2.438-3.364v-6.188
	c0-1.259,0.669-2.423,1.757-3.058l2.377-1.386c0.551-0.321,1.167-0.482,1.783-0.482c0.575,0,1.15,0.14,1.674,0.421
	c1.085,0.582,1.789,1.685,1.86,2.914l0.493,8.512c0.068,1.169-0.446,2.296-1.374,3.01c-0.627,0.483-1.389,0.735-2.159,0.735
	C81.258,83.429,80.887,83.371,80.526,83.253z"/>
<path id="g83331" display="none" fill="#231F20" d="M328.201,6.251l0.938,4.751l0.498,0.991v-0.991l0.938-3.315l1.929,4.306
	l0.444,0.446l2.377,0.496v-0.496l-0.942-2.376l7.132,3.811l5.241,3.812l3.318,0.94l-2.377-1.881l1.438-0.494l1.387-0.495
	l0.491,0.989l0.496,1.386l0.444-0.942l1.436-1.88l3.812,0.938v2.377l-0.496,3.316h3.812l0.938-2.375l0.938,2.869l1.936-1.931
	l0.448-0.443l4.302,1.435l-0.493,0.445l-3.809,2.376l3.358-1.883l-0.497,2.822l1.438-2.376l2.816,1.437l0.99-0.942l0.942-1.435
	l1.436,1.435l-0.497,0.497l-2.871,2.374l3.368,1.882h3.314l-2.867-1.437l1.929-1.435l2.819,0.99l0.497,3.76l-3.813,0.991
	l1.438-2.375l-2.376,2.375l1.883,0.94l-3.812,0.94l3.812-0.494l1.436,2.871l-2.869,0.94l2.375-0.447v2.375l1.933-3.811v4.257
	l2.82-0.446l-0.944-2.869h2.377l-0.444,2.869l0.938-1.434l1.435,0.938l-1.435-2.375l4.751-1.437l1.436,1.437v-1.881l1.392,1.386
	l0.488-0.94l2.383,1.931h4.254v1.884l-2.818-0.942l2.374,2.375l-7.128-0.496l-6.68,3.812l2.87-0.494v2.375l4.257-4.258l0.985,3.316
	l-1.93,0.94l3.315,4.751l0.988-2.375v-0.05l-2.377-5.642l3.318,0.942l-0.89,4.553l0.89-2.177l0.938,4.75l1.437-0.94l0.447-0.444
	V47.13l-1.389-4.752l4.259-4.257l0.492,0.94l6.14,10.938l0.497,7.128h-1.887l1.887,1.386l-1.438,2.869h-4.257l4.748,1.436
	l0.447,3.315l6.683,8.068l-1.929,1.931l2.374,0.446l-0.447,3.81l-1.93-0.494l2.374,1.434l-1.881,0.495l-1.438-2.871l-1.876,0.938
	l4.748,3.812l-2.375,3.812l0.445,0.494l2.374,2.375l-2.374,1.386l5.735,1.931l-1.433,2.821l2.377-0.941l2.819,1.436l-2.819,1.435
	l2.819-0.495l-0.942,2.377h1.934l-2.373,0.94l3.312,0.494l-2.374,0.497l2.821,1.384l-1.885,3.366h3.812l-2.377,0.94l4.754,0.446
	v2.869l1.436-0.94l-0.991,2.375l1.936-0.94l-0.939,2.375h2.375l-1.936,1.881l2.38-1.435l-0.444,2.871h2.818l-2.818,2.822h4.753
	l-3.367,0.989l0.493,2.823l-2.373-3.315l0.494,3.811l-1.936-4.308l0.5,2.871l-1.936-1.882l-0.441,2.823l-0.943-3.812l-0.489,3.364
	l-0.497-4.75l-2.821,7.127l-3.312-2.377l-2.869,1.882l0.938-2.375l-2.374,2.375l0.938-1.882l-1.389,0.445l-0.984-1.88l-0.447,1.88
	v-2.375l-1.433,1.93l-0.494-2.377l-3.318,0.941l-1.436-4.306v2.871l-1.877-3.315l-2.871,1.436l1.927-1.931l-2.374,1.436l0.447-2.375
	l-2.377,1.88v-2.821l-1.882,0.941l2.375-3.315l-3.317,2.82l1.883-4.257l-2.377,0.496l3.812-0.991l-7.13-2.374l2.871,1.931v5.195
	l-2.871-2.375l0.494-2.82l-0.989,2.375l-2.375-3.316l-0.938,0.941l2.374-5.247l-2.374,0.494l-0.447,4.257l-3.361-0.94l1.436-3.811
	l-3.316,2.869l2.374-9.058l-1.88,0.497l-0.494,4.255l-2.868,0.989l1.436-2.871l-4.75,0.941l3.812-4.754l-4.755,3.317l4.259-7.573
	l-3.314,2.821v-1.385l-1.438,5.197l-1.884-3.315l2.871-1.436l-3.812,0.497l7.134-2.871l-3.322,0.494l-0.492-2.871l-3.811-2.821
	l2.374,0.444l-0.942-1.88l-1.879,1.436l-2.871-5.245l-0.49-0.496l-3.316,2.869h-7.128l2.374-2.869l6.188-0.94l-5.689-1.435
	l1.436-1.387l-2.378,0.942v-1.438L362.4,79.89v-3.31l-1.879,2.376l0.491-3.316l-2.374,2.375l-3.81-2.873l3.81,4.755l-4.306,0.987
	l-0.245-2.423l-1.188-2.327l-1.881,0.446l1.881-1.439l-5.197-1.384l-6.687-5.74l-0.938,1.929l-0.443-3.315l-11.883-3.365
	l-2.373-0.941l-4.751,0.941l-1.436,3.365h-3.315l2.377,1.386l-3.812,0.494l-2.87-1.436l1.436-2.376h-6.188l6.68-3.316l-4.303,0.942
	l4.303-1.882l-1.432-1.931l-3.812,2.871l-7.62-1.881l1.926-7.129l3.317-1.93L304,44.257l-2.867,1.929l-1.883-1.436l0.447-5.246
	l2.373,0.989l-2.373-1.931h2.373l-3.812-3.811l1.438-0.941l4.748,0.941l-5.195-1.386l-0.497-0.497l2.38-3.316l3.811,2.822
	l-0.938-2.376h4.257l-6.188-3.315l8.562-0.446l-1.979-0.988l-5.146-0.447l2.374-0.938l1.883,0.938l1.438-1.436h-5.195l5.688-1.88
	l-2.374-0.991l-3.812,1.931l-1.433-2.375l5.244-0.494h0.442l-4.751-2.822l5.248-6.187l-1.436,4.751l2.374,2.821l0.497-7.573
	l2.374,1.435l2.38-2.87l2.374,3.316l-2.374,4.751l1.877,1.93l1.932-6.188l3.313,2.377l-3.313-4.751l10.44,4.751l-6.683-5.248
	l0.99-0.445l0.941-1.436l-3.812-1.933l1.88-2.374L328.201,6.251z M386.162,107.954v-2.375h-1.88l2.374-1.931L386.162,107.954z
	 M375.273,95.58l0.938-3.315l3.318-1.436L375.273,95.58z M370.521,18.619l-0.491,1.879l-2.874-1.879H370.521z M374.284,26.685
	l-0.942-1.436l1.935-0.94L374.284,26.685z M296.381,31.932l0.494,2.375l-0.988,3.318l-3.76,0.938h3.314l-1.438,3.316l3.812-3.761
	l-0.94,7.573l-1.931-0.444l1.931,1.385l-2.377,0.989h2.377l0.444,2.377l-3.812,0.445l2.373,1.436l-5.69,2.87l5.69,0.445l-5.69,1.437
	l6.688,0.94l-2.38,1.435l2.825,0.494l-2.379,1.386l2.379,0.991l-3.316,0.938l0.938,3.812h-2.373l-3.812-0.989l1.438,3.365
	l3.312-0.496h3.367l0.938,3.315l-2.373,1.933l-1.438,0.94l-4.256-3.316l1.382,2.376l-2.373-1.933l0.991,1.933l-2.374-0.991
	l-0.994,2.377l-2.821-1.386l0.447,1.88l-1.883-1.88l0.493,1.88l-2.374-2.374l0.447,2.374l-2.377-0.94l4.308-4.306l-3.368-3.762
	l6.684,2.375l1.881-5.246L285,67.568l-1.93-6.187v2.871l-1.436-1.436l-1.883,1.88v-3.812l2.374-1.386l4.257,1.386l-1.88-1.386
	l1.88-1.929l-2.374,0.494l-6.635-6.682h3.812l5.194,2.87l-4.751-3.811l2.871-2.375l3.314-2.376L285,46.183l0.938-3.811l-1.93,4.257
	l-0.445,1.436l-2.375,1.436l0.94-1.88h-1.884l-2.374,2.375v-1.437l2.821-2.869l-4.754,4.306l-2.817-1.437l4.75-3.315l-5.247,2.823
	l1.88-3.315l-2.822,1.434l0.448-1.929h-2.821l3.809-3.315l3.764,0.94l-2.818-1.385l0.938-1.933L280.693,40l-3.318-2.872l1.436-1.879
	l1.883-1.882l9.057-1.931l-0.496,1.931l3.314-2.869L296.381,31.932z M385.224,30.497l-1.188,1.435l4.999,0.445l-3.315,1.929h-2.874
	l0.693-1.782l-0.693,0.842v-2.869H385.224z M379.531,34.752l-0.945-2.375l3.319-1.387L379.531,34.752z M275.495,53.315l0.444-2.376
	l1.932,5.195l1.878-0.94l1.883,1.931l-2.821,4.751l-1.436-2.374l0.496,5.195l-2.373-2.375l1.383,2.869h-4.26l-1.433-1.436
	l1.929-0.939l-4.303-2.376l5.248-1.929l-6.687,0.494l0.991-3.315l-3.364-0.495V53.76l2.871,0.987l-2.871-2.375l3.364-0.989
	L265.99,49.5l1.884-3.316L275.495,53.315z M260.249,61.872l0.493,1.386l1.438,4.306l-1.438-0.938l-4.254-2.377l-2.38,0.942
	l1.883-2.871l-2.373-0.444l-0.494-3.365L260.249,61.872z M246.986,63.26l-5.741,0.496l3.81-2.375L246.986,63.26z M268.363,64.25
	l-1.437,3.317l-2.871-0.942l-0.441-4.75L268.363,64.25z M422.629,537.953l-0.951-0.951l-0.908,3.186l-4.174-3.157l2.374-3.363
	l-2.87,0.988l-4.751-2.869l-6.187,4.75l-2.818,2.377l3.312,3.811l-2.871,2.375l-3.318,0.941l-1.433-3.812l-2.821,1.935l-1.93-2.871
	l-6.634,0.938l-1.436,1.935l-3.812-3.365l0.984,1.93h-1.929l-0.445-3.313l-8.56-4.307h-0.497l-3.318-0.939l1.886,0.939l-0.938,0.493
	h-1.436l-0.441,0.447h-1.932v-4.754l-1.887-0.445l1.887-1.436l-15.197-9.006l2.871-0.498l-0.942-3.316l-9.501,2.377l1.88,0.449
	l-20.439-2.377l-21.824-12.322l-16.182,3.812l-24.705-7.625l-7.619-2.373l-6.14-4.752l-10.936-2.873l-13.809-12.322l-1.387-2.873
	l3.318-0.938l-1.932-1.435l2.374-4.256l-4.748-10.445l-13.269-13.312v-3.314l-8.56-5.248l1.881-3.811l-8.563-8.564l0.497-3.76
	l-3.812-0.99l-6.188-8.516l-0.444-1.781v3.168l-1.434-1.881l1.381-1.385l0.053-0.051l-1.434-5.691l-2.38-9.504l-10.439-6.631
	l0.445,13.758l9.504,13.312l0.49,4.753l7.129,9.947l3.809,16.185l5.692,2.819l1.884,6.189l-3.761,1.436l-1.932-4.754l-11.382-10.44
	l0.444-9.062l-5.692-7.127l-2.821,1.438l-8.563-9.012l7.127,1.885l-1.931-2.375l1.931-3.316l-9.053-11.381l-0.945-1.936
	l-6.186-25.188l-5.199-7.129l-8.062-4.75l-3.367-1.882l0.989-4.261l-6.68-17.619l0.492-4.254l1.883,2.869v-4.75l-4.257-0.496
	l-2.374-7.621l-0.497-12.325l3.812-6.683l0.493-10.439l9.945-23.265l2.381,0.446l-2.821-0.94l2.821-4.751h-1.881l0.938-11.385
	l8.561,4.257l-3.811,5.247l3.811-3.317l-0.494,5.198l2.87-10.938l-2.376-2.82l1.438-4.751l-3.816,0.443l2.378-0.94l-0.494-2.377
	v-1.436l-0.938,0.991l-1.883,1.386l-1.933-2.377l3.318-2.82h-3.761l0.393-0.495l-2.323-0.938l1.435-1.883l-1.88,1.883l-1.933-2.377
	l4.309-1.436l-3.809,0.94l-0.939-1.385h1.879l-5.691-2.377h4.253l-4.749-1.435l3.317-0.496l-2.821-0.94l3.314-1.437l-2.376,0.942
	v-2.822l5.695-4.75l-4.755,1.88l0.497-2.374l-2.372,0.938l3.809-1.88l-2.378-7.622l3.318,1.929l-2.377-1.434l1.438-2.871
	l-4.309,3.365l-1.433-5.246l2.87-0.939l-2.87-2.376l0.99-1.93l3.76-0.942l-1.387-1.436l3.76-5.692l-2.818,3.813l-4.305,2.87
	l3.363-6.683v-2.821l-2.869,0.941l-2.867,0.94l4.75-3.315l-4.257-9.503l2.374-0.496l-0.494-2.82l1.433,2.374l-1.433-2.869h1.933
	l-2.381-2.375l2.825-2.871l-2.377,1.435l-1.386-1.879l2.376-8.069l-3.809,8.514l-2.374-2.377l1.88-4.75l-1.438,1.928l-1.387-3.315
	l0.448,6.137h-2.373l-4.258-13.758l2.818-1.882l-1.383,2.82l2.374-0.938l-0.991-2.377l-2.374,0.493l-1.386,0.447l-0.991-4.752
	l-8.51-4.257l0.443-3.809l-2.821-1.883l1.387-1.931l-1.883-0.446h1.883l-1.387-1.436l2.378-0.938h-3.812l0.938-1.931l-2.375,0.94
	l2.375-2.374l-4.751,0.987v3.762l-3.315,1.436l-1.932-2.82l-1.878,2.374l0.494-1.929l-1.436,1.929l-7.131-1.434l4.754-1.931
	l-2.374-1.881l6.184-4.257l3.766,0.445l2.374,3.812l-0.941-4.257h3.812l-3.812-1.931L84,129.792l-1.932,1.929l1.435,2.82
	l-5.692,1.932l-5.245-1.435l-20.392,2.374l0.941-1.88l-0.497-0.494l-5.195-0.942l0.941-1.929l-3.318,1.436l-0.493-2.822l4.75-0.497
	l2.378,4.257l2.871-2.82h1.386l10.936,0.94l4.752-5.246l4.751-1.384l-4.751-0.991l1.93-3.315l-4.751,2.871l0.94-5.247v-1.437
	l-5.692-2.374l3.761-0.447l4.753-6.681l-5.197-3.316l3.812-3.812l2.375,1.436L72.572,99.4l-0.447-1.435h1.884l-1.437-1.88
	l1.437-2.87l12.813-3.813l0.498,3.366l4.753-0.495l1.436,2.374l2.818-0.939l1.932-3.812h3.316l-0.942-2.375h-4.75l1.436-1.882
	l-1.436,0.94l-3.316-6.681l2.819-4.259l1.933,1.437v-5.692l9.949,3.317l-2.377,3.315l4.306,4.752l3.315-6.188l-1.929,3.812
	l1.929,2.87l-1.436-2.87l2.871-2.376l-2.374-4.256l2.822-2.87l1.436-7.625l3.809-0.938l3.313,3.314l8.07-1.386l2.375-0.495
	l4.305,1.438l-0.986,0.445l-0.444,0.988l3.313-1.434l2.374,2.375l5.245-0.494l-0.495,1.929l-2.87,1.387l3.365-0.445l-0.495,2.82
	l2.871,2.375l-1.928,0.991l0.94,2.818l12.369,11.434l0.945,1.386l2.868,5.742l6.186,10.443l0.447-4.307l5.245-1.386l-0.938,3.315
	l2.821,0.445l7.625-1.387l3.312-0.988l-1.88,1.436l-4.307,3.315l8.561-1.88h1.882v-3.315l0.988,4.256l0.942,5.69l3.812-3.761
	l0.939-0.989l-0.495,0.989l-1.432,4.257l7.121-0.94l3.815,3.315l6.183,5.246l5.245,1.385l1.884,3.811l-3.812,0.497l-0.444,2.822
	l9.007,2.374l5.247-1.879l5.196,5.69l-1.877,1.436l3.312,5.246l-1.436-4.306l1.933,0.942l0.445-1.883l-2.378-4.751l7.128-5.246
	l-5.195,2.869l-3.364-1.434l7.62-3.812l2.871,5.74h4.254l3.315,3.762h6.184l3.318-0.444l0.497-2.871l3.809,4.306v-3.365
	l-2.373,0.494l-1.438-3.315l3.809-0.94l2.375,1.387l-0.491,1.929l1.88-1.929l-1.389,5.74l3.763,1.88l-0.941-6.187l4.753-3.812
	l-0.94-2.82l-1.88,1.88l0.441-3.811l2.379-0.445l-7.577-2.871v-0.941l0.448-4.751l-1.881-0.493l4.254-8.068l8.562,11.435
	l-2.373-0.495v1.879l-0.497,1.932l6.685,0.94l-2.867,0.94l4.75,7.623l0.94-7.623l3.36,1.932l4.755,11.878l2.374-1.931v-9.948
	l2.376-0.497l-4.31-6.631l8.067-0.495l-1.387,1.436l5.198,0.94l-0.94,2.377l2.377,1.435l-2.874,1.88l5.738,5.692l-3.812,8.562
	l-2.374-3.315l-3.809,0.495l5.688,4.751l-9.501-1.436l3.313,2.374l-3.313,6.188l-8.068-3.365l-3.312,0.989l13.312,3.761
	l-2.374,7.128l-6.188,0.99l-1.438,5.195l-10.938-4.75v2.376l5.691,0.494l-0.448,1.88l1.884-1.435l4.304,3.364l-1.931,2.822h-3.809
	l2.373,1.437l-5.691,5.246l1.438,1.384l-4.752,9.058l0.492,10.444l2.821,4.257V196.3h3.812l4.257,9.503l-1.384,3.366l8.065-3.812
	l25.191,11.879l11.882-1.931l4.254,15.689l9.998,7.128l0.445,3.315h2.871h0.938l0.938-4.257l3.312,2.871l-2.376-3.812l1.934-4.306
	l-6.682-12.82l-4.258-2.375l7.129-7.126l1.877-9.008v1.88l2.874-0.445l-2.874-2.377v0.941l-6.135-10.443l-7.127-2.871l1.386-10.939
	l-2.82-5.195l-2.373,0.939l0.439-5.692l-3.757-4.307l1.384-2.821l10.492,0.446l1.389-3.316l7.122,4.255l2.374-0.939l0.993,2.869
	l6.632,0.447l0.498-2.376l2.819,6.68l-3.811,1.883l3.811-0.941l1.93,4.257l1.88-0.941l0.496,3.812l-1.932-0.94l-0.444,2.375
	l6.634-2.871l1.438,5.692l0.439-4.751l2.871,3.365l1.441-7.625l3.312,3.318l-2.374-3.318l1.438-2.87l-1.934-0.446l1.934-1.927
	l-2.877-1.882l-0.444-4.75h1.883v1.879l7.129,3.365l-1.436,1.883l2.867-1.438l1.883,1.931l-0.444,3.761l2.374-2.823l-0.492,4.257
	l1.883-2.822l0.494,1.88l3.313,0.941l-1.437,1.931l5.244,0.446l0.94,3.315l-3.314,0.989l3.812-0.495l-1.438,1.435h2.381
	l-0.943,1.436l2.374-1.436l-0.491,2.375l4.307-0.94l0.938,1.882v-2.377l1.881,5.693l1.438-2.824l0.488-0.988v1.929l1.785-1.335
	l0.1-1.04l0.492,1.88l0.447-1.88l1.435,1.88l2.877-2.375v1.435l3.312-0.494l-4.751,8.116l2.821-3.812l-2.377,7.572l3.367-8.066
	l4.258-0.445l1.436,3.76l1.438-4.257l4.255,1.436l0.497,4.255l2.373,0.496l-2.373,1.436l3.763-0.989l-2.38,1.435l3.367,0.94
	l-1.438,7.128l-5.245,4.752l-0.444,9.057h-0.497l-24.692,12.819l-0.497,2.377l-0.443,5.691l-7.624,11.88l1.438,3.316l-2.868,9.057
	l8.066-18.065l6.184-7.622l6.688-2.377l3.312,4.306l-2.374,4.257l-6.183,3.316l4.254-1.385l1.433,1.881l2.87-2.871v6.186
	l2.377-1.436l2.818,4.753l8.121,1.436l5.195-4.256l3.168,0.791l-2.676-2.724l1.435-9.007l2.38,4.75l-0.99,5.692l1.434-0.94v-5.246
	l1.934,0.494l0.939,0.496l-0.491,0.94l-3.764,5.593l2.322,0.593l-1.384,1.881l-8.118,8.067l0.991,1.931l-3.367,0.444l-1.884,10.443
	l-3.812-0.94l-1.877-5.198l4.259-9.055l2.862,1.434l1.886-3.811l-4.748,2.377l-1.885,0.94l0.938-4.752l-6.632,9.998h-3.812
	l2.374,2.375l-3.313,5.691l-1.931-1.436l-1.884,3.366l-0.938-2.87l0.446,6.186h-3.317l0.938,2.377l-1.878,0.938l-0.496,10.938
	l5.244,3.313l0.448-2.869l1.436,2.377l-5.691,3.81l-1.879-2.375l0.938,3.813l-9.998,5.688l-2.374,5.248l2.374,4.75l-2.374,7.129
	l-4.754-4.311l4.754,8.562l-2.38,10.938l0.497-6.633l-5.688-5.246l1.383-5.689l-3.76,3.316l4.257,8.066l-6.188-2.82v2.373
	l6.686,1.387v2.182l0.442,0.197l-0.442,2.867l-2.374-1.881l2.816,2.822l-3.316-0.443l6.188,0.938l4.257,7.129l-3.812-5.69
	l1.932,4.26l-2.377-0.94l-2.374,3.315l3.812-1.438l0.445,2.375l0.494-2.82l1.432,2.375l-1.926,2.82l-5.196,0.495l3.313,0.443
	l-2.374,2.871l3.812-0.496l-11.881,12.375l-5.736,9.008l-2.821,4.308l-1.933-1.438l1.437,1.881l-4.257,8.562l4.257,8.066
	l10.442,20.936l-1.384,13.313v-1.436l-3.366,1.436v-3.364l-4.755-1.388l-2.821-7.127l-2.373,0.941l-2.374-3.316l0.938-3.812
	l-2.375,0.938v-7.129l-7.622-6.188l-0.941-0.44l-2.377-0.496l-1.881,1.438l-4.75,3.313l-1.438-2.377l-0.938-1.881l-5.692,0.441
	l1.879-0.938l-6.187,1.881l0.938-1.881l-6.135,3.812l1.384-1.437l-1.384-2.871l-0.496,3.367l-14.256,2.816l4.754,0.94l2.868,0.494
	l-2.868,2.871l4.748,1.883l-2.373,2.375l-2.871-3.812l-2.817-0.445l0.939,3.314l-2.38-1.435l-2.374,2.375l-6.631-4.752l-2.87,2.377
	l-9.998-0.494l-6.138,2.869l1.879-1.438l-3.312-0.938l-0.496,4.75l-7.127,4.256l1.437-0.938l-4.258-0.443l1.883,1.881l-5.25,2.375
	l-1.381,6.188h-2.375l2.375,0.443l1.879,9.062l-2.375,6.631l0.938-2.818l-2.818,1.388l-0.498,5.244l0.498,13.312l0.445,3.812
	l14.254,22.319l4.75-0.492l5.246,4.308l14.699-5.246l5.244,0.938l5.691-7.129l2.374-11.381l14.256-6.188l9.506,0.496l-5.689,12.321
	l2.373,0.494l-2.373,9.948l-1.883-4.257l-1.934,3.313h1.934v9.506l-4.751,7.617l5.688,0.449l21.826-5.693l11.433,2.871l1.884,5.691
	l-3.317,19.945l7.132,6.682l5.243,5.195l3.314-0.439l-0.938-1.438l5.691,0.938l7.572-5.244l2.373-1.879l4.311-0.94l8.066,0.442
	l4.034,2.646l1.533,3.069L422.629,537.953z M135.278,195.459l-1.387,1.336l-0.94-0.94l1.883-2.375L135.278,195.459z
	 M135.775,197.735h-2.374l1.88-2.276L135.775,197.735z M42.675,132.653l-0.496-1.437h-1.681l4.058-0.446L42.675,132.653z
	 M40.303,132.653l-1.93-1.883l-2.377-2.374l4.751,0.939l-0.246,1.881L40.303,132.653z M72.125,101.272l-2.87-0.446l0.496-1.931
	l2.821,0.495L72.125,101.272z M245.055,66.628l-1.883,2.82l-3.312-1.437l0.445-2.376L245.055,66.628z M229.86,67.564h3.81
	L236.047,69l-5.247,5.198v-3.315l-5.195,5.244l-0.497-0.495l-0.494-2.374l-3.764,0.94l7.131-5.197l1.88-1.434L229.86,67.564
	L229.86,67.564z M271.188,69.942l-4.751-0.494l3.81-1.437L271.188,69.942z M276.879,69.001l-0.441,1.882l-1.934-1.882H276.879z
	 M81.628,79.889l-2.871-0.94v-6.188l2.377-1.386L81.628,79.889z M245.996,79.891l1.93,1.436l0.944-2.822l1.877,1.386l-1.387,5.248
	l-5.245-0.497l-8.065,2.872l-3.319-2.375l7.129-2.377l-5.742,0.495l0.498-2.873l-3.812,2.873l-3.319-2.375l5.692-1.932h-3.812
	l4.754-1.436l-3.314-0.444l4.303-0.942l-1.93-0.99l1.93-1.385l4.754,7.573l4.256,0.495l-1.435-5.692l2.871-2.869L245.996,79.891z
	 M265.99,73.263h5.196l0.94,3.315l4.308-1.883l-0.939,0.941l4.257,0.942l-4.257,0.493l2.818,0.938l-1.435,1.882l1.931-1.387
	l2.375,3.317v-1.933l4.75,1.436l8.07-4.257l3.312,0.94h0.941v1.879l-0.445,1.438h0.938h1.438l-0.938,1.437l-2.871,2.374l-3.811-1.88
	l0.496,2.376l-8.067,1.881l-1.931-2.87l-2.373,2.87l-4.754-2.376l-2.821-8.562l-4.303,1.436l-2.824-4.751L265.99,73.263
	L265.99,73.263z M227.98,77.515h-2.376l4.256-2.375L227.98,77.515z M265.99,83.257l-1.438,2.375l-3.812,0.444l-1.432-2.374
	l1.432-1.435l0.501-0.942h-0.501l-5.241,0.497l3.364-0.942l-1.438-4.305l3.315,3.316l-1.877-3.762l1.877,0.446l1.438,0.493
	l0.941-1.929L265.99,83.257z M273.562,87.514l-6.187-1.881l3.365-4.306L273.562,87.514z M218.918,83.258l1.932,2.822l1.387,1.929
	l3.368-0.991l3.318,5.247l-13.318,6.632l-0.938,0.497l-1.933,3.315l-6.63,0.938l-0.943-6.631l-2.376-0.942l9.949-9.057l-0.444-4.257
	L218.918,83.258z M368.146,86.08l3.76,1.434l-1.88,3.811l-0.941-2.375l-2.374,1.882l-2.377-2.377l-0.941-0.94l2.821-1.881
	L368.146,86.08z M301.629,88.949h5.692l4.748,3.316l-6.683,2.375l-1.884-0.941h-0.494l-2.819-4.307L301.629,88.949L301.629,88.949
	L301.629,88.949z M303.5,95.134l0.496,5.692l0.938-3.316v-0.99l6.637,3.365l-3.812-2.374l4.312-0.496l-4.312-0.94l1.438-2.376h5.692
	l-0.938,4.75l4.309-2.871l-1.438,3.316l1.438-0.445l0.445,3.316l1.435-4.751l1.878,4.751l0.993-4.751l3.761,1.436l-0.442,4.752
	l2.377-4.306l-0.497,5.246l1.437-1.436l0.496,3.316l0.938-6.631v3.315l0.938-2.821l3.815,0.445l-2.374,4.752l2.374-2.375v1.436
	l0.938-2.871l2.871,1.435h0.447l0.938,1.436l-5.689,3.811l6.682-2.376l2.378,1.436l-6.188,0.94h2.82l-1.385,2.377l1.385-1.931
	l2.372,1.931l-3.757,1.434l7.572-0.494l-2.377,2.376l1.93-1.437l1.882,1.931l0.494-1.436l1.389,2.374v-2.374l1.438,2.82
	l-0.939-2.375l2.376,1.929v-0.494l0.938-1.88l3.316,1.88l-1.882,0.94l2.377-0.446l-0.94,2.377l1.884-2.871l0.494,2.377v-3.316
	l0.447,4.256l1.929-2.375l1.438,1.929v-3.316l3.316,1.387l-1.933,1.435l2.871,0.941l-3.318,1.435l3.814,0.942l-3.367,0.493
	l3.367,2.871l-3.814-0.991l4.257,6.188l-8.56-2.82l0.493-4.754l-1.886,4.258l-0.984-3.316v2.375l-3.767-2.375l-3.362,1.436
	l4.751,2.82l-3.766,0.94l2.821,3.812l1.438-2.375l5.244,5.246l-0.987-2.377l2.375,2.377l0.985-2.377l3.318,1.883l-1.438,1.434
	l4.258,0.94l2.869,4.306l-4.257-2.375l5.688,6.632l-12.819-3.315l2.377,2.377l-5.245-0.941l15.194,7.573l-20.886-0.445l-2.374-1.438
	l2.374-1.931h-5.245l-4.258-4.752l0.442,2.377l-4.751-2.822l1.936,3.315l-10.938,2.871l-0.496-7.128h5.244l5.692-3.365l-4.751-3.76
	l1.929-4.753l2.822-0.989l-2.822,0.494l0.449-4.257l-8.067-7.126l-0.939,1.384l-4.311-2.374l-1.88,2.869l0.941-4.257l-2.821-1.929
	l-2.375,0.94l-0.496-2.377l-0.494,1.933l-1.88-1.437l-3.812-3.812l-0.938,2.376l2.373,1.931l0.94,0.445l-3.316,0.493h-4.257
	l0.938,0.447l1.882,1.93l-2.819-1.436l-3.81-1.437l2.818,1.437l1.438,0.494l-9.5,1.385h-0.942l-1.88-3.315l-3.367,2.375l-2.82-1.435
	l-2.375-3.316l10.442-2.376l0.942,1.437l-0.449-4.753l-4.307-1.879l1.438-1.931l2.869,1.434l-5.243-5.245l4.253,0.494l-3.76-1.434
	l3.76-0.446l-3.314-1.436l6.188-3.812L303.5,95.134z M288.312,90.828h3.812l-1.437,7.126l1.881,4.752l3.81,4.306l-4.747,0.942
	l-7.129-0.495l-0.496-11.384L288.312,90.828L288.312,90.828L288.312,90.828z M278.312,99.391l-4.75,0.494l1.933,1.88l-3.365,3.318
	l-1.883-12.82l10.446-0.494L278.312,99.391z M258.865,93.204h1.88l6.187,0.495l-2.867,4.75l4.306,1.882l-0.496,6.681l-2.871,0.445
	v1.437l-2.378,0.495l-1.88-1.932l-6.187-6.631l1.433-2.873l4.258,2.377l0.496-1.435l0.498-1.385l-0.498-0.497l-3.315-1.434
	l2.377,0.495L258.865,93.204L258.865,93.204z M228.425,98.896l4.751-2.376l2.874,2.376l-2.38,2.375l2.38,0.494l0.938-1.88
	l1.884,1.386l-1.386-3.762h1.876l3.318,9.503l0.494-10.492l3.318-0.445l2.867,3.316l0.447,11.878l8.564,6.187v0.941v2.375
	l-1.439-1.88l-2.821,2.82l-2.373-1.436l0.444,4.306l2.376-2.871l1.433,3.315l-9.005,0.495l-3.367-4.257l-7.121,4.752h-11.389
	l-0.493-3.811l-6.634-3.811l-0.941-4.257v-0.494l15.196,0.494l-5.248-3.366l-9.5-0.94l-0.448-3.315l8.563-1.436l-7.622-0.445
	l1.88-1.436l-2.821-1.435l2.821-4.257l10.495-3.812L228.425,98.896z M251.24,94.639l-1.433,3.811l-3.814-3.315l0.993-1.436
	L251.24,94.639z M67.819,97.956l-1.88,2.871h-2.374l0.941-5.247L67.819,97.956z M169.036,115.082l1.932,4.257l5.196,1.435
	l1.928,8.562l-1.928,3.812l7.127,8.514v3.364l0.491-3.364l-7.618-8.514l2.373-4.306l-0.941-7.574l-7.622-4.751l3.369-7.621
	L169.036,115.082z M311.572,115.082h-1.881l1.438-0.941l1.383-0.989L311.572,115.082z M273.562,126.019l-3.315,2.821l-6.631-2.821
	l2.374-6.681L273.562,126.019z M332.955,121.713h-3.809l2.37-0.94L332.955,121.713z M328.205,121.713l0.941,4.306l-3.767,2.376
	l-1.929-7.129L328.205,121.713z M30.8,127.405l-3.269,0.396l1.831-2.277L30.8,127.405z M27.433,127.899l-0.196-0.098h0.295
	L27.433,127.899z M26.494,127.9l-2.377-1.437l3.119,1.337L26.494,127.9z M188.039,132.653l-0.444,2.869l5.688-0.989l4.754,2.871
	l-4.754-0.942l1.438,1.88l-5.741,2.871l3.812,2.821l6.183-2.821l-3.809,4.257l4.306-1.436l1.878-0.446l0.496-3.315l5.195,1.881
	l2.38-6.632l-3.317,1.882l-3.813-1.436v-0.941l3.813-1.436l-1.884-1.88h-0.491L188.039,132.653z M84.003,140.274h-3.808l1.88-2.377
	L84.003,140.274z M74.5,142.648l2.821-3.811l-0.448,1.882l2.381-1.436l1.435,2.871l-2.381,2.375l-0.986-1.881v1.881h-6.138
	l2.378-1.436h-1.437v-3.316l1.88-0.94L74.5,142.648z M221.791,142.648l0.942-3.364h-1.884L221.791,142.648z M311.572,142.648h-2.374
	l-1.881-1.929L311.572,142.648z M267.379,144.53l2.377-0.939l-0.941-1.933v-0.445L267.379,144.53z M307.317,146.905l0.939-1.88
	l9.998,4.751l0.445,3.76l2.868-1.879l3.314,1.879L323,156.407l-5.244-0.494l-2.38-2.821l-5.245,8.563l-2.374-3.812l-4.754,1.882
	l2.38-4.257l-1.386-12.819L307.317,146.905z M230.357,152.153l0.938-1.932l-4.754-6.187L230.357,152.153z M222.239,150.221
	l0.494-1.88l-5.692-3.812L222.239,150.221z M131.967,146.41v3.366l1.928-4.306L131.967,146.41z M260.742,145.963l-5.241,0.445
	l5.241,1.437h0.501L265,145.47L260.742,145.963z M378.093,152.598l-2.374-0.941l2.374-1.436V152.598z M226.052,154.975l4.306-1.437
	h-5.248L226.052,154.975z M332.955,156.408l-2.374-1.881l2.871-0.494L332.955,156.408z M221.297,155.913l4.308,0.989l-2.374-2.375
	L221.297,155.913z M260.742,155.467h-2.373l2.373,0.94l4.754,0.942l4.751-2.822h-0.493L260.742,155.467z M229.363,157.842
	l8.119,1.436l-3.812-3.811L229.363,157.842z M199.917,156.902l3.316,2.822l-1.387-3.316L199.917,156.902z M140.524,161.158
	l-2.821-0.494l3.318,0.991l-3.318,4.255l2.821-0.494l1.436-6.632L140.524,161.158z M269.309,161.159l0.938-1.435h-3.315
	L269.309,161.159z M316.823,167.347l-1.439-1.929l2.378-3.317l3.812-1.437L316.823,167.347z M331.52,164.97l-1.386,2.374
	l-0.494-5.245L331.52,164.97z M209.916,170.167l-3.315,0.493l-2.377,3.812l-5.738-2.375v-0.495l-0.351-0.049l-1.036-1.831
	l-6.683,0.444l7.719,1.386l0.351,0.544l8.557,4.751h4.309l11.383-8.068l4.256-0.989h-3.314l3.809-0.446l-2.374-0.492h5.248
	l-5.741-1.882l-9.949,5.197l-7.625-7.127L209.916,170.167z M220.85,168.781l0.941-1.929h3.318L220.85,168.781z M253.618,166.406
	l3.314,2.374l1.437-5.74L253.618,166.406z M266.438,169.227l3.81,1.435l-1.433-3.811L266.438,169.227z M349.14,170.167l6.14-0.446
	l-1.389-1.931L349.14,170.167z M258.865,172.098l1.877,0.94l0.501,0.495l-0.501-1.929l-0.938-2.377L258.865,172.098z
	 M226.049,173.978l0.94,1.931l3.368-5.742L226.049,173.978z M131.023,173.978l-1.438,1.435l-1.88-2.871l1.436,4.306l-1.933-2.375
	l-1.383,2.375l1.383-6.187L131.023,173.978z M253.618,173.038l2.373-2.376h-1.883L253.618,173.038z M133.895,174.473l-1.928,5.197
	l-3.318,1.435l3.812-9.501L133.895,174.473z M240.305,178.73l3.808-2.82l-0.94-1.932L240.305,178.73z M353.396,177.789l5.245-0.495
	l-3.812-0.938h-0.491L353.396,177.789z M245.055,182.541v2.871l2.374-3.812L245.055,182.541z M129.145,184.421l-2.377,4.306
	l2.821-6.682L129.145,184.421z M133.398,184.422l-1.879,2.87l-1.931-0.94l0.987-4.306L133.398,184.422z M261.243,183.977
	l-0.501,3.315l-0.493,1.883l0.493,0.494l1.881,1.435l-0.939-4.306l2.374,0.494l-1.435-1.435l2.873-3.812L261.243,183.977z
	 M250.747,186.796l2.377,1.931l-0.941-5.246L250.747,186.796z M399.031,186.352l2.374,0.445l-0.99-1.882L399.031,186.352z
	 M242.235,188.727h2.819l-0.939-3.317L242.235,188.727z M131.967,195.358l-2.822-0.445l2.375,1.88l-1.931,3.812l-0.444-2.871
	l-1.932-2.822l2.376-1.929l-1.88-0.941l1.88-5.246L131.967,195.358z M395.219,189.667h2.377l-1.436-1.88L395.219,189.667z
	 M217.041,194.418h0.448l0.987,1.881l6.633-3.761h12.817l-12.817-3.366L217.041,194.418z M356.716,194.913l4.304-1.929l-1.93-0.446
	l1.438-2.375L356.716,194.913z M407.095,197.736l-2.374,1.434l0.444,0.495l-1.387,1.386l-8.562-5.197l3.815,5.197l-1.438-2.375
	l6.631,2.872l0.938,2.869l1.933-0.496l-2.374-1.435l0.938-3.315l2.871,0.494l3.315-2.869l-2.871,0.94l-4.754-3.812L407.095,197.736z
	 M164.779,209.614l-0.497-6.634l6.189,1.437l-6.639-1.931l-1.432-5.691L164.779,209.614z M447.932,198.232l-1.88,0.938l2.377,0.941
	l1.438,9.057l0.438,3.315v-3.81v-1.437l0.497,0.941l0.493,0.494l2.378-1.881v4.751l2.821-2.871l0.94,3.812l0.989-5.69l1.386,1.88
	l3.361-2.376l1.389,7.126l3.362-3.811l-1.93,4.306l1.93,0.446l-0.494,1.931l2.374,0.939v-5.247l0.941,4.751l0.941-2.82l1.433,0.942
	l1.933,7.126l-1.933,0.94l-1.88-3.811l-0.494,4.306l-1.432-4.751l-2.383-1.931l-0.439,8.068l-2.874,2.376l1.933-7.572l-4.309,4.75
	l-0.939-4.307l-1.883,5.247l-6.68,1.881l-2.377,3.365l-1.88-1.435l1.88-6.682l-3.812,2.871l0.99-6.632h2.377l-2.87-1.931
	l1.886-1.435l-1.886-3.762l-1.88-4.75l1.383-9.503L447.932,198.232z M246.493,199.664l-0.941,4.257h2.374l1.435-5.245
	L246.493,199.664z M362.405,200.605h3.366l-2.382-1.929h-0.488L362.405,200.605z M248.867,206.298l1.433,5.245l-2.374,1.881v-2.869
	l-0.939,4.306l5.689-4.752l0.942-8.562L248.867,206.298z M345.775,205.803v1.434l-0.444-1.434l-2.378,1.929l0.938-5.691
	L345.775,205.803z M126.768,204.861l-2.377,2.376l5.195-2.376l-5.689,5.245l2.374,1.882l-2.374,0.941l1.435,6.188l-2.87-8.563
	l1.436-8.066L126.768,204.861z M383.341,206.795l2.377-1.932l-0.939-1.436L383.341,206.795z M232.241,207.237l4.257-0.939
	l-0.945-2.377L232.241,207.237z M265.496,209.614l-3.812,1.929l6.19-2.374l0.493-4.306L265.496,209.614z M411.354,209.169
	l1.936-0.495l-3.368-1.88L411.354,209.169z M392.842,211.989l2.377-0.446l-0.938-3.811L392.842,211.989z M225.107,209.169v0.445
	l0.199,0.249l1.235,4.404l-0.146,0.247l-1.782,1.784l-1.88-1.931l1.435,4.305l2.228-4.158l0.146-0.147v-0.1l0.941-1.782
	l-2.174-2.622l-0.2-0.693L225.107,209.169L225.107,209.169z M136.269,221.492v-3.315l-0.938,0.494l1.384-4.305L136.269,221.492z
	 M147.205,214.858l-3.365,1.882l4.307-1.882l2.824,4.257l3.362-0.444l-5.245-3.813l-5.248-0.492L147.205,214.858z M257.875,219.116
	l2.867,0.496l-1.877-3.316L257.875,219.116z M395.663,222.432l1.979,2.277l-0.05,0.098l0.146,0.049l3.665,4.257l-0.99-8.563
	L395.663,222.432z M433.23,225.303v1.881l-12.375-0.446l7.625-2.375L433.23,225.303z M283.561,228.172l4.752-2.869l-3.811-0.496
	L283.561,228.172z M346.27,231.491l-6.187-0.942l3.312-2.376L346.27,231.491z M270.247,233.865l-4.748-0.938l-1.438,3.76
	l3.812,1.931l-0.498,0.446l-1.88,0.989l4.258,6.632l2.376-1.436l1.433,5.245l2.377-1.436l0.496,9.008l1.877-6.137l-7.571-20.934
	l-1.433-2.376L270.247,233.865z M399.973,233.371l1.436,0.941l2.377,1.435l-1.436-1.879l-2.877-4.309L399.973,233.371z
	 M259.311,234.806l-2.822,0.941l4.254,1.929l2.874,0.94l-2.874-2.87v-2.376l1.881-1.435l-1.881,0.991l-0.493,0.443v-3.316
	L259.311,234.806z M283.561,232.926h3.316l-2.871-1.931L283.561,232.926z M379.034,235.3l0.991,6.632l2.815-10.937L379.034,235.3z
	 M143.396,240.499l0.938,2.869l4.257,13.314l-7.569-4.308l2.374-3.316l-4.306,0.497l-2.821-9.06l-0.496-0.938l-3.312-1.436
	l3.312-2.375h-3.312l-0.497-2.82L143.396,240.499z M395.663,241.932l2.377-3.315l3.365,1.436l-4.31-2.87L395.663,241.932z
	 M255.991,240.051l4.751,0.444v1.931l0.941,7.129l0.497-9.504l-1.438-0.989l-1.877-0.94h-2.874V240.051L255.991,240.051z
	 M364.334,239.063l1.438,2.374l1.879-2.82L364.334,239.063z M375.719,242.872l0.941-2.82l-2.376-0.495L375.719,242.872z
	 M365.275,244.309v2.869l-0.491,2.377l2.375-2.377v-0.494l-1.388-2.375H365.275L365.275,244.309z M439.862,249.555l-8.066-0.991
	v-3.76l2.374,3.76l8.069-4.255L439.862,249.555z M263.122,250l2.868,1.929l3.318,7.573l-4.754-11.382L263.122,250z M227.98,253.318
	l-4.75,1.436l7.569-1.882l-1.877-1.93L227.98,253.318z M380.47,253.317l4.751,0.496l-3.312-2.377L380.47,253.317z M297.318,257.128
	l-4.254-1.437l3.811,2.872l3.314-0.941l0.443-3.315L297.318,257.128z M314.449,257.622l-1.439,1.88l3.813,2.872l0.938-4.752v-0.494
	l-1.884-1.882L314.449,257.622z M391.9,274.252l-10.938,3.316l11.085-3.216l-6.333,9.404l-7.625,5.199l3.315-0.943l-0.938,2.377
	l-9.505,2.869l-2.373,4.752l14.252-3.811l2.874-3.316l-1.933-3.811l1.933-3.316l6.63-9.503l-0.297,0.1l9.354-13.909L391.9,274.252z
	 M284.006,263.811l2.871-0.496l-2.871,5.691l5.741-2.375l-3.81-0.94h3.81l-2.87-4.752L284.006,263.811z M374.777,264.749
	l2.874,1.882l-1.936-4.753L374.777,264.749z M318.7,267.574l-1.884,1.435v-2.821l-0.494,3.315l-2.373-0.494l-12.817,14.257
	l6.188-1.884l-0.496,2.82h2.87l8.067-6.138l1.438,3.314l3.313-1.438l2.87,2.373l11.382-3.812v1.931h3.812l2.376,2.821l-8.065,0.494
	l-4.754,4.754l-2.374-1.933l-3.81,9.503l3.312-0.941l-1.436,11.88l4.754,11.432l3.81-2.867l0.941-8.066v-0.492l-2.377-12.324
	l2.871-4.309l0.938,3.316l1.438-8.068l8.562,2.375l1.885,6.686l-2.373,5.196l5.243-3.314l3.761,6.633l2.871-3.315l0.495-9.505
	l-3.366-4.256l4.754,3.812h4.754v-0.986l0.988-2.377l-1.936-1.885l-5.194-4.75h-19.5l-3.316-10.443l-5.245,0.941l-3.809-5.247
	l-9.014-0.445L318.7,267.574z M293.507,270.441l4.754,1.88l-4.754-4.257V270.441z M241.742,275.193l4.751,0.495l1.88,3.765h6.68
	l-5.692-0.445v-2.868l-1.435,1.436l-1.933-2.87L241.742,275.193z M361.961,276.135l-2.378,0.938h2.378l3.314-0.445l-1.886-0.938
	L361.961,276.135z M219.862,277.072l0.987,1.932l7.575-2.379l0.498,1.883l0.938-2.373L219.862,277.072z M352.753,285.043
	l-7.128-0.99l7.572-1.879L352.753,285.043z M257.43,286.133v12.322l-3.318,2.375l4.754,1.932l-1.438-16.629H257.43z M368.146,302.27
	l-1.936,1.437h1.936l-8.116,2.375l-5.694,5.248l-0.938-1.935l2.867-1.438l-1.932-1.879l-2.819,7.621h9.503l8.065-7.621l3.812-3.811
	l0.442-3.812L368.146,302.27z M264.555,309.891l4.257,3.312l-4.754-6.633L264.555,309.891z M191.354,325.578l0.991-2.871
	l1.386,1.436l-3.759-6.188L191.354,325.578z M192.789,354.086l5.248-1.438l1.88-4.75L192.789,354.086z M172.349,357.402l4.753-0.494
	l1.93,3.316l-1.93-3.765l-1.386,0.445v-2.82L172.349,357.402z M367.155,371.656l2.377-0.496l-1.386-1.881L367.155,371.656z
	 M279.255,380.666l2.871,0.492v-1.932L279.255,380.666z M198.037,413.924l2.375-1.883l-2.871-1.434L198.037,413.924z
	 M409.919,412.982v5.246l-1.386-0.494l0.938-4.256l-3.312-1.935L409.919,412.982z M384.285,417.24l2.373,1.436l-0.496-3.811
	L384.285,417.24z M417.544,421.545l0.49,3.318l-0.49-2.377l-4.257-2.871L417.544,421.545z M408.039,427.238l-1.438,3.312
	l-3.312-1.436l0.938-4.254L408.039,427.238z M408.039,431.99l-0.497-0.492l1.438-1.387L408.039,431.99z M409.919,431.498
	l-0.448,1.928l-1.432-1.436L409.919,431.498z M441.298,443.373l-3.812,0.99l3.812-3.812V443.373z M488.318,445.305l-7.128,3.812
	l-0.941-2.865l9.502-4.756L488.318,445.305z M518.259,441.988l-2.374,3.313l-1.436-1.436l1.929-2.377L518.259,441.988z
	 M417.044,449.113l7.621-1.437l0.497,3.314l10.443-0.494l-4.752,3.812l-17.569,5.688l3.312-4.256l-0.938-1.883l-6.189,0.94
	l-4.747-4.752l-8.066,0.445l-12.372,0.988l-2.377-0.988l3.312-1.387l-1.88-0.99l-5.69,0.99l-7.618,7.125l-6.189,1.387l4.31-1.879
	l0.938-5.246l18.51-7.127h7.621l1.438-0.445L417.044,449.113z M464.113,446.738l3.812-1.438l-2.868,2.381h8.562l-1.438,3.312
	l-12.812,3.32l-2.381,4.305l-1.438,3.312l-4.258-2.867l-11.431,5.688l-4.254-1.383l1.433-2.379l11.878-3.367l-3.364-1.879v-3.316
	h-4.751l3.368-2.867l18.012-4.756L464.113,446.738z M376.66,454.805h1.926l1.439,1.883l-2.874,0.938v0.498l-0.491-3.316V454.805z
	 M425.165,470l-5.247,1.881l-4.751,1.438l-4.754-1.882l9.505-3.317L425.165,470z M525.883,479.008l-5.689,3.814l2.819-3.32
	l-1.88-1.436l4.257-3.314L525.883,479.008z"/>
</svg>
