<?xml version="1.0" encoding="utf-8"?>
<!-- Generator: Adobe Illustrator 16.0.4, SVG Export Plug-In . SVG Version: 6.00 Build 0)  -->
<!DOCTYPE svg PUBLIC "-//W3C//DTD SVG 1.1//EN" "http://www.w3.org/Graphics/SVG/1.1/DTD/svg11.dtd">
<svg version="1.1" id="Oceania" xmlns="http://www.w3.org/2000/svg" xmlns:xlink="http://www.w3.org/1999/xlink" x="0px" y="0px"
	 width="541.479px" height="541.479px" viewBox="0 0 541.479 541.479" enable-background="new 0 0 541.479 541.479"
	 xml:space="preserve">
<path fill="#BED62F" d="M444.633,525.352l0.571-1.604l10.139-5.825l2.748,0.52l1.146,17.396l-3.319,1.088L444.633,525.352z
	 M360.556,521.493l1.036-1.035l-3.018-5.941l3.833-6.572l1.82-0.068l2.188-4.03l10.98-7.146l6.854-1.245l2.11,0.468l6.082-2.575
	l13.601-14.017l3.887-2.356l3.265-0.973l5.561,3.773l4.347-12.513l3.599-1.334l2.03-2.626v-3.559l0.219-0.169l-0.219-0.351v-4.977
	l1.438-0.43l-1.934-0.09l-1.146-18.134L439,426.521l1.661,0.569l5.675,8.797l0.821,0.159l2.229,5.491l-3.165,1.285l4.686,5.301
	l-0.833,1.837l0.681,2.251l-0.974,4.826l4.048,0.934l-0.409,3.734l7.146,1.559l2.23,2.229l0.721,11.927l-7.723,9.837l-8.791,3.148
	l-9.808,10.612l-3.734,2.422l-4.921,1.656l-3.647-1.636l-10.429,6.796l-1.749,2.479l-2.44-1.728l-4.412,7.638l-3.924-0.515
	l-6.275,8.857l-4.74,3.41l-5.258,1.588l-5.776,2.092l-4.777-1.302l-3.36,3.36l-3.262,0.571L360.556,521.493z M249.852,485.323
	l-2.532-2.586l-3.865-5.999l-1.435-4.875v-3.288l0.14-0.071l-1.208-2.258l-1.033-5.01l0.521-6.114l12.862-7.352l0.278,0.134
	l-2.529-2.023l-1.868,1.562l-9.317,1.366l-19.268-8.251l-3.564-2.752l-3.808-4.898l-1.721-2.255l-1.826-4.872l-0.25-3.836
	l-7.003,1.981l-8.753-2.229l-2.77-2.712l3.722-8.514l-6.591,3.612l-6.057-3.865l1.767-4.338l-2.342,1.07l-4.126-9.026l-1.804-0.807
	l-2.342-5.041l-16.006-5.854l-33.259,7.814l-8.19,5.103l-3.309,6.146l-7.128,4.697L83.3,411.936l-9.085,9.543l-5.99,2.777
	l-8.826,0.521l-3.701-0.562l-11.479-4.325l-5.412-5.722l-2.25-7.153l3.809-9.043l-0.216-4.298l-6.715-9.392l-1.409-3.056
	l-1.036-4.145l-1.707-5.527L13.638,349.05l2.498-2.67l-1.824-4.683l2.213-0.905l-4.002-7.442l-1.062-4.698l1.096-22.496l4.803-1.204
	l0.425-1.673l2.734-4.502l14.825-13.211l8.277-1.981l0.52,0.137l9.288-6.062l1.647-0.848l7.095-2.771l0.463-0.166l5.441-1.789
	l5.093-7.153l-0.906-2.881l1.089-7.681l5.479-8.249l7.218,0.219l3.691-2.521l0.296-4.252l2.192-3.865l4.519-1.286l-0.141-4.558
	l3.808-4.385l6.393,0.021l-1.06-1.059l2.77-2.771l1.663,0.496l9.677-4.459l4.442,1.154l3.827,2.085l3.343,3.074l2.2-4.704
	l3.537-3.287v-0.053l4.125-4.125l-0.518-0.869l-1.604-1.979l0.258-0.273l-3.341-5.598l2.711-3.865l5.269,0.062l1.104-1.145
	l7.648-2.672l1.627,0.215l9.354-1.59l9.519,4.584l0.653-0.183l4.734,2.332l0.582-0.262l8.176,0.946l0.68-0.415l0.607,0.771
	l0.245,0.188l2-0.689l1.715,1.223l11.967-0.693l3.865,3.865l-0.507,13.196l-1.478,1.267l2.038,0.443l1.672,6.001l-6.688,7.903
	l0.676,0.563l18.12,8.326l3.234,2.511l0.605,0.747l5.182-11.899l-0.847-8.021l0.645-4.412l4.251-10.181l-1.215-3.733l1.966-1.966
	l0.318-5.411l3.16-5.384l-1.899,0.104l-7.2-2.981l-5.715-6.38l-3.558,0.878l-1.574-1.618l-5.969,1.99l-2.847,0.462h-3.26
	l-7.414-14.101l4.918-7.149l1.716-0.823l-1.646-3.97v-0.338l-13.794-4.214l0.408,2.687l-2.229,7.395l-4.976,5.491l-15.571-7.363
	l0.873-5.896l-0.103-0.39l0.298-0.925l0.075-0.512l0.085,0.013l2.134-6.635l-1.837,0.803l-12.576-7.543l-0.117-1.488l-3.148-1.563
	l1.632-6.961l-2.617-1.465l-0.437-1.045h-3.326l-0.109-0.184l-6.309,4.482l-4.976-0.516l-1.676-17.567l5.489-1.658l0.563,0.529
	l0.092-0.167l-0.179-12.239l9.322-1.086l1.458,4.263l5.971-2.525l5.338-0.523l13.212,2.745l7.104,7.729l0.35,2.884l6.393-10.56
	l8.751,3.832l-0.539,4.482l1.478,0.194l5.437-2.088l6.296-0.061l18.299,6.64l38.434,14.812l2.791,1.713l10.408,9.38l2.412,5.424
	l10.484,4.481l1.093,1.143l1.78-5.69l12.641,0.572l-0.1,2.19l2.406,0.641l0.221-2.812l3.461,0.271l0.682-0.457l1.58-1.912
	l-6.162-5.103l11.446-13.892l18.132,14.871l3.122,8.707l-1.087,5.49l-6.643,0.745l-2.16,2.732l-3.018,6.857l-8.81,3.832
	l-2.782,0.711l-12.064,1.087l-5.598-1.344l-5.308-3.335l3.008,2.358l2.87,3.91l1.684,4.47l3.785,3.41l3.317,0.915l0.483,2.513
	l0.111,0.102v0.479l0.178,0.913l0.268,0.14l6.332,1.925l1.701,16.507l-6.062,3.316l-10.735-1.585l-1.431-1.453l-13.925-3.239
	l-4.324-2.401l-1.089-1.088l-0.884-1.029l-10.521-14.296l-7.874-2.897l-1.508-1.748l-2.152,1.867l-1.092-0.546l-0.063,0.085
	l0.293,7.039l-5.783,3.872l1.354,0.408l8.251,18.634l0.745,2.966l0.395,5.223l4.847,1.453l6.576,7.096l2.394,6.487l-0.354,8.656
	l1.606,1.588l2.639,5.557l1.218,12.878l15.729,10.771l3.672,5.349l3.449,14.522l3.01-1.059l4.438,5.539l-2.871,2.302l5.43,0.56
	v5.646l3.336,2.781l2.295,2.897l5.713,11.461l5.357,1.835l-1.896,7.801l0.299,2.582l-2.235,9.466l2.263,10.093l-0.429,5.312
	l-4.246,10.616l-2.604,8.472l-1.402,2.757l-5.771,7.7l-1.801,5.811l-9.254,6.479l-5.051,9.137l-0.113-0.062l-0.125,4.12
	l-3.351,2.968l-2.653,11.975l-7.848,7.003l-11.57,1.216l0.104,0.274l-12.056,5.479l-1.099-2.418l-7.477,3.593l4.884,2.348
	l0.774-0.261v-2.164l17.032-4.062l2.248,4.441l-5.615,5.693l3.814,2.75v12.061l-0.867,0.102l0.047,0.013l-2.77,10.441l-7.137,1.923
	l-1.058,2.299l-13.21,3.701L249.852,485.323z M409.708,320.381l-2.331-3.394l-4.919-12.641l15.666-8.562l17.559,24.139
	l-13.335,11.951L409.708,320.381z M498.998,318.479l-3.318-3.894l3.114-14.025l7.149-3.264l4.221,2.249l0.326-6.167l9.894-2.174
	l3.869,7.869l5.765,4.759l-0.517,2.746l-3.449,2.024l-1.844,1.546l-0.259-0.311l-6.145,3.61l-0.253-0.085L511.801,321l-4.918,0.572
	L498.998,318.479z M445.548,308.755l-6.927-8.758v-0.572l1.473-4.934l1.087-1.658l15.896,1.62l1.087,2.745l-10.441,12.069
	L445.548,308.755z M435.935,284.998l-4.688-5.789l-1.145-4.403l1.646-2.132l-4.071-3.115l-0.569-6.062l0.146-2.687l0.573-2.745
	l17.158-1.522l3.312,8.236l-1.807,3.239l2.59,1.922l1.659,5.491l-12.641,10.654L435.935,284.998z M403.07,228.364l-4.161-2.849
	l-4.922-6.006l11.174-10.903l-8.659,5.007l-3.221,4.753l-5.788-3.197l-3.094-1.493l-3.332-12.019l-2.069-1.59l-1.539-1.506
	l-0.918-1.146l-6.876,5.904l-4.975-3.832l-1.26-9.504l-1.945-1.569l-0.82-1.299h-3.064l-7.344-3.797l-3.891-5.491l-1.27-2.583
	l-2.176-7.148l15.854-7.963l9.322,12.639l-0.795,1.573l4.086-3.39l8.236,7.664l-4.221,6.896l4.311,0.317l0.406,0.735l6.148-5.653
	l11.555,10.98l-4.283,5.009l1.223-0.217l0.734,0.548l9.238-3.628l5.484,12.066l-2.944,1.705l7.774,6.697l-8.673,15.373
	L403.07,228.364z M282.66,140.863l0.729-17.881l7.721-0.516l3.021,17.647l-3.889,1.088l-3.753,0.233L282.66,140.863z
	 M257.923,18.504l-0.571-1.657L264.2,5.07l2.743-0.516l8.027,15.208l-2.173,2.173L257.923,18.504z"/>
<path id="path3959" display="none" fill="#231F20" d="M325.035,136.393l12.641,10.466l4.404,9.896l1.087-5.491L325.035,136.393z
	 M385.433,185.293l4.404,5.49l7.149,5.491L385.433,185.293z M377.198,188.038l-1.658,2.174l4.975,3.832L377.198,188.038z
	 M401.906,195.188l2.743,8.236l2.741,3.831L401.906,195.188z M394.756,201.766l-1.087,1.658l3.317,1.601l6.005,3.318l-6.005-4.919
	L394.756,201.766z M406.308,211.659l4.921,6.006l3.316,1.086L406.308,211.659z M527.673,297.851l-9.894,2.174l8.23,2.746
	l0.521-2.746l-2.746,1.086L527.673,297.851z M441.998,257.758l-0.573,2.745l0.573,6.062l3.316-0.571L441.998,257.758z
	 M444.172,270.397l1.146,4.404l2.175,1.087l-1.659-5.491H444.172z M454.065,295.62l-1.088,1.658v0.572l2.175,0.515L454.065,295.62z
	 M416.203,298.937l4.919,12.645l12.64,11.498L416.203,298.937z M515.034,303.341l-7.149,3.26l3.318,3.895l4.918-0.572
	L515.034,303.341z M441.425,432.885l1.146,18.13l0.514-3.259l2.747,3.259l-1.658,2.746l-1.089-1.659v4.979l2.231,1.087l-2.231-0.571
	v6.639l-5.489,7.092l-6.005,2.229l4.352,7.149l-3.835,8.233h-0.517l-2.229,1.604l1.653,3.889l4.924-1.655l13.213-14.303l4.918,1.087
	l7.723-9.837l-2.232-2.229l-6.006,2.229l-4.397-4.978l1.085-9.896l-2.174,6.062l-3.315-4.92l2.746-3.317l-1.659-5.489l2.23-4.919
	l-1.659,0.521l-2.229-5.491l-1.603,1.658l0.514-5.491L441.425,432.885z M421.122,482.472l-3.261,0.977l-14.87,15.324l-10.409,4.404
	l-4.918-1.089l-10.981,7.149v2.747l-1.143-1.658l-3.833,6.576l5.491,0.564l4.976,6.007l6.005-2.174l5.49-1.658l9.322-13.147
	l4.976,0.512l4.405,0.573l-1.658-2.174l2.743-3.892l12.641-8.232l1.604-3.833h-2.175l3.312-1.658l-7.146,1.145L421.122,482.472z
	 M376.108,521.878l-3.83,3.832l3.262-0.572L376.108,521.878z M459.04,524.622l-0.571,1.604l3.319-1.088L459.04,524.622z
	 M187.257,152.35l-3.318,2.745l0.572,2.174l-1.144,7.721l4.976-5.49L187.257,152.35z M273.961,11.253l-2.743,0.515l0.571,1.658
	L273.961,11.253z M168.554,111.685l-10.409,4.404l-2.745,4.976h9.322l2.746,6.577l14.298-2.23l-2.746,5.491l-3.89-2.746
	l-4.346,3.317h-6.635l7.721,3.832l0.516,6.577l4.975-2.174l2.746-7.663l-1.658,4.919l3.317,2.744l8.235,0.572l-2.745,1.602
	l4.918,2.746l25.279,7.721l-0.572,2.745l2.746-0.572v5.491l4.404,4.403l-3.317,1.087l6.062,1.658l-4.975,0.572l4.402,2.745
	l-1.658,6.006l8.808-2.174l9.324,10.409l9.324-0.515l3.317,2.174l6.576-4.403l-9.893-5.491l12.639,1.087l-2.746-2.746l4.976,1.145
	l-2.744-4.976l7.663,3.831l-1.087-3.26l1.087,2.174l2.172-2.174l0.573,2.745l10.408,3.832l12.125,16.472l1.088,1.088l16.471,3.831
	l3.262,3.317l6.062-3.317l-7.148-2.173l-1.088-0.572l-1.088-1.602l2.175-1.659l-6.007-1.658v-4.404l-5.488,0.572l-3.314-8.808
	l-7.662-6.006l-2.229-6.062h7.722l-1.658-4.403l-15.388-6.577v-4.919l-10.407-9.38L233.93,127.07l-18.131-6.577l-7.149,2.746
	l0.573,2.745l-6.634,0.571l-5.491,7.092l-5.491,2.231l-4.346-7.149l-1.145,3.317l-2.745-4.404l-1.602-13.212L168.554,111.685z
	 M330.526,150.119l1.654,5.49l-6.572,4.404l-6.576-0.515v-3.89l-2.231,3.89l-12.641-0.572l10.466,6.577l12.066-1.087l8.81-3.832
	l-1.144-3.316l3.891-4.919l-2.23-1.658L330.526,150.119z M356.894,163.331l2.178,7.148l3.891,5.491h3.26L356.894,163.331z
	 M370.62,175.399l3.831,6.062l4.403,1.602L370.62,175.399z M297.067,129.301l-7.724,0.515l3.831,0.572L297.067,129.301z
	 M217.97,169.908l-4.918,7.149h3.259l8.235-2.746l1.145-3.832L217.97,169.908z M158.66,110.599l-9.322,1.086l6.577,0.572
	L158.66,110.599z M193.834,113.915l5.49,4.404l3.261-0.572L193.834,113.915z M156.487,116.661l-3.318,0.515l2.746,2.745
	L156.487,116.661z M194.349,121.579l4.976,1.659h7.663L194.349,121.579z M150.423,123.238l-5.49,1.658l4.976,0.515L150.423,123.238z
	 M254.243,197.379l-3.346,2.135l-0.519,8.826l-4.384,4.385l3.288,0.519l-4.384,10.5l1.096,10.383l-9.345,21.46l-4.961-0.577h-3.23
	l-4.442-5.48l-19.209-8.826l-10.441-8.71l5.48-10.5l-1.615-3.23l4.903-0.576v-3.865l4.442-3.808l-3.865-3.865l-4.384,5.538v-3.923
	l-3.346,1.154l2.25-2.25l-5.48,3.346l-4.384-3.346l-5.019,2.25l-1.557-3.865l-3.923,1.096l-12.576-6.057l-1.673,1.673l7.672,2.769
	l0.577,4.385l-10.96,1.096l-1.673-1.673l-3.807,2.769l1.615,2.135l-3.288-2.135l1.096,2.712h-3.289v5.48l-4.384,1.672l-3.346,7.154
	l5.48,2.769l-3.23,4.327l-2.769-2.77l-1.096,3.923l-0.52-3.346l-4.442-1.038l-2.711,2.711l1.038,3.865l-1.615-2.77l-1.096,2.77
	l1.673-6.576l-7.153-6.576l-4.442-1.154l-2.134,4.385l-0.577-2.77l-2.769,2.77l-1.615-2.77l-0.519,6.576l-2.769-3.23l-3.807,4.385
	l3.23,3.288l-5.48,0.576l3.865,3.23l-4.961-2.711l-2.192,3.865l1.096,2.769l1.673-1.673l-2.25,4.903h4.442l-4.442,1.673
	l-7.095-2.769v4.441l3.865,1.039v3.864l-3.346-2.191l0.577,5.479l-6.057-10.44l-5.48,8.249l2.25,7.152l-9.403,13.21l-8.25,2.711
	l-7.095,2.77l-12.633,8.249l-4.384-1.153l-14.825,13.211l-1.673,6.575l-3.288-5.479l-1.096,22.497l8.249,15.349l-2.769-2.771
	l-0.98,2.021l1.558,3.521l-5.48-3.289l16.441,23.649l2.192,7.099l1.096,4.384l8.249,11.539l0.577,11.479l-4.441,2.249l2.25,7.153
	l11.479,4.321l8.826-0.519l11.479-12.057h0.577l24.69-2.192l4.442-8.249l11.479-7.15l37.323-8.771l22.555,8.249l-1.096,3.807
	l4.903,2.192l5.538,12.114l-2.769-0.577l6.057,3.862v-3.862l13.152-13.152v-4.384l1.096,9.345l-3.807,4.903v6.058h-2.769
	l-1.673,3.288l6.576-1.097l2.769-8.249l3.288,5.479l-3.808,7.153l5.48-1.097l4.384,3.861l1.096,2.714l-0.577-1.1l0.577,8.826
	l1.673,2.192l3.808,4.898l19.267,8.251l9.864-8.251l1.096,2.771l-3.346,1.096h6.115l-1.096,2.192l5.48,4.386v-2.713l12.056-5.48
	l-3.287,1.039l1.614-1.614l15.923-1.674l3.287-14.825l5.538-4.899l-1.673-1.673l6.057-10.96l10.961-7.677l-1.037-2.77l6.574-8.771
	l2.713-8.823l4.388-10.964l-2.712-12.111l2.712-11.479l-8.771-17.595l-6.575-5.479v-9.859l-0.574,2.771l-4.44-5.537v4.961
	l-1.56-2.771l-1.676,1.673l-4.959-20.883l-19.209-13.151l-1.615-17.075l-4.439-4.385l0.521-12.633l-6.578-7.096l-6.577,1.615
	l-1.038-13.73L254.243,197.379z M30.305,341.537l-2.25-5.249l2.134,5.479L30.305,341.537z M151.562,201.187l4.903,6.057l4.961-4.384
	l-4.384-0.577l-1.615,1.673L151.562,201.187z M151.562,202.282l-2.711,3.865l4.903-0.577L151.562,202.282z M205.325,220.973
	l-2.769,3.289l-0.462,2.192l4.903,0.52L205.325,220.973z M141.697,243.472l-2.771,5.48l-1.096-4.903L141.697,243.472z
	 M331.601,324.75l-2.711,6.058l0.576,2.711L331.601,324.75z M202.557,410.414l2.769,2.712l7.73-2.192L202.557,410.414z
	 M276.685,447.162v3.346l2.248,1.099L276.685,447.162z M254.763,453.738l-0.52,6.11l4.384,8.191l-2.25-1.615v3.288l3.865,5.999
	l4.961,3.351l3.288-7.152l4.384,4.384l2.769-10.44l0.521,2.191v-12.057l-9.864,3.288L254.763,453.738z"/>
</svg>
