<?xml version="1.0" encoding="utf-8"?>
<!-- Generator: Adobe Illustrator 16.0.0, SVG Export Plug-In . SVG Version: 6.00 Build 0)  -->
<!DOCTYPE svg PUBLIC "-//W3C//DTD SVG 1.1//EN" "http://www.w3.org/Graphics/SVG/1.1/DTD/svg11.dtd">
<svg version="1.1" id="Layer_1" xmlns="http://www.w3.org/2000/svg" xmlns:xlink="http://www.w3.org/1999/xlink" x="0px" y="0px"
	 width="720px" height="720px" viewBox="0 0 720 720" style="enable-background:new 0 0 720 720;" xml:space="preserve">
<rect x="-1.5" y="144.5" style="fill:#CCCCCC;fill-opacity:0.25;stroke:#000000;stroke-width:3;stroke-miterlimit:10;" width="500" height="251"/>
<g id="Walls">
	<line style="fill:none;stroke:#000000;stroke-width:3;stroke-miterlimit:10;" x1="561.5" y1="525" x2="561.5" y2="89"/>
	<line style="fill:none;stroke:#000000;stroke-width:3;stroke-miterlimit:10;" x1="561.5" y1="89" x2="720" y2="14"/>
	<line style="fill:none;stroke:#000000;stroke-width:3;stroke-miterlimit:10;" x1="561" y1="89.5" x2="0" y2="89.5"/>
</g>
<g id="TV">
	<polygon style="fill:#666666;" points="604,374.828 604,160.839 725,138.492 725,407.53 	"/>
	<path d="M720,145v256l-111-30V165l111-20.25 M730,132.484l-11.816,2.183l-111,20.5L599,156.678V165v206v7.656l7.391,1.997l111,30
		L730,414.062V401V144.5V132.484L730,132.484z"/>
</g>
<g id="Table">
	
		<line style="fill:none;stroke:#000000;stroke-width:11;stroke-linecap:square;stroke-miterlimit:10;" x1="556.5" y1="408" x2="556.5" y2="530"/>
	<polygon style="fill:#FFFFFF;stroke:#000000;stroke-miterlimit:10;" points="623,434.25 535,435.375 479,407.5 562,407.5 	"/>
	
		<line style="fill:none;stroke:#000000;stroke-width:11;stroke-linecap:square;stroke-miterlimit:10;" x1="478.5" y1="408" x2="478.5" y2="530"/>
	
		<line style="fill:none;stroke:#000000;stroke-width:11;stroke-linecap:square;stroke-miterlimit:10;" x1="533.5" y1="435" x2="533.5" y2="573"/>
	
		<line style="fill:none;stroke:#000000;stroke-width:11;stroke-linecap:square;stroke-miterlimit:10;" x1="617.5" y1="434" x2="617.5" y2="573"/>
</g>
<path style="fill:#808080;stroke:#000000;stroke-miterlimit:10;" d="M615.5,630.5c0,6.627,6.627,129,0,129l-634-4
	c-6.627,0-24-122.373-24-129v-185c0-6.627,5.373-12,12-12h387c6.627,0,15,5.875,23.5,12L615.5,630.5z"/>
<line style="fill:none;stroke:#000000;stroke-miterlimit:10;" x1="615" y1="630.5" x2="-2" y2="630.5"/>
</svg>
