<?xml version="1.0" encoding="utf-8"?>
<!-- Generator: Adobe Illustrator 16.0.4, SVG Export Plug-In . SVG Version: 6.00 Build 0)  -->
<!DOCTYPE svg PUBLIC "-//W3C//DTD SVG 1.1//EN" "http://www.w3.org/Graphics/SVG/1.1/DTD/svg11.dtd">
<svg version="1.1" id="Layer_1" xmlns="http://www.w3.org/2000/svg" xmlns:xlink="http://www.w3.org/1999/xlink" x="0px" y="0px"
	 width="594px" height="594px" viewBox="0 0 594 594" style="enable-background:new 0 0 594 594;" xml:space="preserve">
<style type="text/css">
<![CDATA[
	.st0{fill:#FFFFFF;}
]]>
</style>
<g>
	<g>
		<path class="st0" d="M297,10c38.749,0,76.334,7.587,111.71,22.55c34.175,14.455,64.869,35.15,91.229,61.511
			c26.361,26.36,47.056,57.055,61.511,91.229C576.413,220.666,584,258.251,584,297s-7.587,76.334-22.55,111.71
			c-14.455,34.175-35.149,64.869-61.511,91.229c-26.36,26.361-57.055,47.056-91.229,61.511C373.334,576.413,335.749,584,297,584
			s-76.334-7.587-111.71-22.55c-34.174-14.455-64.869-35.149-91.229-61.511C67.7,473.579,47.004,442.885,32.55,408.71
			C17.587,373.334,10,335.749,10,297s7.587-76.334,22.55-111.71c14.455-34.174,35.15-64.869,61.511-91.229
			c26.36-26.361,57.055-47.056,91.229-61.511C220.666,17.587,258.251,10,297,10 M297,0C132.971,0,0,132.971,0,297
			c0,164.028,132.971,297,297,297c164.028,0,297-132.972,297-297C594,132.971,461.028,0,297,0L297,0z"/>
	</g>
	<ellipse class="st0" cx="297" cy="297" rx="270" ry="267.839"/>
	<polygon points="277.908,277.908 475.191,118.809 316.092,316.092 118.809,475.19 	"/>
</g>
</svg>
