<?xml version="1.0" encoding="utf-8"?>
<!-- Generator: Adobe Illustrator 16.0.4, SVG Export Plug-In . SVG Version: 6.00 Build 0)  -->
<!DOCTYPE svg PUBLIC "-//W3C//DTD SVG 1.1//EN" "http://www.w3.org/Graphics/SVG/1.1/DTD/svg11.dtd">
<svg version="1.1" id="Layer_2" xmlns="http://www.w3.org/2000/svg" xmlns:xlink="http://www.w3.org/1999/xlink" x="0px" y="0px"
	 width="550px" height="550px" viewBox="0 0 550 550" enable-background="new 0 0 550 550" xml:space="preserve">
<path fill="#E16F25" d="M279.771,544.448c-0.705,0-1.402-0.206-2.002-0.607l-5.625-3.761l-0.583,0.341
	c-0.558,0.326-1.185,0.491-1.815,0.491c-0.408,0-0.817-0.069-1.21-0.209c-1-0.357-1.792-1.139-2.163-2.135l-3.537-9.498
	c-0.577-1.549-0.024-3.293,1.34-4.229l1.253-0.854l-0.245-2.558l-6.537-10.799l-16.01-25.592c-0.274-0.438-0.451-0.931-0.518-1.443
	l-3.435-26.304l-20.175-32.896c-0.308-0.504-0.487-1.069-0.524-1.656l-1.002-16.037c-0.026-0.419,0.021-0.839,0.14-1.242
	l5.487-18.623c0.163-0.553,0.456-1.061,0.855-1.477l7.806-8.14l1.104-7.444l-3.034-6.94l-3.446-6.997
	c-0.541-1.098-0.487-2.396,0.143-3.44l1.991-3.317l-8.137-16.271c-0.398-0.798-0.484-1.705-0.255-2.554
	c-0.19-0.271-0.344-0.567-0.455-0.888l-3.2-9.213l-15.95-15.441c-0.254-0.246-0.47-0.525-0.642-0.837l-7.545-13.562
	c-0.62-1.112-0.604-2.477,0.042-3.572c0.647-1.104,1.828-1.775,3.104-1.775h0.504c0,0,0.984-5.152,0.991-5.185
	c-0.138-0.634-0.107-1.308,0.12-1.952c0.178-0.508,0.459-0.953,0.813-1.316c-0.191-0.197-0.361-0.418-0.504-0.656
	c-0.539-0.9-0.658-1.991-0.326-2.986l4.544-13.635l-1.428-2.906l-1.438,3.135c-0.407,0.887-1.157,1.57-2.077,1.895
	c-0.388,0.136-0.792,0.204-1.195,0.204c-0.554,0-1.106-0.128-1.611-0.381l-2.004-1.002c-1.219-0.61-1.989-1.855-1.989-3.22v-0.528
	c0-1.152,0.551-2.234,1.483-2.912l2.74-1.992c-0.044-0.005-0.087-0.01-0.131-0.016c-0.489-0.069-0.952-0.238-1.365-0.489
	l-6.881,0.514c-0.09,0.007-0.18,0.01-0.269,0.01c-0.162,0-0.323-0.011-0.482-0.033c-0.571,0.562-1.326,0.93-2.155,1.016
	c-0.125,0.013-0.249,0.019-0.372,0.019c-0.168,0-0.334-0.012-0.499-0.035c-0.167,0.023-0.335,0.035-0.501,0.035
	c-0.169,0-0.337-0.012-0.503-0.036c-0.052,0.007-0.104,0.014-0.157,0.019l-5.487,0.526c-0.115,0.011-0.23,0.017-0.344,0.017
	c-1.16,0-2.257-0.561-2.936-1.518l-5.012-7.068c-0.512-0.722-0.726-1.582-0.648-2.418l-0.404-0.586
	c-0.641-0.408-1.146-1.014-1.427-1.742l-3.133-2.804l-6.313-0.44c-0.75-0.052-1.444-0.335-2.003-0.784l-12.229,2.605l-10.171,3.917
	l-14.922,6.963c-0.48,0.224-1,0.338-1.522,0.338c-0.322,0-0.645-0.043-0.959-0.13l-13.809-3.816l-14.239,1.834l-9.479,4.739
	c-0.505,0.253-1.057,0.38-1.61,0.38c-0.467,0-0.935-0.091-1.376-0.273l-8.545-3.534c-0.402-0.167-0.771-0.405-1.089-0.703
	l-16.214-15.24l-8.064-4.257c-1.362-0.719-2.115-2.224-1.875-3.745l0.189-1.197l-4.19-4.19c-0.901-0.901-1.259-2.211-0.94-3.445
	c0.132-0.513,0.374-0.981,0.698-1.378l-0.165-2.275l-0.43-0.17c-0.991-0.392-1.757-1.202-2.093-2.213
	c-0.229-0.69-0.242-1.425-0.048-2.111l-2.606-1.279c-1.07-0.525-1.811-1.546-1.978-2.726l-0.351-2.471
	c-0.72-0.087-1.416-0.392-1.982-0.904c-0.225-0.204-0.42-0.431-0.583-0.675c-0.42-0.279-0.787-0.651-1.068-1.104l-1.531-2.479
	c-0.286-0.462-0.459-0.978-0.517-1.508c-0.671-0.204-1.281-0.604-1.743-1.17c-0.359-0.441-0.602-0.95-0.722-1.483
	c-0.955-0.44-1.686-1.285-1.968-2.329c-1.369-0.37-2.414-1.523-2.621-2.962c-0.061-0.426-0.045-0.848,0.04-1.251
	c-0.107-0.51-0.103-1.043,0.02-1.563l1.53-6.49c0.169-0.717,0.551-1.354,1.081-1.836l-4.315-5.015
	c-1.226-1.424-1.15-3.551,0.173-4.884l6.487-6.536l5.444-14.043l-0.884-11.264c-0.054-0.683,0.089-1.368,0.411-1.973l2.661-5.001
	l-0.324-0.737c-0.054,0.002-0.109,0.004-0.163,0.004c-0.504,0-1.015-0.106-1.5-0.329c-1.692-0.777-2.512-2.716-1.892-4.471
	l2.48-7.017c0.104-0.296,0.248-0.578,0.425-0.837l8.892-12.962c0.094-0.772,0.438-1.519,1.028-2.109l1.531-1.531
	c0.406-0.406,0.887-0.697,1.4-0.869l4.787-3.881l4.662-9.764c0.312-0.655,0.816-1.2,1.445-1.564l5.353-3.1l2.913-4.016l-1.838,0.613
	c-0.375,0.125-0.76,0.186-1.139,0.186c-0.954,0-1.877-0.381-2.556-1.064c-0.528,0.784-1.353,1.342-2.308,1.525l-2.479,0.476
	c-0.226,0.043-0.454,0.064-0.679,0.064c-1.05,0-2.059-0.46-2.748-1.274c-0.647,0.523-1.448,0.799-2.262,0.799
	c-0.388,0-0.778-0.062-1.157-0.191c-1.231-0.417-2.141-1.466-2.381-2.744l-0.476-2.532c-0.339-1.803,0.732-3.573,2.487-4.108
	l5.011-1.529c0.348-0.106,0.702-0.157,1.051-0.157c1.272,0,2.485,0.678,3.136,1.833c0.245,0.436,0.392,0.904,0.443,1.377
	c0.173,0.125,0.336,0.266,0.487,0.422l1.441,1.493c0.128-0.189,0.275-0.369,0.441-0.535l4.177-4.177
	c0.241-0.66,0.676-1.255,1.285-1.691L59,59.933c0.631-0.452,1.365-0.674,2.096-0.674c0.913,0,1.82,0.346,2.513,1.022
	c1.25,1.217,1.446,3.155,0.468,4.598l-1.001,1.477c-0.394,0.581-0.948,1.033-1.595,1.303l-0.47,0.196l8.091-1.856l9.025-6.317
	l3.66-4.573l1.347-7.889c0.093-0.546,0.312-1.062,0.637-1.511l5.487-7.545c0.315-0.433,0.722-0.79,1.192-1.046l16.816-9.142
	l7.534-10.851c0.443-0.638,1.081-1.116,1.818-1.362l3.008-1.003c0.374-0.125,0.758-0.185,1.138-0.185
	c1.096,0,2.158,0.502,2.853,1.404l2.248,2.919l8.412-1.227c0.176-0.025,0.351-0.038,0.523-0.038c1.547,0,2.935,1,3.418,2.48h1.221
	l6.752-3.588c0.327-0.174,0.678-0.296,1.042-0.363l4.933-0.901l6.996-3.744c0.346-0.185,0.721-0.312,1.108-0.377l18.095-3.009
	c0.195-0.033,0.393-0.049,0.59-0.049c0.278,0,0.555,0.032,0.827,0.096l7.346,1.734l5.981-2.544c0.448-0.191,0.928-0.288,1.409-0.288
	c0.263,0,0.526,0.029,0.785,0.087l8.041,1.797l10.646-3.256c0.346-0.106,0.701-0.158,1.052-0.158c0.935,0,1.848,0.364,2.532,1.041
	l2.04,2.018l1.6-0.989c0.585-0.362,1.241-0.538,1.892-0.538c0.951,0,1.892,0.376,2.59,1.099c1.176,1.218,1.346,3.09,0.406,4.499
	l-2.684,4.024l2.692,4.074c1.027,1.555,0.698,3.637-0.759,4.799l-5.537,4.416l10.477,4.628l6.077-0.415
	c0.082-0.005,0.163-0.008,0.245-0.008c0.338,0,0.675,0.048,1.001,0.142l12.029,3.482c0.927,0.269,1.708,0.896,2.167,1.747
	l2.778,5.142l12.487,3.098c0.296,0.073,0.582,0.184,0.85,0.33l5.833,3.163l3.893-1.975V42.81c0-1.39,0.802-2.655,2.057-3.251
	l10.548-5.012c0.484-0.231,1.017-0.349,1.545-0.349c0.257,0,0.513,0.027,0.765,0.082l9.021,1.953
	c1.063,0.231,1.972,0.933,2.458,1.908l0.68,1.356l9.139,1.224c1.023,0.137,1.939,0.709,2.519,1.57l0.993,1.489l10.257,0.448
	c0.278,0.012,0.556,0.057,0.823,0.133l12.771,3.616l10.931-4.531c0.438-0.182,0.903-0.275,1.379-0.275
	c0.104,0,0.209,0.005,0.312,0.014l6.014,0.526c1.267,0.111,2.378,0.879,2.931,2.021l0.329,0.682
	c0.146-0.018,0.293-0.027,0.438-0.027c0.771,0,1.526,0.248,2.151,0.713c0.767,0.571,1.271,1.422,1.411,2.368
	c0.13,0.893,0.25,1.855,0.25,2.84v0.738c0,0.573,0.234,1.242,0.513,2.016c0.16,0.454,0.326,0.92,0.466,1.427
	c0.039,0.071,0.078,0.146,0.112,0.22c0.095,0.188,0.172,0.383,0.229,0.584l1.555,5.198l6.963,7.398
	c0.191,0.206,0.359,0.434,0.502,0.678l13.164,22.988l4.477,3.583c1.193,0.956,1.653,2.562,1.146,4.002
	c-0.155,0.444-0.396,0.843-0.689,1.182l0.843,2.38l8.159,5.885c0.449,0.324,0.817,0.748,1.077,1.238l3.957,7.492
	c0.646,1.223,0.525,2.684-0.255,3.775l2.733,11.742l7.894,5.277c0.547,0.365,0.981,0.873,1.262,1.469l6.882,14.725
	c0.44-0.19,0.927-0.292,1.419-0.292h0.476c0.849,0,1.669,0.3,2.317,0.846l3.009,2.531c1.234,1.041,1.628,2.778,0.957,4.248
	c-0.104,0.22-0.223,0.426-0.358,0.617l4.289,1.515c0.507,0.179,0.968,0.469,1.348,0.849l16.563,16.565
	c0.435,0.434,0.75,0.972,0.917,1.563l1.003,3.535c0.308,1.08,0.087,2.207-0.535,3.077l6.69,6.086l5.812-2.907
	c0.506-0.252,1.06-0.38,1.61-0.38c0.388,0,0.774,0.062,1.147,0.189l2.983,1.006l4.548-2.656c0.437-0.253,0.915-0.413,1.413-0.469
	l12.796-1.437l7.271-4.573c0.582-0.367,1.247-0.553,1.918-0.553c0.481,0,0.973,0.098,1.431,0.297l3.533,1.53
	c1.37,0.594,2.23,1.973,2.166,3.466l-0.315,6.968c1.205,0.457,2.111,1.545,2.292,2.888c0.239,1.788-0.88,3.477-2.619,3.951
	l-0.354,0.097v4.452c0,0.488-0.102,0.971-0.291,1.419l-16.564,38.618c-0.122,0.286-0.28,0.555-0.476,0.8l-12.559,16.038
	c-0.176,0.222-0.373,0.423-0.597,0.599l-16.634,13.223l-15.762,20.794c-0.489,0.646-1.178,1.103-1.941,1.305
	c-0.258,0.894-0.85,1.649-1.653,2.115l-5.095,2.949l-1.048,2.06l-5.88,12.274l-1.168,3.485c0.862,0.46,1.523,1.265,1.787,2.259
	l0.525,2.003l1.016,4.058c0.253,1.019,0.049,2.061-0.508,2.884c0.691,1.037,0.806,2.364,0.277,3.509l-1.35,2.938
	c0.024,0.036,0.054,0.075,0.08,0.114c0.667,1.007,0.784,2.281,0.312,3.396l-1.081,2.549l1.664,11.144l0.783,0.582l4.545,3.527
	c1.36,1.057,1.782,2.93,1.005,4.467l-2.062,4.092l0.909,9.997c0.094,1.021-0.254,2.031-0.95,2.78l-0.317,0.341l1.27,12.947
	c0.082,0.851-0.142,1.703-0.627,2.404l-6.817,9.812l-0.89,1.772c-0.362,0.724-0.961,1.304-1.692,1.646l-21.589,10.09l-3.976,6.562
	c-0.267,0.438-0.622,0.812-1.048,1.104l-11.022,7.543c-0.099,0.064-0.192,0.125-0.292,0.184l-0.1,1.339l4.21,11.294
	c0.209,0.56,0.273,1.162,0.191,1.754l-1.953,14.035c-0.149,1.088-0.79,2.047-1.737,2.604l-17.396,10.258
	c0.138,0.655,0.091,1.355-0.166,2.021l-6.545,16.985c-0.228,0.579-0.595,1.094-1.074,1.485l-7.718,6.339l-2.747,3.229l-6.968,8.959
	c-0.227,0.286-0.486,0.537-0.784,0.744L328,535.775c-0.335,0.229-0.708,0.404-1.104,0.517l-14.562,4.01
	c-0.312,0.086-0.634,0.129-0.956,0.129c-0.121,0-0.242-0.006-0.363-0.018l-13.812-1.401l-16.324,5.26
	C280.516,544.392,280.143,544.448,279.771,544.448z M378.593,297.514c0.493,0,0.993,0.104,1.468,0.314l2.402,1.074
	c0.025-0.014,0.051-0.025,0.077-0.037c0.06-1.121,0.642-2.167,1.599-2.805l4.53-3.021l0.362-5.713
	c0.051-0.801,0.361-1.54,0.861-2.122l-0.072-0.194l-0.729,0.1c-0.162,0.021-0.322,0.031-0.479,0.031
	c-0.447,0-0.887-0.084-1.288-0.238c-0.703,0.812-1.704,1.24-2.724,1.24c-0.617,0-1.242-0.16-1.812-0.49l-0.857-0.5l-1.679,0.83
	l-2.244,11.58C378.202,297.529,378.396,297.514,378.593,297.514z M451.814,480.712c-0.596,0-1.183-0.146-1.707-0.43l-5.487-2.955
	c-1.108-0.597-1.824-1.729-1.89-2.986l-1.004-19.576c-0.022-0.51,0.061-1.021,0.242-1.494l2.954-7.544
	c0.146-0.367,0.354-0.716,0.609-1.019l7.143-8.403l-0.925-17.14c-0.034-0.624,0.096-1.246,0.375-1.805l5.013-10.023
	c0.447-0.895,1.246-1.562,2.205-1.844l11.979-3.521c0.245-0.379,0.562-0.712,0.938-0.979l3.588-2.533
	c0.211-0.146,0.435-0.271,0.66-0.369l2.657-3.06c0.376-0.438,0.839-0.761,1.344-0.97l0.623-1.267
	c0.271-0.555,0.679-1.018,1.162-1.358v-2.063c0-1.353,0.754-2.585,1.954-3.202c0.521-0.267,1.083-0.396,1.646-0.396
	c0.631,0,1.259,0.163,1.813,0.488l0.716-0.629l0.418-5.604c0.07-0.947,0.517-1.828,1.23-2.451l4.011-3.48
	c0.674-0.584,1.519-0.881,2.36-0.881c0.728,0,1.457,0.222,2.083,0.664c1.354,0.963,1.875,2.727,1.261,4.27l-0.275,0.689l2.854,3.938
	c0.404,0.562,0.641,1.226,0.678,1.915l1.004,18.521c0.04,0.734-0.146,1.463-0.532,2.089l-2.479,4.014
	c-0.555,0.896-1.464,1.486-2.471,1.655v2.987c0,1.072-0.479,2.089-1.308,2.772l-2.067,1.715l-1.229,6.229
	c-0.062,0.313-0.165,0.616-0.307,0.902l-24.589,49.646c-0.472,0.944-1.331,1.642-2.357,1.896l-14.031,3.482
	C452.396,480.678,452.104,480.712,451.814,480.712z M524.043,451.167c-0.949,0-1.882-0.376-2.572-1.081l-2.479-2.531
	c-0.853-0.862-1.204-2.102-0.946-3.286c0.258-1.184,1.096-2.155,2.229-2.594l2.479-0.952c0.417-0.16,0.854-0.235,1.29-0.235
	c0.718,0,1.431,0.215,2.039,0.633c0.979,0.671,1.561,1.781,1.561,2.967v3.483c0,1.463-0.885,2.776-2.235,3.333
	C524.962,451.079,524.5,451.167,524.043,451.167z M534.542,445.153c-0.803,0-1.604-0.271-2.267-0.807
	c-1.323-1.068-1.718-2.925-0.938-4.438l2.057-4.01c0.621-1.211,1.864-1.958,3.202-1.958c0.144,0,0.281,0.009,0.423,0.021
	c1.493,0.176,2.724,1.264,3.076,2.727l0.479,1.947c0.329,1.354-0.148,2.771-1.229,3.646l-2.53,2.059
	C536.151,444.885,535.347,445.153,534.542,445.153z M464.324,383.425c-0.769,0-1.528-0.243-2.167-0.725l-1.956-1.477
	c-0.576-0.437-1-1.022-1.231-1.688c-0.041,0.021-0.082,0.041-0.123,0.062c-0.489,0.232-1.02,0.349-1.541,0.349
	c-0.957,0-1.896-0.381-2.593-1.104l-1.478-1.53c-0.986-1.021-1.278-2.529-0.745-3.852l1.003-2.479
	c0.556-1.373,1.886-2.25,3.335-2.25c0.159,0,0.319,0.012,0.479,0.032c1.633,0.22,2.903,1.513,3.101,3.146l0.374,3.166l1.045-0.709
	c0.604-0.411,1.312-0.621,2.021-0.621c0.468,0,0.937,0.09,1.375,0.271c1.118,0.461,1.934,1.453,2.16,2.646l0.479,2.479
	c0.279,1.463-0.364,2.947-1.629,3.736C465.645,383.244,464.983,383.425,464.324,383.425z"/>
</svg>
