<?xml version="1.0" encoding="utf-8"?>
<!-- Generator: Adobe Illustrator 16.0.0, SVG Export Plug-In . SVG Version: 6.00 Build 0)  -->
<!DOCTYPE svg PUBLIC "-//W3C//DTD SVG 1.1//EN" "http://www.w3.org/Graphics/SVG/1.1/DTD/svg11.dtd">
<svg version="1.1" id="Layer_1" xmlns="http://www.w3.org/2000/svg" xmlns:xlink="http://www.w3.org/1999/xlink" x="0px" y="0px"
	 width="720px" height="720px" viewBox="0 0 720 720" style="enable-background:new 0 0 720 720;" xml:space="preserve">
<g id="Computer">
	<rect x="225" y="509" width="268" height="45"/>
	<g id="Screen">
		<defs>
			<path id="Clip" d="M646,174.333c0-7.714-0.107-7.333-7.353-7.333H93.142C85.897,167,74,166.619,74,174.333v329.404
				C74,511.449,85.897,524,93.142,524h545.506c7.245,0,7.353-12.551,7.353-20.263V174.333z"/>
		</defs>
		<clipPath id="Clip_1_">
			<use xlink:href="#Clip"  style="overflow:visible;"/>
		</clipPath>
		<rect id="Screen_Background" x="48" y="138" style="clip-path:url(#Clip_1_);fill:#FFFFFF;" width="624" height="415"/>
		<g id="Button" style="clip-path:url(#Clip_1_);">
			<path style="fill:#4D4D4D;stroke:#000000;stroke-miterlimit:10;" d="M496.981,476.5c0-8.223-6.667-15-14.889-15H243.866
				c-8.223,0-14.889,6.777-14.889,15l0,0c0,8.223,6.666,15,14.889,15h238.227C490.314,491.5,496.981,484.723,496.981,476.5
				L496.981,476.5z"/>
			<text transform="matrix(1 0 0 1 305.0698 482.8945)" style="fill:#FFFFFF; font-family:'Helvetica-Light'; font-size:24.8152;">RESERVE</text>
		</g>
		<rect id="Hotel_Image" x="359" y="213" style="clip-path:url(#Clip_1_);fill:#B3B3B3;" width="259" height="237"/>
		<g id="Hotel_Description" style="clip-path:url(#Clip_1_);">
			<line style="fill:none;stroke:#000000;stroke-width:3;stroke-miterlimit:10;" x1="347" y1="275.5" x2="110" y2="275.5"/>
			<line style="fill:none;stroke:#000000;stroke-width:3;stroke-miterlimit:10;" x1="347" y1="286.5" x2="110" y2="286.5"/>
			<line style="fill:none;stroke:#000000;stroke-width:3;stroke-miterlimit:10;" x1="347" y1="297.5" x2="110" y2="297.5"/>
			<line style="fill:none;stroke:#000000;stroke-width:3;stroke-miterlimit:10;" x1="347" y1="309.5" x2="110" y2="309.5"/>
			<line style="fill:none;stroke:#000000;stroke-width:3;stroke-miterlimit:10;" x1="347" y1="320.5" x2="110" y2="320.5"/>
			<line style="fill:none;stroke:#000000;stroke-width:3;stroke-miterlimit:10;" x1="347" y1="331.5" x2="110" y2="331.5"/>
			<line style="fill:none;stroke:#000000;stroke-width:3;stroke-miterlimit:10;" x1="347" y1="342.5" x2="110" y2="342.5"/>
			<line style="fill:none;stroke:#000000;stroke-width:3;stroke-miterlimit:10;" x1="347" y1="353.5" x2="110" y2="353.5"/>
			<line style="fill:none;stroke:#000000;stroke-width:3;stroke-miterlimit:10;" x1="347" y1="364.5" x2="110" y2="364.5"/>
			<line style="fill:none;stroke:#000000;stroke-width:3;stroke-miterlimit:10;" x1="347" y1="376.5" x2="110" y2="376.5"/>
			<line style="fill:none;stroke:#000000;stroke-width:3;stroke-miterlimit:10;" x1="347" y1="387.5" x2="110" y2="387.5"/>
			<line style="fill:none;stroke:#000000;stroke-width:3;stroke-miterlimit:10;" x1="347" y1="398.5" x2="110" y2="398.5"/>
			<line style="fill:none;stroke:#000000;stroke-width:3;stroke-miterlimit:10;" x1="347" y1="409.5" x2="110" y2="409.5"/>
			<line style="fill:none;stroke:#000000;stroke-width:3;stroke-miterlimit:10;" x1="347" y1="420.5" x2="110" y2="420.5"/>
			<line style="fill:none;stroke:#000000;stroke-width:3;stroke-miterlimit:10;" x1="347" y1="431.5" x2="110" y2="431.5"/>
			<line style="fill:none;stroke:#000000;stroke-width:3;stroke-miterlimit:10;" x1="347" y1="443.5" x2="110" y2="443.5"/>
		</g>
		<g style="clip-path:url(#Clip_1_);">
			<text transform="matrix(1 0 0 1 109.2441 239.7056)" style="font-family:'Helvetica'; font-size:34.7413;">HOTEL</text>
		</g>
	</g>
	<g id="Screen_Border">
		<path d="M638.647,167c7.245,0,6.353-0.381,6.353,7.333v329.404c0,7.712,0.893,20.263-6.353,20.263H93.142
			C85.897,524,74,511.449,74,503.737V174.333C74,166.619,85.897,167,93.142,167H639 M638.647,159H93.142
			c-4.662,0-9.836-0.15-14.334,1.04C67.471,163.04,66,170.959,66,174.333v329.404c0,8.062,6.355,15.616,8.981,18.454
			C77.686,525.117,85.093,532,93.142,532h545.506c3.569,0,6.758-1.391,9.222-3.869c5.483-5.516,5.305-15.024,5.26-22.633
			c-0.002-0.594-0.129-1.209-0.129-1.761V174.333c0-0.61,0.127-1.171,0.131-1.688c0.029-4.005,0.119-7.539-3.008-10.689
			C646.94,158.75,642.944,159,638.647,159L638.647,159z"/>
	</g>
</g>
<polygon points="561.336,562 114.663,562 69.996,651 606.004,651 "/>
<path d="M690.732,646.557c0,7.559-6.172,13.443-14.55,13.443h-36.66c-8.378,0-15.791-5.885-15.791-13.443l-38.464-71.132
	c0-7.559,7.413-13.425,15.791-13.425h36.66c8.378,0,14.55,5.866,14.55,13.425L690.732,646.557z"/>
</svg>
