<?xml version="1.0" encoding="utf-8"?>
<!-- Generator: Adobe Illustrator 16.0.4, SVG Export Plug-In . SVG Version: 6.00 Build 0)  -->
<!DOCTYPE svg PUBLIC "-//W3C//DTD SVG 1.1//EN" "http://www.w3.org/Graphics/SVG/1.1/DTD/svg11.dtd">
<svg version="1.1" id="Layer_1" xmlns="http://www.w3.org/2000/svg" xmlns:xlink="http://www.w3.org/1999/xlink" x="0px" y="0px"
	 width="720px" height="720px" viewBox="0 0 720 720" style="enable-background:new 0 0 720 720;" xml:space="preserve">
<style type="text/css">
<![CDATA[
	.st0{fill:#FFFFFF;}
]]>
</style>
<g>
	<path class="st0" d="M613.9,14c-22.8,0-43.5,9.3-58.5,24.2l0,0l0,0l0,0L29.3,564.3l0,0c-15.3,15-24.9,35.9-24.9,59.1
		c0,45.7,37,82.7,82.7,82.7c23.2,0,44.1-9.5,59.1-24.9l0,0l526.1-526.1c15-15,24.2-35.6,24.2-58.5C696.6,51,659.5,14,613.9,14z"/>
	<ellipse class="st0" cx="713.7" cy="289.2" rx="1.8" ry="0.4"/>
</g>
<g>
	<path class="st0" d="M706,613.9c0-22.8-9.3-43.5-24.2-58.5l0,0l0,0l0,0L155.7,29.3l0,0C140.7,14,119.8,4.5,96.6,4.5
		C51,4.5,14,41.5,14,87.1c0,23.2,9.5,44.1,24.9,59.1l0,0l526.1,526.1c15,15,35.6,24.2,58.5,24.2C669,696.6,706,659.5,706,613.9z"/>
	<ellipse class="st0" cx="430.8" cy="713.7" rx="0.4" ry="1.8"/>
</g>
<g>
</g>
<g>
</g>
<g>
</g>
<g>
</g>
<g>
</g>
<g>
</g>
</svg>
