<?xml version="1.0" encoding="utf-8"?>
<!-- Generator: Adobe Illustrator 16.0.4, SVG Export Plug-In . SVG Version: 6.00 Build 0)  -->
<!DOCTYPE svg PUBLIC "-//W3C//DTD SVG 1.1//EN" "http://www.w3.org/Graphics/SVG/1.1/DTD/svg11.dtd">
<svg version="1.1" id="Layer_1" xmlns="http://www.w3.org/2000/svg" xmlns:xlink="http://www.w3.org/1999/xlink" x="0px" y="0px"
	 width="561.667px" height="561.667px" viewBox="0 0 561.667 561.667" style="enable-background:new 0 0 561.667 561.667;"
	 xml:space="preserve">
<style type="text/css">
<![CDATA[
	.st0{fill:none;stroke:#FFFFFF;stroke-width:19;stroke-linecap:round;stroke-miterlimit:10;}
	.st1{fill:#FFFFFF;stroke:#000000;stroke-width:10;stroke-miterlimit:10;}
	.st2{fill:#FFFFFF;}
]]>
</style>
<g>
	<g>
		<path class="st2" d="M378.899,324.171c1.389,6.248-28.384,43.232-36.16,43.929c-0.269-0.553-45.035,13.349-94.158,25.067
			c-48.715,12.075-101.788,21.97-109.256,21.624c-14.702,0.966-45.975-6.711-55.451-19.752
			c-9.752-13.342,7.704-132.492,11.068-145.891c6.288-13.099,41.284-20.433,57.247-17.587c8.471,1.377,52.035,20.387,95.883,39.067
			c43.487,18.673,87.26,37.017,87.798,36.862c7.128-0.157,37.253-24.859,37.952-18.228
			C375.277,300.914,377.027,312.547,378.899,324.171z"/>
	</g>
	<line class="st0" x1="359.735" y1="332.425" x2="577.053" y2="-65.757"/>
	<circle class="st1" cx="186.849" cy="372.47" r="82.954"/>
</g>
</svg>
