<?xml version="1.0" encoding="utf-8"?>
<!-- Generator: Adobe Illustrator 16.0.4, SVG Export Plug-In . SVG Version: 6.00 Build 0)  -->
<!DOCTYPE svg PUBLIC "-//W3C//DTD SVG 1.1//EN" "http://www.w3.org/Graphics/SVG/1.1/DTD/svg11.dtd">
<svg version="1.1" id="Layer_1" xmlns="http://www.w3.org/2000/svg" xmlns:xlink="http://www.w3.org/1999/xlink" x="0px" y="0px"
	 width="300.818px" height="228.423px" viewBox="0 0 300.818 228.423" style="enable-background:new 0 0 300.818 228.423;"
	 xml:space="preserve">
<style type="text/css">
<![CDATA[
	.st0{fill:#FFFFFF;}
]]>
</style>
<g>
	<g>
		<g>
			<path class="st0" d="M39.205,5c18.86,0,34.205,15.344,34.205,34.205S58.065,73.409,39.205,73.409S5,58.065,5,39.205
				S20.344,5,39.205,5 M39.205,0C17.553,0,0,17.553,0,39.205s17.553,39.205,39.205,39.205s39.205-17.553,39.205-39.205
				S60.856,0,39.205,0L39.205,0z"/>
		</g>
		<path class="st0" d="M75,216.423c0,6.627-5.373,12-12,12H15.409c-6.627,0-12-5.373-12-12v-138.5c0-6.627,5.373,7.318,12,7.318H63
			c6.627,0,12-13.946,12-7.318V216.423z"/>
	</g>
	<g>
		<g>
			<path class="st0" d="M150.409,5c18.861,0,34.206,15.344,34.206,34.205s-15.345,34.205-34.206,34.205
				c-18.86,0-34.204-15.344-34.204-34.205S131.548,5,150.409,5 M150.409,0c-21.651,0-39.204,17.553-39.204,39.205
				s17.553,39.205,39.204,39.205c21.653,0,39.206-17.553,39.206-39.205S172.062,0,150.409,0L150.409,0z"/>
		</g>
		<path class="st0" d="M186.204,216.423c0,6.627-5.371,12-12,12h-47.59c-6.627,0-12-5.373-12-12v-138.5
			c0-6.627,5.373,7.318,12,7.318h47.59c6.629,0,12-13.946,12-7.318V216.423z"/>
	</g>
	<g>
		<circle class="st0" cx="261.614" cy="39.205" r="39.205"/>
		<path class="st0" d="M297.409,216.423c0,6.627-5.372,12-12,12h-47.591c-6.627,0-12-5.373-12-12v-138.5
			c0-6.627,5.373,7.318,12,7.318h47.591c6.628,0,12-13.946,12-7.318V216.423z"/>
	</g>
</g>
</svg>
