<?xml version="1.0" encoding="utf-8"?>
<!-- Generator: Adobe Illustrator 16.0.4, SVG Export Plug-In . SVG Version: 6.00 Build 0)  -->
<!DOCTYPE svg PUBLIC "-//W3C//DTD SVG 1.1//EN" "http://www.w3.org/Graphics/SVG/1.1/DTD/svg11.dtd">
<svg version="1.1" id="Layer_1" xmlns="http://www.w3.org/2000/svg" xmlns:xlink="http://www.w3.org/1999/xlink" x="0px" y="0px"
	 width="450.195px" height="420.796px" viewBox="0 0 450.195 420.796" style="enable-background:new 0 0 450.195 420.796;"
	 xml:space="preserve">
<style type="text/css">
<![CDATA[
	.st0{fill:#FFFFFF;stroke:#000000;stroke-width:2;stroke-miterlimit:10;}
	.st1{fill:none;stroke:#000000;stroke-width:15;stroke-linecap:round;stroke-linejoin:bevel;stroke-miterlimit:10;}
	.st2{fill:#FFFFFF;stroke:#FFFFFF;stroke-width:2;stroke-miterlimit:10;}
	.st3{fill:#FFFFFF;}
	.st4{fill:none;stroke:#000000;stroke-width:2;stroke-miterlimit:10;}
	.st5{fill:none;stroke:#FFFFFF;stroke-width:11;stroke-linecap:round;stroke-linejoin:round;stroke-miterlimit:10;}
]]>
</style>
<polyline class="st3" points="228.129,7.5 434.947,225.902 434.947,408.742 15.248,408.742 15.248,225.902 "/>
<circle class="st0" cx="15.248" cy="408.742" r="11.055"/>
<circle class="st0" cx="15.248" cy="385.341" r="11.055"/>
<circle class="st0" cx="15.248" cy="361.941" r="11.055"/>
<circle class="st0" cx="15.248" cy="338.541" r="11.055"/>
<circle class="st0" cx="15.248" cy="315.14" r="11.055"/>
<circle class="st0" cx="15.248" cy="291.74" r="11.055"/>
<circle class="st0" cx="15.248" cy="268.339" r="11.055"/>
<circle class="st0" cx="15.248" cy="244.939" r="11.055"/>
<circle class="st0" cx="434.947" cy="408.742" r="11.055"/>
<circle class="st0" cx="434.947" cy="385.341" r="11.055"/>
<circle class="st0" cx="434.947" cy="361.941" r="11.055"/>
<circle class="st0" cx="434.947" cy="338.541" r="11.055"/>
<circle class="st0" cx="434.947" cy="315.14" r="11.055"/>
<circle class="st0" cx="434.947" cy="291.74" r="11.055"/>
<circle class="st0" cx="434.947" cy="268.339" r="11.055"/>
<circle class="st0" cx="434.947" cy="244.939" r="11.055"/>
<line class="st4" x1="15.248" y1="255.994" x2="434.947" y2="255.994"/>
<line class="st4" x1="15.248" y1="279.394" x2="434.947" y2="279.394"/>
<line class="st4" x1="15.248" y1="302.794" x2="434.947" y2="302.794"/>
<line class="st4" x1="15.248" y1="326.195" x2="434.947" y2="326.195"/>
<line class="st4" x1="15.248" y1="349.595" x2="434.947" y2="349.595"/>
<line class="st4" x1="15.248" y1="374.287" x2="434.947" y2="374.287"/>
<line class="st4" x1="15.248" y1="396.396" x2="434.947" y2="396.396"/>
<line class="st4" x1="15.248" y1="233.884" x2="434.947" y2="233.884"/>
<line class="st2" x1="15.248" y1="208.121" x2="434.947" y2="208.121"/>
<line class="st2" x1="55.021" y1="182.151" x2="395.175" y2="182.151"/>
<line class="st2" x1="82.294" y1="153.174" x2="367.901" y2="153.174"/>
<line class="st2" x1="110.256" y1="128.742" x2="339.939" y2="128.742"/>
<line class="st2" x1="136.961" y1="96.356" x2="313.234" y2="96.356"/>
<line class="st2" x1="170.483" y1="62.833" x2="279.712" y2="62.833"/>
<rect x="173.324" y="235.107" width="103.547" height="173.635"/>
<g>
	<polyline class="st3" points="7.5,226.697 226.695,7.5 223.5,7.5 442.695,226.697 	"/>
	<polyline class="st1" points="7.5,226.697 226.695,7.5 223.5,7.5 442.695,226.697 	"/>
	<polyline class="st5" points="7.5,226.697 226.695,7.5 223.5,7.5 442.695,226.697 	"/>
</g>
</svg>
