<?xml version="1.0" encoding="utf-8"?>
<!-- Generator: Adobe Illustrator 16.0.0, SVG Export Plug-In . SVG Version: 6.00 Build 0)  -->
<!DOCTYPE svg PUBLIC "-//W3C//DTD SVG 1.1//EN" "http://www.w3.org/Graphics/SVG/1.1/DTD/svg11.dtd">
<svg version="1.1" id="Layer_1" xmlns="http://www.w3.org/2000/svg" xmlns:xlink="http://www.w3.org/1999/xlink" x="0px" y="0px"
	 width="720px" height="720px" viewBox="0 0 720 720" style="enable-background:new 0 0 720 720;" xml:space="preserve">
<g id="No">
	<defs>
		<path id="SVGID_1_" d="M0,702V0h702 M702,0L0,702L702,0z"/>
	</defs>
	<clipPath id="SVGID_2_">
		<use xlink:href="#SVGID_1_"  style="overflow:visible;"/>
	</clipPath>
	<rect x="-17" y="-25" style="clip-path:url(#SVGID_2_);fill:#CCCCCC;" width="762" height="802"/>
	<g id="Computer" style="clip-path:url(#SVGID_2_);">
		<polygon points="561.336,562 114.663,562 69.996,651 606.004,651 		"/>
		<path d="M690.732,646.557c0,7.559-6.172,13.443-14.55,13.443h-36.66c-8.378,0-15.791-5.885-15.791-13.443l-38.464-71.132
			c0-7.559,7.413-13.425,15.791-13.425h36.66c8.378,0,14.55,5.866,14.55,13.425L690.732,646.557z"/>
		<rect x="225" y="509" width="268" height="45"/>
		<g id="Screen">
			<defs>
				<path id="Clip" d="M646,174.333c0-7.714-0.107-7.333-7.353-7.333H93.142C85.897,167,74,166.619,74,174.333v329.404
					C74,511.449,85.897,524,93.142,524h545.506c7.245,0,7.353-12.551,7.353-20.263V174.333z"/>
			</defs>
			<clipPath id="Clip_2_">
				<use xlink:href="#Clip"  style="overflow:visible;"/>
			</clipPath>
			<rect id="Screen_Background" x="48" y="138" style="clip-path:url(#Clip_2_);fill:#FFFFFF;" width="624" height="415"/>
			
				<path style="clip-path:url(#Clip_2_);fill:none;stroke:#231F20;stroke-width:15;stroke-linecap:square;stroke-linejoin:round;" d="
				M174,219l109,109 M283,219L174,328"/>
		</g>
		<g id="Screen_Border">
			<path d="M638.647,167c7.245,0,6.353-0.381,6.353,7.333v329.404c0,7.712,0.893,20.263-6.353,20.263H93.142
				C85.897,524,74,511.449,74,503.737V174.333C74,166.619,85.897,167,93.142,167H639 M638.647,159H93.142
				c-4.662,0-9.836-0.15-14.334,1.04C67.471,163.04,66,170.959,66,174.333v329.404c0,8.062,6.355,15.616,8.981,18.454
				C77.686,525.117,85.093,532,93.142,532h545.506c3.569,0,6.758-1.391,9.222-3.869c5.483-5.516,5.305-15.024,5.26-22.633
				c-0.002-0.594-0.129-1.209-0.129-1.761V174.333c0-0.61,0.127-1.171,0.131-1.688c0.029-4.005,0.119-7.539-3.008-10.689
				C646.94,158.75,642.944,159,638.647,159L638.647,159z"/>
		</g>
	</g>
</g>
<g id="Ok">
	<defs>
		<path id="SVGID_3_" d="M720,18v702H18 M18,720L720,18L18,720z"/>
	</defs>
	<clipPath id="SVGID_4_">
		<use xlink:href="#SVGID_3_"  style="overflow:visible;"/>
	</clipPath>
	<g id="Computer_1_" style="clip-path:url(#SVGID_4_);">
		<rect x="-17" y="-25" style="fill:#CCCCCC;" width="762" height="802"/>
		<path d="M690.732,646.557c0,7.559-6.172,13.443-14.55,13.443h-36.66c-8.378,0-15.791-5.885-15.791-13.443l-38.464-71.132
			c0-7.559,7.413-13.425,15.791-13.425h36.66c8.378,0,14.55,5.866,14.55,13.425L690.732,646.557z"/>
		<polygon points="561.336,562 114.663,562 69.996,651 606.004,651 		"/>
		<rect x="225" y="509" width="268" height="45"/>
		<g id="Screen_1_">
			<defs>
				<path id="Clip_1_" d="M646,174.333c0-7.714-0.107-7.333-7.353-7.333H93.142C85.897,167,74,166.619,74,174.333v329.404
					C74,511.449,85.897,524,93.142,524h545.506c7.245,0,7.353-12.551,7.353-20.263V174.333z"/>
			</defs>
			<clipPath id="Clip_3_">
				<use xlink:href="#Clip_1_"  style="overflow:visible;"/>
			</clipPath>
			<rect id="Screen_Background_1_" x="48" y="138" style="clip-path:url(#Clip_3_);fill:#FFFFFF;" width="624" height="415"/>
			
				<polyline style="clip-path:url(#Clip_3_);fill:none;stroke:#231F20;stroke-width:15;stroke-linecap:square;stroke-linejoin:round;stroke-miterlimit:10;" points="
				585.563,363.969 471.295,482.5 467.891,482.5 410.437,422.915 			"/>
		</g>
		<g id="Screen_Border_1_">
			<path d="M638.647,167c7.245,0,6.353-0.381,6.353,7.333v329.404c0,7.712,0.893,20.263-6.353,20.263H93.142
				C85.897,524,74,511.449,74,503.737V174.333C74,166.619,85.897,167,93.142,167H639 M638.647,159H93.142
				c-4.662,0-9.836-0.15-14.334,1.04C67.471,163.04,66,170.959,66,174.333v329.404c0,8.062,6.355,15.616,8.981,18.454
				C77.686,525.117,85.093,532,93.142,532h545.506c3.569,0,6.758-1.391,9.222-3.869c5.483-5.516,5.305-15.024,5.26-22.633
				c-0.002-0.594-0.129-1.209-0.129-1.761V174.333c0-0.61,0.127-1.171,0.131-1.688c0.029-4.005,0.119-7.539-3.008-10.689
				C646.94,158.75,642.944,159,638.647,159L638.647,159z"/>
		</g>
	</g>
</g>
</svg>
