<?xml version="1.0" encoding="utf-8"?>
<!-- Generator: Adobe Illustrator 16.0.4, SVG Export Plug-In . SVG Version: 6.00 Build 0)  -->
<!DOCTYPE svg PUBLIC "-//W3C//DTD SVG 1.1//EN" "http://www.w3.org/Graphics/SVG/1.1/DTD/svg11.dtd">
<svg version="1.1" id="Layer_1" xmlns="http://www.w3.org/2000/svg" xmlns:xlink="http://www.w3.org/1999/xlink" x="0px" y="0px"
	 width="462.447px" height="412.295px" viewBox="0 0 462.447 412.295" style="enable-background:new 0 0 462.447 412.295;"
	 xml:space="preserve">
<style type="text/css">
<![CDATA[
	.st0{fill:#FFFFFF;stroke:#000000;stroke-width:5;stroke-miterlimit:10;}
	.st1{fill:#FFFFFF;}
]]>
</style>
<g>
	<path class="st1" d="M458.872,140.274c-4.916,9.958-174.233,239.146-190.618,236.594
		c-16.383-2.554-106.933-269.752-109.583-283.376s-3.314-105.351,81.024-92.207c84.34,13.143,65.918,131.352,65.918,131.352
		s8.534-55.898,38.428-87.009c13.587-14.141,31.587-23.16,55.204-19.479C474.823,37.926,463.788,130.317,458.872,140.274z"/>
	<path class="st0" d="M261.577,179.641c-1.121,8.822-71.193,227.48-84.814,230.125c-13.62,2.645-158.898-172.214-164.755-181.676
		c-5.857-9.463-31.75-77.949,38.364-91.561c70.115-13.611,88.29,80.008,88.29,80.008s-8.733-44.222,6.224-75.824
		c6.8-14.364,18.493-26.121,38.127-29.933C245.843,98.583,262.698,170.82,261.577,179.641z"/>
</g>
</svg>
