<?xml version="1.0" encoding="utf-8"?>
<!-- Generator: Adobe Illustrator 16.0.4, SVG Export Plug-In . SVG Version: 6.00 Build 0)  -->
<!DOCTYPE svg PUBLIC "-//W3C//DTD SVG 1.1//EN" "http://www.w3.org/Graphics/SVG/1.1/DTD/svg11.dtd">
<svg version="1.1"
	 id="svg3025" xmlns:dc="http://purl.org/dc/elements/1.1/" xmlns:sodipodi="http://sodipodi.sourceforge.net/DTD/sodipodi-0.dtd" xmlns:cc="http://creativecommons.org/ns#" xmlns:rdf="http://www.w3.org/1999/02/22-rdf-syntax-ns#" xmlns:inkscape="http://www.inkscape.org/namespaces/inkscape" xmlns:svg="http://www.w3.org/2000/svg" sodipodi:docname="search_font_awesome.svg" inkscape:version="0.48.3.1 r9886"
	 xmlns="http://www.w3.org/2000/svg" xmlns:xlink="http://www.w3.org/1999/xlink" x="0px" y="0px" width="742.857px"
	 height="742.857px" viewBox="0 0 742.857 742.857" enable-background="new 0 0 742.857 742.857" xml:space="preserve">
<path id="path3029" inkscape:connector-curvature="0" fill="#FFFFFF" d="M514.286,314.286c0-55.059-19.568-102.157-58.705-141.294
	s-86.236-58.706-141.295-58.706c-55.061,0-102.157,19.568-141.295,58.705s-58.705,86.235-58.705,141.294
	c0,55.061,19.567,102.158,58.705,141.295c39.138,39.138,86.234,58.705,141.295,58.705c55.06,0,102.159-19.567,141.295-58.705
	C494.718,416.443,514.286,369.346,514.286,314.286z M742.858,685.715c0,15.477-5.654,28.869-16.965,40.179
	c-11.311,11.311-24.703,16.964-40.18,16.964c-16.07,0-29.463-5.654-40.178-16.964L492.411,573.215
	c-53.273,36.904-112.648,55.356-178.125,55.356c-42.561,0-83.26-8.259-122.099-24.776c-38.84-16.519-72.322-38.839-100.447-66.965
	c-28.125-28.125-50.447-61.606-66.964-100.445C8.258,397.545,0,356.846,0,314.285c0-42.559,8.259-83.259,24.777-122.098
	S63.615,119.866,91.74,91.741c28.125-28.125,61.607-50.446,100.447-66.964C231.026,8.26,271.725,0,314.286,0
	c42.56,0,83.258,8.26,122.098,24.777c38.84,16.519,72.322,38.839,100.447,66.964s50.445,61.607,66.963,100.446
	c16.52,38.84,24.777,79.539,24.777,122.099c0,65.478-18.453,124.853-55.357,178.125l153.125,153.126
	C737.351,656.548,742.858,669.941,742.858,685.715z"/>
</svg>
