<?xml version="1.0" encoding="utf-8"?>
<!-- Generator: Adobe Illustrator 16.0.0, SVG Export Plug-In . SVG Version: 6.00 Build 0)  -->
<!DOCTYPE svg PUBLIC "-//W3C//DTD SVG 1.1//EN" "http://www.w3.org/Graphics/SVG/1.1/DTD/svg11.dtd">
<svg version="1.1" id="Layer_1" xmlns="http://www.w3.org/2000/svg" xmlns:xlink="http://www.w3.org/1999/xlink" x="0px" y="0px"
	 width="720px" height="720px" viewBox="0 0 720 720" style="enable-background:new 0 0 720 720;" xml:space="preserve">
<rect x="225.5" y="292.5" style="fill:none;stroke:#000000;stroke-width:3;stroke-miterlimit:10;" width="167" height="241"/>
<rect x="397.5" y="183.5" style="fill:#F2F2F2;fill-opacity:0.5;stroke:#000000;stroke-width:3;stroke-miterlimit:10;" width="322" height="350"/>
<rect x="-0.5" y="183.5" style="fill:#F2F2F2;fill-opacity:0.5;stroke:#000000;stroke-width:3;stroke-miterlimit:10;" width="220" height="350"/>
<path style="fill:#FFFFFF;stroke:#000000;stroke-width:3;stroke-miterlimit:10;" d="M182,285.5h253.5v1
	c0-33.993-56.993-61.5-127.939-61.5c-68.62,0-124.853,27.259-124.853,61.252"/>
<g>
	<g>
		
			<text transform="matrix(1 0 0 1 37.7783 170.7002)" style="fill:#424242;stroke:#424242;stroke-width:2;stroke-linecap:square;stroke-linejoin:round;stroke-miterlimit:10; font-family:'Helvetica-Bold'; font-size:200;">HOTEL</text>
	</g>
	<g>
		
			<text transform="matrix(1 0 0 1 30.5781 163.5)" style="fill:#FFFFFF;stroke:#000000;stroke-width:2;stroke-linecap:square;stroke-linejoin:round;stroke-miterlimit:10; font-family:'Helvetica-Bold'; font-size:200;">HOTEL</text>
	</g>
</g>
<g>
	<polygon points="166.282,655 184.269,550 433.724,550 450.737,655 	"/>
	<path style="fill:#FFFFFF;" d="M432.447,552l16.527,102H168.061l17.472-102H432 M435,549H183.003l-18.5,108H452.5L435,549L435,549z
		"/>
	<polygon style="fill:none;stroke:#000000;stroke-width:3;stroke-miterlimit:10;" points="452.5,656.5 164.503,656.5 183.003,548.5 
		435,548.5 	"/>
</g>
</svg>
