<?xml version="1.0" encoding="utf-8"?>
<!-- Generator: Adobe Illustrator 16.0.4, SVG Export Plug-In . SVG Version: 6.00 Build 0)  -->
<!DOCTYPE svg PUBLIC "-//W3C//DTD SVG 1.1//EN" "http://www.w3.org/Graphics/SVG/1.1/DTD/svg11.dtd">
<svg version="1.1" id="Asia" xmlns="http://www.w3.org/2000/svg" xmlns:xlink="http://www.w3.org/1999/xlink" x="0px" y="0px"
	 width="541.48px" height="541.48px" viewBox="0 0 541.48 541.48" enable-background="new 0 0 541.48 541.48" xml:space="preserve">
<path fill="#E6165E" d="M429.977,503.255c-0.383,0-0.767-0.061-1.138-0.184l-1.583-0.527c-0.178-0.012-0.354-0.037-0.529-0.074
	l-4.975-1.079c-1.055-0.229-1.92-0.904-2.408-1.812l-5.578,2.021c-0.397,0.146-0.813,0.22-1.228,0.22
	c-0.563,0-1.12-0.134-1.624-0.39c-0.176,0.026-0.354,0.039-0.536,0.039h-3.19c-0.55,0-1.081-0.125-1.562-0.354l-0.871,0.679
	c-0.648,0.506-1.432,0.759-2.212,0.759c-0.486,0-0.972-0.098-1.426-0.294c-0.445,0.191-0.931,0.292-1.421,0.292
	c-0.142,0-0.279-0.008-0.419-0.021l-2.909-0.343c0,0-17.269,0.693-17.315,0.693c-0.162,0-0.324-0.011-0.482-0.032l-9.752-1.325
	l-4.754,0.959c-0.232,0.049-0.474,0.069-0.713,0.069c-0.109,0-0.225-0.005-0.336-0.016l-7.818-0.733
	c-1.021-0.096-1.952-0.622-2.562-1.447c-0.151-0.209-0.282-0.432-0.387-0.661l-3.826-0.377c-1.688-0.169-3.03-1.489-3.224-3.177
	c0-0.006-0.002-0.012-0.002-0.017c-0.605-0.061-1.2-0.271-1.723-0.635l-3.552-2.485l-13.137-8.882
	c-0.372-0.252-0.693-0.57-0.948-0.94l-0.066-0.098c-0.383,1.042-1.234,1.874-2.345,2.207c-0.342,0.104-0.688,0.152-1.034,0.152
	c-1.188,0-2.324-0.592-3.006-1.617l-1.424-2.157c-0.759-1.149-0.784-2.608-0.121-3.769c-0.646,0.501-1.426,0.755-2.208,0.755
	c-0.717,0-1.438-0.214-2.059-0.646l-3.566-2.487c-0.999-0.694-1.577-1.853-1.538-3.068c0.039-1.218,0.692-2.333,1.735-2.963
	l1.784-1.078c0.096-0.061,0.189-0.11,0.291-0.158c-0.396-0.43-0.687-0.953-0.834-1.525l-0.338-1.282
	c-0.36,0.846-1.037,1.53-1.904,1.898c-0.451,0.192-0.93,0.286-1.406,0.286c-0.732,0-1.463-0.224-2.08-0.661l-2.516-1.778
	c-0.26-0.187-0.492-0.4-0.694-0.646l-1.784-2.157c-0.77-0.93-1.02-2.182-0.673-3.332c-0.416-0.027-0.833-0.133-1.233-0.312
	l-4.517-2.058c-1.312-0.533-2.237-1.824-2.237-3.333c0-1.985,1.611-3.6,3.603-3.6c0.001,0,0.793,0,0.793,0l-3.489-2.317
	c-0.623-0.414-1.103-1.012-1.367-1.71l-1.781-4.644c-0.463-1.206-0.243-2.568,0.574-3.568c0.688-0.844,1.717-1.318,2.784-1.318
	c0.198,0,0.397,0.017,0.599,0.051l12.843,2.159c0.683,0.111,1.315,0.424,1.829,0.891l4.271,3.896
	c0.755,0.688,1.164,1.646,1.173,2.627l6.264,3.27c0.119,0.062,0.236,0.133,0.353,0.21l-0.554-1.006
	c-0.158-0.289-0.277-0.599-0.354-0.919l-2.254-9.68c-0.047-0.049-0.093-0.099-0.138-0.146l-5.676-6.458
	c-0.401,0.146-0.82,0.22-1.237,0.22c-0.809,0-1.611-0.271-2.266-0.801c-1.105-0.896-1.581-2.354-1.213-3.729l1.896-7.078
	c-0.069-0.188-0.126-0.379-0.166-0.578l-0.705-3.551c-0.155-0.782-0.046-1.599,0.312-2.312l1.104-2.207
	c-0.606-0.769-0.891-1.77-0.737-2.772l0.556-3.659l-0.362-0.882c-1.268-0.318-2.285-1.312-2.611-2.617l-1.779-7.131
	c-0.071-0.285-0.107-0.578-0.107-0.873v-5.241c-0.314-0.138-0.607-0.319-0.873-0.541l-0.012,0.01
	c-0.301,0.251-0.631,0.444-0.979,0.581c-0.396,0.271-0.851,0.464-1.332,0.562l-1.945,0.384l-0.596,1.051
	c-0.615,1.085-1.748,1.772-2.994,1.822c-0.045,0.002-0.092,0.002-0.139,0.002c-0.438,0-0.865-0.079-1.267-0.229
	c-0.272,0.104-0.562,0.175-0.858,0.207c-0.137,0.019-0.271,0.022-0.404,0.022c-0.838,0-1.646-0.291-2.287-0.819
	c-0.297,0.076-0.602,0.114-0.904,0.114c-0.792,0.001-1.587-0.261-2.247-0.788c-0.239-0.191-0.448-0.408-0.627-0.645
	c-1.155-0.873-1.679-2.357-1.315-3.771l1.902-7.394l-0.777-3.673c-0.609-0.231-1.158-0.634-1.571-1.17l-2.485-3.233
	c-0.689-0.9-0.908-2.06-0.624-3.121c-0.085-0.034-0.168-0.071-0.249-0.11c-0.002-0.001-0.005-0.001-0.007-0.001
	c-1.257-0.182-2.325-1.013-2.812-2.188l-4.115-9.938c-0.04,0.03-1.202,0.839-1.202,0.839c-0.604,0.422-1.312,0.64-2.024,0.646
	c-0.608,0.449-1.354,0.705-2.142,0.705c-0.002,0-0.004,0-0.006,0c-0.37,0-0.73-0.061-1.071-0.166
	c-0.087,0.026-0.176,0.053-0.267,0.071c-0.27,0.062-0.542,0.095-0.811,0.095c-0.489,0-0.97-0.103-1.414-0.289
	c-0.411,0.392-0.918,0.688-1.491,0.854c-0.328,0.095-0.662,0.142-0.991,0.142c-0.885,0-1.742-0.328-2.401-0.918
	c-0.571,0.354-1.23,0.541-1.9,0.541c-0.353,0-0.709-0.054-1.057-0.157c-0.457-0.143-0.872-0.367-1.229-0.66l-0.309,0.094l0.073,0.37
	c0.244,1.234-0.176,2.51-1.107,3.357l-3.896,3.55c-0.396,0.359-0.868,0.629-1.381,0.782l-6.331,1.916l-4.721,4.403
	c-0.254,0.236-0.541,0.437-0.852,0.59l-7.996,3.98v0.287c0,1.897-1.475,3.472-3.369,3.594l-3.69,0.236l-1.163,1.535
	c-0.686,0.899-1.749,1.424-2.869,1.424c-0.12,0-0.241-0.006-0.361-0.02l-0.93-0.094l0.611,8.354
	c0.047,0.646-0.082,1.297-0.373,1.877l-2.118,4.221l-1.065,2.415v6.13c0.452,0.266,0.847,0.63,1.15,1.075l5.348,7.835
	c0.197,0.289,0.351,0.604,0.457,0.938l2.487,7.819c0.365,1.147,0.131,2.403-0.623,3.344l-2.862,3.566
	c-0.686,0.854-1.72,1.347-2.807,1.347c-0.069,0-0.139-0.002-0.208-0.006l-5.677-0.328c-1.524-0.088-2.826-1.127-3.25-2.593
	l-1.453-5.021c-0.041-0.141-0.073-0.281-0.096-0.428l-1.034-6.413c-0.18-1.117,0.176-2.211,0.894-2.999l-2.156,0.175l-0.53,1.057
	c-0.387,0.771-1.038,1.376-1.834,1.707l-2.487,1.032c-0.447,0.188-0.917,0.275-1.381,0.275c-0.98,0-1.942-0.4-2.638-1.147
	l-4.974-5.352c-0.421-0.453-0.719-1.008-0.864-1.608l-1.454-6.056c-0.017-0.067-0.031-0.139-0.043-0.208l-1.035-5.795l-9.153-28.275
	c-0.104-0.317-0.162-0.649-0.173-0.985l-0.72-21.004c-0.021-0.595,0.107-1.188,0.371-1.72l1.257-2.543l-5.114,0.586
	c-0.137,0.018-0.274,0.021-0.41,0.022c-1.232,0-2.391-0.634-3.053-1.695l-7.132-11.432c-0.735-1.178-0.727-2.672,0.02-3.842
	c0.158-0.248,0.344-0.474,0.551-0.67l-0.926-1.863c-0.17-0.114-0.332-0.243-0.483-0.389c-0.646-0.615-1.026-1.438-1.101-2.293
	l-0.267-0.076c-1.538-0.447-2.595-1.855-2.595-3.457v-2.609l-0.317-0.137c-1.402-0.607-2.268-2.034-2.16-3.559l0.11-1.562
	l-17.292-3.92c-0.516-0.116-1-0.346-1.417-0.671l-6.427-5.005l-8.241-6.652l-0.127,1.231l0.884,2.371l4.78,4.777
	c0.464,0.467,0.793,1.049,0.95,1.688l2.113,8.586c0.316,1.284-0.098,2.641-1.08,3.527l-7.447,6.741
	c-0.665,0.604-1.527,0.934-2.416,0.934c-0.022,0-0.044,0-0.067,0l-0.736,3.248c-0.214,0.946-0.802,1.767-1.628,2.271
	c-0.571,0.352-1.224,0.531-1.882,0.531c-0.295,0-0.591-0.036-0.882-0.109l-2.02-0.511l-1.399,1.754
	c-0.698,0.875-1.743,1.354-2.815,1.354c-0.443,0-0.891-0.082-1.321-0.253l-1.061-0.42l-0.831,1.065
	c-0.692,0.89-1.747,1.388-2.839,1.388c-0.315,0-0.634-0.041-0.948-0.127l-7.475-2.041l-0.463,0.929
	c-0.618,1.233-1.875,1.989-3.219,1.989c-0.229,0-0.459-0.021-0.69-0.065l-9.866-1.927l-1.774,0.873
	c-0.5,0.244-1.043,0.369-1.589,0.369c-0.405,0-0.81-0.065-1.199-0.205l-9.693-3.426l-1.19,0.516c-0.459,0.199-0.946,0.3-1.431,0.3
	c-0.737,0-1.469-0.228-2.089-0.668l-5.004-3.563c-0.975-0.691-1.541-1.827-1.51-3.021l0.374-14.625
	c0.009-0.372,0.077-0.741,0.2-1.095l2.252-6.457l-1.025-18.625l-1.027-5.078c-0.016-0.08-0.03-0.162-0.041-0.242l-0.705-5.348
	c-0.069-0.524-0.021-1.062,0.14-1.564l2.06-6.452l0.947-7.19l-1.283-5.053c-0.171-0.675-0.143-1.386,0.081-2.046l1.316-3.867
	l1.46-15.61c-1.329-0.556-2.202-1.855-2.209-3.303l-0.03-6.262c-0.001-0.243,0.022-0.486,0.07-0.724l1.694-8.464
	c0.046-0.231,0.115-0.458,0.206-0.676l2.593-6.232c0.454-1.09,1.413-1.889,2.568-2.137c0.251-0.054,0.504-0.081,0.756-0.081
	c0.906,0,1.789,0.342,2.463,0.975l2.247,2.107l9.427-8.079l0.283-0.602c-0.207-0.009-0.414-0.036-0.618-0.081l-3.191-0.704
	c-1.752-0.387-2.952-2.004-2.814-3.792l0.329-4.269c0.092-1.19,0.768-2.258,1.806-2.85c0.531-0.303,1.122-0.461,1.715-0.472
	l-0.091-2.076c-0.043-0.002-0.085-0.004-0.128-0.008c-1.041-0.084-1.995-0.617-2.612-1.459l-1.033-1.408
	c-0.491-0.668-0.735-1.485-0.693-2.312l0.226-4.417l-0.454-0.312c-1.382-0.95-1.925-2.728-1.31-4.288
	c0.121-0.308,0.281-0.591,0.473-0.846c0.028-0.258,0.083-0.515,0.168-0.766c0.302-0.897,0.94-1.626,1.761-2.05l0.245-1.119
	c0.15-0.69,0.499-1.315,0.996-1.802v-1.701c0-0.974,0.395-1.906,1.094-2.584l1.452-1.409c0.319-0.31,0.685-0.551,1.076-0.72
	c-0.2-1.12,0.133-2.316,0.999-3.181l1.782-1.782c0.452-0.452,1.016-0.775,1.634-0.938l2.518-0.659
	c0.304-0.08,0.61-0.118,0.912-0.118c1.4,0,2.712,0.822,3.296,2.156l0.48,1.096c0.64-0.522,1.443-0.811,2.275-0.811
	c0.133,0,0.267,0.007,0.401,0.022c1.216,0.136,2.279,0.88,2.824,1.976l1.613,3.246l4.478,0.501c0.877,0.098,1.688,0.515,2.278,1.172
	l3.189,3.55c0.639,0.712,0.969,1.649,0.916,2.605l-0.321,5.801l2.169,4.338l2.373,2.349l1.688,0.279l0.083-0.055l1.345-3.119
	l-0.629-5.082c-0.015-0.118-0.023-0.235-0.026-0.354l-0.226-9.139c-0.047-1.904,1.398-3.516,3.296-3.676
	c0.103-0.008,0.206-0.013,0.307-0.013c1.771,0,3.301,1.301,3.56,3.084l1.163,8.03l0.464,1.623l0.842,1.897
	c0.023,0.051,0.044,0.103,0.065,0.156l0.905,2.325c0.393,0.292,0.725,0.663,0.973,1.092l1.364,2.367
	c0.14,0.243,0.251,0.501,0.331,0.771c0,0,0.649,2.18,0.658,2.214l0.51,1.918c0.087,0.327,0.126,0.661,0.121,0.993
	c0,0,0.497,0.901,0.519,0.946l1.003,2.007l0.745,1.445c0.071,0.138,0.133,0.281,0.186,0.427l0.615,1.708l0.569,1.646
	c0.097,0.281,0.159,0.573,0.185,0.87l0.104,1.214c0.05,0.585-0.044,1.167-0.266,1.696l0.123,0.446l0.854,1.905l1.177,2.093
	l1.79,2.123c0.953,1.13,1.117,2.729,0.415,4.03c-0.633,1.173-1.856,1.89-3.167,1.89c-0.142,0-0.286-0.008-0.43-0.026l-0.976-0.117
	l-1.25,1.785c-0.422,0.603-1.019,1.062-1.71,1.315l-1.264,0.463l-1.404,4.017l3.986,7.445l2.791,1.122l2.796-5.75
	c-0.387-0.3-0.714-0.682-0.955-1.127c-0.629-1.162-0.571-2.575,0.151-3.682l0.454-0.695c-0.011-0.19-0.006-0.383,0.015-0.577
	l0.374-3.55c0.079-0.75,0.392-1.457,0.894-2.02l2.143-2.402l1.317-5.351c0.157-0.637,0.485-1.22,0.95-1.684l0.482-0.482l-1.352-2.21
	c-0.578-0.945-0.688-2.104-0.3-3.142l1.515-4.044l-0.174-0.289c-0.758-1.251-0.683-2.837,0.188-4.012l1.079-1.452
	c0.625-0.842,1.585-1.369,2.63-1.444c0.087-0.006,0.173-0.009,0.26-0.009c0.453,0,0.898,0.085,1.313,0.249l1.784-1.113
	c0.584-0.364,1.245-0.545,1.905-0.545c0.719,0,1.436,0.215,2.052,0.642l0.727,0.504l1.577-1.45l-2.172-1.965
	c-1.163-1.053-1.511-2.737-0.859-4.165c0.07-0.154,0.151-0.302,0.24-0.441l0.404-1.045l0.329-1.631
	c0.137-0.681,0.468-1.307,0.953-1.804l1.88-1.925l1.693-1.836l0.801-5.632c0.094-0.663,0.371-1.286,0.8-1.8l2.651-3.177
	c0.147-0.177,0.312-0.339,0.49-0.484l0.809-0.659c0.645-0.525,1.449-0.809,2.274-0.809c0.116,0,0.232,0.006,0.348,0.017l4.165,0.405
	c0.333,0.032,0.66,0.111,0.971,0.233l4.919,1.938l2.348,0.158c0.798,0.054,1.556,0.372,2.153,0.904l1.782,1.588
	c0.368,0.328,0.665,0.728,0.872,1.175l0.822,1.774l0.518,1.004l1.005,1.253l1.809,0.528c0.152,0.044,0.301,0.099,0.444,0.162
	l-0.619-1.309c-0.412-0.871-0.458-1.87-0.128-2.774l0.284-0.779c0.22-0.604,0.596-1.131,1.082-1.535l0.114-0.313
	c0.166-0.458,0.421-0.873,0.747-1.224c-0.956-0.212-1.794-0.808-2.306-1.662l-0.035-0.058c-1.116-0.611-1.836-1.774-1.869-3.066
	l-0.15-5.889c-0.012-0.452,0.062-0.902,0.217-1.327l0.646-1.768c0.445-1.219,1.513-2.105,2.794-2.317l1.724-0.285
	c0.194-0.032,0.391-0.048,0.587-0.048c0.361,0,0.722,0.054,1.069,0.162l4.325,1.345l0.167-0.024l-0.173-0.29
	c-0.476-0.797-0.626-1.747-0.418-2.651l0.419-1.828c0.231-1.008,0.885-1.869,1.794-2.361l3.431-1.858
	c0.411-0.223,0.861-0.363,1.326-0.414l1.216-0.132l5.792-5.844l4.954-5.294l2.01-2.267l0.337-0.833
	c0.376-0.93,1.123-1.661,2.061-2.017c0,0,1.602-0.607,1.631-0.617l7.024-9.538c0.553-0.751,1.376-1.258,2.296-1.415l8.285-1.406
	l8.338-1.929l3.64-1.849l0.894-3.442l-0.198-0.4c-0.792-1.602-0.29-3.543,1.181-4.559c0.621-0.429,1.335-0.638,2.044-0.638
	c0.694,0,1.385,0.2,1.979,0.591l0.28-0.468c0.041-0.068,0.083-0.135,0.128-0.2l3.192-4.628c0.481-0.698,1.194-1.204,2.013-1.428
	l3.087-0.845l4.7-4.372c0.47-0.437,1.035-0.729,1.631-0.869l0.106-0.136c0.688-0.873,1.734-1.368,2.824-1.368
	c0.217,0,0.438,0.02,0.653,0.06l1.783,0.33c1.305,0.241,2.37,1.181,2.774,2.444c0.187,0.581,0.217,1.187,0.105,1.765
	c0.01,0,0.021,0,0.027,0c0.375,0,0.758,0.059,1.131,0.183c1.422,0.47,2.363,1.748,2.464,3.172l0.353-0.068
	c0.229-0.044,0.457-0.066,0.686-0.066c0.451,0,0.895,0.084,1.311,0.247l0.598-1.953c0.464-1.517,1.863-2.547,3.44-2.547
	c0.037,0,6.491,0.198,6.491,0.198l-0.057-0.373c-0.248-1.639,0.652-3.236,2.187-3.868c0.169-0.07,0.341-0.126,0.515-0.168
	c0.502-0.537,1.168-0.917,1.914-1.067l7.164-1.444l0.15-0.23c0.669-1.025,1.807-1.632,3.014-1.632c0.125,0,0.25,0.006,0.377,0.02
	l3.564,0.374c0.193,0.021,0.386,0.057,0.57,0.107c0.574-0.849,1.484-1.41,2.496-1.546c-0.101-0.08-0.193-0.165-0.285-0.256
	c-0.744-0.741-1.114-1.756-1.055-2.771l-1.352-0.118c-0.757-0.066-1.477-0.371-2.047-0.869l-2.684-2.331
	c-0.963-0.107-1.848-0.598-2.445-1.372c-0.684-0.88-0.92-2.025-0.643-3.104l0.373-1.453c0.09-0.345,0.229-0.672,0.409-0.971
	c0.207-0.605,0.574-1.153,1.077-1.58l4.645-3.941c0.654-0.555,1.48-0.855,2.33-0.855c0.15,0,0.303,0.01,0.455,0.029
	c1.004,0.128,1.906,0.672,2.488,1.499l1.781,2.532c0.486,0.694,0.71,1.527,0.646,2.351l0.74,0.741
	c0.118,0.118,0.228,0.244,0.327,0.375c0.979,0.105,1.84,0.6,2.425,1.328c0.521,0.216,0.995,0.555,1.371,0.998l2.11,2.487
	c0.762,0.892,1.035,2.098,0.742,3.231c-0.041,0.159-0.093,0.312-0.152,0.464l0.09,0.045c0.742,0.375,1.316,0.988,1.648,1.72
	c0.194,0.088,0.379,0.193,0.557,0.314l1.523-0.477c0.354-0.108,0.713-0.163,1.071-0.163c0.783,0,1.556,0.256,2.19,0.745l4.646,3.565
	c0.889,0.681,1.407,1.736,1.407,2.854v0.983c0.202,0.439,0.313,0.919,0.328,1.414c0.009,0.339-0.031,0.675-0.115,0.998
	c0.183,0.164,0.347,0.348,0.494,0.55c0.229,0.319,0.405,0.668,0.521,1.033c0.098-0.014,0.189-0.023,0.285-0.029l5.348-0.33
	c0.074-0.004,0.148-0.007,0.225-0.007c1.043,0,2.04,0.453,2.727,1.249c0.211,0.244,0.385,0.513,0.521,0.798l0.514-0.038l0.108-1.525
	c0.079-1.124,0.681-2.146,1.625-2.761c0.592-0.386,1.274-0.584,1.966-0.584c0.409,0,0.82,0.07,1.216,0.211l2.988,1.072l2.59-0.511
	c0.229-0.046,0.465-0.068,0.697-0.068c0.745,0,1.479,0.232,2.098,0.674l2.487,1.783c0.585,0.42,1.023,1.001,1.271,1.662
	c0.211,0.134,0.408,0.289,0.588,0.462c0.2-0.26,0.439-0.494,0.713-0.694c0.631-0.461,1.379-0.697,2.131-0.697
	c0.508,0,1.017,0.107,1.492,0.324l1.088,0.495l0.738-0.642c0.31-0.267,0.653-0.476,1.022-0.624
	c-0.175-0.654-0.162-1.352,0.045-2.008c-0.548-0.088-1.074-0.302-1.536-0.636c-0.938-0.677-1.49-1.762-1.49-2.918V71.4
	c0-0.29,0.033-0.579,0.104-0.861l0.24-0.98c-0.043,0.023-2.282,1.13-2.282,1.13c-0.503,0.248-1.05,0.372-1.595,0.372
	c-0.645,0-1.283-0.172-1.854-0.514l-3.564-2.143c-0.955-0.574-1.592-1.561-1.723-2.666l-0.375-3.192
	c-0.138-1.172,0.309-2.338,1.193-3.119c0.665-0.587,1.515-0.901,2.382-0.901c0.095,0,0.188,0.004,0.284,0.011
	c0.668-0.686,1.594-1.088,2.578-1.088h4.56c0.521-0.529,1.2-0.898,1.966-1.029l6.055-1.033c0.199-0.034,0.402-0.051,0.604-0.051
	c0.845,0,1.667,0.296,2.321,0.849c0.811,0.684,1.275,1.691,1.275,2.751v2.485c0,1.827-1.365,3.365-3.184,3.576l-2.628,0.306
	l1.933,0.423c1.238,0.271,2.24,1.172,2.646,2.369l3.92-0.95c0.092-0.022,0.185-0.041,0.278-0.056l0.74-0.371
	c0.5-0.25,1.053-0.38,1.608-0.38h3.566c1.066,0,2.083,0.476,2.767,1.297c0.128,0.153,0.242,0.316,0.341,0.485h2.41l1.424-2.231
	c0.354-0.549,0.843-0.993,1.427-1.284l3.565-1.783c0.504-0.252,1.055-0.38,1.609-0.38c0.323,0,0.65,0.044,0.973,0.134l4.56,1.28
	c0.241,0.012,0.482,0.048,0.722,0.11c0.104-0.116,0.219-0.225,0.341-0.328l2.476-2.092c-0.186-0.298-0.329-0.625-0.423-0.976
	c-0.338-1.262,0.037-2.595,0.952-3.495c-0.02-0.231-0.018-0.465,0.009-0.7c0.117-1.063,0.701-2.019,1.596-2.608l1.062-0.703
	c0.12-0.08,0.245-0.151,0.374-0.216l0.578-0.289l0.363-1.834c0.046-0.235,0.112-0.461,0.203-0.678
	c-0.085,0.006-0.171,0.009-0.256,0.009c-0.844,0-1.682-0.295-2.352-0.874l-2.304-1.986l-0.877-0.572
	c-0.994-0.649-1.605-1.747-1.635-2.935c-0.022-1.188,0.535-2.312,1.502-3.004l2.484-1.784c0.62-0.445,1.356-0.675,2.102-0.675
	c0.432,0,0.862,0.078,1.276,0.235c1.129,0.429,1.968,1.396,2.232,2.574l0.719,3.192l0.34,1.357c0.183,0.717,0.13,1.451-0.112,2.112
	l5.49-1.831l8.157-2.819c0.38-0.131,0.777-0.197,1.176-0.197c0.046,0,0.091,0.001,0.14,0.002l0.686-1.124
	c0.491-0.804,1.277-1.384,2.191-1.615l4.268-1.079c0.292-0.074,0.588-0.11,0.883-0.11c0.771,0,1.528,0.247,2.157,0.718l2.863,2.143
	c0.271,0.205,0.514,0.445,0.715,0.711c0.408,0.308,0.753,0.705,1.004,1.171c0.179,0.334,0.302,0.688,0.368,1.05
	c0.395,0.221,0.745,0.515,1.031,0.866l0.128,0.157l0.044-0.007c0.201-0.035,0.402-0.051,0.604-0.051
	c1.335,0,2.583,0.744,3.205,1.963l0.734,1.438c0.621,1.215,0.501,2.677-0.312,3.774c-0.227,0.307-0.496,0.571-0.797,0.787
	c-0.286,0.365-0.644,0.677-1.06,0.913l-2.486,1.408c-0.506,0.287-1.072,0.446-1.65,0.465l0.681,0.699
	c0.521,0.54,0.854,1.216,0.969,1.931l7.729,2.073c0.721,0.193,1.358,0.603,1.837,1.175l1.779,2.143
	c1.271,1.523,1.065,3.784-0.45,5.058l-0.829,0.698l1.197,5.046l3.111,7.449l1.472,1.215c1.254,1.036,1.657,2.785,0.983,4.266
	c-0.591,1.299-1.883,2.109-3.274,2.109c-0.191,0-0.391-0.016-0.587-0.048l-0.914-0.151l0.702,1.256
	c0.613,1.098,0.598,2.403,0.028,3.461c1.09,0.461,1.901,1.439,2.134,2.637c0,0,0.75,3.9,0.751,3.903
	c0.175,0.035,0.349,0.083,0.521,0.146c0.929,0.336,1.678,1.039,2.069,1.944l0.603,1.372l4.664,2.644
	c0.835,0.474,1.443,1.261,1.695,2.188c0.253,0.927,0.123,1.916-0.354,2.747l-0.004,0.007l3.236,3.02
	c0.889,0.827,1.3,2.044,1.096,3.239l-0.677,3.948l0.663,0.634c0.093,0.087,0.179,0.178,0.259,0.273l1.608,1.611l0.321,0.308
	c0.708,0.679,1.105,1.617,1.105,2.598v0.374c0,0.877-0.318,1.725-0.899,2.383l-0.122,0.139l0.532,0.477
	c0.578,0.52,0.974,1.212,1.126,1.975l1.779,8.915c0.136,0.671,0.071,1.347-0.153,1.958c0.471,0.719,0.671,1.587,0.557,2.447
	l-0.375,2.817c-0.229,1.723-1.656,3.036-3.393,3.121c-0.062,0.003-0.118,0.004-0.18,0.004c-1.662,0-3.119-1.145-3.504-2.779
	l-1.074-4.599c-0.121-0.518-0.125-1.041-0.023-1.537l-15.952-14.073c-0.189-0.169-0.364-0.357-0.516-0.563l-4.976-6.742
	c-0.121-0.166-0.229-0.342-0.319-0.526l-2.862-5.724c-0.511-1.021-0.507-2.223,0.01-3.24l0.783-1.543l-1.677-5.242l-1.312-3.451
	c-0.327,0.095-0.663,0.142-0.997,0.142c-0.765,0-1.518-0.243-2.143-0.704c-0.75-0.006-1.493-0.246-2.118-0.71l-0.73-0.543
	l1.736,5.827c0.535,0.046,1.066,0.212,1.555,0.508l1.78,1.079c0.896,0.543,1.513,1.45,1.688,2.484
	c0.173,1.034-0.113,2.092-0.784,2.898l-5.352,6.427c-0.701,0.845-1.728,1.297-2.77,1.297c-0.574,0-1.154-0.137-1.688-0.422
	l-0.981-0.523c-0.34,0.921-1.054,1.7-2.035,2.094l-3.14,1.262c-0.189,0.99-0.789,1.868-1.669,2.402
	c-0.572,0.347-1.223,0.522-1.867,0.522c-0.327,0-0.655-0.045-0.976-0.134l-2.95,2.259l-0.312,8.298
	c-0.003,0.073-0.008,0.146-0.016,0.22l-0.705,7.117c-0.027,0.279-0.088,0.555-0.181,0.82l-0.597,1.725
	c0.403,0.081,0.797,0.23,1.159,0.45l1.782,1.079c0.516,0.312,0.936,0.743,1.232,1.247l1.396-0.691
	c0.501-0.248,1.048-0.374,1.597-0.374c0.363,0,0.729,0.055,1.079,0.166c0,0,1.133,0.356,1.174,0.371l0.198,0.071
	c-0.054-0.799,0.161-1.598,0.616-2.266l0.704-1.034c0.646-0.951,1.71-1.535,2.858-1.572c0.037-0.001,0.076-0.002,0.114-0.002
	c1.107,0,2.155,0.51,2.839,1.387l9.796,12.557l6.506,5.839l6.027,5.312c1.341,1.18,1.611,3.164,0.641,4.662
	c-0.684,1.051-1.834,1.64-3.021,1.64c-0.396,0-0.797-0.066-1.185-0.202l0.646,1.862l5.896,4.312
	c0.604,0.444,1.061,1.067,1.295,1.782l0.704,2.143c0.52,1.58-0.113,3.292-1.494,4.166l4.394,2.03l0.02-0.005l0.071-0.56
	c0.154-1.193,0.893-2.203,1.922-2.734c0.328-1.041,1.123-1.893,2.171-2.284l-0.22-3.536c-0.062-1.034,0.319-2.046,1.058-2.776
	l2.155-2.143c0.69-0.688,1.608-1.046,2.538-1.046c0.593,0,1.188,0.145,1.729,0.443c1.397,0.767,2.126,2.363,1.787,3.922
	l-1.783,8.195c-0.177,0.814-0.621,1.511-1.224,2.009l-0.215,1.726c0.021,0.018,0.038,0.036,0.06,0.054
	c1.28,1.25,1.448,3.25,0.396,4.696l-3.204,4.4v4.537c0,1.026-0.438,2.003-1.202,2.687c-0.663,0.591-1.521,0.914-2.396,0.914
	c-0.136,0-0.271-0.008-0.408-0.023l-0.646-0.074c0.005,0.006,6.424,8.591,6.424,8.591c0.36,0.481,0.594,1.046,0.682,1.641
	l1.078,7.46c0.154,1.075-0.186,2.153-0.902,2.941l1.675,3.542c0.188,0.396,0.301,0.824,0.334,1.262l0.237,3.085l1.38,1.589
	c0.802,0.923,1.079,2.189,0.735,3.363l-1.452,5.003c-0.053,0.18-0.116,0.355-0.196,0.525L491.692,250
	c-0.495,1.055-1.45,1.775-2.536,1.998c-0.132,1.42-1.104,2.656-2.502,3.098c-0.331,0.104-0.667,0.159-1,0.167
	c-0.273,0.278-0.595,0.513-0.946,0.692l-1.957,0.989c-0.04,0.543-0.203,1.075-0.482,1.554l-2.19,3.75l-0.254,1.212
	c-0.208,0.987-0.82,1.842-1.688,2.356c-0.562,0.333-1.192,0.503-1.835,0.503c-0.35,0-0.701-0.051-1.043-0.154l-0.802-0.243
	l-0.36,1.313c-0.438,1.595-1.885,2.647-3.47,2.647c-0.19,0-0.383-0.015-0.576-0.046l-0.311,0.86
	c-0.08,0.222-0.185,0.435-0.307,0.636l-1.074,1.784c-0.481,0.798-1.244,1.364-2.114,1.604l-0.231,5.945
	c-0.025,0.729-0.275,1.436-0.716,2.021l-2.144,2.859c-0.689,0.92-1.767,1.441-2.884,1.441c-0.273,0-0.556-0.031-0.828-0.1
	c-0.703-0.166-1.322-0.535-1.799-1.041l-1.544-0.437c-1.672-0.474-2.769-2.072-2.604-3.804l0.165-1.746
	c-0.328-0.021-0.656-0.086-0.974-0.198c-1-0.354-1.793-1.132-2.166-2.124l-1.031-2.738c-0.613-0.646-0.968-1.506-0.983-2.406
	c-0.019-1.021,0.396-2,1.146-2.696l2.759-2.575c-0.538-1.126-0.456-2.46,0.232-3.518l6.759-10.352
	c0.394-0.603,0.958-1.074,1.622-1.352l8.596-3.606l-0.79-7.279c-0.132-1.219,0.365-2.421,1.319-3.19l1.78-1.438
	c0.656-0.529,1.457-0.798,2.264-0.798c0.174,0,0.35,0.013,0.521,0.038l1.489-3.724l-0.541-5.762
	c-0.993-0.411-1.762-1.25-2.075-2.298l-1.062-3.566c-0.103-0.334-0.149-0.681-0.149-1.029v-1.896
	c-0.479-0.279-0.893-0.669-1.203-1.146l-3.232-4.974c-0.717-1.098-0.774-2.497-0.16-3.652l0.304-0.571l0.06-0.14
	c-0.646-0.81-0.916-1.866-0.726-2.898c0.217-1.178,1.006-2.17,2.104-2.648l0.136-0.059l-3.114-8.581
	c-0.141-0.388-0.212-0.789-0.216-1.187c-0.119-0.155-0.229-0.321-0.322-0.498l-6.01-11.21l0.325,13.689
	c0.006,0.217-0.012,0.434-0.043,0.647l-2.816,17.814c-0.096,0.607-0.346,1.18-0.726,1.664l-5.353,6.802
	c-0.693,0.883-1.745,1.375-2.83,1.375c-0.354,0-0.718-0.053-1.069-0.163l-1.39-0.433l-0.032,0.447
	c-0.085,1.165-0.717,2.167-1.633,2.761c-0.088,0.239-0.201,0.47-0.34,0.689l-1.545,2.439l1.188,3.319
	c0.407,1.138,0.22,2.404-0.507,3.371l-5.129,6.854l2.107,0.816c0.494,0.191,0.938,0.489,1.305,0.873l6.786,7.117
	c0.339,0.355,0.602,0.777,0.771,1.237l2.112,5.724c0.172,0.464,0.245,0.959,0.217,1.454l-0.325,5.708
	c-0.062,1.024-0.555,1.975-1.355,2.613c-0.274,0.219-0.579,0.394-0.899,0.522c-0.186,0.763-0.615,1.452-1.239,1.953
	c-0.431,0.343-0.921,0.58-1.442,0.7c-0.137,0.192-0.295,0.372-0.473,0.537c-0.354,0.328-0.758,0.575-1.189,0.736
	c-0.465,0.737-1.191,1.3-2.078,1.546c-0.318,0.09-0.646,0.133-0.968,0.133c-0.037,0-0.074,0-0.111-0.002l-0.021,0.039
	c-0.576,0.959-1.564,1.598-2.676,1.725c-0.14,0.02-0.274,0.021-0.41,0.021c-0.969,0-1.903-0.392-2.586-1.096l-1.408-1.454
	c-0.732-0.757-1.09-1.788-1.001-2.816c-0.592-0.781-0.844-1.776-0.685-2.756l0.449-2.76c-0.396-0.346-0.721-0.782-0.938-1.285
	l-1.729-1.729c-1.096-1.096-1.364-2.769-0.675-4.154l0.113-0.227c-0.058,0.013-0.115,0.024-0.173,0.034l-2.157,0.374
	c-0.206,0.036-0.412,0.053-0.616,0.053c-0.812,0-1.602-0.277-2.23-0.777c-0.854-0.108-1.649-0.519-2.234-1.174
	c-0.794-0.889-1.096-2.114-0.807-3.271l0.702-2.816c0.062-0.257,0.154-0.503,0.271-0.735c-0.007-0.142-0.006-0.285,0.005-0.429
	l0.043-0.616L420.2,247l-6.977,7.267l5.188,0.227c1.925,0.084,3.439,1.669,3.439,3.597v3.191c0,1.04-0.446,2.029-1.229,2.713
	c-0.66,0.575-1.503,0.887-2.367,0.887c-0.162,0-0.325-0.011-0.488-0.033l-1.131-0.155l-1.677,1.164l0.083,0.722
	c0.172,1.49-0.594,2.877-1.836,3.563c-0.021,0.04-1.147,1.902-1.147,1.902c-0.022,0.042-1.102,1.667-1.102,1.667h0.882
	c1.385,0,2.646,0.794,3.246,2.042l3.856,8.038l4.921,3.396c1.271,0.879,1.843,2.476,1.415,3.959
	c-0.068,0.234-0.158,0.459-0.271,0.67c0.658,0.627,1.062,1.49,1.108,2.416c0.039,0.732-0.148,1.451-0.521,2.062l0.176,0.059
	c1.146,0.381,2.021,1.31,2.339,2.473c0.225,0.824,0.146,1.691-0.204,2.451l0.288,1.875c0.149,0.992-0.117,1.963-0.688,2.715
	c-0.061,0.556-0.249,1.09-0.552,1.56c0.538,0.838,0.71,1.866,0.46,2.844c-0.29,1.128-1.106,2.046-2.193,2.466l-0.993,0.384
	c-0.01,0.036-2.172,7.601-2.172,7.601c-0.137,0.479-0.367,0.912-0.667,1.281c-0.127,0.523-0.373,1.021-0.729,1.454l-0.463,0.558
	l0.706,1.954c0.277,0.775,0.277,1.604,0.031,2.35l2.25-4.516c0.627-1.258,1.896-1.993,3.227-1.993c0.472,0,0.95,0.095,1.409,0.289
	l2.529,1.078c1.554,0.66,2.438,2.312,2.13,3.969l-3.234,17.482c-0.248,1.34-1.23,2.425-2.539,2.803
	c-0.33,0.099-0.667,0.146-1.001,0.146c-0.988,0-1.951-0.408-2.646-1.156l-4.628-5.005c-0.612-0.665-0.956-1.538-0.956-2.444v-2.86
	c0-0.559,0.13-1.105,0.378-1.604l2.618-5.252c-0.181,0.26-0.396,0.498-0.646,0.707c-0.421,0.353-0.905,0.595-1.414,0.726
	c-0.042,0.048-0.086,0.095-0.13,0.14c-0.061,0.521-0.229,1.039-0.52,1.502c-0.266,0.431-0.614,0.793-1.019,1.07
	c-0.084,0.348-0.222,0.685-0.406,0.995c-0.531,0.892-1.419,1.509-2.438,1.694c-0.021,0.035-2.222,3.672-2.222,3.672
	c-0.488,0.812-1.274,1.395-2.188,1.625c-0.359,0.396-0.812,0.718-1.321,0.927l-0.08,0.031c-0.08,0.222-0.181,0.435-0.304,0.637
	l-1.078,1.782c-0.312,0.52-0.749,0.945-1.271,1.249l-4.269,2.485c-0.562,0.325-1.188,0.487-1.812,0.487
	c-0.296,0-0.591-0.037-0.878-0.106l-0.104,0.106c-0.483,0.491-1.087,0.825-1.734,0.979c-0.209,0.499-0.53,0.957-0.962,1.331
	c-0.675,0.585-1.517,0.881-2.357,0.881c-0.48,0-0.961-0.095-1.412-0.287c-0.076,0.075-0.156,0.147-0.241,0.219
	c-0.503,0.413-1.095,0.674-1.711,0.771c-0.2,0.645-0.578,1.227-1.104,1.673c-0.656,0.562-1.486,0.859-2.334,0.859
	c-0.089,0-0.178-0.004-0.267-0.01c-0.654,0.672-1.568,1.088-2.58,1.088h-0.709c-0.378,0.494-0.888,0.893-1.487,1.14l-4.019,1.649
	c1.231,0.189,2.312,1.018,2.795,2.229l0.704,1.769c0.38,0.955,0.334,2.023-0.125,2.941l-2.861,5.725
	c-0.251,0.5-0.615,0.938-1.062,1.271l-4.271,3.19c-0.628,0.471-1.386,0.717-2.155,0.717c-0.285,0-0.574-0.034-0.857-0.104
	l-2.862-0.705c-0.989-0.243-1.831-0.896-2.312-1.797l-2.487-4.645c-0.69-1.291-0.531-2.873,0.403-4l3.234-3.896
	c0.442-0.53,1.025-0.922,1.68-1.13l-0.332-0.661c-0.092-0.179-0.164-0.359-0.225-0.55c-0.54-0.088-1.062-0.3-1.529-0.637
	c-0.336,0.148-0.699,0.248-1.08,0.288l-1.895,0.199l-1.203,1.793c-0.545,0.812-1.391,1.355-2.334,1.53
	c-0.07,0.129-0.15,0.254-0.238,0.373c-0.125,0.172-0.265,0.327-0.41,0.472c-0.129,0.993-0.668,1.903-1.515,2.493l-2.382,1.662
	l-0.463,2.293l6.729,8.483l5.785,3.217c0.389,0.216,0.729,0.499,1.016,0.839l3.564,4.271c0.354,0.424,0.604,0.923,0.735,1.459
	l3.19,13.167c0.373,1.535-0.302,3.083-1.565,3.888l-0.466,4.466c-0.115,1.112-0.741,2.106-1.693,2.692l-9.271,5.707
	c-0.383,0.234-0.801,0.395-1.23,0.475c-0.234,0.422-0.548,0.783-0.913,1.071c-0.021,0.052-0.046,0.104-0.071,0.155
	c-0.091,0.652-0.359,1.289-0.811,1.819c-0.497,0.594-1.153,0.989-1.863,1.174c-0.176,0.191-0.373,0.369-0.591,0.522l-5.021,3.565
	c-0.607,0.433-1.338,0.665-2.084,0.665h-2.861c-1.125,0-2.188-0.525-2.866-1.421c-0.68-0.896-0.903-2.061-0.604-3.145l0.977-3.513
	l-2.068-0.987c-0.558,0.326-1.187,0.493-1.817,0.493c-0.479,0-0.956-0.094-1.409-0.287c-0.729-0.31-1.318-0.843-1.704-1.505
	c-0.317-0.023-0.636-0.09-0.942-0.199c-0.982-0.352-1.77-1.114-2.146-2.091l-2.021-5.223l-2.959-1.659l-3.904,0.259
	c-0.08,0.006-0.159,0.008-0.238,0.008c-0.367,0-0.729-0.056-1.074-0.163c-0.062,0.378-0.183,0.746-0.359,1.089l-4.236,8.135v0.718
	l0.016,0.152c0.109-0.014,0.221-0.019,0.327-0.019c1.64,0,3.095,1.118,3.493,2.741l0.675,2.745l1.873,5.896l4.204,1.24
	c0.446,0.132,0.863,0.353,1.227,0.64l8.914,7.117c0.408,0.325,0.74,0.736,0.977,1.202l1.783,3.565
	c0.25,0.501,0.381,1.052,0.381,1.608v7.098l3.453,5.031c0.513,0.096,1.003,0.3,1.438,0.606c0.95,0.675,1.514,1.769,1.514,2.934v1.77
	c0,0.554-0.127,1.087-0.354,1.562l0.349,0.15c1.564,0.679,2.438,2.363,2.094,4.034c-0.131,0.631-0.422,1.19-0.823,1.647l3.012-0.285
	c0.114-0.011,0.229-0.016,0.343-0.016c1.463,0,2.799,0.896,3.346,2.275l0.625,1.58l0.744,0.094c0.605,0.076,1.174,0.303,1.656,0.649
	c0.145-0.143,0.299-0.271,0.467-0.39c0.609-0.426,1.33-0.646,2.062-0.646c0.27,0,0.54,0.027,0.809,0.092l3.188,0.733
	c1.149,0.266,2.103,1.077,2.536,2.18c0.438,1.099,0.308,2.342-0.352,3.325l-1.408,2.11c-0.666,1.001-1.791,1.604-2.994,1.604h-2.143
	c-1.014,0-1.979-0.428-2.66-1.176c-0.638,0.534-1.453,0.845-2.312,0.845c-0.123,0-0.247-0.008-0.371-0.021l-0.998,5.44l10.093,0.566
	c0.577,0.032,1.137,0.202,1.635,0.497l2.646,1.567l5.754-0.251l2.714-1.881c0.604-0.419,1.319-0.644,2.051-0.644
	c0.104,0,0.205,0.005,0.312,0.016l8.163,0.704c0.541,0.047,1.062,0.215,1.521,0.484l6.09-1.143c0.226-0.042,0.445-0.062,0.666-0.062
	c1.496,0,2.869,0.938,3.39,2.394c0.182,0.506,0.24,1.026,0.194,1.534c0.149,0.112,0.292,0.239,0.424,0.379l0.188-0.022
	c0.144-0.018,0.286-0.023,0.431-0.023c0.114,0,0.229,0.006,0.347,0.018l3.488,0.336c0.666-0.668,1.579-1.057,2.549-1.057h2.528
	c0.162,0,0.323,0.011,0.481,0.029c0.503-0.257,1.062-0.392,1.633-0.392c0.071,0,0.143,0.002,0.214,0.006l0.409,0.024
	c0.176-0.187,0.372-0.353,0.587-0.494l1.049-0.706c0.599-0.401,1.298-0.613,2.012-0.613c0.124,0,0.249,0.006,0.373,0.021
	l6.785,0.707c0.347,0.035,0.679,0.12,0.987,0.246l0.35-0.237l2.387-2.032c0.651-0.557,1.48-0.857,2.336-0.857
	c0.084,0,0.168,0.003,0.252,0.01l4.707,0.331l3.312-0.939l1.448-1.701c0.688-0.806,1.688-1.266,2.74-1.266
	c0.074,0,0.149,0.002,0.228,0.007c0.966,0.062,1.858,0.507,2.485,1.227c0.397-0.582,0.968-1.043,1.646-1.312l1.629-0.644
	c0.464-0.469,1.05-0.801,1.693-0.957l2.862-0.703c0.284-0.07,0.572-0.104,0.856-0.104c0.216,0,0.43,0.021,0.637,0.06l0.911-1.511
	c0.544-0.9,1.457-1.521,2.497-1.689l4.271-0.703c0.195-0.033,0.395-0.049,0.588-0.049c1.545,0,2.948,0.998,3.429,2.511
	c0.639,0.328,1.182,0.848,1.537,1.522c0.842,1.599,0.368,3.57-1.104,4.614l-14.622,10.354l-2.473,1.77
	c-0.371,0.27-0.791,0.459-1.232,0.568l-2.862,0.705c-0.286,0.068-0.574,0.104-0.86,0.104c-1.073,0-2.108-0.479-2.805-1.342
	c-0.877-1.09-1.044-2.589-0.429-3.844l0.522-1.069l-4.068,2.254c-0.361,0.2-0.755,0.336-1.16,0.403l-1.938,0.317
	c0.199,0.451,0.312,0.946,0.312,1.463v0.346c0,1.204-0.604,2.328-1.604,2.996l-2.157,1.438
	C431.375,503.05,430.679,503.255,429.977,503.255z M318.854,473.445c0.553,1.099,0.49,2.372-0.092,3.395
	c0.633-0.491,1.404-0.751,2.188-0.756l-1.938-2.814l-0.404-0.321L318.854,473.445z M104.707,285.471
	c0.748,0,1.482,0.232,2.098,0.674l3.143,2.256l5.404-2.928c-0.664-0.144-1.279-0.473-1.771-0.957l-3.235-3.188
	c-0.416-0.41-0.726-0.916-0.903-1.476l-2.286-7.199l-2.431-3.042c-0.531-0.665-0.809-1.497-0.785-2.347l0.305-10.878
	c-0.333-0.154-0.639-0.357-0.909-0.602l-1.044,7.405l1.96,7.117c0.26,0.944,0.124,1.953-0.375,2.792
	c0.308,0.164,0.594,0.373,0.848,0.625l1.781,1.771c1.086,1.078,1.372,2.728,0.712,4.104l-2.77,5.797l0.045,0.084
	C104.566,285.473,104.637,285.471,104.707,285.471z M403.139,254.387c0.513,0.339,0.938,0.809,1.225,1.377l0.643,1.275l2.309-2.028
	c0.055-0.048,0.108-0.094,0.168-0.138c-1.021-1.047-1.308-2.62-0.711-3.964c-0.271-0.378-0.468-0.801-0.574-1.243l-2.322,3.854
	C403.672,253.849,403.425,254.141,403.139,254.387z M170.895,198.807c0.486,0.196,0.909,0.489,1.254,0.849l3.465-2.006l-0.511-1.327
	c-0.07-0.181-0.125-0.367-0.164-0.555c-0.014,0-0.028,0-0.042,0c-0.615,0-1.227-0.158-1.773-0.467l-0.004-0.002l-1.595,1.729
	l-0.757,1.728L170.895,198.807z M426.083,484.738c-0.948,0-1.865-0.374-2.545-1.057c-0.791-0.788-1.169-1.899-1.024-3.011
	l0.312-2.391l0.104-1.801c-1.367-0.261-2.52-1.304-2.847-2.743l-0.732-3.236c-0.226-0.99-0.021-2.029,0.562-2.861l2.57-3.67v-2.1
	c0-0.772,0.248-1.525,0.709-2.146l1.192-1.607l-0.229-0.563c-0.128-0.312-0.208-0.634-0.245-0.958l-1.095,0.605
	c-0.494,0.271-1.04,0.424-1.596,0.447l-1.269,1.419l0.392,2.165c0.235,1.299-0.26,2.62-1.289,3.445l-3.563,2.861
	c-0.226,0.18-0.464,0.329-0.715,0.447c0.391,0.937,0.385,2.025-0.104,3l-1.402,2.812c-0.004,0.058-0.009,0.109-0.014,0.165
	c-0.094,1.062-0.649,2.026-1.523,2.636l-7.135,4.977c-0.141,0.098-0.285,0.186-0.438,0.263l-2.112,1.063
	c-0.51,0.256-1.062,0.384-1.619,0.384c-0.595,0-1.188-0.146-1.725-0.439c-0.894-0.485-1.531-1.326-1.771-2.3l-0.699,0.161
	c-0.27,0.062-0.537,0.091-0.809,0.091c-0.807,0-1.599-0.271-2.239-0.783c-0.239-0.188-0.451-0.405-0.633-0.646l-5.007,2.765
	c-0.539,0.298-1.139,0.448-1.739,0.448c-0.439,0-0.884-0.08-1.305-0.244c-0.994-0.386-1.767-1.19-2.105-2.205l-0.084-0.248
	l-4.767,0.857c-0.216,0.039-0.431,0.058-0.642,0.058c-1.709,0-3.229-1.222-3.539-2.963l-0.688-3.803
	c-0.14,0.017-0.275,0.022-0.414,0.022c-1.225,0-2.396-0.625-3.063-1.71c-0.479-0.776-0.634-1.685-0.479-2.536
	c-0.013-0.016-0.021-0.027-0.031-0.041c-1.062-0.804-1.623-2.152-1.379-3.516c-0.938-0.668-1.51-1.755-1.51-2.931v-3.938
	c0-0.908,0.346-1.785,0.969-2.455l4.312-4.629c0.67-0.719,1.605-1.133,2.589-1.145c0.017,0,0.029,0,0.044,0
	c0.971,0,1.896,0.389,2.572,1.081l0.57,0.583l2.25,0.35l0.699-3.101c0.26-1.156,1.07-2.11,2.174-2.551l7.871-3.15l4.354-6.568
	c0.445-0.672,1.104-1.175,1.866-1.429l4.648-1.544c-0.002-0.066,0.002-0.134,0.007-0.201c0.071-1.435,0.991-2.687,2.34-3.188
	l1.562-0.581l3.631-6.979c0.623-1.196,1.86-1.938,3.192-1.938c0.121,0,0.244,0.006,0.367,0.019c0.039,0.004,0.078,0.012,0.117,0.017
	c-0.302-0.156-0.579-0.357-0.832-0.604c-1.323-1.281-1.466-3.354-0.328-4.806l7.819-9.979c0.036-0.048,0.075-0.095,0.115-0.141
	l1.422-1.636l-0.114-0.882c-0.147-1.116,0.234-2.221,1.004-2.996c0.017-1.612,1.112-3.041,2.71-3.448
	c0.297-0.076,0.596-0.112,0.891-0.112c1.424,0,2.752,0.851,3.321,2.215l1.778,4.271c0.606,1.456,0.195,3.138-1.016,4.146
	l-4.269,3.565c-0.145,0.118-0.292,0.226-0.45,0.321l-3.004,5.143c-0.21,0.359-0.48,0.68-0.8,0.947l-4.271,3.565
	c-0.325,0.271-0.685,0.479-1.062,0.615c0.27,0.103,0.525,0.231,0.771,0.396l3.192,2.154c0.399,0.271,0.733,0.615,0.992,1.005
	c0.287,0.104,0.565,0.247,0.825,0.431c0.23,0.16,0.438,0.345,0.622,0.548l4.868,1.048c1.452,0.312,2.563,1.485,2.797,2.952
	c0.234,1.467-0.457,2.927-1.737,3.677l-2.054,1.197c0.263,0.637,0.341,1.347,0.207,2.047c-0.245,1.278-1.159,2.325-2.395,2.737
	l-1.853,0.618c0.029,0.435-0.021,0.877-0.151,1.307c-0.125,0.402-0.316,0.771-0.562,1.098l1.374,1.294
	c0.811,0.766,1.217,1.853,1.118,2.944l2.957,1.396c0.511,0.24,0.947,0.596,1.285,1.021l1.108-1.406
	c0.686-0.862,1.702-1.347,2.757-1.365l0.097-0.188c0.562-1.104,1.651-1.844,2.887-1.955l14.473-1.304l5.539-4.934
	c0.683-0.604,1.536-0.908,2.396-0.908c0.812,0,1.629,0.271,2.296,0.823c1.369,1.137,1.706,3.101,0.793,4.623l-4.271,7.13
	c-0.5,0.835-1.313,1.434-2.262,1.654l-2.681,0.633c0.15,0.188,0.286,0.392,0.398,0.607c0.206,0.395,0.334,0.812,0.386,1.232
	c0.514-0.367,1.125-0.604,1.775-0.661l3.938-0.359c0.108-0.011,0.221-0.016,0.329-0.016c1.591,0,3.012,1.053,3.458,2.604
	c0.314,1.104,0.084,2.252-0.562,3.128l2.483-1.364c0.541-0.297,1.138-0.441,1.731-0.441c0.688,0,1.37,0.192,1.969,0.585l0.577,0.377
	l0.085-0.261c0.116-0.358,0.288-0.693,0.507-0.993c-1.143-0.021-2.224-0.577-2.895-1.534c-0.815-1.168-0.869-2.708-0.133-3.928
	l0.153-0.254l-0.623-1.247c-0.69-1.389-0.421-3.062,0.674-4.154l0.309-0.309l-0.904-3.334c-0.22-0.803-0.152-1.652,0.187-2.41
	l2.862-6.414c0.479-1.075,1.438-1.82,2.539-2.058l0.261-0.659c0.551-1.396,1.894-2.278,3.348-2.278c0.226,0,0.448,0.021,0.676,0.062
	c1.697,0.322,2.928,1.811,2.928,3.536v2.511c0.446,0.606,0.702,1.354,0.702,2.139v2.483c0,0.302-0.037,0.596-0.108,0.878
	c0.878,0.793,1.334,1.989,1.148,3.216c-0.245,1.608-1.539,2.852-3.146,3.034l0.003,0.003c1.25,1.276,1.375,3.277,0.292,4.699
	c-0.312,0.409-0.695,0.734-1.123,0.973c0.057,0.254,0.08,0.515,0.077,0.772l6.313-1.403c0.261-0.06,0.521-0.088,0.78-0.088
	c1.188,0,2.315,0.591,2.993,1.604l2.145,3.207c0.798,1.191,0.809,2.749,0.025,3.955c-0.671,1.036-1.812,1.645-3.021,1.645
	c-0.198,0-0.397-0.017-0.601-0.051l-3.354-0.562l-6.244,2.183c-0.378,0.132-0.77,0.198-1.157,0.201
	c-0.688,0.93-1.771,1.454-2.894,1.454c-0.204,0-0.409-0.021-0.613-0.056c-0.125,0.128-0.261,0.248-0.405,0.358l-2.859,2.159
	c-0.638,0.479-1.399,0.726-2.169,0.726c-0.489,0-0.98-0.099-1.443-0.302l-3.223-1.41c-1.258-0.55-2.092-1.766-2.153-3.136
	c-0.039-0.881,0.245-1.729,0.771-2.396l-3.716,1.881c-0.517,0.263-1.069,0.39-1.624,0.39c-0.922,0-1.831-0.354-2.521-1.027
	c-0.286-0.28-0.519-0.6-0.691-0.941l-1.689,1.053c-0.57,0.354-1.229,0.543-1.901,0.543h-0.329c-0.364,0-0.723-0.057-1.06-0.158
	l-0.604,0.509l1.341,1.028c0.774,0.595,1.274,1.479,1.388,2.449c0.058,0.511,0.006,1.021-0.147,1.501
	c0.309,0.051,0.609,0.142,0.903,0.272c1.643,0.745,2.479,2.594,1.957,4.318l-0.134,0.444c0.177,0.25,0.322,0.522,0.435,0.818
	c0.526,1.407,0.123,2.993-1.011,3.979l-2.862,2.486c-0.672,0.581-1.514,0.883-2.361,0.883c-0.633,0-1.268-0.166-1.837-0.506
	c-0.125-0.072-0.243-0.153-0.355-0.24c-0.728-0.084-1.419-0.391-1.979-0.89c-0.279-0.251-0.519-0.538-0.705-0.854h-0.821
	c-0.834,0-1.636-0.289-2.271-0.805l0.174,1.84c0.184,1.91-1.168,3.625-3.063,3.898l-2.485,0.361l-2.913,0.381
	C426.395,484.729,426.238,484.738,426.083,484.738z M434.01,457.054l0.375-0.468l-0.289,0.068L434.01,457.054z M364.87,451.588
	c-1.171-0.087-2.229-0.738-2.828-1.747l-1.062-1.781c-0.942-1.578-0.541-3.615,0.931-4.723l1.438-1.079
	c0.627-0.472,1.389-0.721,2.16-0.721c0.207,0,0.415,0.018,0.622,0.054c0.979,0.172,1.847,0.742,2.394,1.575l0.015,0.021
	c0.554,0.355,1.011,0.864,1.304,1.483c0.6,1.256,0.416,2.742-0.463,3.819l-1.454,1.778c-0.687,0.844-1.713,1.323-2.788,1.323
	C365.046,451.597,364.958,451.594,364.87,451.588z M285.688,437.35c-0.164,0-0.33-0.011-0.494-0.03
	c-1.354-0.188-2.486-1.132-2.922-2.43l-0.721-2.154c-0.496-1.491,0.03-3.135,1.303-4.058c0.631-0.457,1.371-0.685,2.112-0.685
	c0.755,0,1.509,0.233,2.146,0.708l1.453,1.078c1.552,1.147,1.918,3.315,0.832,4.915l-0.731,1.079
	C287.986,436.768,286.867,437.35,285.688,437.35z M39.131,428.062c-1.173,0-2.315-0.574-3.003-1.611l-2.115-3.191
	c-0.167-0.251-0.3-0.521-0.399-0.806l-3.229-9.274c-0.132-0.38-0.2-0.777-0.2-1.184v-1.223l-2.318-7.308
	c-0.019-0.058-0.035-0.112-0.051-0.174l-0.37-1.408c-0.078-0.299-0.118-0.604-0.118-0.915v-0.733c0-1.724,1.218-3.201,2.906-3.532
	c0.232-0.046,0.465-0.068,0.696-0.068c1.438,0,2.769,0.865,3.331,2.238l0.948,2.321l0.041,0.039
	c0.435,0.434,0.752,0.971,0.921,1.561l2.153,7.508c0.054,0.188,0.093,0.382,0.116,0.577l0.316,2.729l3.728,9.545
	c0.669,1.714-0.062,3.657-1.695,4.505C40.259,427.932,39.692,428.062,39.131,428.062z M438.891,426.653
	c-0.725,0-1.445-0.219-2.065-0.653c-1.222-0.855-1.785-2.374-1.424-3.818l0.104-0.423c-0.549-0.864-0.72-1.953-0.397-2.989
	l1.426-4.612c0.185-0.603,0.521-1.144,0.979-1.569l2.438-2.276l-2.185-2.211c-0.464-0.47-0.781-1.053-0.937-1.681
	c-1.117-0.453-1.939-1.441-2.176-2.636l-1.063-5.373c-0.251,0.054-0.503,0.08-0.753,0.08c-1.188,0-2.326-0.594-3.002-1.614
	l-2.112-3.19c-0.071-0.11-0.142-0.229-0.202-0.347l-1.634-1.359c-1.22-1.02-1.629-2.714-1.007-4.177
	c0.15-0.354,0.354-0.675,0.598-0.953l-1.033-0.677c-0.551-0.355-0.987-0.854-1.271-1.441l-0.704-1.453
	c-0.044-0.092-0.084-0.186-0.12-0.276l-1.779-4.629c-0.304-0.78-0.32-1.64-0.059-2.433l0.704-2.112
	c0.398-1.196,1.385-2.076,2.573-2.362l-0.229-8.539c-0.049-1.847,1.311-3.431,3.143-3.666l8.165-1.049
	c0.151-0.02,0.307-0.029,0.459-0.029c0.934,0,1.837,0.362,2.514,1.022c0.787,0.769,1.183,1.854,1.067,2.946l-0.227,2.157
	l1.652,3.337c0.49,0.989,0.498,2.151,0.021,3.149l-3.851,8.043l0.486,0.989l2.075-0.774c0.41-0.151,0.839-0.229,1.259-0.229
	c0.793,0,1.563,0.263,2.192,0.744c0.099-0.009,0.193-0.013,0.291-0.013h2.159c0.562,0,1.11,0.132,1.611,0.382l1.407,0.702
	c1.149,0.577,1.907,1.729,1.979,3.016c0.012,0.179,0.009,0.354-0.009,0.53c0.031,0.021,0.062,0.047,0.091,0.069
	c0.273,0.224,0.509,0.479,0.702,0.762l0.922-0.306c0.369-0.121,0.75-0.181,1.128-0.181c0.837,0,1.661,0.292,2.32,0.847l2.113,1.781
	c0.507,0.428,0.886,0.985,1.095,1.614l1.783,5.349c0.386,1.157,0.158,2.432-0.604,3.385c-0.389,0.487-0.891,0.857-1.45,1.086
	c0.021,0.083,0.042,0.167,0.061,0.251l2.929,1.334c1.398,0.641,2.239,2.096,2.091,3.623l-0.026,0.309
	c0.669,0.483,1.17,1.197,1.38,2.048l1.405,5.678c0.278,1.126-0.001,2.316-0.753,3.2l-1.133,1.328l0.188,1.642
	c0.187,1.65-0.78,3.214-2.339,3.785c-0.127,0.046-0.257,0.085-0.385,0.116c-0.062,0.158-0.14,0.312-0.227,0.463l-1.438,2.487
	c-0.646,1.119-1.843,1.797-3.113,1.797c-0.148,0-0.298-0.01-0.447-0.027c-0.839-0.104-1.594-0.497-2.154-1.084
	c-0.106-0.015-0.218-0.034-0.323-0.06l-4.646-1.077c-1.806-0.419-2.998-2.144-2.756-3.979l0.024-0.186c-0.008,0-0.016,0-0.021,0
	c-0.292,0-0.587-0.036-0.881-0.109l-1.289-0.325l-0.029,0.067c0.121,0.218,0.221,0.45,0.294,0.695
	c0.463,1.515-0.121,3.151-1.437,4.036l-2.144,1.438C440.29,426.45,439.59,426.653,438.891,426.653z M439.59,392.861v-0.776
	c-0.516-0.055-1.021-0.222-1.479-0.498l-0.068,0.962L439.59,392.861z M281.072,408.841c-1.131,0-2.217-0.533-2.905-1.475
	l-1.063-1.454c-1.049-1.435-0.896-3.417,0.359-4.673l1.408-1.407c0.691-0.689,1.611-1.054,2.546-1.054
	c0.534,0,1.071,0.118,1.573,0.36c1.38,0.673,2.184,2.146,2,3.667l-0.344,2.861c-0.18,1.468-1.232,2.679-2.662,3.053
	C281.682,408.802,281.375,408.841,281.072,408.841z M24.174,399.565c-0.889,0-1.769-0.328-2.451-0.963l-0.371-0.347
	c-0.733-0.682-1.15-1.637-1.15-2.638v-1.438c0-1.246,0.636-2.354,1.614-3.004c-0.155-0.18-0.294-0.378-0.414-0.593l-1.576-2.821
	c-0.789-0.092-1.542-0.44-2.129-1.026l-0.706-0.703c-0.515-0.517-0.862-1.172-0.997-1.888l-0.334-1.781
	c-0.197-1.055,0.084-2.141,0.769-2.964c0.268-0.321,0.586-0.593,0.939-0.802l-1.983-6.539c-0.061-0.198-0.104-0.402-0.129-0.609
	l-1.078-8.915c-0.018-0.146-0.026-0.288-0.026-0.435v-3.188c0-0.825,0.279-1.59,0.75-2.2c-0.098-0.055-0.193-0.114-0.287-0.181
	c-1.085-0.758-1.667-2.051-1.517-3.363l0.372-3.236c0.066-0.571,0.264-1.102,0.561-1.557c-0.214-0.592-0.273-1.241-0.153-1.887
	l0.334-1.781c0.195-1.044,0.835-1.927,1.719-2.443V340.4c0-1.362,0.769-2.607,1.986-3.22l2.153-1.08
	c0.51-0.257,1.063-0.382,1.614-0.382c0.734,0,1.465,0.225,2.085,0.664c1.086,0.771,1.657,2.078,1.485,3.399l-0.372,2.858
	c-0.045,0.352-0.142,0.688-0.281,1c0.408,0.093,0.805,0.259,1.17,0.498l2.152,1.408c0.185,0.121,0.355,0.258,0.511,0.404
	c0.021-0.153,0.052-0.308,0.093-0.456l1.076-3.938c0.432-1.58,1.866-2.649,3.47-2.649c0.141,0,0.283,0.009,0.425,0.022
	c1.769,0.209,3.12,1.683,3.176,3.463l0.372,11.775c0.06,1.882-1.341,3.491-3.213,3.691c-0.13,0.016-0.26,0.021-0.389,0.021
	c-1.068,0-2.053-0.475-2.722-1.248l0.133,0.735c0.939,0.648,1.554,1.732,1.554,2.963v1.438c0,1.284-0.685,2.473-1.795,3.113
	c-0.046,0.562-0.222,1.092-0.5,1.558c0.189,0.648,0.193,1.35,0,2.012c-0.271,0.934-0.909,1.718-1.769,2.175L27.639,371
	c-0.168,0.089-0.343,0.165-0.521,0.226c-0.57,0.351-1.219,0.524-1.872,0.524c-0.519,0-1.041-0.11-1.528-0.34l-0.303-0.145
	l0.04,0.243c0.032,0.191,0.047,0.389,0.047,0.58v0.431l1.889,5.068c0.045,0.122,0.084,0.247,0.117,0.374l1.149,4.543
	c0.671,0.383,1.224,0.981,1.541,1.743l1.781,4.271c0.716,1.716,0.007,3.694-1.637,4.564c-0.328,0.174-0.671,0.292-1.019,0.355
	l0.371,1.778c0.319,1.534-0.39,3.103-1.755,3.869C25.389,399.413,24.779,399.565,24.174,399.565z M29.564,353.873
	c0.064,0.062,0.126,0.13,0.186,0.197l-0.684-3.697c-0.092,0.158-0.195,0.309-0.307,0.447c-0.054,0.237-0.133,0.469-0.233,0.688
	c0.279,0.396,0.479,0.853,0.581,1.339l0.15,0.723L29.564,353.873z M94.353,355.398c-1.057,0-2.06-0.464-2.744-1.271l-2.111-2.485
	c-1.121-1.318-1.143-3.252-0.052-4.598c0.704-0.868,1.741-1.334,2.798-1.334c0.582,0,1.169,0.144,1.71,0.437l4.599,2.483
	c1.45,0.784,2.182,2.452,1.778,4.051c-0.404,1.599-1.842,2.718-3.49,2.718H94.353L94.353,355.398z M539.718,353.619
	c-0.938,0-1.858-0.37-2.548-1.058l-0.704-0.704c-1.26-1.266-1.405-3.259-0.343-4.689l1.079-1.454
	c0.695-0.938,1.779-1.455,2.892-1.455c0.479,0,0.959,0.095,1.418,0.292c1.533,0.657,2.413,2.281,2.128,3.926l-0.375,2.158
	c-0.229,1.324-1.18,2.411-2.461,2.816C540.447,353.562,540.081,353.619,539.718,353.619z M2.798,325.105
	c-0.107,0-0.215-0.005-0.324-0.017c-1.755-0.156-3.139-1.562-3.269-3.317l-0.186-2.517c-0.495-0.561-0.82-1.274-0.887-2.079
	l-0.332-3.939c-0.013-0.155-0.016-0.312-0.009-0.465c-0.016-0.347,0.018-0.688,0.1-1.022l0.665-2.706l0.681-4.482
	c0.191-1.258,1.032-2.32,2.213-2.799c0.435-0.175,0.892-0.261,1.346-0.261c0.779,0,1.551,0.253,2.189,0.741l1.409,1.078
	c0.127,0.099,0.247,0.203,0.36,0.314l0.372,0.373c0.335,0.336,0.601,0.735,0.781,1.178l2.486,6.055
	c0.721,1.756-0.045,3.771-1.752,4.604c-0.507,0.247-1.045,0.364-1.575,0.364c-0.333,0-0.664-0.047-0.982-0.138l0.116,0.339
	c0.13,0.377,0.196,0.771,0.196,1.172v0.333l0.295,1.421c0.112,0.54,0.099,1.099-0.039,1.633l-0.371,1.438
	C5.868,324.007,4.425,325.105,2.798,325.105z M40.915,316.208c-0.183,0-0.368-0.015-0.553-0.043
	c-1.619-0.251-2.864-1.563-3.03-3.192l-0.329-3.234c-0.134-1.322,0.47-2.61,1.573-3.354c0.605-0.407,1.306-0.612,2.009-0.612
	c0.579,0,1.159,0.142,1.689,0.421l1.408,0.748c1.658,0.884,2.361,2.892,1.614,4.611l-1.079,2.488
	C43.639,315.37,42.331,316.208,40.915,316.208z M458.487,304.073c-0.375,0-0.757-0.06-1.13-0.183l-1.052-0.35
	c-1.184-0.395-2.081-1.367-2.368-2.58c-0.291-1.213,0.064-2.488,0.943-3.375l2.127-2.143c0.697-0.7,1.623-1.062,2.559-1.062
	c0.697,0,1.401,0.203,2.019,0.619c1.433,0.974,1.972,2.823,1.284,4.412l-1.078,2.485
	C461.206,303.252,459.887,304.073,458.487,304.073z M41.289,251.695c-1.046,0-2.078-0.455-2.786-1.317
	c-1.174-1.432-1.071-3.52,0.238-4.828l3.565-3.566c0.7-0.7,1.622-1.055,2.547-1.055c0.369,0,0.738,0.057,1.094,0.17l0.792-1.295
	c0.674-1.1,1.854-1.721,3.073-1.721c0.509,0,1.025,0.108,1.514,0.335c1.659,0.77,2.477,2.662,1.902,4.397l-1.767,5.333
	c-0.358,1.08-1.205,1.927-2.284,2.285c-0.37,0.123-0.752,0.183-1.133,0.183c-0.73,0-1.452-0.222-2.064-0.65l-0.493-0.345
	l-2.203,1.469C42.673,251.498,41.978,251.695,41.289,251.695z M8.846,243.5c-0.758,0-1.513-0.239-2.147-0.71l-1.412-1.049
	c-1.126-0.836-1.664-2.25-1.378-3.624l1.784-8.568c0.351-1.684,1.835-2.866,3.521-2.866c0.123,0,0.247,0.006,0.372,0.019
	c1.836,0.189,3.231,1.736,3.231,3.581v0.374c0,0.215-0.02,0.43-0.058,0.642l-0.469,2.584c0.182,0.6,0.206,1.246,0.057,1.873
	l-0.197,0.832l0.279,2.976c0.132,1.416-0.58,2.776-1.819,3.473C10.061,243.347,9.453,243.5,8.846,243.5z M5.173,226.019
	c-0.225,0-0.453-0.021-0.682-0.065c-1.921-0.369-3.196-2.203-2.872-4.132l0.113-0.675c0.293-1.746,1.806-3.004,3.547-3.004
	c0.1,0,0.201,0.004,0.302,0.013c1.866,0.155,3.301,1.715,3.301,3.587v0.15c0,0.255-0.027,0.51-0.081,0.76l-0.113,0.525
	C8.325,224.861,6.836,226.019,5.173,226.019z M138.893,159.767c-0.383,0-0.768-0.062-1.139-0.185l-2.113-0.705
	c-1.133-0.378-2.004-1.292-2.327-2.442c-0.323-1.15-0.055-2.384,0.715-3.296l1.783-2.111c0.69-0.817,1.7-1.277,2.75-1.277
	c0.191,0,0.384,0.015,0.576,0.046c0.685-0.724,1.633-1.125,2.614-1.125c0.234,0,0.47,0.023,0.705,0.07
	c0.104,0.021,0.207,0.046,0.307,0.075l0.244-0.657c0.534-1.44,1.901-2.35,3.374-2.35c0.307,0,0.618,0.04,0.927,0.122
	c1.794,0.477,2.931,2.24,2.626,4.07l-0.359,2.157c-0.139,0.831-0.564,1.587-1.202,2.136l-0.203,0.175
	c-0.321,0.417-0.731,0.76-1.203,1.003l-0.762,0.638c-0.17,0.142-0.352,0.268-0.545,0.377l-5.003,2.816
	C140.114,159.611,139.505,159.767,138.893,159.767z"/>
<path display="none" d="M155.614,172.917l3.94,3.565v2.113l-4.645,4.27l0.705,1.782l-4.601-3.192l-2.86,1.784l0.704,2.486
	l-2.847-2.86l-1.079,1.453l1.079,1.782l-2.128,5.679l2.831,4.628l-2.486,2.487l-1.409,5.723l2.487-4.27l2.486,0.704l0.36,7.131
	l-4.27,0.359l-1.064-3.566l-2.86,3.207l-0.374,3.55l0.374-1.782l1.782,1.424l-0.704,2.517l-1.078-1.453l-1.408,2.158h1.783v2.861
	l-5.02,10.323l-7.117-2.862l-5.35-9.992l2.487-7.117l2.862-1.048l2.487-3.55l3.116,0.374l-2.008-2.382l-1.424-2.531l-1.034-2.308
	l-0.37-1.364l-0.18-1.185l0.509-0.509l-0.104-1.214l-0.554-1.602l-0.615-1.708l-0.764-1.484l-1.003-2.007l-1.169-2.113l0.271-0.509
	l-0.51-1.918l-0.629-2.112l-1.364-2.367l-0.869-0.374l-0.3-1.109l-0.944-2.427l-0.944-2.127l-0.6-2.098l-1.198-8.27l0.226,9.139
	l0.749,6.052l-2.157,5.004l-2.158,1.424l-4.269-0.705l-0.33-0.374l-3.222-3.19l-2.862-5.724l0.374-6.756l-3.189-3.55l-6.429-0.719
	l-2.486-5.004l-1.454,1.784l0.705,1.782l-1.769-1.782l-1.049,1.453l-2.486-5.677l-2.518,0.659l-1.782,1.782l1.438,1.454l-3.222,3.55
	v1.782l-1.079-0.733l0.749-2.113l-1.452,1.409v3.565l-1.079,0.705l-0.703,3.222l-1.408,0.33l1.783,2.157l-2.487-0.374l2.113,1.453
	l-0.329,6.428l1.033,1.408l2.53-2.486l0.706,1.408l0.329,7.491l2.86,2.113l2.862-1.035l0.359,2.816l2.487,0.374l-4.27,4.646
	l-2.517,5.348l-12.465,10.683L66.8,221.552l-4.135,5.168l1.064,1.782l-1.768,18.893l-1.453,4.269l1.453,5.723l-1.079,8.194
	l-2.157,6.758l0.705,5.349l1.078,5.332l1.079,19.6l-2.487,7.13l-0.374,14.624l5.004,3.562l2.487-1.077l11.026,3.896l2.862-1.408
	l11.057,2.157l1.783-3.565l10.322,2.816l2.486-3.188l3.566,1.406l2.847-3.564l4.269,1.078l1.453-6.412l1.782-1.049l1.078,1.406
	l7.447-6.74l-2.113-8.585l-5.334-5.334l-1.452-3.896l0.703-6.804l2.157-3.19l-12.48,6.761l-4.974-3.566l-2.143,0.375l-2.157-3.939
	l3.564-7.462l-1.781-1.77l-2.817,6.038l-0.374-8.194l1.784-2.86l-2.158-7.835l1.453-10.308l-1.453-1.079l2.158,0.33l0.374-2.487
	v-0.705l2.486,2.487l1.064-1.782l1.049,3.236l2.144,0.33v1.079l-0.36,12.838l2.847,3.566l2.487,7.834l3.235,3.189h8.196v8.568
	l9.243,7.463l6.427,5.005l20.301,4.6l-0.329,4.646l2.486,1.077v4.973l0.779,0.227l0.629-0.929l0.63,1.333l1.514,0.45l-0.703,2.142
	l2.83-1.078l-2.127,1.427l2.486,5.002l5.724,1.078l-1.453,1.782l-6.053-0.748l7.132,11.434l6.427-0.735l1.783-5.677l2.847,1.077
	l-2.142,1.033l-0.374,1.78l1.782,0.374l-1.782,1.408l1.078,3.565l-2.127,4.301l0.72,21.004l9.229,28.511l1.078,6.037l1.454,6.054
	l4.974,5.353l2.487-1.034l1.438-2.861l4.614-0.374l-1.424-1.078l1.782-2.484l0.703-1.078l2.862,0.374v-7.133l1.408-3.191l2.158-4.3
	l-0.704-9.616l1.408-2.847l3.565,0.358l2.157-2.849l5.334-0.343v-2.52l9.992-4.975l5.333-4.975l7.132-2.158l3.896-3.549
	l-0.704-3.567l4.645-1.407l1.408-2.532l0.705,3.564l2.517-2.485l1.784,2.861v-2.486l1.049,1.783l1.438-1.783l1.409,1.783
	l0.703-3.235l1.452,3.235l1.784-3.94l0.329,3.235l1.079-0.748l-0.33-3.563l3.896,0.374l6.053,14.618l1.438-1.779l-0.357,2.111
	l3.926,1.455l1.408,3.188l-3.191-0.375l2.486,3.234l1.079-2.859l2.11,9.978l-2.11,8.211l2.11-1.45l-1.406,2.152l1.406-1.452
	l1.781,2.157l1.079-2.157l1.452,2.157l1.409-2.483l3.565-0.704l-1.08-2.158l1.785,1.783l2.143-1.783v-3.564l2.486,5.351l2.155-0.374
	v8.914l1.782,7.13l0.703-2.125l2.486,6.051l-0.703,4.646l1.781,1.079l-2.485,4.975l0.704,3.55l1.078-1.408l-0.373,1.408
	l-2.487,9.289l2.112-1.078l7.506,8.54l0.705,0.704l2.484,10.684l3.926,7.132l12.479,7.131l2.485-2.126l1.77,1.409l-4.628-6.742
	v-8.212l-1.784-3.565l-8.914-7.117l-6.035-1.781l-2.487-7.836l-0.703-2.858l-3.565,0.374l-0.373-3.941v-1.77l4.646-8.914v-2.156
	l-0.374-3.896h0.374l5.333-1.078l-0.705,4.27l4.975-0.33l5.021,2.816l2.488,6.429l2.483-1.409l0.36,3.191l1.406-1.078l6.76,3.224
	l-1.783,6.426h2.862l5.019-3.564l-2.158-2.859l3.942,1.78l-1.454-2.143l-0.705-0.704l1.409,0.704l1.077,1.062l-0.703-1.062
	l-0.705-1.079l2.487,0.733l-2.158-1.063h2.158l-0.374-1.451l2.859,0.73l9.272-5.707l0.704-6.758l1.41-0.375l-3.192-13.166
	l-3.563-4.271l-6.412-3.562l-8.211-10.355l1.078-5.348l3.563-2.487l-0.329-2.485l1.409,0.345l-1.078-1.782h3.565l2.142-3.189
	l3.565-0.375l0.347-2.109l3.222,2.484l2.485-2.156l1.782,1.451l-1.408,3.191l1.783,3.551l1.779-0.329v-6.083l0.33,1.08l6.055-2.486
	V352.9h3.562v-1.785l2.848,0.705l-0.326-3.939l1.031,2.486l0.75-1.781l1.407,0.749l-1.407-4.646l5.35,3.896l-0.749-1.409l2.86-2.156
	l0.373,1.451l2.113-2.153l1.438,1.075l4.269-2.483l1.078-1.783l-1.438-0.703l3.552-1.438l0.373-2.125l1.407,1.05l2.157-3.567
	l-1.782-1.031l4.271-0.75l-0.703-2.112h2.157l-1.079-2.155h2.111v-2.113l1.78,1.034l-1.405-3.895l1.78-2.146H416.1l1.079-0.347
	l-1.454-1.438l2.156,0.36h0.705l2.145-7.491l-1.438-1.079l4.628-1.782l-1.78-2.111l1.78-1.783l-1.78-1.076l2.485-0.703l-0.329-2.145
	l-2.485,1.438l2.815-3.223l-1.033-0.346l-3.223-1.062l-4.972,1.771l7.115-5.711l-6.056-3.896h-3.222l8.567-0.373l-5.707-3.938
	l-4.271-8.899h-1.452l-3.896-1.032l-0.373-1.781l2.858-4.314l1.079-1.784l-1.079-1.033l2.487-0.374l-0.329-2.862l4.6-3.191
	l2.521,0.345v-3.191l-8.57-0.375l-2.859,2.517l-2.815,2.833l-2.863-5.679h-5.004l-0.33-3.94l4.978-1.783l3.223-5.348l2.815-4.974
	l3.233-2.144l2.487,2.847l-2.862,6.756l2.862-0.704l-2.487,4.269l8.54-8.899l7.819-0.345l-0.328,4.644l2.112,0.704l-2.487,1.079
	l-0.704,2.816l2.487-0.33l-0.704,1.079l2.157-0.374l0.329-1.079l3.938,0.704l2.848,4.644l-2.144-1.079l-1.078,2.158l1.782,1.783
	v-1.783l0.705,2.847l1.782-0.36l-1.051,6.413l2.127,2.157l-1.407,0.33l1.407,1.454l2.144-3.565l1.078,1.782v-2.531l1.783,1.079
	l-1.078-2.113l3.188,0.705v-2.862l2.158,0.374l0.328-5.708l-2.113-5.724l-6.786-7.117l-4.6-1.782l-0.373-2.833l6.412-8.569
	l-1.782-4.974l2.486-3.925l-0.704-1.784h2.127l0.358-4.974l5.724,1.783l5.35-6.802l2.816-17.814l-0.329-13.873v-2.862l-2.861-4.975
	l-1.782-3.565l-1.407-8.195l-5.021-3.565h1.782l-0.328-1.783l-6.083-2.157l-1.049-0.33l-2.848,1.408l0.705,1.453l-2.156,3.566
	l-1.035-4.315l-0.749,3.941l-2.486-4.27l-2.482,1.408l-2.487-1.079l3.563-10.323l0.703-7.117l0.375-9.992l6.055-4.629l1.406,0.734
	v-1.783l5.334-2.143l-1.062-2.862l7.116-1.409l-1.407,2.113l1.407,0.749l5.35-6.427l-1.78-1.079l-1.032,1.409l-1.453-1.783
	l-2.863-9.604l2.863-5.678l0.373-0.749l1.405,2.158l0.706,1.408l1.452,1.079v-0.33l0.329-1.079l1.782,2.112l-1.782-6.757L456,91.01
	l-3.896-2.861l0.701-2.143l1.783-0.345l-0.375,2.113l6.055,5.348l-0.703,4.269l2.848,7.506l2.157,6.742l-1.453,2.862l2.86,5.724
	l4.975,6.742l18.188,16.046l-1.778-8.915l-3.19-2.862l2.486-2.816v-0.374l-0.375-0.36l-1.782-1.782l-0.028-0.045l-1.049-1.003
	l-1.034-0.735l1.034-6.053l-5.334-4.974l1.438-2.487l-5.707-3.235l-1.079-2.472l-2.816,1.408l-6.427-9.948l0.703-1.453l1.78,0.374
	l-1.406-4.271l2.815,2.113l-1.784-3.192l1.454-3.925l4.271,0.704l-2.157-1.782l-3.567-8.54l-1.779-7.491l2.528-2.127l-1.779-2.143
	l-9.272-2.487l1.408,0.704l-3.191-0.345l0.704,2.486l-1.077-0.705l-1.03,1.424l2.108-6.052l-1.407-1.453l-1.78-2.113l-3.938-1.453
	V53.22l4.646,2.158v-2.862l4.269,0.33l2.486-1.408l-1.408-1.079l2.144,0.374L458.5,49.28l-2.112,0.36l-1.454-1.784l-2.109-1.062
	l-1.078,0.703l1.409-2.128h-2.113l1.409-0.703l-2.863-2.143l-4.269,1.079l-1.078,1.767l0.374,1.425l4.645,1.062l-7.836-1.408
	l-8.194,2.831l-6.427,2.143l-0.705,3.566l-2.154,1.079l-1.064,0.703l0.36,0.374l1.778,1.408l3.567,0.374l0.703,1.409l-3.566,1.078
	l-3.188-0.704l0.704,1.768l-4.629,3.911l1.062,2.847l-4.628-1.783v0.374l-0.33-0.374l-5.021-1.409l-3.565,1.783l-2.485,3.895h-7.817
	l0.329-1.783h-3.566l-1.407,0.704l1.077,3.941l-2.487-2.487l1.783,1.079l-0.373-2.157l-3.188,2.157l2.813-2.531l-8.896,2.157
	l1.438,1.078l-1.078,1.409l-0.705,1.079l1.08-0.703h0.328v0.329l0.375,0.749l0.702,0.704l0.705,0.33l1.076,1.079h-0.373
	l-2.815,0.704l1.049,2.157l-4.271-1.079l-2.487,2.157l-3.188-1.454l0.701,5.709l-7.834-4.255l1.781-1.079l-2.529-0.704l1.076-1.079
	l-2.484-1.783l-3.566,0.704l-3.925-1.408l-0.327,4.63l-4.646,0.345l-2.862-0.345l0.374-1.768l-5.349,0.33l-2.486,2.487l-2.145-3.191
	l-0.373,1.408l-1.407-1.408l-2.486,0.374v1.767l1.781-0.359l-6.802,2.846l-1.033,1.783l1.782-3.925l8.163-7.836l-2.484-2.157
	l2.157,1.079v-1.408l-4.646-3.565l-5.724,1.783l1.077-1.783l-4.27-0.374l2.485-1.408l-2.849-1.438l-3.205,2.847l-0.359,2.487h-1.408
	H318.5l1.049,1.782l-1.049-1.033l-4.629,1.782l0.703-1.079l-3.564-0.374l-0.705,1.079h1.784l-10.696,2.157l-0.703,2.487
	l-1.062-1.453l0.705,4.645l-10.697-0.33l-1.408,4.599l3.191,4.299l-2.486,7.461l-0.375,1.079l-1.078-1.408l-0.33-1.079l1.783-3.235
	l-2.158,1.452l4.271-4.644l-3.191-0.704l-1.782-1.783l-1.781-1.783l-1.782,0.345v1.783l-3.189-1.048l2.127,4.974l-3.564-1.783
	l1.782-7.491l-1.077,2.517l-4.977,2.486v3.896l-1.407,2.532l-2.861,3.565l4.271,0.704l2.485,2.113l-0.33,3.236l-2.53,1.768
	l2.155,1.783l-2.86-1.783l1.78-5.708h-3.898l-2.531,4.645l-8.524,5.333l-4.645-3.925l5.724,0.375l7.116-5.349l-0.703-3.191
	l2.816-4.314l2.158-3.551V85.64l4.646-4.63l-1.451-1.453l-2.084-1.034h1.752l1.408-1.454l-1.783-0.33l-1.408,1.783l-0.702-0.374
	l-5.349,4.974l-3.94,1.079l-3.192,4.628l-1.063,1.783l2.112,1.08l0.374,2.862l-3.94,2.816l-1.782-5.678l0.749,0.703l-1.798-1.932
	l0.793,1.603l-1.424,5.483l-0.06,0.749l-5.633,2.861l-8.87,2.052l-8.39,1.424l-7.954,10.801h-0.779l-1.544,0.585l-0.569,1.408
	l-2.486,2.802l-4.99,5.333l-6.727,6.788l-2.486,0.27l-3.431,1.858l-0.419,1.828l1.334,2.232l0.119,1.468l-1.468,1.648l-3.354,0.495
	l-5.108-1.588l-1.724,0.285l-0.646,1.768l0.15,5.889l0.764,0.315l0.629,1.048l2.337,0.12l3.177-0.074l1.438,0.51l0.72,1.498
	l-0.659,1.124l-5.154,2.787l-0.569,1.572l-0.629,0.285l-0.284,0.779l0.794,1.678l2.802,2.577l-0.854,0.45l1.349,2.637l1.094,1.378
	l-0.104,0.944l-0.973,1.079l-1.169,1.199l-3.445-2.292l-2.547,1.184l-1.033-4.69l-2.052-0.599l-0.42,0.285l-2.367-2.952
	l-0.719-1.393l-0.854-1.843l-1.782-1.588l-2.906-0.195l-5.439-2.142l-4.165-0.405l-0.809,0.659l-2.651,3.177l-0.959,6.742
	l-2.487,2.697l-1.917,1.963l-0.39,1.933l-0.766,1.978 M422.14,41.825l-2.482,1.784l1.078,0.704l2.482,2.143l-0.356-1.438
	L422.14,41.825z M316.338,51.054l-4.645,3.941l2.156,1.079l3.564-0.704l0.703-1.784L316.338,51.054z M311.364,55.699l-0.374,1.453
	h1.783l1.076-0.75L311.364,55.699z M317.748,55.699l-4.975,2.157l2.858,2.487l4.271,0.374v-3.565l-1.077-1.079l-1.079,0.703v-1.077
	H317.748z M322.393,58.561l-2.127,5.707l5.68-2.143l-2.113-2.487l-1.077,1.408L322.393,58.561z M423.219,58.561l-1.406,1.079
	l2.485,0.329L423.219,58.561z M383.667,58.935l-6.054,1.033l3.224,1.782l2.83-0.33V58.935L383.667,58.935z M370.482,61.046
	l1.455,2.157l-1.455-0.374l-2.861-0.705l0.375,3.192l3.566,2.143l2.154-1.064l3.896-2.127l-0.704-0.404l0.358-2.816h-6.785V61.046
	L370.482,61.046z M379.396,68.537l-0.705,2.863v0.329l4.257-1.408l-0.33-1.079L379.396,68.537z M340.204,78.156l-2.486,0.374
	l1.783,1.035L340.204,78.156z M469.169,98.127l-1.034,1.784l1.783,2.112L469.169,98.127z M488.061,144.437l1.077,4.599l0.375-2.817
	L488.061,144.437z M446.381,148.002l-0.704,1.034l3.191,2.157L446.381,148.002z M448.868,151.192l-1.409,2.863l2.487,4.974
	l5.35,5.004l3.19,5.348l10.683,19.926l-0.706-4.63l2.863-0.343l1.781,2.486l-0.704-2.143l-6.803-4.974l-2.486-7.132l2.159-2.157
	l3.896,1.784l-6.055-5.334l-6.742-6.052L448.868,151.192z M146.384,149.411l-0.359,2.157l-0.645,0.555l-0.061,0.15l-0.225,0.074
	l-1.199,1.004l-5.003,2.816l-2.113-0.705l1.783-2.111l0.703,1.782l2.487-2.86l0.359,1.079l2.982-1.003l0.284-0.225L146.384,149.411
	L146.384,149.411z M431.759,150.488v2.487l1.782-1.409L431.759,150.488z M489.14,180.407l-2.154,2.143l0.374,6.052L489.14,180.407z
	 M179.166,188.603l2.143,2.487l2.487-0.329l-4.255,1.782l-1.079,2.487l1.782,4.628l-2.157,0.719l-4.269,2.472v2.487l-3.566-0.704
	h-1.078l0.374-2.487l-3.566-1.438l2.487-5.677l3.94-4.271l2.487,1.408l1.078-2.486l0.704,1.782l0.703-1.079L179.166,188.603z
	 M77.243,188.978l-0.329,4.269l3.191,0.704l0.374-1.784l2.487-0.374L77.243,188.978z M486.277,189.307l-1.408,0.374v3.192
	l0.705,2.157L486.277,189.307z M469.918,191.464l4.27,11.76l-3.234,1.408l1.453,1.424l-1.077,2.517l-0.375,0.705l2.532,3.896
	l0.027,0.043l0.675,1.035l3.188-3.191l-3.895-0.704l-0.375-2.158l2.484,0.705l1.078-2.847l6.413,0.733v-5.709l3.896-5.348
	l-1.407,1.079l-2.487-5.02l-0.374,2.862l-3.551,1.079L469.918,191.464z M321.312,191.793l1.076,2.533l-1.781,3.192L321.312,191.793z
	 M294.959,195.359l1.409,2.533l-2.816,1.033h-0.374l-1.078-2.113L294.959,195.359z M107.896,196.438l4.27,0.705l-2.847,1.782
	L107.896,196.438L107.896,196.438z M262.885,196.812l-1.409,1.079l2.487,2.112l-3.416,1.857l-0.479,0.36l1.049,1.708l-1.783,0.345
	l3.191,2.517l-1.408,1.033l-3.565-3.55l2.517-2.052l-0.029-0.075l0.509-0.284l2.338-1.858l-2.472-2.861L262.885,196.812
	L262.885,196.812z M383.323,198.222l1.78,1.079l-2.861,3.192L383.323,198.222z M294.255,202.85l2.862,1.424l-1.453,0.735
	L294.255,202.85z M113.246,203.569l1.407,0.359v0.345l-1.032,5.004l-2.158,0.33L113.246,203.569z M227.632,205.337l10.696,5.02
	l3.55-0.374l-3.55,1.408l-9.663-4.599l-5.677,2.487l-2.146,5.348l-1.078-5.348l3.94-2.487L227.632,205.337z M442.456,205.712
	l-0.345,3.896l-2.487-3.192L442.456,205.712z M291.77,207.824l1.408,1.079l-2.861,2.157L291.77,207.824z M479.161,212.468
	l-2.127,1.079l2.483,2.487l-3.55-0.704v2.862v1.063l1.063,3.566l0.704-0.733h0.345l0.734,1.438l0.344,1.409l0.704,7.505
	l-4.271,10.683l-2.109-1.079l0.701-2.847l-1.78,1.438l1.079,9.948l-11.071,4.645l-6.757,10.352l1.048,1.784l5.004-1.079v-3.566
	l1.079,1.408l5.349-5.677l4.271-1.768l0.33,4.96l3.562,1.079l0.375-1.784l2.487-4.255l-2.487-1.452v-2.487l1.409,1.409v-1.409
	l1.782,0.374l-1.05,1.784l4.27-2.158l1.078-3.566l1.409,2.487l-0.374-3.896h2.158l-0.705-3.236h0.705h0.7l0.374,2.158v0.704v1.079
	l0.33-0.704l1.453-5.003l-2.158-2.487l-0.329-4.27l-2.858-6.052l1.781-1.454l-1.077-7.46L479.161,212.468z M251.123,213.173v3.94
	l-2.113-2.487L251.123,213.173z M5.283,221.743v0.15l-0.113,0.525L5.283,221.743z M98.622,227.091l1.452,4.645l2.847,2.816
	l-2.517-1.408L98.622,227.091z M9.218,230.283v0.374l-0.706,3.895l0.334,0.374l-0.334,1.408l0.334,3.566l-1.412-1.049L9.218,230.283
	z M224.411,230.283h7.117l1.078,1.079l-3.565,1.408L224.411,230.283z M267.153,240.275l0.704,1.408l-2.817-0.704L267.153,240.275z
	 M49.811,241.683l-1.767,5.333l-1.049-0.734l-0.03,0.031l-0.525-0.436l-0.883-0.629l-4.27,2.847l3.565-3.566l1.588,1.349
	l0.556,0.404L49.811,241.683L49.811,241.683z M470.247,260.23l-2.862,0.345l-2.108,3.55l-1.079-0.704l-2.145,5.348l1.438-1.079
	l1.783,3.566l1.074-1.784l1.408-3.895l2.862,0.705l1.078-3.926L470.247,260.23z M457.078,267.692l-4.976,4.644l2.486,2.157
	l-1.782-1.079l1.079,2.863l2.484-1.453l-1.781-2.113l1.064-1.452l2.128,3.235l-0.706,7.461l2.485,0.703v-3.189l0.702,3.926
	l2.146-2.86l0.374-9.602L457.078,267.692z M321.312,270.928l1.78,3.565l-3.19-1.452l-1.781-0.703l1.781-0.704L321.312,270.928z
	 M117.89,282.314l3.192,0.703l1.438-0.703H117.89L117.89,282.314z M405.406,284.098l0.703,1.407l-3.19,1.784l1.079-0.705
	l-1.455-1.079l2.158,0.706l-1.078-1.77L405.406,284.098z M408.268,284.441l0.255,0.406l0.074-0.05v0.121l1.078,1.664l-1.408,0.374
	l0.329-2.038l-0.072-0.071l-2.038,0.657L408.268,284.441L408.268,284.441z M411.128,289.775l-3.938,1.078l-1.078,5.02l-7.117,8.523
	l-1.077,1.405h-0.046l-0.284,0.375v2.861h2.847l-0.729,2.111l-3.19-1.781l1.076-3.191l-2.86-1.075l-6.756-2.111l2.814-0.734
	l3.234,2.518l1.076,0.328l0.705-0.328h1.782l0.705-0.373h0.703l7.117-8.897l1.076-4.976L411.128,289.775z M414.32,292.639
	l2.142,2.154l-1.768,1.411l-1.079-1.078l-0.373-0.706l0.373-0.328L414.32,292.639z M459.565,297.984l-2.128,2.142l1.05,0.347
	L459.565,297.984z M170.626,300.129l-2.517,2.83v-0.344L170.626,300.129z M411.128,303.318l0.705,1.455l-2.486,1.029
	L411.128,303.318z M273.58,303.693l3.564,0.345l-3.564,1.767V303.693z M2.796,305.102l1.409,1.078l0.372,0.373l2.486,6.056
	l-2.858-5.021l-0.703-1.783H2.796v4.314l-1.374,2.789l0.298,3.969l-0.332-3.941l0.036-0.024l-0.036-0.303l0.703-2.861L2.796,305.102
	L2.796,305.102z M40.584,309.371l1.408,0.748l-1.079,2.488L40.584,309.371z M382.618,312.232l-2.861,2.155l-1.768-1.075
	L382.618,312.232z M273.955,313.312l2.113,1.404l-2.113,1.079V313.312z M2.425,316.503l0.371,1.078v0.703l0.371,1.784l-0.371,1.438
	L2.425,316.503z M426.41,325.4l-5.332,10.696v2.86l4.628,5.005l3.236-17.481L426.41,325.4z M272.876,329.717l-4.269,2.487
	l-1.079,9.244l0.704-9.244L272.876,329.717z M258.628,334.689l6.412,7.113l-5.348-4.253L258.628,334.689L258.628,334.689z
	 M21.687,339.32l-0.372,2.858l-1.781,0.704V340.4L21.687,339.32z M33.079,342.511l0.372,11.776l-1.448-7.837L33.079,342.511z
	 M17.752,345.374l0.707,1.076l-1.041,0.704L17.752,345.374z M23.802,347.155l2.152,1.409l-1.075-0.33l0.371,1.782L23.802,347.155
	L23.802,347.155z M540.093,347.859l-1.079,1.453l0.704,0.704L540.093,347.859z M92.241,349.312l2.111,2.484h2.487L92.241,349.312z
	 M17.048,350.346l0.37,2.863l-0.742,0.374L17.048,350.346z M22.764,352.13l1.038,0.373l0.743,1.782l1.038-0.703l0.371,1.779
	l1.075,1.064l0.706,3.909h1.077v1.438l-1.783-1.076v3.896l-1.781,0.374l1.412,2.484l-0.706,0.375l-1.075-2.157l0.371,2.487
	l-0.704-0.33v-2.157l-1.447-2.847l-0.707,1.438l-0.371-4.27L22.764,352.13L22.764,352.13z M17.752,358.916l2.153,13.184v1.078
	l2.115,5.679l2.524,9.979l-1.781-3.19l-1.448-6.429l-2.485-8.193l-1.078-8.916V358.916z M435.324,361.777l-8.165,1.049l0.33,12.465
	l-2.487-0.329h-0.374l-0.704,2.112l1.782,4.629l0.704,1.453l2.158,1.408v-2.145l2.155,0.358l-1.077,4.645l3.565,0.33l2.111-2.484
	l4.645,3.233l-0.72-3.938l4.27,3.938l3.565-0.749l0.375,2.158l0.328-2.862l-2.112,0.704l-1.452-2.484l2.156-1.409l-1.407-0.703
	h-2.156l-0.703,2.112l-1.782-2.849l-2.847,1.062l0.356,1.782l-3.222-2.112l-2.113-4.3l4.604-9.616l-2.113-4.271L435.324,361.777
	L435.324,361.777z M376.91,362.826l-8.54,1.438l-3.236,3.896l2.487,4.645l2.861,0.704l4.271-3.189l2.86-5.725L376.91,362.826
	L376.91,362.826z M19.199,381.703h1.04v2.486l-0.706-0.703L19.199,381.703z M21.314,383.156l0.705,1.408l-0.705-0.373V383.156z
	 M24.879,385.645l1.781,4.271l-1.412-2.159L24.879,385.645z M452.809,388.131l-4.271,1.409l4.271,3.233v1.784h-3.562l0.703,2.848
	l3.563,4.269l-0.373-1.784l1.452-0.356l-1.677-4.646l3.79,0.374l-1.783-5.349L452.809,388.131L452.809,388.131z M428.193,389.21
	l2.529,2.11v0.375l2.112,3.189l1.452-0.327l0.33-4.646L428.193,389.21z M443.189,390.619v3.565l1.781-1.784l2.485,1.455
	L443.189,390.619z M23.802,394.186l0.371,1.78l-0.371-0.345V394.186z M436.777,395.966l1.405,7.116l5.336-4.973v-2.146l-1.407,1.079
	L436.777,395.966z M448.164,396.34l-2.157,7.116l-1.033,3.193l1.407-3.193l1.783-2.484V396.34z M443.895,398.812l-1.438,4.973
	l-0.72,0.749l-1.408,1.035l3.189,3.23l1.452-1.453l-0.749-3.562l1.452-4.255L443.895,398.812z M30.928,400.235l1.224,2.995
	l0.558,0.556l2.153,7.508l0.37,3.19l3.896,9.978l-2.115-3.19l-3.229-9.272v-1.78l-2.487-7.836l-0.37-1.408V400.235L30.928,400.235z
	 M424.627,400.971l0.374,3.564l-1.408-1.079l0.329,2.489l-2.486,2.857l-7.818,9.979l4.27-3.568l3.555-6.081l0.7-0.33l4.271-3.562
	L424.627,400.971z M455.655,401.675l0.718,4.271l-3.564,1.075v2.485h-2.154l-3.192,3.938l0.705-2.53l-2.487-1.033l-5.708,5.332
	l-1.425,4.615l1.425,0.731l2.146-5.004l4.269,1.076l1.078-2.481l3.192,1.405l-0.705,5.334l4.645,1.077l1.408-1.409l0.704,2.487
	l1.438-2.487l-1.77-3.221l1.409-3.188l2.847,4.254l-0.36-3.191l2.146-2.517l-1.407-5.681h-1.784l0.347-3.563L455.655,401.675
	L455.655,401.675z M448.868,402.02l-0.704,0.732l-0.705,1.409l1.078,0.704l2.816-1.409l-0.328-1.438L448.868,402.02L448.868,402.02z
	 M281.416,402.379l-1.408,1.407l1.064,1.454L281.416,402.379z M211.227,408.806l0.704,0.329l1.781,1.454l-1.781-0.705l-0.33,1.782
	l-1.078,6.038l-0.705-1.439l1.034,6.413l1.453,5.021l5.677,0.328l2.862-3.566l-2.487-7.819l-5.348-7.835h-1.078L211.227,408.806
	L211.227,408.806z M439.25,421.615l-0.359,1.438l2.145-1.438H439.25z M411.458,425.541l-4.271,8.209l-2.86,1.064l1.453,0.72
	l-1.078,1.769l-7.49,2.487l-4.974,7.505l-8.914,3.567l-1.438,6.383l-6.759-1.049l-1.407-1.438l-4.313,4.629v3.938l2.157,1.035
	l-0.705,2.528l2.486,0.703h-1.781l2.156,1.409l-1.455,1.453l3.236-1.077l1.408,7.818l7.82-1.407l1.074,3.188l6.432-3.551
	l3.188,0.359v1.407l4.629-1.063l0.374,3.551l2.112-1.062l7.132-4.975l-1.078-1.077l1.078,0.374l1.782-3.565l-2.487-1.454
	l3.192-3.895l1.078,0.701l3.563-2.859l-0.705-3.896l3.19-3.563l-1.049-1.438l2.832,1.079l3.222-1.782l-6.054-2.859l-0.733-1.409
	l1.782-0.705l-5.678-5.348l3.896-0.733l-2.112-2.127l6.412-2.144l-2.518-2.125l6.083-3.555l-5.005-1.077l-2.127,1.077l0.346-2.156
	l-2.487,1.407l0.705-2.813l-3.189-2.157l-1.452,2.485L411.458,425.541L411.458,425.541z M284.966,431.593l0.72,2.157l0.733-1.079
	L284.966,431.593z M473.108,432.297l-1.408,3.567l1.408-1.05V432.297z M470.247,435.158l-2.862,6.414l1.454,5.348l3.896,2.158
	l-2.113-2.158l-0.703-3.563l4.973-0.375l-3.562-1.406l2.484-2.146v-2.483l-5.351,4.629l2.158-2.146L470.247,435.158z
	 M293.178,439.789l1.781,4.644l7.491,4.977l4.974,6.787l5.727,2.83l1.779,6.784l4.977,3.567l1.77,1.408l7.131,10.353l13.187,8.915
	l3.551,2.485l-0.33-1.782l3.567,1.078l0.703-1.453l2.111,1.782l2.157-11.761l-2.485-3.565l-4.271-0.344l-0.749,1.425l0.749-2.128
	l-2.158-0.359l-0.358-4.271l-6.396-1.453l2.83-4.269l-2.486-1.409l-1.15,0.599l-0.778-1.078l0.524,0.105l-1.783-1.408l-1.453-0.704
	l-0.329,1.408l-7.835-6.756l-0.374,2.481l-5.334-5.331l-1.424-1.079l-8.899-4.645l0.704-1.782l-4.271-3.896L293.178,439.789
	L293.178,439.789z M456.373,441.571l-6.426,5.721l-15.655,1.411l-1.453,2.859l-1.783-0.702l-1.405,1.778v0.705l-1.077,3.19
	l-1.079-0.344l1.454,3.562l-0.749-0.73l-2.113,2.847v3.232l-3.222,4.603l0.73,3.236l3.19-0.705l-0.374,6.383l-0.328,2.518
	l2.862-0.374l2.482-0.358l-1.075-11.4l3.188-2.112h1.782l-1.408,3.896l3.925,1.452l-0.729,3.188h2.517l0.704-1.779l3.896-1.409
	l-3.551-2.86l1.782-2.16l-6.053-4.644l1.779,0.374l9.273-7.835l-9.273,2.484l-2.859,3.565l-2.111,0.374l-3.233-2.862l1.074-5.004
	l21.052-4.973L456.373,441.571L456.373,441.571z M365.509,445.137l-1.438,1.079l1.062,1.781l1.454-1.781h-0.373L365.509,445.137z
	 M468.135,447.624l-1.078,1.079l0.703,1.407l2.159-1.033L468.135,447.624z M468.464,451.895l-1.077,1.781l3.566-0.703l-0.705-0.705
	L468.464,451.895z M295.664,453.347l4.645,2.112l-2.859-1.783v-0.327h-1.782L295.664,453.347L295.664,453.347z M311.693,453.347
	l3.562,2.485l-1.781,0.361L311.693,453.347z M481.648,455.114l-6.397,1.424l-5.004,2.847l-0.704,2.158l1.408-2.518l1.453,1.062
	l7.117-2.487l4.269,0.722L481.648,455.114L481.648,455.114z M457.078,457.242l-3.938,0.356l-1.032,2.157L457.078,457.242z
	 M448.164,457.602l-3.565,0.374l0.373,1.407h0.329L448.164,457.602z M304.938,459.759l-1.438,0.33l1.784,2.157l2.516,1.781
	l0.33-2.157L304.938,459.759z M332.369,460.089l0.374,2.157l1.034-1.079L332.369,460.089z M345.538,460.808l-2.113,0.734
	l1.409,0.328l0.704,0.704V460.808L345.538,460.808z M464.194,461.167l-3.929,2.157l3.226,1.41l2.858-2.159L464.194,461.167z
	 M345.208,466.516l-0.373,1.078h2.86L345.208,466.516z M313.854,471.489l-1.783,1.078l3.564,2.484L313.854,471.489z
	 M445.302,471.864l-1.782,2.846l-0.702,3.209l2.859-2.487h-1.452L445.302,471.864L445.302,471.864z M353.748,473.273l-3.939,0.373
	l-1.408,2.142h3.566l1.076,2.832l4.271,0.729l0.701-2.154l-2.857-0.359L353.748,473.273L353.748,473.273z M443.52,473.273
	l-2.109,1.073l-0.375,2.85l1.425-0.359l0.73-1.782L443.52,473.273L443.52,473.273z M362.648,476.838l-0.361,2.847h2.143l1.408-2.109
	L362.648,476.838z M320.968,479.685l1.425,2.157v-1.438L320.968,479.685z M463.49,481.139l-4.271,0.703l-1.076,1.783L463.49,481.139
	z M465.273,483.25l-10.686,3.94l-7.835,5.679l-0.749,1.782l-0.705,1.438l2.862-0.705l2.487-1.78L465.273,483.25z M454.591,485.034
	l-2.862,0.703l-1.074,1.453l3.233-1.077L454.591,485.034z M450.651,486.486l-1.783,0.704l0.704,0.703L450.651,486.486z
	 M443.189,487.52l-2.157,2.533l-4.975,1.408l-5.334-0.375l-2.529,2.157l-1.034,0.706h1.034l8.585-1.41l7.113-3.94L443.189,487.52z
	 M353.373,491.835l-1.409,2.817l-3.188,1.078l7.134,0.7l-0.375,1.784l7.817,0.733l5.352-1.079l10.354,1.408l17.453-0.703
	l3.189,0.374l-0.704-3.927l-6.757,0.703L389,492.539l-8.164-0.704l-3.566,2.473l-7.862,0.347l-3.566-2.114L353.373,491.835
	L353.373,491.835z M397.585,491.835l-7.506,1.408l4.269,0.357L397.585,491.835L397.585,491.835z M417.511,493.243l-1.049,0.706
	l2.831,1.437l-6.052-0.356l-2.114,1.77l1.41,1.423l11.76-4.269L417.511,493.243z M408.597,495.386l-1.409,2.486h3.19l0.749-2.486
	H408.597z M402.214,496.09l-2.86,0.344l3.189,2.521l3.236-2.521L402.214,496.09z M427.863,496.09l-5.352,1.782l4.978,1.079h0.373
	l2.111,0.704l2.157-1.438v-0.346l-3.938-1.782L427.863,496.09L427.863,496.09z M65.528,206.746l-2.593,6.232l-1.694,8.464
	l0.03,6.262l5.663-6.308l3.192-10.337L65.528,206.746L65.528,206.746z"/>
</svg>
