<?xml version="1.0" encoding="utf-8"?>
<!-- Generator: Adobe Illustrator 16.0.4, SVG Export Plug-In . SVG Version: 6.00 Build 0)  -->
<!DOCTYPE svg PUBLIC "-//W3C//DTD SVG 1.1//EN" "http://www.w3.org/Graphics/SVG/1.1/DTD/svg11.dtd">
<svg version="1.1" id="Layer_1" xmlns="http://www.w3.org/2000/svg" xmlns:xlink="http://www.w3.org/1999/xlink" x="0px" y="0px"
	 width="720px" height="720px" viewBox="0 0 720 720" style="enable-background:new 0 0 720 720;" xml:space="preserve">
<style type="text/css">
<![CDATA[
	.st0{fill:#FFFFFF;}
	.st1{fill-rule:evenodd;clip-rule:evenodd;fill:#FFFFFF;}
]]>
</style>
<g id="dhe7Hv.tif">
	<g>
		<path class="st0" d="M340.8,18c12.5,0,25.1,0,37.6,0c1.3,0.3,2.7,0.7,4,0.8c21,1.2,41.7,4.4,62.1,9.8
			c80.5,21.2,145.2,65.5,193.7,133c36.3,50.4,56.8,106.9,62.1,168.9c0.5,6.2,1.1,12.4,1.6,18.6c0,7,0,13.9,0,20.9
			c-0.3,2-0.7,4.1-0.8,6.1c-0.7,20.1-3.3,40-8,59.4c-25,102.5-84.1,178.7-177.2,228.3c-39.6,21.1-82.2,32.9-126.9,36.5
			c-6.4,0.5-12.7,1.1-19.1,1.6c-6.7,0-13.4,0-20.1,0c-1.8-0.2-3.6-0.7-5.3-0.7c-20.5-0.7-40.8-3.2-60.7-8.1
			c-105.2-25.7-182.4-87.1-231.4-183.5c-17.4-34.3-27.8-71-32.2-109.4c-0.8-7.3-1.6-14.6-2.4-21.9c0-12.3,0-24.5,0-36.8
			c0.3-1.5,0.6-2.9,0.8-4.4c2.1-15.6,3-31.4,6.3-46.6c22.1-100.6,78-177,167.1-228.6c41.7-24.2,86.9-37.9,135-42.3
			C331.7,19.2,336.2,18.5,340.8,18z M350.9,627.7c40.9,0.1,68.9-5.8,96.5-15.8c58.9-21.4,104.6-58.9,138.2-111.3
			c26.9-42,41.5-88.1,42.1-138.2c0.3-23.3-3.5-46-9.6-68.4c-21.5-78.7-69.3-136.2-141.2-173.9c-29.1-15.3-60.3-24.2-93.3-26.1
			c-12.5-0.7-25-0.1-37.6,0c-33.7,0.2-65.7,7.7-95.8,22.5C178.6,151.6,131,208.2,105,283.1c-14.2,41-18.2,83.3-8.9,125.9
			c13.4,61.3,43.3,113.2,92.1,153.4C238.8,604.1,296.7,626.5,350.9,627.7z"/>
		<path class="st1" d="M521.2,217.8c-0.8,1.9-1.4,3.1-1.9,4.3c-32.8,65.7-65.6,131.3-98.6,197c-1.1,2.3-3.4,4.5-5.6,5.6
			c-65.6,32.9-131.2,65.7-196.9,98.5c-1.2,0.6-2.4,1.1-4.4,2c0.9-2,1.4-3.3,2-4.5c32.8-65.5,65.5-131.1,98.4-196.6
			c1.1-2.3,3.2-4.6,5.5-5.7c65.8-33.1,131.7-66,197.6-98.9C518.4,219.1,519.5,218.6,521.2,217.8z M382.7,420.7
			c-21.6-21.5-43-43-64.4-64.4c-21.1,42.2-42.5,85-63.9,127.7c0.2,0.2,0.5,0.3,0.7,0.5C297.8,463.2,340.5,441.8,382.7,420.7z"/>
	</g>
</g>
<g>
</g>
<g>
</g>
<g>
</g>
<g>
</g>
<g>
</g>
<g>
</g>
</svg>
