<?xml version="1.0" encoding="utf-8"?>
<!-- Generator: Adobe Illustrator 16.0.4, SVG Export Plug-In . SVG Version: 6.00 Build 0)  -->
<!DOCTYPE svg PUBLIC "-//W3C//DTD SVG 1.1//EN" "http://www.w3.org/Graphics/SVG/1.1/DTD/svg11.dtd">
<svg version="1.1" id="Layer_1" xmlns="http://www.w3.org/2000/svg" xmlns:xlink="http://www.w3.org/1999/xlink" x="0px" y="0px"
	 width="262.5px" height="385.228px" viewBox="0 0 262.5 385.228" style="enable-background:new 0 0 262.5 385.228;"
	 xml:space="preserve">
<style type="text/css">
<![CDATA[
	.st0{stroke:#FFFFFF;stroke-width:2;stroke-miterlimit:10;}
	.st1{fill:#FFFFFF;}
]]>
</style>
<g>
	<g>
		<path class="st0" d="M216.336,377.43c-56.237-0.036-112.479-0.036-168.717,0C33.654,257.368,19.688,137.306,5.723,17.243
			c83.659-13.099,168.85-13.099,252.508,0C244.267,137.306,230.302,257.368,216.336,377.43z"/>
		<path class="st1" d="M253.943,42.307c-80.852-11.916-163.081-11.916-243.932,0c-0.371-3.223-0.741-6.446-1.112-9.67
			c81.579-12.259,164.577-12.259,246.156,0C254.685,35.86,254.314,39.083,253.943,42.307z"/>
		<path class="st1" d="M252.493,54.921c-79.901-11.469-161.129-11.469-241.031,0c-0.371-3.223-0.741-6.447-1.112-9.67
			c80.629-11.812,162.625-11.812,243.254,0C253.234,48.474,252.863,51.698,252.493,54.921z"/>
		<path class="st1" d="M251.042,67.535c-78.951-11.022-159.178-11.022-238.129,0c-0.371-3.223-0.741-6.447-1.112-9.67
			c79.68-11.365,160.674-11.365,240.354,0C251.784,61.088,251.413,64.312,251.042,67.535z"/>
		<path class="st1" d="M249.592,80.149c-78.002-10.575-157.227-10.575-235.229,0c-0.371-3.224-0.741-6.447-1.112-9.67
			c78.73-10.917,158.723-10.917,237.453,0C250.333,73.703,249.963,76.926,249.592,80.149z"/>
		<path class="st1" d="M248.142,92.763c-77.053-10.127-155.276-10.127-232.328,0c-0.371-3.223-0.741-6.446-1.112-9.67
			c77.78-10.47,156.772-10.47,234.551,0C248.883,86.317,248.512,89.54,248.142,92.763z"/>
		<path class="st1" d="M246.69,105.377c-76.102-9.68-153.324-9.68-229.426,0c-0.371-3.223-0.741-6.447-1.112-9.67
			c76.83-10.023,154.82-10.023,231.65,0C247.433,98.931,247.062,102.154,246.69,105.377z"/>
		<path class="st1" d="M245.24,117.992c-75.152-9.233-151.373-9.233-226.525,0c-0.371-3.223-0.742-6.447-1.112-9.67
			c75.881-9.576,152.869-9.576,228.75,0C245.981,111.545,245.611,114.769,245.24,117.992z"/>
		<path class="st1" d="M243.79,130.606c-74.203-8.786-149.422-8.786-223.625,0c-0.371-3.224-0.741-6.447-1.112-9.67
			c74.931-9.129,150.917-9.129,225.848,0C244.531,124.159,244.16,127.382,243.79,130.606z"/>
		<path class="st1" d="M242.34,143.22c-73.254-8.338-147.471-8.338-220.724,0c-0.371-3.223-0.741-6.446-1.112-9.67
			c73.981-8.681,148.966-8.681,222.947,0C243.081,136.773,242.71,139.997,242.34,143.22z"/>
		<path class="st1" d="M240.889,155.834c-72.303-7.891-145.519-7.891-217.822,0c-0.371-3.223-0.742-6.446-1.112-9.67
			c73.032-8.234,147.016-8.234,220.047,0C241.63,149.388,241.26,152.611,240.889,155.834z"/>
		<path class="st1" d="M239.438,168.448c-71.354-7.444-143.568-7.444-214.922,0c-0.371-3.223-0.741-6.447-1.112-9.67
			c72.082-7.787,145.064-7.787,217.146,0C240.18,162.001,239.809,165.225,239.438,168.448z"/>
		<path class="st1" d="M237.988,181.062c-70.404-6.997-141.617-6.997-212.021,0c-0.371-3.223-0.741-6.447-1.112-9.67
			c71.132-7.34,143.112-7.34,214.244,0C238.729,174.616,238.358,177.839,237.988,181.062z"/>
		<path class="st1" d="M236.537,193.677c-69.454-6.55-139.666-6.55-209.119,0c-0.371-3.224-0.742-6.447-1.112-9.67
			c70.182-6.893,141.161-6.893,211.344,0C237.278,187.23,236.908,190.453,236.537,193.677z"/>
		<path class="st1" d="M235.087,206.291c-68.504-6.103-137.714-6.103-206.219,0c-0.371-3.224-0.741-6.447-1.112-9.67
			c69.232-6.445,139.21-6.445,208.443,0C235.828,199.844,235.457,203.067,235.087,206.291z"/>
		<path class="st1" d="M233.637,218.904c-67.555-5.655-135.764-5.655-203.318,0c-0.371-3.224-0.742-6.446-1.112-9.67
			c68.283-5.998,137.259-5.998,205.542,0C234.378,212.458,234.007,215.681,233.637,218.904z"/>
		<path class="st1" d="M232.186,231.518c-66.604-5.208-133.812-5.208-200.417,0c-0.371-3.223-0.741-6.446-1.112-9.67
			c67.333-5.551,135.308-5.551,202.641,0C232.927,225.071,232.557,228.295,232.186,231.518z"/>
		<path class="st1" d="M230.735,244.132c-65.655-4.762-131.861-4.762-197.516,0c-0.371-3.224-0.741-6.447-1.112-9.67
			c66.383-5.104,133.356-5.104,199.74,0C231.477,237.685,231.106,240.908,230.735,244.132z"/>
		<path class="st1" d="M229.285,256.745c-64.705-4.313-129.91-4.313-194.615,0c-0.371-3.223-0.741-6.446-1.112-9.67
			c65.434-4.656,131.406-4.656,196.839,0C230.026,250.299,229.655,253.522,229.285,256.745z"/>
		<path class="st1" d="M227.835,269.359c-63.756-3.867-127.959-3.867-191.714,0c-0.371-3.224-0.741-6.447-1.112-9.67
			c64.483-4.21,129.454-4.21,193.938,0C228.576,262.912,228.205,266.136,227.835,269.359z"/>
		<path class="st1" d="M226.384,281.973c-62.806-3.42-126.007-3.42-188.813,0c-0.371-3.224-0.741-6.446-1.112-9.67
			c63.534-3.763,127.503-3.763,191.037,0C227.125,275.526,226.755,278.749,226.384,281.973z"/>
		<path class="st1" d="M224.934,294.586c-61.856-2.972-124.056-2.972-185.912,0c-0.371-3.223-0.741-6.446-1.112-9.67
			c62.584-3.314,125.552-3.314,188.137,0C225.675,288.14,225.305,291.363,224.934,294.586z"/>
		<path class="st1" d="M223.483,307.2c-60.906-2.525-122.105-2.525-183.012,0c-0.371-3.224-0.741-6.447-1.112-9.67
			c61.634-2.868,123.601-2.868,185.235,0C224.225,300.753,223.854,303.977,223.483,307.2z"/>
		<path class="st1" d="M222.033,319.813c-59.957-2.078-120.154-2.078-180.111,0c-0.371-3.224-0.741-6.446-1.112-9.67
			c60.685-2.421,121.649-2.421,182.334,0C222.774,313.367,222.403,316.59,222.033,319.813z"/>
		<path class="st1" d="M220.582,332.428c-59.007-1.632-118.202-1.632-177.209,0c-0.371-3.224-0.741-6.447-1.112-9.671
			c59.735-1.974,119.698-1.974,179.434,0C221.323,325.98,220.953,329.204,220.582,332.428z"/>
		<path class="st1" d="M219.132,345.041c-58.058-1.184-116.251-1.184-174.309,0c-0.371-3.224-0.741-6.446-1.112-9.67
			c58.785-1.526,117.748-1.526,176.533,0C219.873,338.595,219.503,341.817,219.132,345.041z"/>
		<path class="st1" d="M217.682,357.654c-57.107-0.736-114.3-0.736-171.408,0c-0.371-3.223-0.741-6.446-1.112-9.67
			c57.835-1.079,115.796-1.079,173.631,0C218.423,351.208,218.052,354.432,217.682,357.654z"/>
	</g>
</g>
</svg>
