<?xml version="1.0" encoding="utf-8"?>
<!-- Generator: Adobe Illustrator 16.0.4, SVG Export Plug-In . SVG Version: 6.00 Build 0)  -->
<!DOCTYPE svg PUBLIC "-//W3C//DTD SVG 1.1//EN" "http://www.w3.org/Graphics/SVG/1.1/DTD/svg11.dtd">
<svg version="1.1" id="Layer_1" xmlns="http://www.w3.org/2000/svg" xmlns:xlink="http://www.w3.org/1999/xlink" x="0px" y="0px"
	 width="720px" height="720px" viewBox="0 0 720 720" style="enable-background:new 0 0 720 720;" xml:space="preserve">
<style type="text/css">
<![CDATA[
	.st0{fill-rule:evenodd;clip-rule:evenodd;fill:none;}
	.st1{fill:#FFFFFF;}
	.st2{fill-rule:evenodd;clip-rule:evenodd;fill:#FFFFFF;}
]]>
</style>
<g id="r59t5f.tif">
	<g>
		<path class="st1" d="M401.5,46.5c65.1,0,130.6-0.1,196.1,0c73.8,0.2,104,30.1,104,103c0.1,174.7,0.2,349.4,0.3,524.1
			c-228,0-456,0-684,0c0.1-174.7,0.2-349.4,0.3-524.1c0.1-72.9,30.2-102.9,104-103c77.2-0.2,154.3,0,231.5,0c9.5,0,19.1,0,28.6,0
			 M644,615.3c0.5-9.9,1.1-16.5,1.1-23.2c0.1-148.6,0.1-297.2,0-445.9c0-36.7-6.5-43-44.8-43.1c-160.2-0.2-320.4-0.2-480.6,0
			c-39,0-44.7,6.2-44.8,46c-0.1,146.7-0.1,293.4,0,440.1c0,8.3,1.1,16.7,1.8,25.6c75.8,0,149.6,0,226.3,0c0-56.1,0-110.7,0-167
			c39,0,75,0,115,0c0,57.1,0,112.4,0,167.4C495.1,615.3,568.2,615.3,644,615.3z"/>
		<path class="st0" d="M644,615.3c-75.8,0-148.9,0-226,0c0-55.1,0-110.3,0-167.4c-40,0-76,0-115,0c0,56.4,0,110.9,0,167
			c-76.8,0-150.5,0-226.3,0c-0.6-8.9-1.8-17.3-1.8-25.6c-0.1-146.7-0.1-293.4,0-440.1c0-39.9,5.7-46,44.8-46
			c160.2-0.2,320.4-0.2,480.6,0c38.3,0,44.8,6.4,44.8,43.1c0.1,148.6,0.1,297.2,0,445.9C645.1,598.7,644.5,605.4,644,615.3z
			 M305,160.8c0,29.3,0,55.5,0,81.9c38,0,73.9,0,110,0c0-28.3,0-54.5,0-81.9C377.7,160.8,342.6,160.8,305,160.8z M415.5,386.8
			c0-28,0-54.4,0-81.2c-38.2,0-74.9,0-110,0c0,28.9,0,55.3,0,81.2C343.4,386.8,378.7,386.8,415.5,386.8z M134.6,160.9
			c0,28.9,0,55.2,0,82c37.4,0,72.5,0,108.3,0c0-28.1,0-54.4,0-82C206.4,160.9,172.1,160.9,134.6,160.9z M587.5,243.6
			c0-24.3,1-46.3-0.7-68.1c-0.4-5.6-9.4-14.9-14.8-15.1c-31.4-1.4-62.9-0.7-95-0.7c0,30.1,0,56.5,0,83.9
			C513.6,243.6,548,243.6,587.5,243.6z M243.8,304.9c-38.3,0-73.5,0-109.2,0c0,28.2,0,54.6,0,81.5c37.5,0,72.7,0,109.2,0
			C243.8,358.7,243.8,332.9,243.8,304.9z M585.9,304.7c-37.3,0-72.5,0-109.2,0c0,27.9,0,54.3,0,82.1c37,0,72.2,0,109.2,0
			C585.9,359.3,585.9,333.6,585.9,304.7z M243.3,448.2c-38.2,0-73.3,0-109,0c0,27.8,0,53.3,0,80.3c37.1,0,72.2,0,109,0
			C243.3,501.2,243.3,475.7,243.3,448.2z M477.3,447.7c0,28,0,54.2,0,80.2c37.6,0,72.7,0,108.3,0c0-27.8,0-53.3,0-80.2
			C548.5,447.7,513.5,447.7,477.3,447.7z"/>
		<path class="st2" d="M305,160.8c37.6,0,72.7,0,110,0c0,27.5,0,53.7,0,81.9c-36.1,0-72,0-110,0C305,216.3,305,190.1,305,160.8z"/>
		<path class="st2" d="M415.5,386.8c-36.8,0-72.1,0-110,0c0-25.8,0-52.2,0-81.2c35.1,0,71.7,0,110,0
			C415.5,332.4,415.5,358.8,415.5,386.8z"/>
		<path class="st2" d="M134.6,160.9c37.5,0,71.8,0,108.3,0c0,27.6,0,53.9,0,82c-35.8,0-70.9,0-108.3,0
			C134.6,216.1,134.6,189.8,134.6,160.9z"/>
		<path class="st2" d="M587.5,243.6c-39.5,0-73.9,0-110.5,0c0-27.5,0-53.8,0-83.9c32.1,0,63.6-0.7,95,0.7
			c5.4,0.2,14.3,9.5,14.8,15.1C588.6,197.2,587.5,219.3,587.5,243.6z"/>
		<path class="st2" d="M243.8,304.9c0,28,0,53.8,0,81.5c-36.5,0-71.6,0-109.2,0c0-27,0-53.3,0-81.5
			C170.3,304.9,205.5,304.9,243.8,304.9z"/>
		<path class="st2" d="M585.9,304.7c0,29,0,54.7,0,82.1c-37,0-72.1,0-109.2,0c0-27.8,0-54.2,0-82.1
			C513.4,304.7,548.6,304.7,585.9,304.7z"/>
		<path class="st2" d="M243.3,448.2c0,27.5,0,53,0,80.3c-36.9,0-71.9,0-109,0c0-27,0-52.4,0-80.3
			C170.1,448.2,205.1,448.2,243.3,448.2z"/>
		<path class="st2" d="M477.3,447.7c36.2,0,71.2,0,108.3,0c0,26.9,0,52.4,0,80.2c-35.7,0-70.8,0-108.3,0
			C477.3,501.9,477.3,475.7,477.3,447.7z"/>
	</g>
</g>
<g>
</g>
<g>
</g>
<g>
</g>
<g>
</g>
<g>
</g>
<g>
</g>
</svg>
