<?xml version="1.0" encoding="utf-8"?>
<!-- Generator: Adobe Illustrator 16.0.4, SVG Export Plug-In . SVG Version: 6.00 Build 0)  -->
<!DOCTYPE svg PUBLIC "-//W3C//DTD SVG 1.1//EN" "http://www.w3.org/Graphics/SVG/1.1/DTD/svg11.dtd">
<svg version="1.1" id="Layer_1" xmlns="http://www.w3.org/2000/svg" xmlns:xlink="http://www.w3.org/1999/xlink" x="0px" y="0px"
	 width="446px" height="282px" viewBox="0 0 446 282" style="enable-background:new 0 0 446 282;" xml:space="preserve">
<style type="text/css">
<![CDATA[
	.st0{fill:#FFFFFF;}
	.st1{fill:none;stroke:#FFFFFF;stroke-width:4;stroke-miterlimit:10;}
]]>
</style>
<g>
	<g>
		<path class="st1" d="M11.437,206.026C148.134,256.432,299.867,256.423,436.56,206"/>
		<path class="st0" d="M395.936,127.809c0.354-14.804,6.845-28.854,16.839-38.605c-19.639-23.38-39.812-49.5-60.254-77.203
			c-14.049,25.957-27.928,52.888-41.701,80.328c13.56,8.421,22.506,24.353,22.286,43.432c-0.351,28.264-20.643,54.353-45.519,56.505
			c-24.882,2.095-45.12-21.69-45.091-51.36c0.025-19.682,9.021-36.983,22.445-46.601C251.392,67.185,237.738,39.592,224,12
			c-14.129,27.641-28.17,55.282-42.105,82.422c13.308,9.652,22.208,26.884,22.235,46.46c0.032,29.667-20.203,53.415-45.081,51.276
			c-24.873-2.194-45.163-28.294-45.52-56.526c-0.224-19.034,8.694-34.921,22.22-43.335C122.114,64.865,108.372,37.946,94.461,12
			c-20.112,27.468-39.96,53.378-59.287,76.619c10.384,9.78,17.165,24.141,17.523,39.301c0.598,26.947-18.688,44.39-42.592,37.189
			c-0.128-0.037-0.254-0.082-0.382-0.119c0.865,21.011,1.729,42.023,2.593,63.039C147.859,284.151,300.143,284.141,435.68,228
			c0.815-20.993,1.631-41.989,2.446-62.988C414.409,171.948,395.335,154.584,395.936,127.809z"/>
		<g>
			<path d="M200.502,194.482c7.973-9.247,15.968-18.652,23.98-28.159c8.013,9.498,16.007,18.893,23.979,28.127
				c-8.009,9.73-16.004,19.378-23.981,28.887C216.504,213.841,208.51,204.203,200.502,194.482z"/>
			<path class="st0" d="M224.482,170.549c6.822,8.09,13.632,16.103,20.425,24.004c-6.82,8.262-13.63,16.459-20.427,24.559
				c-6.796-8.089-13.605-16.277-20.426-24.532C210.849,186.668,217.659,178.646,224.482,170.549 M224.482,162.099
				c-9.203,10.916-18.384,21.701-27.533,32.27c9.197,11.197,18.375,22.29,27.531,33.192c9.156-10.917,18.335-22.021,27.534-33.229
				C242.865,183.777,233.686,173.005,224.482,162.099L224.482,162.099z"/>
		</g>
		<g>
			<path d="M351.571,184.436c5.367-6.874,10.74-13.711,16.122-20.495c5.176,5.033,10.323,9.915,15.438,14.63
				c-5.36,6.887-10.712,13.833-16.057,20.821C361.936,194.562,356.767,189.571,351.571,184.436z"/>
			<path class="st0" d="M367.625,167.861c4.027,3.902,8.037,7.712,12.028,11.422c-4.175,5.363-8.345,10.762-12.511,16.187
				c-4.006-3.778-8.028-7.653-12.068-11.619C359.254,178.495,363.437,173.162,367.625,167.861 M367.762,160.021
				c-6.577,8.256-13.141,16.595-19.695,24.982c6.353,6.326,12.669,12.439,18.939,18.309c6.522-8.562,13.054-17.062,19.599-25.471
				C380.37,172.145,374.087,166.194,367.762,160.021L367.762,160.021z"/>
		</g>
		<g>
			<path d="M61.878,177.96c5.106-4.673,10.246-9.517,15.414-14.512c5.381,6.782,10.754,13.621,16.12,20.497
				c-5.188,5.1-10.349,10.052-15.48,14.839C72.588,191.793,67.238,184.846,61.878,177.96z"/>
			<path class="st0" d="M77.363,167.356c4.188,5.301,8.371,10.634,12.549,15.991c-4.034,3.937-8.052,7.781-12.051,11.527
				c-4.166-5.426-8.335-10.825-12.509-16.189C69.337,175.009,73.341,171.229,77.363,167.356 M77.222,159.54
				c-6.316,6.129-12.591,12.032-18.814,17.677c6.544,8.407,13.074,16.909,19.596,25.475c6.26-5.818,12.567-11.883,18.912-18.164
				C90.362,176.135,83.798,167.795,77.222,159.54L77.222,159.54z"/>
		</g>
	</g>
</g>
</svg>
