<?xml version="1.0" encoding="utf-8"?>
<!-- Generator: Adobe Illustrator 16.0.4, SVG Export Plug-In . SVG Version: 6.00 Build 0)  -->
<!DOCTYPE svg PUBLIC "-//W3C//DTD SVG 1.1//EN" "http://www.w3.org/Graphics/SVG/1.1/DTD/svg11.dtd">
<svg version="1.1"
	 id="svg3025" xmlns:dc="http://purl.org/dc/elements/1.1/" xmlns:cc="http://creativecommons.org/ns#" xmlns:rdf="http://www.w3.org/1999/02/22-rdf-syntax-ns#" xmlns:svg="http://www.w3.org/2000/svg" xmlns:sodipodi="http://sodipodi.sourceforge.net/DTD/sodipodi-0.dtd" xmlns:inkscape="http://www.inkscape.org/namespaces/inkscape" sodipodi:docname="map_marker_font_awesome.svg" inkscape:version="0.48.3.1 r9886"
	 xmlns="http://www.w3.org/2000/svg" xmlns:xlink="http://www.w3.org/1999/xlink" x="0px" y="0px" width="720px" height="720px"
	 viewBox="-54 36 720 720" style="enable-background:new -54 36 720 720;" xml:space="preserve">
<style type="text/css">
<![CDATA[
	.st0{fill:#FFFFFF;}
]]>
</style>
<sodipodi:namedview  inkscape:cy="896" inkscape:cx="896" inkscape:zoom="0.13169643" showgrid="false" guidetolerance="10" gridtolerance="10" pagecolor="#ffffff" borderopacity="1" bordercolor="#666666" objecttolerance="10" id="namedview3031" inkscape:current-layer="svg3025" inkscape:window-maximized="0" inkscape:window-y="25" inkscape:window-x="0" inkscape:pageopacity="0" inkscape:pageshadow="2" inkscape:window-height="480" inkscape:window-width="640">
	</sodipodi:namedview>
<g id="g3027" transform="matrix(1,0,0,-1,364.47458,1270.2373)">
	<path id="path3029" inkscape:connector-curvature="0" class="st0" d="M55.5,988.2c0,31.5-11.1,58.3-33.4,80.6
		c-22.3,22.3-49.1,33.4-80.6,33.4c-31.5,0-58.3-11.1-80.6-33.4c-22.3-22.3-33.4-49.1-33.4-80.6c0-31.5,11.1-58.3,33.4-80.6
		c22.3-22.3,49.1-33.4,80.6-33.4c31.5,0,58.3,11.1,80.6,33.4C44.4,929.9,55.5,956.8,55.5,988.2z M169.5,988.2
		c0-32.4-4.9-58.9-14.7-79.7L-7.3,563.9c-4.8-9.8-11.8-17.5-21.2-23.2c-9.4-5.6-19.4-8.5-30.1-8.5c-10.7,0-20.7,2.8-30.1,8.5
		c-9.4,5.6-16.3,13.4-20.7,23.2l-162.5,344.7c-9.8,20.8-14.7,47.4-14.7,79.7c0,62.9,22.3,116.7,66.8,161.2s98.3,66.8,161.2,66.8
		c62.9,0,116.7-22.3,161.2-66.8C147.3,1104.9,169.5,1051.2,169.5,988.2z"/>
</g>
</svg>
