<?xml version="1.0" encoding="utf-8"?>
<!-- Generator: Adobe Illustrator 16.0.4, SVG Export Plug-In . SVG Version: 6.00 Build 0)  -->
<!DOCTYPE svg PUBLIC "-//W3C//DTD SVG 1.1//EN" "http://www.w3.org/Graphics/SVG/1.1/DTD/svg11.dtd">
<svg version="1.1" id="Layer_1" xmlns="http://www.w3.org/2000/svg" xmlns:xlink="http://www.w3.org/1999/xlink" x="0px" y="0px"
	 width="407.183px" height="371.186px" viewBox="0 0 407.183 371.186" style="enable-background:new 0 0 407.183 371.186;"
	 xml:space="preserve">
<style type="text/css">
<![CDATA[
	.st0{fill:none;stroke:#FFFFFF;stroke-width:2;stroke-linecap:round;stroke-linejoin:round;stroke-miterlimit:10;}
	.st1{fill:#FFFFFF;}
]]>
</style>
<g>
	<g>
		<path class="st1" d="M197.809,369.324c0,0-0.432-4.223-1.069-11.607c-0.343-3.694-0.711-8.177-1.102-13.318
			c-0.202-2.57-0.416-5.307-0.642-8.19c-0.152-2.901-0.297-5.961-0.418-9.154c-0.27-6.39-0.528-13.329-0.765-20.691
			c-0.147-3.687-0.06-7.431-0.081-11.285c0.003-3.855,0.006-7.793,0.009-11.798c0.017-2.005,0.033-4.025,0.051-6.062
			c0.011-1.019,0.022-2.04,0.033-3.066c0.041-1.024,0.082-2.052,0.122-3.083c0.146-4.128,0.379-8.3,0.58-12.515
			c0.215-4.215,0.392-8.469,0.7-12.734c0.386-4.268,0.774-8.552,1.162-12.836c0.389-4.293,0.685-8.597,0.972-12.912
			c0.397-4.31,0.718-8.627,1.057-12.919c0.185-2.146,0.367-4.283,0.55-6.409c0.1-1.062,0.172-2.129,0.293-3.183
			c0.157-1.058,0.313-2.112,0.47-3.164c0.668-4.199,1.475-8.323,2.4-12.347c0.495-2.011,0.943-3.985,1.572-5.948
			c0.655-1.963,1.33-3.9,2.045-5.799c1.406-3.781,2.972-7.518,4.487-10.946c0.396-0.819,0.791-1.632,1.183-2.439
			c0.43-0.858,0.856-1.71,1.28-2.555c0.446-0.881,0.886-1.77,1.347-2.614c0.457-0.831,0.91-1.654,1.359-2.471
			c1.862-3.249,3.761-6.348,5.796-9.258c4.028-5.817,8.392-10.923,12.93-15.056c4.532-4.155,9.245-7.373,14.021-9.288
			c2.375-0.962,4.82-1.549,7.171-1.641c0.559-0.031,1.2,0.024,1.734,0.059c0.562,0.052,1.136,0.166,1.637,0.267
			c0.535,0.142,1.028,0.307,1.479,0.49c0.46,0.218,0.876,0.42,1.245,0.649c0.367,0.251,0.696,0.489,0.982,0.725
			c0.271,0.264,0.507,0.513,0.714,0.743c0.402,0.468,0.652,0.903,0.845,1.237c0.32,0.705,0.44,1.045,0.44,1.045
			c0.376,1.069-0.187,2.24-1.255,2.616c-0.321,0.113-0.652,0.141-0.968,0.096l-0.824-0.121c0,0-0.246-0.036-0.634-0.062
			c-0.408,0.033-0.932,0.098-1.335,0.496c-0.4,0.385-0.665,0.921-1.046,1.701c-0.383,0.747-0.845,1.789-1.367,3.081
			c-1.041,2.608-2.13,6.323-3.211,10.719c-1.029,4.463-2.102,9.591-3.168,15.301c-0.532,2.862-1.088,5.844-1.662,8.929
			c-0.146,0.774-0.293,1.554-0.441,2.341c-0.135,0.762-0.271,1.53-0.407,2.304c-0.151,0.812-0.304,1.63-0.457,2.454
			c-0.177,0.88-0.354,1.766-0.532,2.658c-0.611,3.473-1.193,6.836-2.004,10.306c-0.39,1.727-0.833,3.456-1.305,5.193
			c-0.465,1.747-0.85,3.594-1.344,5.395c-1.897,7.251-4.771,14.508-7.289,22.201c-1.323,3.811-2.678,7.66-3.962,11.549
			c-1.226,3.914-2.218,7.916-3.243,11.905c-0.997,4.004-1.993,8.007-2.986,11.994c-0.886,4.027-1.768,8.039-2.644,12.019
			c-0.889,3.984-1.737,7.945-2.66,11.854c-0.227,0.978-0.452,1.953-0.678,2.925c-0.196,0.978-0.393,1.952-0.588,2.923
			c-0.386,1.943-0.77,3.874-1.15,5.788c-1.563,7.653-3.148,15.079-4.527,22.122c-1.262,7.043-2.488,13.724-3.653,19.905
			c-0.589,3.097-1.154,6.063-1.691,8.885c-0.465,2.855-0.906,5.563-1.321,8.108c-0.817,5.091-1.558,9.527-2.207,13.18
			c-1.25,7.306-2.032,11.479-2.032,11.479c-0.205,1.097-1.262,1.819-2.358,1.613C198.546,370.937,197.898,370.192,197.809,369.324z"
			/>
		<path d="M199.807,369.408c0,0,0.104-4.2,0.288-11.552c0.104-3.675,0.23-8.137,0.376-13.256c0.072-2.56,0.15-5.282,0.231-8.153
			c0.177-2.868,0.362-5.884,0.556-9.03c0.396-6.296,0.826-13.115,1.28-20.328c0.549-7.206,1.326-14.788,2.091-22.636
			c0.193-1.961,0.389-3.939,0.585-5.932c0.101-0.996,0.201-1.995,0.303-2.998c0.13-1,0.261-2.003,0.392-3.009
			c0.524-4.023,1.055-8.097,1.589-12.201c0.547-4.104,1.049-8.248,1.641-12.396c0.68-4.135,1.361-8.286,2.044-12.438
			c0.715-4.146,1.374-8.301,2.142-12.42c0.854-4.104,1.703-8.192,2.547-12.248c0.422-2.028,0.842-4.047,1.26-6.057
			c0.209-1.004,0.417-2.007,0.625-3.006c0.25-0.99,0.5-1.978,0.748-2.962c0.994-3.938,1.977-7.829,2.942-11.655
			c0.501-1.909,0.923-3.82,1.477-5.679c0.575-1.853,1.146-3.688,1.71-5.503c1.139-3.625,2.254-7.171,3.339-10.623
			c2.325-6.839,4.788-13.258,7.41-19.008c2.593-5.769,5.393-10.873,8.252-15.153c2.878-4.26,5.843-7.71,8.808-9.954
			c1.477-1.119,2.96-1.924,4.354-2.322c1.389-0.416,2.676-0.373,3.621-0.056c1.905,0.691,2.422,1.784,2.459,1.71
			c-0.032,0.074-0.601-0.999-2.49-1.606c-0.936-0.277-2.184-0.272-3.521,0.181c-1.339,0.44-2.763,1.266-4.185,2.4
			c-2.851,2.279-5.688,5.763-8.423,10.053c-2.71,4.316-5.345,9.445-7.847,15.204c-2.513,5.763-4.845,12.145-7.056,19.016
			c-1.023,3.454-2.075,7.001-3.15,10.628c-0.541,1.811-1.088,3.642-1.641,5.49c-0.54,1.852-0.951,3.761-1.439,5.664
			c-0.941,3.816-1.898,7.696-2.867,11.624c-0.242,0.982-0.485,1.967-0.729,2.954c-0.201,0.998-0.404,1.998-0.607,3
			c-0.405,2.005-0.812,4.021-1.223,6.045c-0.818,4.046-1.644,8.125-2.472,12.22c-0.745,4.111-1.374,8.261-2.073,12.397
			c-0.703,4.136-1.405,8.272-2.104,12.393c-0.613,4.134-1.137,8.266-1.703,12.357c-0.556,4.094-1.107,8.155-1.651,12.167
			c-0.137,1.003-0.272,2.004-0.407,3c-0.106,1.001-0.213,1.998-0.319,2.991c-0.206,1.987-0.412,3.961-0.615,5.918
			c-0.413,3.913-0.82,7.761-1.218,11.528c-0.206,1.883-0.41,3.745-0.612,5.585c-0.203,1.84-0.415,3.657-0.535,5.456
			c-0.57,7.192-1.11,13.992-1.607,20.269c-0.251,3.14-0.491,6.148-0.719,9.01c-0.158,2.867-0.308,5.588-0.448,8.145
			c-0.282,5.113-0.527,9.57-0.729,13.241C200.052,365.214,199.807,369.408,199.807,369.408z"/>
	</g>
	<g>
		<path class="st1" d="M201.592,369.467c0,0-0.755-5.108-1.957-14.05c-0.367-2.209-0.902-4.589-1.399-7.195
			c-0.248-1.297-0.507-2.646-0.774-4.047c-0.281-1.397-0.495-2.838-0.915-4.33c-0.753-2.968-1.555-6.126-2.399-9.455
			c-0.222-0.826-0.398-1.672-0.663-2.51c-0.268-0.836-0.539-1.682-0.813-2.538c-0.537-1.707-1.086-3.454-1.647-5.238
			c-0.278-0.889-0.559-1.787-0.843-2.694c-0.142-0.452-0.284-0.907-0.427-1.364c-0.17-0.449-0.342-0.9-0.515-1.354
			c-0.691-1.807-1.395-3.647-2.111-5.52c-0.351-0.934-0.706-1.875-1.063-2.824c-0.367-0.944-0.684-1.912-1.135-2.844
			c-0.842-1.874-1.698-3.778-2.565-5.708c-0.431-0.961-0.865-1.928-1.301-2.901l-0.655-1.463l-0.75-1.433
			c-0.993-1.913-1.998-3.849-3.014-5.806c-0.504-0.974-1.012-1.954-1.522-2.938c-0.551-0.965-1.141-1.915-1.712-2.879
			c-1.146-1.918-2.304-3.854-3.471-5.806c-0.552-0.987-1.19-1.935-1.837-2.881c-0.638-0.948-1.278-1.9-1.921-2.855
			c-0.64-0.953-1.282-1.91-1.926-2.87c-0.643-0.958-1.269-1.93-2-2.841c-2.869-3.675-5.494-7.543-8.636-11.089
			c-5.939-7.322-12.652-14.167-19.614-20.649c-1.806-1.562-3.575-3.153-5.39-4.686c-1.801-1.547-3.761-2.928-5.642-4.364
			l-2.845-2.119c-0.959-0.69-1.962-1.329-2.943-1.983c-1.967-1.293-3.928-2.583-5.882-3.867c-4.024-2.409-7.921-4.86-11.913-7.075
			c-3.877-2.368-7.818-4.52-11.557-6.837c-1.892-1.125-3.791-2.207-5.627-3.352c-0.918-0.576-1.832-1.148-2.74-1.718
			c-0.921-0.551-1.837-1.1-2.748-1.646c-1.826-1.086-3.578-2.275-5.363-3.352c-1.784-1.079-3.546-2.156-5.278-3.247
			c-0.859-0.561-1.727-1.088-2.603-1.582c-0.867-0.518-1.728-1.032-2.582-1.542c-1.717-1.007-3.372-2.106-5.067-3.023
			c-1.67-0.984-3.327-1.932-4.939-2.921c-1.637-0.932-3.243-1.846-4.816-2.742c-0.788-0.461-1.568-0.918-2.339-1.369
			c-0.78-0.43-1.551-0.856-2.313-1.276c-1.528-0.841-3.022-1.688-4.483-2.531c-2.961-1.609-5.771-3.136-8.411-4.57
			c-2.675-1.388-5.191-2.806-7.558-3.953c-1.187-0.62-2.326-1.215-3.414-1.784c-1.096-0.511-2.145-1.041-3.149-1.546
			c-1.011-0.503-1.968-0.979-2.868-1.427c-0.912-0.426-1.766-0.826-2.561-1.198c-0.807-0.393-1.554-0.756-2.239-1.089
			c-0.691-0.31-1.319-0.592-1.881-0.845c-2.27-1.015-3.537-1.653-3.537-1.653l-0.122-0.062c-1.072-0.54-1.503-1.847-0.963-2.919
			c0.239-0.475,0.631-0.825,1.084-1.02c0,0,1.296-0.556,3.831-1.416c0.633-0.204,1.351-0.472,2.136-0.69
			c0.787-0.201,1.646-0.421,2.574-0.658c0.941-0.216,1.952-0.449,3.031-0.697c1.09-0.26,2.22-0.39,3.441-0.597
			c1.218-0.193,2.509-0.396,3.868-0.562c1.349-0.143,2.756-0.271,4.234-0.382c1.468-0.083,3.033-0.233,4.617-0.263
			c1.589-0.045,3.23-0.024,4.942-0.035c0.852,0.006,1.734-0.018,2.607,0.016c0.873,0.045,1.759,0.091,2.659,0.138
			c1.799,0.104,3.663,0.211,5.566,0.375c1.884,0.205,3.82,0.434,5.804,0.693c1.997,0.228,4.003,0.573,6.047,0.955
			c8.241,1.397,16.942,3.797,25.948,6.98c9,3.188,18.154,7.5,27.018,12.985c4.35,2.877,8.745,5.841,12.881,9.285
			c4.232,3.298,8.155,7.117,12.177,10.801c1.948,1.929,3.861,3.909,5.79,5.866c0.954,0.992,1.945,1.938,2.879,2.953l2.789,3.062
			l2.794,3.049c0.935,1.012,1.897,1.992,2.774,3.065c1.784,2.113,3.617,4.171,5.413,6.257c7.042,8.479,13.774,17.206,19.325,26.497
			c2.955,4.513,5.416,9.291,7.928,13.917c0.649,1.145,1.191,2.348,1.748,3.534c0.555,1.186,1.108,2.368,1.66,3.545
			c0.548,1.176,1.095,2.347,1.639,3.514c0.549,1.162,1.093,2.319,1.539,3.521c0.928,2.374,1.848,4.729,2.76,7.062
			c0.448,1.166,0.914,2.315,1.339,3.475c0.381,1.177,0.76,2.347,1.138,3.511c0.747,2.321,1.487,4.616,2.218,6.884
			c0.181,0.566,0.36,1.13,0.539,1.692c0.146,0.574,0.291,1.146,0.436,1.716c0.288,1.138,0.574,2.269,0.857,3.392
			c0.563,2.238,1.119,4.446,1.666,6.621c0.3,1.076,0.464,2.183,0.679,3.263c0.204,1.082,0.406,2.156,0.606,3.221
			c0.388,2.124,0.769,4.213,1.144,6.263c0.091,0.511,0.183,1.02,0.273,1.526c0.062,0.512,0.124,1.021,0.186,1.528
			c0.122,1.013,0.243,2.016,0.363,3.008c0.234,1.979,0.464,3.916,0.688,5.809c0.106,0.945,0.211,1.878,0.314,2.801
			c0.101,0.922,0.112,1.845,0.172,2.748c0.186,3.604,0.362,7.024,0.529,10.237c0.121,1.589,0.051,3.176,0.054,4.684
			c-0.013,1.508-0.024,2.961-0.035,4.357c-0.054,2.783-0.057,5.345-0.165,7.614c-0.686,8.997-1.146,14.14-1.146,14.14
			c-0.099,1.108-1.076,1.927-2.184,1.828C202.46,371.094,201.725,370.366,201.592,369.467z"/>
		<path d="M203.591,369.408c0,0-0.218-5.123-0.6-14.089c-0.154-2.237-0.446-4.703-0.697-7.391c-0.133-1.343-0.271-2.741-0.415-4.19
			c-0.158-1.448-0.245-2.956-0.532-4.492c-0.493-3.08-1.018-6.357-1.569-9.812c-0.148-0.861-0.256-1.741-0.441-2.618
			c-0.191-0.876-0.386-1.763-0.581-2.66c-0.393-1.793-0.793-3.628-1.202-5.502c-0.205-0.937-0.411-1.883-0.62-2.839
			c-0.104-0.479-0.209-0.958-0.314-1.441c-0.134-0.476-0.269-0.953-0.403-1.434c-0.544-1.919-1.098-3.874-1.662-5.862
			c-0.281-0.994-0.565-1.997-0.852-3.008c-0.297-1.007-0.543-2.039-0.925-3.037c-0.705-2.013-1.422-4.058-2.149-6.129
			c-0.363-1.036-0.729-2.079-1.097-3.129c-0.184-0.524-0.368-1.051-0.553-1.579l-0.653-1.553c-0.873-2.076-1.755-4.178-2.648-6.303
			c-0.446-1.062-0.895-2.129-1.346-3.202c-0.507-1.048-1.017-2.101-1.528-3.159c-1.029-2.113-2.068-4.247-3.116-6.399
			c-0.5-1.089-1.09-2.135-1.688-3.183c-0.591-1.052-1.184-2.107-1.78-3.167c-0.595-1.06-1.192-2.123-1.792-3.189
			c-0.599-1.067-1.183-2.147-1.872-3.17c-2.689-4.126-5.229-8.424-8.273-12.429c-5.737-8.257-12.447-15.991-19.433-23.423
			l-5.367-5.458c-0.875-0.929-1.835-1.769-2.765-2.638l-2.804-2.591l-2.799-2.586c-0.941-0.851-1.932-1.642-2.894-2.464
			c-1.941-1.624-3.857-3.267-5.801-4.86c-7.893-6.231-16-11.927-24.136-16.99c-2.041-1.253-4.107-2.425-6.131-3.625
			c-1.017-0.592-2.028-1.182-3.034-1.769c-1.024-0.555-2.044-1.106-3.058-1.656c-2.035-1.083-4.016-2.218-6.033-3.224
			c-2.021-0.998-4.018-1.983-5.988-2.955c-7.95-3.733-15.6-7.016-22.853-9.524c-0.902-0.327-1.794-0.65-2.677-0.97
			c-0.887-0.309-1.776-0.576-2.648-0.861c-1.748-0.563-3.455-1.113-5.119-1.65c-1.681-0.481-3.319-0.95-4.912-1.405
			c-1.592-0.458-3.139-0.902-4.661-1.245c-1.516-0.366-2.983-0.721-4.399-1.063c-1.414-0.356-2.802-0.576-4.123-0.854
			c-1.325-0.256-2.593-0.526-3.811-0.742c-1.223-0.185-2.39-0.362-3.497-0.53c-1.109-0.156-2.153-0.354-3.146-0.449
			c-0.992-0.103-1.922-0.2-2.788-0.29c-0.866-0.09-1.667-0.174-2.401-0.251c-0.735-0.06-1.406-0.073-2.006-0.107
			c-2.401-0.113-3.681-0.173-3.681-0.173s1.282,0.022,3.686,0.064c0.601,0.016,1.274,0.01,2.012,0.048
			c0.737,0.055,1.542,0.115,2.411,0.18c0.87,0.065,1.805,0.136,2.803,0.211c0.998,0.074,2.047,0.249,3.163,0.381
			c1.114,0.144,2.288,0.295,3.52,0.455c1.227,0.189,2.503,0.432,3.838,0.66c1.331,0.25,2.73,0.441,4.156,0.767
			c1.429,0.312,2.909,0.636,4.438,0.97c1.536,0.311,3.098,0.722,4.706,1.147c1.609,0.422,3.265,0.857,4.964,1.303
			c1.681,0.512,3.404,1.037,5.168,1.575c0.88,0.275,1.778,0.532,2.673,0.83c0.891,0.31,1.792,0.622,2.703,0.938
			c7.322,2.424,15.054,5.618,23.102,9.267c8.042,3.675,16.261,8.104,24.531,13.07c8.215,5.062,16.409,10.763,24.392,17.009
			c1.967,1.597,3.906,3.245,5.87,4.873c0.974,0.825,1.976,1.619,2.929,2.472l2.834,2.595l2.84,2.601
			c0.942,0.873,1.915,1.716,2.801,2.649l5.437,5.486c7.018,7.531,13.752,15.366,19.506,23.723c3.052,4.054,5.599,8.402,8.291,12.577
			c0.69,1.034,1.275,2.127,1.875,3.206c0.6,1.078,1.198,2.153,1.794,3.225c0.596,1.072,1.189,2.14,1.78,3.203
			c0.598,1.06,1.189,2.117,1.688,3.218c1.047,2.175,2.086,4.331,3.115,6.468c0.508,1.07,1.039,2.125,1.522,3.194
			c0.44,1.088,0.878,2.171,1.314,3.247c0.871,2.153,1.732,4.283,2.584,6.387l0.636,1.572c0.18,0.535,0.359,1.068,0.537,1.599
			c0.356,1.062,0.711,2.118,1.063,3.166c0.704,2.096,1.397,4.163,2.081,6.199c0.37,1.01,0.604,2.052,0.89,3.069
			c0.274,1.021,0.547,2.033,0.817,3.037c0.54,2.008,1.071,3.982,1.593,5.919c0.129,0.485,0.257,0.967,0.385,1.447
			c0.1,0.486,0.199,0.971,0.298,1.453c0.197,0.964,0.393,1.918,0.586,2.862c0.386,1.889,0.764,3.738,1.134,5.545
			c0.185,0.904,0.367,1.797,0.548,2.68c0.179,0.882,0.26,1.771,0.392,2.639c0.479,3.479,0.934,6.779,1.36,9.881
			c0.255,1.544,0.31,3.063,0.437,4.521c0.112,1.458,0.22,2.863,0.324,4.214c0.192,2.701,0.432,5.179,0.536,7.419
			C203.514,364.28,203.591,369.408,203.591,369.408z"/>
	</g>
	<g>
		<path class="st1" d="M201.592,369.35c0,0-0.46-5.143-1.146-14.14c-0.108-2.27-0.111-4.831-0.165-7.614
			c-0.011-1.396-0.022-2.85-0.035-4.357c0.003-1.508-0.067-3.095,0.054-4.684c0.167-3.213,0.344-6.633,0.529-10.237
			c0.06-0.903,0.071-1.826,0.172-2.748c0.104-0.923,0.208-1.855,0.314-2.801c0.225-1.893,0.454-3.83,0.688-5.809
			c0.12-0.992,0.241-1.995,0.363-3.008c0.062-0.507,0.124-1.017,0.186-1.528c0.091-0.507,0.183-1.016,0.273-1.526
			c0.375-2.051,0.756-4.139,1.144-6.263c0.2-1.064,0.402-2.139,0.606-3.221c0.215-1.08,0.379-2.187,0.679-3.263
			c0.547-2.175,1.103-4.383,1.665-6.621c0.284-1.123,0.57-2.254,0.858-3.392c0.145-0.57,0.29-1.142,0.436-1.716
			c0.179-0.562,0.358-1.126,0.539-1.692c0.73-2.268,1.471-4.562,2.218-6.884c0.378-1.164,0.757-2.335,1.138-3.511
			c0.425-1.159,0.891-2.309,1.339-3.475c0.912-2.333,1.832-4.688,2.76-7.062c0.446-1.201,0.989-2.358,1.539-3.521
			c0.544-1.167,1.091-2.338,1.639-3.514c0.552-1.177,1.104-2.359,1.659-3.545c0.557-1.188,1.1-2.39,1.748-3.534
			c2.512-4.626,4.973-9.404,7.928-13.917c5.551-9.292,12.283-18.018,19.325-26.497c1.796-2.086,3.629-4.145,5.413-6.258
			c0.878-1.073,1.839-2.053,2.774-3.065l2.794-3.049l2.789-3.062c0.935-1.015,1.926-1.96,2.879-2.953
			c1.929-1.957,3.842-3.938,5.79-5.866c4.022-3.685,7.944-7.503,12.177-10.801c4.137-3.444,8.531-6.408,12.882-9.285
			c8.863-5.485,18.017-9.797,27.017-12.985c9.006-3.184,17.707-5.583,25.948-6.98c2.044-0.381,4.05-0.727,6.047-0.955
			c1.984-0.259,3.92-0.488,5.805-0.693c1.902-0.164,3.767-0.271,5.565-0.375c0.899-0.047,1.785-0.093,2.658-0.138
			c0.873-0.034,1.755-0.01,2.607-0.016c1.713,0.01,3.354-0.01,4.942,0.034c1.583,0.03,3.148,0.181,4.616,0.263
			c1.479,0.112,2.887,0.239,4.234,0.382c1.358,0.167,2.65,0.369,3.868,0.562c1.222,0.207,2.352,0.336,3.441,0.597
			c1.078,0.248,2.09,0.48,3.03,0.697c0.929,0.237,1.787,0.457,2.574,0.658c0.785,0.218,1.504,0.486,2.137,0.69
			c2.534,0.86,3.83,1.416,3.83,1.416c1.104,0.473,1.614,1.751,1.142,2.854c-0.21,0.489-0.577,0.861-1.018,1.083l-0.124,0.062
			c0,0-1.267,0.638-3.536,1.653c-0.562,0.252-1.19,0.535-1.882,0.845c-0.684,0.333-1.432,0.697-2.238,1.089
			c-0.795,0.372-1.649,0.771-2.561,1.198c-0.9,0.448-1.856,0.924-2.867,1.427c-1.004,0.505-2.053,1.036-3.149,1.546
			c-1.088,0.568-2.228,1.164-3.414,1.784c-2.367,1.146-4.883,2.565-7.558,3.953c-2.64,1.434-5.449,2.96-8.41,4.57
			c-1.461,0.843-2.956,1.689-4.484,2.531c-0.762,0.42-1.533,0.846-2.312,1.276c-0.771,0.452-1.552,0.908-2.34,1.37
			c-1.573,0.896-3.18,1.81-4.816,2.742c-1.612,0.989-3.27,1.937-4.939,2.921c-1.694,0.917-3.351,2.016-5.067,3.023
			c-0.854,0.51-1.715,1.024-2.581,1.542c-0.876,0.493-1.743,1.021-2.603,1.582c-1.731,1.091-3.494,2.168-5.278,3.247
			c-1.785,1.077-3.537,2.265-5.363,3.352c-0.911,0.546-1.827,1.095-2.748,1.646c-0.909,0.57-1.822,1.143-2.74,1.718
			c-1.837,1.145-3.735,2.227-5.627,3.352c-3.739,2.317-7.68,4.469-11.558,6.837c-3.991,2.215-7.889,4.666-11.913,7.075
			c-1.953,1.284-3.914,2.573-5.882,3.866c-0.981,0.655-1.984,1.294-2.943,1.984l-2.845,2.119c-1.881,1.437-3.84,2.817-5.642,4.363
			c-1.814,1.533-3.584,3.124-5.39,4.687c-6.962,6.482-13.675,13.327-19.614,20.649c-3.142,3.546-5.767,7.413-8.636,11.089
			c-0.73,0.911-1.357,1.883-2,2.841c-0.644,0.96-1.286,1.917-1.926,2.87c-0.643,0.955-1.283,1.907-1.921,2.855
			c-0.646,0.946-1.285,1.894-1.838,2.881c-1.167,1.952-2.324,3.888-3.471,5.806c-0.571,0.963-1.16,1.914-1.712,2.879
			c-0.51,0.984-1.018,1.965-1.522,2.938c-1.016,1.957-2.021,3.893-3.014,5.806l-0.75,1.433l-0.655,1.463
			c-0.437,0.974-0.87,1.94-1.302,2.901c-0.866,1.93-1.722,3.833-2.564,5.708c-0.451,0.932-0.768,1.899-1.135,2.844
			c-0.357,0.949-0.712,1.891-1.063,2.824c-0.716,1.872-1.42,3.713-2.11,5.52c-0.173,0.454-0.344,0.905-0.515,1.354
			c-0.144,0.457-0.285,0.912-0.427,1.364c-0.284,0.907-0.564,1.806-0.843,2.694c-0.561,1.784-1.11,3.531-1.647,5.238
			c-0.274,0.856-0.546,1.702-0.813,2.538c-0.265,0.838-0.441,1.684-0.663,2.51c-0.845,3.329-1.646,6.487-2.399,9.455
			c-0.421,1.492-0.634,2.933-0.915,4.33c-0.268,1.4-0.526,2.75-0.774,4.047c-0.497,2.606-1.032,4.986-1.399,7.195
			c-1.202,8.941-1.957,14.05-1.957,14.05c-0.162,1.1-1.187,1.86-2.286,1.697C202.365,371.025,201.673,370.256,201.592,369.35z"/>
		<path d="M203.591,369.408c0,0,0.077-5.128,0.213-14.101c0.104-2.24,0.344-4.718,0.536-7.419c0.104-1.351,0.212-2.756,0.324-4.214
			c0.127-1.457,0.182-2.977,0.437-4.521c0.427-3.102,0.881-6.401,1.36-9.881c0.132-0.868,0.213-1.757,0.392-2.64
			c0.181-0.882,0.363-1.774,0.548-2.679c0.37-1.807,0.748-3.656,1.134-5.545c0.193-0.944,0.389-1.898,0.586-2.862
			c0.099-0.482,0.198-0.967,0.297-1.453c0.129-0.48,0.257-0.962,0.386-1.447c0.521-1.938,1.053-3.911,1.593-5.919
			c0.271-1.004,0.543-2.017,0.817-3.037c0.285-1.018,0.52-2.06,0.89-3.069c0.684-2.036,1.377-4.104,2.081-6.199
			c0.352-1.048,0.706-2.104,1.062-3.166c0.179-0.53,0.357-1.063,0.537-1.599l0.636-1.572c0.852-2.104,1.713-4.233,2.584-6.387
			c0.436-1.076,0.874-2.159,1.314-3.247c0.483-1.069,1.014-2.124,1.522-3.194c1.028-2.137,2.067-4.293,3.114-6.468
			c0.499-1.101,1.09-2.158,1.688-3.218c0.591-1.063,1.185-2.132,1.78-3.203s1.193-2.146,1.794-3.225
			c0.6-1.079,1.185-2.172,1.874-3.206c2.693-4.175,5.239-8.523,8.292-12.577c5.753-8.357,12.488-16.193,19.506-23.723l5.437-5.486
			c0.887-0.933,1.858-1.776,2.801-2.649l2.84-2.6l2.835-2.595c0.952-0.854,1.955-1.647,2.929-2.472
			c1.964-1.628,3.903-3.277,5.87-4.873c7.983-6.246,16.177-11.947,24.392-17.009c8.271-4.967,16.489-9.396,24.531-13.07
			c8.048-3.648,15.779-6.843,23.102-9.267c0.91-0.316,1.812-0.628,2.703-0.938c0.895-0.298,1.792-0.555,2.672-0.831
			c1.765-0.537,3.488-1.062,5.169-1.574c1.699-0.446,3.354-0.88,4.964-1.303c1.608-0.425,3.17-0.836,4.706-1.147
			c1.529-0.334,3.01-0.658,4.438-0.97c1.425-0.326,2.825-0.517,4.156-0.767c1.335-0.228,2.611-0.471,3.838-0.66
			c1.23-0.159,2.405-0.311,3.52-0.455c1.115-0.132,2.164-0.307,3.162-0.381c0.998-0.075,1.934-0.146,2.804-0.211
			c0.869-0.065,1.674-0.125,2.411-0.18c0.737-0.038,1.41-0.032,2.012-0.048c2.403-0.042,3.686-0.064,3.686-0.064
			s-1.28,0.06-3.682,0.173c-0.6,0.034-1.27,0.047-2.005,0.107c-0.734,0.077-1.536,0.161-2.402,0.251
			c-0.865,0.09-1.795,0.187-2.788,0.29c-0.992,0.096-2.037,0.293-3.146,0.449c-1.107,0.168-2.273,0.345-3.497,0.53
			c-1.219,0.215-2.486,0.485-3.811,0.742c-1.321,0.278-2.709,0.499-4.123,0.854c-1.416,0.342-2.884,0.697-4.399,1.063
			c-1.521,0.342-3.068,0.787-4.661,1.245c-1.592,0.456-3.229,0.924-4.911,1.405c-1.664,0.537-3.371,1.086-5.119,1.65
			c-0.872,0.285-1.762,0.553-2.647,0.861c-0.883,0.32-1.775,0.644-2.678,0.97c-7.252,2.508-14.901,5.791-22.853,9.523
			c-1.97,0.972-3.966,1.958-5.987,2.955c-2.017,1.006-3.998,2.141-6.033,3.224c-1.014,0.549-2.033,1.101-3.058,1.656
			c-1.006,0.586-2.018,1.176-3.034,1.769c-2.023,1.2-4.091,2.372-6.131,3.625c-8.136,5.063-16.243,10.758-24.137,16.99
			c-1.944,1.593-3.859,3.236-5.801,4.86c-0.962,0.822-1.953,1.613-2.895,2.464l-2.798,2.586l-2.805,2.591
			c-0.931,0.869-1.891,1.709-2.766,2.638l-5.366,5.458c-6.986,7.431-13.696,15.166-19.434,23.423
			c-3.044,4.005-5.584,8.303-8.272,12.429c-0.689,1.022-1.272,2.103-1.872,3.17c-0.6,1.066-1.196,2.13-1.792,3.189
			c-0.595,1.06-1.188,2.115-1.779,3.167c-0.598,1.048-1.188,2.094-1.688,3.183c-1.048,2.152-2.087,4.286-3.116,6.399
			c-0.513,1.058-1.021,2.111-1.529,3.159c-0.45,1.073-0.899,2.141-1.346,3.202c-0.893,2.125-1.775,4.227-2.648,6.303l-0.652,1.553
			c-0.186,0.528-0.369,1.055-0.554,1.579c-0.368,1.05-0.733,2.093-1.097,3.129c-0.727,2.071-1.443,4.115-2.148,6.129
			c-0.382,0.998-0.628,2.03-0.925,3.037c-0.286,1.011-0.57,2.014-0.852,3.008c-0.564,1.988-1.118,3.943-1.662,5.862
			c-0.135,0.48-0.27,0.958-0.403,1.434c-0.105,0.483-0.21,0.963-0.314,1.441c-0.209,0.956-0.415,1.902-0.62,2.839
			c-0.409,1.874-0.81,3.709-1.202,5.502c-0.195,0.897-0.39,1.784-0.581,2.66c-0.186,0.877-0.293,1.757-0.441,2.618
			c-0.552,3.455-1.076,6.732-1.569,9.812c-0.287,1.536-0.374,3.044-0.532,4.492c-0.144,1.449-0.282,2.848-0.415,4.19
			c-0.251,2.688-0.543,5.153-0.697,7.391C203.809,364.285,203.591,369.408,203.591,369.408z"/>
	</g>
	<g>
		<path class="st1" d="M198.556,369.697c0,0-0.264-0.781-0.758-2.246c-0.516-1.449-1.145-3.65-2.11-6.324
			c-0.506-1.3-1.065-2.738-1.675-4.304c-0.291-0.776-0.595-1.584-0.909-2.422c-0.356-0.838-0.726-1.706-1.107-2.604
			c-0.777-1.788-1.562-3.69-2.457-5.667c-0.953-1.965-1.952-4.018-2.952-6.159c-1.014-2.137-2.234-4.304-3.396-6.56
			c-1.116-2.273-2.511-4.527-3.82-6.87c-1.293-2.352-2.803-4.676-4.266-7.068c-1.428-2.41-3.091-4.754-4.706-7.155
			c-3.206-4.817-6.821-9.539-10.476-14.218c-0.9-1.183-1.913-2.271-2.862-3.413c-0.968-1.123-1.885-2.293-2.869-3.393
			c-0.998-1.077-1.997-2.156-2.998-3.236l-1.49-1.615c-0.51-0.52-1.041-1.008-1.557-1.513c-1.057-0.987-2.075-2-3.144-2.958
			c-1.066-0.95-2.205-1.767-3.312-2.624c-2.185-1.792-4.554-3.056-6.763-4.466c-1.116-0.662-2.257-1.13-3.327-1.725
			c-0.537-0.287-1.079-0.558-1.595-0.857l-0.097-0.055c0.186,0.141-0.307-0.223-0.281-0.2l-0.064-0.036l-0.258-0.147l-0.516-0.294
			l-1.03-0.587c-1.319-0.8-2.629-1.596-3.931-2.386c-0.848-0.336-1.631-0.728-2.376-1.166c-0.64-0.459-1.702-0.917-2.562-1.433
			c-0.89-0.513-1.743-1.124-2.621-1.546c-0.872-0.459-1.709-1.016-2.551-1.533c-0.851-0.438-1.694-0.897-2.531-1.396
			c-0.209-0.124-0.417-0.26-0.627-0.375l-0.634-0.291c-0.422-0.196-0.84-0.418-1.261-0.631c-0.42-0.215-0.841-0.433-1.26-0.672
			c-0.424-0.18-0.844-0.356-1.262-0.532c-0.424-0.196-0.845-0.392-1.263-0.585c-0.423-0.2-0.846-0.409-1.263-0.545
			c-0.839-0.302-1.682-0.649-2.532-1.004c-3.358-1.179-6.721-2.131-9.967-2.773c-0.813-0.172-1.56-0.205-2.359-0.35
			c-0.402-0.064-0.797-0.127-1.185-0.188c-0.395-0.062-0.742-0.057-1.114-0.087c-0.769-0.062-1.507-0.122-2.212-0.179
			c-0.379-0.044-0.694-0.013-1.037-0.021c-0.345-0.002-0.682-0.005-1.009-0.008c-0.688,0.003-1.339,0.006-1.952,0.008
			c-0.608,0.053-1.178,0.102-1.708,0.146c-0.571,0.048-1.1,0.093-1.584,0.133c-0.485,0.056-0.899,0.141-1.297,0.208
			c-1.686,0.294-2.584,0.451-2.584,0.451l-0.41,0.071c-1.242,0.217-2.424-0.614-2.641-1.856c-0.047-0.271-0.042-0.55,0.004-0.807
			c0,0,0.046-0.25,0.136-0.735c0.095-0.488,0.255-1.211,0.528-2.16c0.145-0.464,0.279-1.037,0.505-1.585
			c0.244-0.546,0.51-1.142,0.797-1.785c0.309-0.643,0.665-1.331,1.059-2.081c0.41-0.712,0.908-1.397,1.437-2.167
			c2.1-3.124,5.3-6.342,9.624-9.377c4.321-2.964,9.802-5.448,16.174-7.008c6.358-1.466,13.551-1.8,20.979-0.772
			c1.833,0.304,3.697,0.657,5.586,1.043c1.838,0.478,3.668,1.056,5.518,1.674c1.886,0.568,3.619,1.41,5.396,2.243
			c1.781,0.879,3.489,1.646,5.365,2.91c1.83,1.181,3.645,2.422,5.411,3.729c0.254,0.176,0.372,0.295,0.519,0.425l0.434,0.388
			c0.292,0.257,0.578,0.522,0.863,0.791c0.571,0.534,1.144,1.07,1.718,1.608l0.845,0.831l0.424,0.417l0.212,0.208l0.053,0.053
			c0.065,0.052-0.39-0.281-0.165-0.108l0.133,0.129c0.713,0.686,1.402,1.402,2.1,2.105c0.698,0.704,1.386,1.418,2.068,2.137
			c0.661,0.727,1.413,1.416,1.988,2.177c2.411,2.998,4.922,5.956,7.005,9.03l1.635,2.273c0.538,0.754,1.139,1.481,1.617,2.258
			c0.995,1.54,2.043,3.029,3.052,4.544c0.509,0.752,1.036,1.495,1.525,2.252l1.402,2.296c0.927,1.526,1.853,3.051,2.777,4.572
			c1.729,3.084,3.396,6.17,4.935,9.264c3.039,6.201,5.643,12.419,7.835,18.507c1.052,3.066,2.14,6.038,2.982,9.028
			c0.887,2.971,1.801,5.841,2.458,8.717c1.501,5.676,2.571,11.118,3.448,16.127c0.396,2.521,0.736,4.936,1.057,7.221
			c0.268,2.303,0.449,4.497,0.653,6.539c0.094,1.022,0.185,2.012,0.272,2.966c0.049,0.974,0.096,1.912,0.141,2.813
			c0.063,1.789,0.121,3.433,0.174,4.917c0.019,2.916-0.077,5.148-0.115,6.702c-0.052,1.545-0.08,2.369-0.08,2.369
			c-0.037,1.121-0.978,2-2.099,1.963C199.544,371.053,198.82,370.476,198.556,369.697z"/>
		<path d="M200.535,369.408c0,0-0.137-0.8-0.393-2.3c-0.269-1.496-0.602-3.705-1.135-6.491c-0.303-1.385-0.638-2.918-1.003-4.587
			c-0.183-0.833-0.372-1.7-0.568-2.601c-0.237-0.891-0.483-1.814-0.736-2.768c-0.523-1.903-1.04-3.938-1.656-6.062
			c-0.66-2.111-1.354-4.332-2.078-6.648c-1.556-4.596-3.311-9.555-5.471-14.677c-1-2.594-2.235-5.17-3.433-7.828
			c-1.168-2.674-2.532-5.323-3.874-8.039c-2.707-5.42-5.822-10.854-9.17-16.256c-0.815-1.364-1.755-2.655-2.631-3.993
			c-0.9-1.321-1.766-2.674-2.701-3.979c-0.959-1.288-1.921-2.578-2.883-3.87l-1.443-1.938c-0.499-0.633-1.025-1.242-1.537-1.864
			l-3.064-3.733c-1.038-1.229-2.167-2.371-3.243-3.559c-2.109-2.424-4.517-4.519-6.797-6.712c-1.169-1.062-2.436-1.998-3.639-2.997
			l-1.821-1.472c-0.628-0.48-1.254-0.96-1.878-1.438c-1.249-0.94-2.476-1.908-3.719-2.81c-1.281-0.811-2.554-1.616-3.815-2.414
			c-1.229-0.851-2.599-1.461-3.898-2.154c-1.315-0.666-2.588-1.394-3.944-1.898c-1.337-0.545-2.648-1.12-3.966-1.626
			c-1.348-0.421-2.68-0.837-3.994-1.247c-5.312-1.437-10.519-2.122-15.337-2.073c-4.811,0.149-9.199,0.828-12.973,1.91
			c-3.724,1.195-6.912,2.534-9.277,4.081c-0.6,0.371-1.18,0.707-1.705,1.053c-0.499,0.383-0.966,0.742-1.401,1.077
			c-0.437,0.335-0.84,0.645-1.21,0.929c-0.362,0.293-0.642,0.613-0.919,0.872c-1.084,1.066-1.662,1.635-1.662,1.635
			s0.552-0.596,1.586-1.712c0.266-0.272,0.534-0.609,0.883-0.92c0.358-0.303,0.749-0.633,1.171-0.989
			c0.424-0.357,0.879-0.741,1.365-1.151c0.517-0.367,1.09-0.725,1.683-1.122c2.34-1.647,5.514-3.115,9.263-4.463
			c3.793-1.239,8.249-2.093,13.168-2.324c4.922-0.154,10.265,0.431,15.744,1.789c1.356,0.393,2.731,0.79,4.123,1.192
			c1.362,0.489,2.718,1.049,4.103,1.581c1.407,0.484,2.722,1.21,4.073,1.89c1.34,0.702,2.741,1.316,4.028,2.189
			c1.313,0.821,2.638,1.648,3.972,2.481c1.263,0.902,2.487,1.854,3.745,2.788c0.622,0.469,1.246,0.939,1.872,1.411
			c0.623,0.496,1.248,0.993,1.874,1.491c1.238,1.012,2.542,1.965,3.743,3.04c2.34,2.216,4.812,4.343,6.971,6.786
			c1.103,1.198,2.26,2.355,3.322,3.595l3.132,3.769c0.514,0.635,1.044,1.258,1.545,1.902l1.449,1.973
			c0.965,1.314,1.929,2.628,2.891,3.938c0.937,1.327,1.803,2.7,2.704,4.042c0.875,1.359,1.816,2.671,2.63,4.055
			c3.345,5.479,6.449,10.984,9.14,16.469c1.325,2.751,2.712,5.418,3.815,8.146c1.151,2.704,2.339,5.322,3.291,7.956
			c2.066,5.201,3.727,10.228,5.193,14.88c0.673,2.346,1.317,4.593,1.931,6.73c0.547,2.155,0.995,4.219,1.454,6.146
			c0.221,0.965,0.436,1.899,0.643,2.801c0.166,0.912,0.327,1.79,0.481,2.635c0.308,1.687,0.591,3.235,0.847,4.634
			c0.45,2.804,0.65,5.028,0.859,6.535C200.435,368.603,200.535,369.408,200.535,369.408z"/>
	</g>
	<g>
		<path class="st0" d="M205.296,369.408c0-176.499-24.905-319.319-55.683-319.319"/>
		<g>
			<path class="st1" d="M155.308,2L155.308,2c0.049,0,0.098,0.002,0.147,0.008c0.872,0.104,1.783,0.5,2.748,0.918
				c0.874,0.379,1.778,0.771,2.788,1.02c1.083,0.266,2.127,0.306,3.137,0.345c1.016,0.039,1.975,0.076,2.719,0.358
				c1.119,0.425,2.264,0.54,3.371,0.651c1.023,0.103,1.99,0.199,2.623,0.532c0.475,0.25,0.966,0.498,1.462,0.749
				c1.339,0.677,2.725,1.377,3.853,2.157c1.195,0.827,2.402,1.92,3.569,2.978c0.354,0.321,0.703,0.638,1.049,0.944
				c0.49,0.435,0.869,1.308,1.271,2.232c0.444,1.02,0.946,2.177,1.781,3.119c0.87,0.98,2.035,1.597,3.064,2.141
				c0.846,0.447,1.722,0.91,2.064,1.405c1.025,1.482,2.132,3.329,3.116,5.202c0.166,0.316-0.057,1.486-0.188,2.186
				c-0.26,1.366-0.554,2.913-0.005,4.359c0.728,1.917,1.273,3.649,1.716,5.45c0.393,1.599,0.581,3.197,0.779,4.89l0.09,0.753
				l0.037,0.314c0.22,1.823,0.428,3.544,0.428,5.379c0,1.377,0.521,2.621,0.982,3.719c0.35,0.834,0.712,1.697,0.648,2.227
				c-0.112,0.937-0.5,1.927-0.911,2.976c-0.336,0.858-0.684,1.747-0.916,2.693c-0.434,1.763-1.012,3.59-1.769,5.583
				c-0.209,0.551-0.878,1.13-1.586,1.743c-0.853,0.738-1.819,1.574-2.435,2.745c-0.638,1.213-0.745,2.535-0.839,3.701
				c-0.072,0.886-0.146,1.801-0.453,2.245c-0.657,0.95-1.5,1.811-2.392,2.723c-0.509,0.52-1.035,1.058-1.541,1.628
				c-0.755,0.852-1.277,1.806-1.783,2.729c-0.498,0.908-0.967,1.766-1.548,2.281c-0.808,0.716-1.461,1.559-2.093,2.374
				c-0.678,0.874-1.318,1.699-2.006,2.175c-0.717,0.496-1.728,0.836-2.798,1.196c-0.948,0.319-1.928,0.649-2.851,1.134
				c-0.677,0.356-1.646,0.488-2.671,0.628c-1.052,0.144-2.139,0.292-3.212,0.699c-0.755,0.287-1.71,0.33-2.721,0.376
				c-0.995,0.045-2.023,0.092-3.095,0.355c-1.272,0.312-2.329,1.05-3.262,1.702c-0.792,0.553-1.54,1.075-2.137,1.146
				c-0.128,0.016-0.268,0.023-0.415,0.023c-0.685,0-1.474-0.168-2.31-0.346c-1.016-0.216-2.066-0.44-3.202-0.44
				c-0.796,0-1.678-0.317-2.611-0.653c-0.905-0.325-1.93-0.693-3.045-0.828c-0.155-0.019-0.312-0.028-0.471-0.028
				c-1.49,0-2.854,0.822-4.059,1.546c-0.575,0.346-1.523,0.917-1.909,0.957c-0.336-0.193-0.947-1.15-1.318-1.73
				c-0.814-1.276-1.738-2.722-3.266-3.302c-0.953-0.362-1.88-0.567-2.776-0.765c-1.02-0.226-1.982-0.439-2.774-0.855
				c-0.808-0.425-1.537-1.1-2.309-1.814c-0.667-0.618-1.357-1.257-2.183-1.828c-0.885-0.612-1.798-1.023-2.681-1.421
				c-0.925-0.417-1.8-0.812-2.427-1.367c-0.729-0.647-1.503-1.178-2.251-1.69c-0.913-0.626-1.776-1.217-2.4-1.922
				c-0.488-0.55-0.811-1.429-1.153-2.36c-0.351-0.954-0.749-2.036-1.419-3.005c-0.85-1.229-2.214-1.888-3.417-2.469
				c-0.724-0.35-1.715-0.829-1.907-1.193c-0.236-0.449-0.172-1.457-0.115-2.346c0.079-1.236,0.169-2.637-0.328-3.946
				c-0.758-1.998-1.313-3.751-1.747-5.517c-0.189-0.77-0.112-1.702-0.029-2.688c0.079-0.947,0.168-2.021,0.035-3.133
				c-0.181-1.507-1.131-2.714-1.969-3.779c-0.467-0.593-1.172-1.489-1.172-1.879v-0.317c0-1.926-0.001-3.917,0.212-5.694
				c0.042-0.348,0.912-1.167,1.432-1.657c1.019-0.958,2.173-2.045,2.544-3.554c0.346-1.412,0.023-2.805-0.262-4.034
				c-0.193-0.833-0.412-1.776-0.251-2.199c0.278-0.733,0.913-1.474,1.584-2.257c0.678-0.792,1.379-1.609,1.905-2.61
				c0.462-0.879,0.791-1.775,1.109-2.641c0.378-1.031,0.735-2.004,1.259-2.762c0.364-0.526,1.152-0.974,1.987-1.449
				c0.951-0.541,2.029-1.153,2.874-2.106c0.959-1.082,1.321-2.472,1.641-3.699c0.22-0.843,0.469-1.798,0.815-2.105
				c0.561-0.497,1.467-0.841,2.427-1.205c1.007-0.382,2.048-0.777,3.006-1.44c1.405-0.971,3.092-2.096,4.956-3.077
				c0.445-0.234,0.887-0.474,1.33-0.715c1.329-0.723,2.584-1.406,3.905-1.907c0.751-0.285,1.712-0.326,2.73-0.37
				c1.004-0.043,2.042-0.087,3.119-0.352c0.808-0.199,1.573-0.445,2.313-0.685c1.127-0.364,2.192-0.707,3.273-0.837
				c0.085-0.01,0.17-0.015,0.256-0.015c0.608,0,1.351,0.227,2.136,0.467c1.006,0.308,2.146,0.656,3.4,0.656
				c1.36,0,2.57-0.487,3.637-0.917C154.03,2.296,154.766,2,155.308,2 M155.307,0c-1.873,0-3.763,1.527-5.694,1.527
				c-1.893,0-3.707-1.123-5.536-1.123c-0.165,0-0.33,0.009-0.495,0.029c-2.043,0.245-3.864,1.083-5.825,1.565
				c-1.993,0.49-4.19,0.076-6.082,0.794c-1.914,0.727-3.662,1.778-5.457,2.722c-1.808,0.951-3.491,2.046-5.162,3.202
				c-1.678,1.161-4.1,1.443-5.623,2.793c-1.524,1.352-1.274,4.45-2.626,5.975c-1.35,1.522-3.849,2.066-5.009,3.744
				c-1.156,1.671-1.542,3.8-2.493,5.609c-0.944,1.795-2.862,3.174-3.588,5.088c-0.718,1.892,0.93,4.473,0.44,6.466
				c-0.482,1.96-3.774,3.407-4.02,5.449c-0.24,1.999-0.227,4.187-0.227,6.25s2.915,3.899,3.155,5.897
				c0.246,2.043-0.443,4.1,0.038,6.06c0.49,1.993,1.102,3.857,1.819,5.749c0.727,1.914-0.402,4.718,0.542,6.513
				c0.951,1.809,4.293,2.198,5.449,3.869c1.16,1.678,1.372,4.031,2.721,5.554c1.352,1.525,3.297,2.43,4.821,3.782
				c1.522,1.35,3.619,1.777,5.297,2.938c1.671,1.155,2.889,2.816,4.698,3.767c1.795,0.944,3.857,0.994,5.771,1.72
				c1.892,0.718,2.834,4.625,4.828,5.114c0.139,0.034,0.281,0.05,0.427,0.05c1.831,0,4.146-2.505,6.007-2.505
				c0.078,0,0.156,0.004,0.232,0.014c1.999,0.24,3.832,1.495,5.895,1.495c1.84,0,3.71,0.786,5.511,0.786
				c0.219,0,0.437-0.012,0.653-0.038c2.042-0.246,3.677-2.41,5.637-2.892c1.993-0.49,4.157-0.086,6.049-0.805
				c1.915-0.726,4.309-0.483,6.104-1.427c1.809-0.951,4.184-1.3,5.855-2.455c1.678-1.161,2.766-3.347,4.289-4.697
				c1.524-1.352,2.149-3.655,3.501-5.18c1.35-1.522,2.921-2.862,4.081-4.54c1.156-1.671,0.466-4.344,1.417-6.153
				c0.944-1.795,3.395-2.795,4.121-4.709c0.718-1.892,1.351-3.822,1.841-5.815c0.481-1.96,1.625-3.866,1.87-5.909
				c0.24-1.999-1.616-4.121-1.616-6.184s-0.239-3.934-0.479-5.933c-0.245-2.042-0.431-3.92-0.912-5.881
				c-0.49-1.993-1.07-3.791-1.788-5.682c-0.727-1.915,1.037-4.971,0.093-6.766c-0.95-1.809-2.085-3.738-3.241-5.409
				c-1.16-1.678-3.926-2.212-5.276-3.735c-1.352-1.525-1.697-4.168-3.222-5.521c-1.522-1.35-3.129-2.91-4.807-4.07
				c-1.671-1.155-3.713-2.079-5.521-3.03c-1.795-0.944-4.301-0.556-6.215-1.283c-1.892-0.718-4.096-0.287-6.089-0.776
				c-1.96-0.481-3.73-1.736-5.773-1.981C155.565,0.007,155.437,0,155.307,0L155.307,0z"/>
		</g>
	</g>
</g>
</svg>
