<?xml version="1.0" encoding="utf-8"?>
<!-- Generator: Adobe Illustrator 16.0.4, SVG Export Plug-In . SVG Version: 6.00 Build 0)  -->
<!DOCTYPE svg PUBLIC "-//W3C//DTD SVG 1.1//EN" "http://www.w3.org/Graphics/SVG/1.1/DTD/svg11.dtd">
<svg version="1.1" id="Layer_1" xmlns="http://www.w3.org/2000/svg" xmlns:xlink="http://www.w3.org/1999/xlink" x="0px" y="0px"
	 width="95.139px" height="383.118px" viewBox="0 0 95.139 383.118" style="enable-background:new 0 0 95.139 383.118;"
	 xml:space="preserve">
<style type="text/css">
<![CDATA[
	.st0{fill:#FFFFFF;}
]]>
</style>
<g>
	<path class="st0" d="M93.929,160.115c-0.086-2.645-0.175-4.682-0.266-6c-0.25-3.642,1.465-9-9.535-27
		c-2.879-4.711-5.508-8.634-7.82-11.886c-6.522-9.173-10.527-13.006-10.527-14.114l-0.986-80c0,0,0.034-0.209,0.388-0.562
		c1.052-1.052,0.793-9.403,0.303-9.893s-0.69-0.544-0.69-0.544V4.691c0-5.841-4.643-4.576-11.296-4.576H41.84
		c-6.652,0-13.045-1.265-13.045,4.576v5.423c0,0-0.083-0.083-1,0.833s-1.021,8.459-0.062,9.417s1.062,0.75,1.062,0.75l-1.865,80
		c0,0.73-3.858,6.208-8.138,12.223s-8.979,12.567-10.664,15.443c-3.368,5.753-7.762,21.551-7.796,25.333
		c-0.012,1.329-0.029,3.367-0.049,6H93.929z"/>
	<path class="st0" d="M0,256.115c0.082,41.229,0.488,84.576,1.665,109c0.299,6.214,0.13,9.663,9,14c2.4,1.174,11.13,3.994,30.176,4
		s15.955,0,26.289,0s14.9-2.64,17.201-4c8.465-5.004,8.816-7.839,9.717-14c1.01-6.907,1.23-58.404,1.021-109H0z"/>
</g>
</svg>
