<?xml version="1.0" encoding="utf-8"?>
<!-- Generator: Adobe Illustrator 16.0.0, SVG Export Plug-In . SVG Version: 6.00 Build 0)  -->
<!DOCTYPE svg PUBLIC "-//W3C//DTD SVG 1.1//EN" "http://www.w3.org/Graphics/SVG/1.1/DTD/svg11.dtd">
<svg version="1.1" id="Layer_1" xmlns="http://www.w3.org/2000/svg" xmlns:xlink="http://www.w3.org/1999/xlink" x="0px" y="0px"
	 width="684.303px" height="933.769px" viewBox="0 0 684.303 933.769" style="enable-background:new 0 0 684.303 933.769;"
	 xml:space="preserve">
<g id="_x37_NNP0H.tif">
	<g>
		<path style="fill-rule:evenodd;clip-rule:evenodd;fill:#FFFFFF;" d="M0,231.296c7.8-3.215,14.67-7.55,19.83-14.528
			c2.283-3.089,5.848-3.029,8.843-0.43c4.914,4.263,4.863,4.321,12.054,3.69c-4.705-8.005-4.921-15.944,0.768-23.304
			c5.533-7.159,13.177-9.011,22.264-7.532c-3.004-13.92,0.352-25.231,12.67-32.363c-0.914-3.034-2.598-5.836-2.285-8.393
			c0.294-2.401,2.694-4.547,4.184-6.793c0.269-0.406,0.948-0.82,0.888-1.123c-1.238-6.286,4.94-7.134,7.828-10.142
			c2.95-3.072,8.958-0.875,11.602,3.411c-0.094,0.119-0.171,0.324-0.283,0.345c-4.177,0.769-8.548,1.423-8.567,7.073
			c-0.02,5.826,4.45,7.303,8.895,8.483c9.601,2.551,18.955,5.537,25.323,13.878c2.008,2.631,4.286,5.342,5.281,8.394
			c1.54,4.724,4.3,6.067,8.87,5.467c2.437-0.32,4.951-0.057,7.782-0.057c0.208-2.044,0.385-3.788,0.555-5.469
			c7.607-1.666,7.607-1.666,9.523-5.602c-2.12-2.277-4.653-4.268-6.12-6.86c-0.824-1.457-0.429-4.159,0.355-5.869
			c2.662-5.807,5.695-11.447,8.698-17.092c0.615-1.156,1.714-2.055,2.59-3.073c0.95,0.953,2.498,1.769,2.751,2.88
			c1.47,6.466,4.055,12.213,8.587,17.209c1.091,1.204,1.353,4.388,0.533,5.83c-1.488,2.616-4.073,4.608-6.355,7.024
			c1.384,4.569,5.48,4.828,9.612,5.119c0.15,1.839,0.284,3.476,0.449,5.506c3.167,0,6.353,0,9.542,0
			c0.347-4.742,0.379-9.393,1.085-13.938c1.363-8.773,5.926-15.698,12.784-21.35c1.987-1.637,3.523-4.213,4.445-6.667
			c1.769-4.709,5.434-6.501,9.802-7.509c3.562-0.822,7.243-1.208,10.732-2.251c5.505-1.644,6.677-4.236,5.001-9.845
			c-1.175-3.932-0.104-5.252,3.888-4.791c6.523,0.754,9.61,6.433,6.677,12.117c-0.458,0.888-0.816,2.269-0.449,3.068
			c2.407,5.25,0.026,8.181-5.698,10.514c11.119,3.034,17.075,9.903,18.271,20.4c1.208,10.595-4.136,17.889-12.716,22.344
			c1.987,2.643,3.538,4.705,5.529,7.355c5.674-1.983,11.284-5.663,15.021-11.169c5.495-8.096,10.46-16.595,15.092-25.223
			c8.069-15.031,17.063-29.127,33.164-36.787c4.316-2.053,8.883-3.694,13.486-4.984c2.532-0.71,3.758-1.539,3.511-4.275
			c-0.318-3.52-0.295-6.407,4.18-8.207c3.94-1.584,4.368-6.094,3.192-10.055c-1.271-4.28-4.063-7.343-8.739-7.852
			c-3.453-0.376-6.269,3.376-5.416,7.22c0.454,2.046,1.512,3.959,2.294,5.923c-5.761,2.757-12.814-2.235-13.768-9.653
			c-1.008-7.835,2.897-14.926,9.572-17.383c6.377-2.348,14.041,0.432,18.293,6.637c0.606,0.884,1.207,1.771,2.182,2.465
			c-0.03-9.233-0.192-18.36-9.843-24.101C341.386,34.765,339.567,16.821,342.522,0c0.806,8.121,1.379,16.273,2.482,24.353
			c1.088,7.962,3.13,15.639,8.76,21.917c0.707,0.788,0.551,3.647-0.227,4.268c-7.303,5.823-7.379,13.875-7.809,21.659
			c3.752-2.781,7.061-5.987,10.99-7.94c4.174-2.073,8.802-1.521,12.841,1.237c5.972,4.077,8.426,12.429,5.665,19.093
			c-2.303,5.56-7.068,8.234-13.004,6.901c0.654-1.51,1.828-2.958,1.771-4.358c-0.11-2.746-0.069-6.31-1.693-7.915
			c-1.213-1.199-5.463-0.709-7.453,0.51c-6.998,4.293-6.327,13.488,0.785,17.415c1.083,0.598,1.97,2.252,2.193,3.548
			c0.362,2.089,0.098,4.287,0.098,6.494c18.271,3.957,32.289,13.636,42.07,29.195c3.626,5.768,6.655,11.907,10.102,17.792
			c4.03,6.883,7.88,13.912,12.439,20.435c4.051,5.795,9.812,9.777,15.426,11.774c2.096-2.228,3.805-3.691,4.989-5.499
			c0.405-0.619-0.175-2.731-0.862-3.09c-9.057-4.718-12.398-12.438-10.977-22.044c1.435-9.685,6.932-16.376,16.777-18.909
			c0.094-0.024,0.135-0.254,0.405-0.804c-5.13-2.026-7.029-5.537-4.443-10.875c0.29-0.599-0.356-1.903-0.91-2.615
			c-2.776-3.573-1.477-6.731,1.27-9.281c2.954-2.743,6.479-3.927,10.304-1.403c-2.623,11.542-2.035,12.386,9.885,14.729
			c2.61,0.513,5.422,0.683,7.734,1.831c2.408,1.194,5.725,3.083,6.172,5.192c1.02,4.81,4.222,7.217,7.464,10.085
			c7.373,6.522,10.956,14.919,11.278,24.716c0.093,2.794,0.015,5.594,0.015,8.674c3.384,0,6.467,0,9.913,0
			c0.181-1.78,0.357-3.528,0.555-5.477c4.012-0.546,8.228-0.693,9.539-5.224c-2.384-2.58-5.047-4.693-6.569-7.438
			c-0.751-1.354,0.245-4.042,1.071-5.84c2.531-5.512,5.303-10.918,8.123-16.291c0.674-1.283,1.902-2.273,2.877-3.398
			c0.946,1.164,2.109,2.213,2.802,3.513c2.851,5.353,5.353,10.901,8.398,16.137c1.793,3.082,1.997,5.437-0.745,7.921
			c-1.772,1.604-3.324,3.451-5.129,5.352c1.545,4.555,5.597,4.859,9.786,5.121c0.163,1.941,0.31,3.703,0.493,5.902
			c4.181,0,8.166,0.222,12.1-0.134c1.191-0.108,2.748-1.599,3.27-2.826c5.178-12.178,13.979-20.019,26.889-23.211
			c2.74-0.678,5.441-1.553,8.099-2.508c3.784-1.359,6.399-3.844,5.86-8.171c-0.516-4.14-3.359-5.873-7.377-5.96
			c-0.451-0.01-0.895-0.371-2.436-1.054c2.127-1.531,3.573-3.113,5.357-3.754c5.557-1.998,13.946,3.339,14.994,9.204
			c0.183,1.025,0.586,2.211,1.293,2.912c5.25,5.197,5.533,8.266,0.786,14.412c12.65,7.285,16.381,18.479,13.373,32.777
			c8.973-1.25,16.88,0.458,22.376,7.82c5.414,7.253,5.67,15.059,0.383,23.272c4.959-0.043,9.22,1.913,12.289-3.517
			c1.705-3.017,5.939-3.134,8.289-0.344c5.256,6.241,11.148,11.388,18.867,14.266c0.414,0.154,0.769,0.658,0.988,1.083
			c0.217,0.418,0.229,0.944,0.482,2.147c-3.336,0.153-6.518,0.299-10.054,0.461c-0.956,8.637-5.148,14.103-14.769,14.097
			c0,3.984,0,7.589,0,11.57c-3.509,0.213-6.57,0.399-10.065,0.611c0,5.173,0,10.111,0,15.545c-7.851,0-15.269,0-23.052,0
			c0,4.888,0,9.277,0,14.222c9.771,0.193,17.434,4.562,22.705,12.844c6.771,10.637,7.938,22.483,6.773,34.633
			c-1.259,13.143-5.397,25.096-16.218,33.664c-2.554,2.021-5.51,3.534-8.913,5.678c-0.154-1.949-0.118-3.029-0.342-4.052
			c-0.856-3.905-4.908-5.604-7.424-2.614c-2.568,3.052-4.432,6.953-5.684,10.783c-1.221,3.739-1.689,7.851-1.77,11.813
			c-0.224,11.148-0.078,22.304-0.078,33.855c1.256,0.255,2.797,0.568,3.434,0.698c1.404,1.993,2.114,4.191,3.449,4.681
			c4.687,1.718,8.121,4.303,7.778,9.645c-0.359,5.588-4.501,7.717-9.614,8.796c-0.16,1.299-0.32,2.594-0.51,4.13
			c-1.379,0.203-2.822,0.415-4.617,0.679c0,7.355,0,14.769,0,22.533c1.39,0.192,2.805,0.389,4.551,0.63
			c0.188,1.37,0.38,2.78,0.566,4.148c1.439,0.491,2.706,0.853,3.916,1.351c3.559,1.469,5.679,4.111,5.754,7.998
			c0.08,4.146-2.33,6.646-5.875,8.494c-1.886,0.984-3.427,2.628-5.123,3.975c0.221,0.451,0.443,0.904,0.664,1.355
			c-1.432,0.147-2.863,0.294-5.684,0.584c1.033,15.553,1.99,30.935,3.157,46.3c0.157,2.075,1.136,4.2,2.157,6.07
			c1.582,2.901,3.441,6.631,7.324,5.334c2.088-0.697,3.312-3.982,5.369-6.681c8.986,3.791,15.826,11.243,19.713,21.191
			c4.775,12.221,5.887,24.988,2.889,37.801c-3.509,14.991-11.42,25.814-28.449,26.895c0,4.667,0,9.079,0,14.06
			c7.67,0,15.081,0,23.004,0c0,5.478,0,10.399,0,15.765c3.417,0.152,6.341,0.283,9.861,0.44c0,3.707,0,7.278,0,10.632
			c11.914,3.994,11.914,3.994,15.401,14.984c2.938,0,6.036,0,9.134,0c0.295,0.443,0.59,0.887,0.885,1.33
			c-1.175,1.137-2.154,2.771-3.559,3.323c-6.407,2.519-11.417,6.657-15.629,12.024c-2.878,3.666-7.828,4.397-9.747,0.959
			c-3.045-5.453-7.311-3.493-11.573-3.563c6.622,20.351-3.426,33.902-23.36,31.002c2.871,13.913-0.346,25.467-13.283,32.769
			c4.58,6.509,4.333,9.174-1.107,14.676c-0.344,0.348-1.03,0.78-0.972,1.041c1.37,6.06-4.633,6.895-7.284,9.96
			c-2.827,3.269-9.341,1.494-12.224-2.768c0.179-0.245,0.347-0.691,0.54-0.702c4.418-0.261,8.071-1.792,8.359-6.754
			c0.281-4.842-3.254-6.964-7.312-8.242c-3.015-0.949-6.089-1.703-9.118-2.608c-11.043-3.301-19.005-10.324-23.539-20.785
			c-1.608-3.711-3.401-5.18-7.316-4.73c-2.777,0.317-5.621,0.062-8.762,0.062c-0.287,1.994-0.536,3.723-0.658,4.574
			c-3.787,1.863-7.084,3.484-10.771,5.297c3.242,3.477,5.885,5.562,7.429,8.272c0.8,1.403,0.113,4.129-0.701,5.887
			c-2.546,5.495-5.428,10.837-8.285,16.183c-0.701,1.312-1.805,2.408-2.723,3.604c-1.055-1.231-2.365-2.326-3.12-3.721
			c-2.807-5.186-5.226-10.589-8.197-15.672c-1.881-3.219-2.236-5.672,0.876-8.258c1.684-1.398,2.951-3.298,4.742-5.356
			c-1.096-4.447-5.325-4.567-9.396-5.167c-0.215-1.67-0.424-3.29-0.678-5.271c-3.106,0-6.17,0-9.607,0
			c-0.217,4.391-0.069,8.871-0.731,13.229c-1.384,9.11-5.959,16.45-13.244,22.171c-1.606,1.262-3.548,3.033-3.866,4.83
			c-1.07,6.048-5.206,8.118-10.384,9.238c-3.575,0.773-7.247,1.216-10.729,2.282c-5.301,1.623-6.516,4.343-4.795,9.507
			c1.449,4.348,0.338,5.642-4.269,4.966c-6.201-0.91-9.079-6.496-6.272-12c0.465-0.91,0.75-2.147,0.554-3.121
			c-1.31-6.51-1.171-6.925,5.147-10.557c-1.539-0.548-2.701-0.902-3.818-1.368c-8.506-3.553-13.043-10.174-13.949-19.122
			c-0.875-8.651,2.192-15.683,9.948-20.229c2.445-1.433,4.847-2.544,0.23-4.574c-1.072-0.472-1.243-2.993-2.052-5.172
			c-5.893,2.049-11.326,5.426-15.008,10.512c-5.246,7.244-9.668,15.093-14.283,22.779c-2.74,4.562-5.089,9.357-7.76,13.964
			c-9.864,17.019-24.21,28.038-43.965,32.368c0,3.024,0,6.126,0,9.04c-9.325,4.184-10.979,13.16-3.453,18.281
			c1.948,1.325,5.674,1.913,7.622,0.932c3.054-1.54,3.381-5.083,1.798-8.357c-0.573-1.185-1.223-2.333-1.836-3.492
			c4.08-2.318,8.533-0.828,11.686,3.785c4.406,6.446,2.717,16.008-3.722,21.07c-5.718,4.495-15.326,3.32-20.33-2.541
			c-1.146-1.343-2.111-2.839-3.596-4.07c-0.219,8.157,0.048,16.05,7.158,21.909c0.829,0.684,1.339,3.271,0.784,3.89
			c-8.137,9.079-9.181,20.389-10.291,31.685c-0.494,5.033-0.815,10.083-1.763,15.199c-2.648-16.803-0.678-34.797-13.829-48.963
			c9.187-5.698,9.845-14.617,10.213-25.026c-6.799,9.609-14.48,14.474-24.698,7.636c-6.104-4.085-7.737-12.911-4.469-19.328
			c2.553-5.014,6.993-7.203,12.633-5.87c-0.736,1.668-2.05,3.276-1.999,4.84c0.085,2.596,0.283,5.985,1.887,7.477
			c1.246,1.158,5.075,0.651,7.106-0.387c3.842-1.962,5.326-5.781,5.072-10.113c-0.23-3.931-1.816-5.65-7.787-8.491
			c0-2.808,0-5.777,0-8.553c-5.147-1.873-10.075-3.315-14.702-5.418c-12.522-5.688-22.09-14.761-28.9-26.658
			c-4.959-8.663-9.147-17.812-14.622-26.122c-4.233-6.426-9.738-12.069-15.074-17.684c-1.916-2.017-4.988-2.933-6.977-4.042
			c-1.868,2.574-3.29,4.534-4.761,6.562c3.268,4.057,7.843,8.316,10.604,13.535c3.187,6.026,1.854,12.655-1.369,18.698
			c-3.145,5.896-7.958,9.661-15.988,11.194c6.468,2.645,8.723,6.105,5.773,11.617c-0.283,0.529,0.475,1.838,1.039,2.559
			c2.269,2.902,1.915,6.143-0.51,8.085c-2.374,1.902-5.78,2.554-8.819,3.47c-0.152,0.046-1.858-2.782-1.585-3.986
			c1.602-7.062,0.735-8.899-6.198-10.781c-2.882-0.781-5.864-1.189-8.795-1.79c-5.363-1.097-9.858-3.055-10.635-9.469
			c-0.155-1.278-1.347-2.742-2.471-3.544c-11.707-8.347-16.052-19.929-15.227-33.879c0.047-0.792-0.124-1.596-0.218-2.673
			c-3.28,0-6.347,0-9.609,0c-0.182,1.841-0.341,3.455-0.418,4.238c-3.75,1.897-7.045,3.564-10.687,5.406
			c3.223,3.424,5.973,5.488,7.431,8.237c0.792,1.493-0.235,4.322-1.102,6.251c-2.415,5.374-5.118,10.621-7.836,15.851
			c-0.68,1.309-1.85,2.363-2.794,3.535c-1.034-1.237-2.314-2.342-3.059-3.733c-2.791-5.213-5.113-10.7-8.193-15.728
			c-2.007-3.276-2.333-5.575,0.783-8.171c1.691-1.408,2.94-3.348,4.7-5.412c-1.072-4.53-5.334-4.55-9.405-5.072
			c-0.229-1.701-0.447-3.317-0.765-5.677c-4.056,0-8.155-0.184-12.218,0.124c-1.058,0.08-2.451,1.501-2.927,2.628
			c-5.39,12.767-14.879,20.559-28.263,23.779c-1.615,0.389-3.221,0.826-4.808,1.317c-5.875,1.818-8.322,4.515-7.85,8.787
			c0.567,5.13,4.38,6.114,8.649,6.348c-1.757,4.82-8.678,7.137-11.903,3.57c-2.707-2.994-8.728-3.815-7.407-9.899
			c0.06-0.273-0.615-0.709-0.951-1.065c-5.599-5.952-5.802-7.995-1.202-14.753c-12.664-7.286-16.302-18.475-13.211-32.656
			c-8.987,1.334-16.858-0.421-22.405-7.763c-5.497-7.275-5.368-15.094-0.49-23.332c-4.763,0.016-9.033-2.016-11.99,3.481
			c-1.699,3.159-6.792,3.075-9.107-0.083c-5.133-7-12.102-11.209-19.793-14.576c0-1,0-2,0-3c2.491,0.084,5.01,0.414,7.461,0.143
			c1.145-0.127,2.967-1.299,3.106-2.206c1.243-8.141,6.291-11.712,14.518-12.005c0-3.938,0-7.531,0-11.393
			c3.391-0.195,6.319-0.363,9.93-0.571c0-5.251,0-10.297,0-15.774c8.134,0,15.574,0,23.315,0c0-4.887,0-9.314,0-14.135
			c-13.463-0.199-21.678-7.725-26.321-19.465c-1.809-4.573-2.989-9.596-3.368-14.498c-1.225-15.846,0.706-31.089,12.158-43.328
			c3.458-3.697,8.028-6.354,11.208-8.807c2.378,3.193,3.995,6.965,5.395,6.886c2.426-0.136,5.105-2.3,6.942-4.292
			c1.469-1.592,2.471-4.154,2.607-6.352c0.946-15.24,1.616-30.497,2.338-45.75c0.02-0.416-0.365-0.852-0.553-1.26
			c-1.558-0.208-2.992-0.399-4.405-0.588c-0.209-1.562-0.381-2.849-0.541-4.041c-6.717-2.177-9.644-5.051-9.492-9.551
			c0.201-5.92,4.373-8.115,9.505-9.415c0.192-1.461,0.378-2.868,0.555-4.209c1.766-0.257,3.179-0.461,4.549-0.659
			c0-7.761,0-15.174,0-22.522c-1.797-0.262-3.239-0.473-4.681-0.683c0.291-0.442,0.582-0.885,0.873-1.328
			c-1.462-1.207-2.75-2.805-4.418-3.551c-6.318-2.824-8.632-9.591-4.247-14.125c2.639-2.729,6.065-4.697,9.137-7.007
			c-0.267-0.403-0.534-0.806-0.801-1.208c1.436-0.208,2.872-0.415,3.626-0.523c0-13.285,0.322-26.242-0.171-39.168
			c-0.178-4.67-1.773-9.518-3.774-13.792c-1.038-2.218-4.367-4.579-6.67-4.588c-1.707-0.007-3.428,3.674-5.869,6.576
			c-2.35-1.643-6.117-3.733-9.227-6.549c-10.481-9.492-13.631-22.146-14.377-35.601c-0.493-8.893,0.486-17.66,4.292-25.86
			c5.078-10.942,13.364-17.554,25.757-17.937c0-4.852,0-9.124,0-13.952c-7.842,0-15.409,0-23.584,0c0-5.605,0-10.665,0-15.774
			c-3.548-0.166-6.475-0.303-9.805-0.458c0-4.013,0-7.619,0-11.379c-6.231-0.741-12.13-2.262-13.331-8.863
			c-0.977-5.366-3.627-6.378-8.166-5.708c-1.146,0.169-2.315,0.186-3.473,0.272C0,233.296,0,232.296,0,231.296z M155.034,249.647
			c0,145.173,0,289.578,0,434.282c124.839,0,249.384,0,374.614,0c0-2.366,0-4.488,0-6.609c0-140.312,0-280.623-0.001-420.934
			c0-6.731-0.007-6.738-6.747-6.738c-120.481-0.001-240.962-0.001-361.444-0.001C159.484,249.647,157.512,249.647,155.034,249.647z
			 M136.654,311.567c-8.544,10.124-16.225,19.224-24.184,28.655c-8.161-9.312-15.976-18.228-24.243-27.661
			c0,106.898,0,212.914,0,319.788c8.368-9.53,16.185-18.433,24.274-27.646c8.123,9.639,15.773,18.717,24.153,28.662
			C136.654,525.761,136.654,419.416,136.654,311.567z M572.908,340.203c-8.306-9.468-16.233-18.505-24.604-28.046
			c0,107.174,0,213.59,0,320.58c8.406-9.586,16.365-18.663,24.592-28.045c7.969,9.433,15.486,18.331,23.762,28.127
			c0-107.429,0-213.427,0-320.745C588.449,321.795,581,330.62,572.908,340.203z M342.434,213.933
			c4.31-5.231,9.623-7.202,15.658-7.672c1.146-0.089,2.283-0.437,3.399-0.755c7.07-2.014,9.173-5.735,7.032-12.672
			c-0.881-2.851-1.943-5.654-3.071-8.419c-3.495-8.565-3.191-16.953,1.57-24.886c1.944-3.24,0.835-4.644-1.961-6.157
			c-10.298-5.575-21.259-6.02-32.495-4.385c-6.119,0.891-11.754,2.931-16.745,7.305c8.016,11.204,6.369,22.292,1.438,33.839
			c-4.215,9.872-1.049,14.83,9.574,16.111C332.841,206.967,338.146,208.757,342.434,213.933z M368.816,777.62
			c-6.97-9.973-7.261-20.427-2.089-31.205c0.501-1.044,0.84-2.168,1.226-3.266c3.229-9.209,0.835-13.449-8.889-15.074
			c-6.304-1.054-12.413-2.26-15.426-6.438c-5.839,2.194-10.788,4.139-15.802,5.899c-2.182,0.767-4.586,0.925-6.733,1.761
			c-4.471,1.739-6.636,5.035-5.264,9.861c1.132,3.984,2.608,7.874,4.013,11.776c2.874,7.984,2.217,15.674-1.773,23.124
			c-0.682,1.273-1.312,2.575-1.907,3.746C325.618,788.291,358.758,788.304,368.816,777.62z M276.223,186.348
			c-7.195,8.5-15.232,15.746-26.053,18.667c-5.465,1.476-5.269,6.918-8.236,10.083c-0.543,0.579,0.437,3.295,1.41,4.425
			c1.585,1.842,3.516,3.892,5.707,4.606c5.11,1.667,10.414,3.293,15.727,3.655c8.667,0.59,17.405,0.159,26.113,0.159
			c-5.936-5.209-9.349-11.412-10.243-18.413c-0.863-6.763-0.187-13.723-0.187-20.895
			C279.253,187.984,277.841,187.222,276.223,186.348z M408.473,186.58c-4.39,0.861-5.354,3.178-4.062,6.943
			c0.527,1.536,0.568,3.281,0.605,4.936c0.249,11.146-2.418,21.208-12.345,29.432c11.947,0,22.609,0.568,33.158-0.268
			c4.494-0.356,9.053-3.196,12.998-5.794c2.008-1.323,4.138-4.916,3.701-6.939c-0.698-3.226-2.914-7.832-5.5-8.648
			C425.299,202.536,416.005,195.752,408.473,186.58z M46.341,573.349c-6.047,9.393-7.868,19.863-7.009,30.841
			c0.554,7.081,3.67,13.118,9.433,17.489c4.776,3.621,10.07,4.273,15.493,1.649c4.956-2.398,6.555-7.347,4.593-10.317
			c-1.875,1.931-3.546,4.947-6.028,5.94c-5.325,2.132-11.722-1.355-13.445-6.455c-1.789-5.296,1.199-10.808,7.004-13.085
			c5.584-2.192,10.669-0.76,15.808,2.507c0-11.437,0-22.328,0-33.662C64.234,576.054,60.217,576.813,46.341,573.349z
			 M72.371,328.377c-6.322,4.359-12.302,5.188-18.39,1.608c-4.208-2.475-5.857-6.442-4.755-11.102
			c1.057-4.465,4.266-6.979,8.866-7.583c5.642-0.741,9.546,1.121,10.045,8.844c2.543-7.094-0.167-12.244-5.991-13.813
			c-6.879-1.854-12.407,0.604-16.861,5.851c-8.934,10.522-7.995,34.476,1.131,44.356c4.959-0.434,9.524-1.704,13.731-0.958
			c4.242,0.753,8.129,3.508,12.223,5.409C72.371,350.771,72.371,340.041,72.371,328.377z M406.488,747.046
			c8.541-6.063,15.678-11.347,23.053-16.275c3.597-2.402,8.452-1.781,10.607-7.704c1.96-5.387,3.543-8.232-1.626-11.126
			c-4.887-2.734-10.555-4.89-16.075-5.484c-8.374-0.903-16.918-0.252-25.389-0.218c-1.164,0.005-2.326,0.259-3.803,0.435
			c10.809,9.399,13.121,21.037,11.09,33.824C403.744,744.283,403.91,746.62,406.488,747.046z M616.819,319.69
			c0.22-5.339,2.064-8.185,6.854-8.463c6.096-0.353,10.859,2.832,11.988,8.199c1.076,5.116-2.216,10.779-8.234,11.728
			c-4.887,0.771-10.082-0.414-15.078-0.727c0,9.617,0,20.342,0,32.016c7.604-8.562,16.229-8.643,26.637-4.65
			c1.971-5.95,4.507-11.541,5.611-17.401c1.911-10.153,1.982-20.29-5.64-28.717c-4.488-4.962-9.921-7.205-16.574-5.303
			C616.318,308.105,613.671,313.774,616.819,319.69z M291.277,706.437c-1.739-0.083-3.155-0.209-4.571-0.207
			c-9.651,0.006-19.399-0.758-28.914,0.395c-4.854,0.588-9.588,4.227-13.756,7.322c-1.503,1.115-2.453,5.58-1.472,6.941
			c2.791,3.872,4.809,9.039,11.003,9.424c2.146,0.133,4.432,1.568,6.236,2.953c5.762,4.421,11.328,9.098,17.401,14.026
			c0.944-0.59,2.42-1.513,3.76-2.35C277.326,728.641,280.285,717.565,291.277,706.437z M616.715,610.771
			c-3.05,6.496-0.093,11.954,6.338,13.598c9.615,2.458,20.084-5.761,21.887-17.574c1.621-10.624,0.099-20.884-4.873-30.513
			c-0.578-1.118-1.44-2.09-2.142-3.087c-9.585,3.565-18.208,3.522-25.413-5.104c0,11.594,0,22.51,0,33.641
			c8.464-4.295,13.934-4.376,19.123-0.502c3.713,2.772,5.109,7.347,3.511,11.508c-1.769,4.606-6.111,6.984-11.668,6.616
			C618.618,619.032,617.078,615.903,616.715,610.771z M199.359,227.542c8.048,1.675,14.848-1.001,20.806-5.39
			c2.146-1.581,4.6-6.239,3.773-7.644c-1.79-3.039-2.353-7.564-7.248-8.543c-8.358-1.671-16.376-4.368-22.53-10.815
			c-0.516-0.541-1.407-1.008-2.131-1.02c-5.405-0.085-10.812-0.046-16.232-0.046c-0.358,2.438-0.612,4.167-0.876,5.964
			c-2.79,0.143-5.198,0.267-7.486,0.384c0,3.095,0,5.6,0,8.213c9.891-3.711,14.61-0.379,14.584,9.903
			c-0.001,0.664-0.281,1.441-0.026,1.971c0.738,1.536,1.373,3.532,2.659,4.246c0.822,0.456,3.364-0.678,3.984-1.759
			c0.748-1.304,0.615-3.39,0.223-4.979c-0.3-1.214-1.597-2.182-2.555-3.392C194.776,212.001,200.278,217.547,199.359,227.542z
			 M186.039,719.576c1.227-1.494,2.525-2.386,2.727-3.478c0.324-1.762,0.365-3.854-0.337-5.418
			c-0.403-0.898-3.015-1.811-3.732-1.342c-1.275,0.834-2.281,2.618-2.64,4.18c-0.474,2.062,0.038,4.335-0.321,6.441
			c-0.86,5.046-5.025,8.053-9.664,7.094c-1.571-0.326-3.062-1.041-4.634-1.595c0,2.835,0,5.403,0,8.157
			c2.758,0.246,5.171,0.463,7.455,0.668c0.408,2.201,0.731,3.944,1.101,5.939c5.09,0,9.908,0.124,14.713-0.082
			c1.31-0.055,2.617-1.028,3.856-1.708c5.336-2.929,10.497-6.235,16.016-8.758c4.16-1.901,8.742-1.583,11.786-6.869
			c2.408-4.18,2.377-6.793-0.446-9.403c-6.347-5.869-13.91-8.391-22.658-6.764C200.443,716.194,195.419,721.347,186.039,719.576z
			 M485.045,706.575c-8.729-1.487-16.037,1.112-22.293,6.598c-2.557,2.241-4.305,5.262-1.38,8.73
			c1.257,1.492,2.375,3.102,4.295,5.631c8.471,1.791,18.156,4.232,25.349,12.01c0.385,0.416,1.186,0.62,1.795,0.625
			c5.281,0.049,10.563,0.028,15.885,0.028c0.295-2.332,0.518-4.093,0.754-5.962c2.635-0.229,5.045-0.439,7.609-0.662
			c0-2.889,0-5.344,0-7.855c-10.594,3.039-14.784-0.168-14.625-10.99c0.006-0.33,0.218-0.732,0.093-0.98
			c-0.767-1.527-1.302-3.414-2.54-4.363c-0.643-0.492-3.32,0.326-3.754,1.205c-0.767,1.556-0.875,3.67-0.576,5.435
			c0.205,1.218,1.561,2.242,2.538,3.532C489.3,721.471,484.825,716.999,485.045,706.575z M508.85,194.05
			c-5.479,0-10.616-0.104-15.742,0.081c-1.143,0.041-2.265,1.069-3.367,1.693c-4.742,2.685-9.352,5.641-14.246,8.012
			c-4.605,2.231-10.279,1.484-13.489,7.511c-1.825,3.425-2.296,5.495-0.312,8.327c4.095,5.842,16.148,9.607,23.223,7.336
			c0.047-10.152,5.766-15.555,12.997-12.161c-0.204,0.433-0.3,0.988-0.63,1.275c-2.235,1.954-3.589,4.266-1.502,6.898
			c0.85,1.07,2.745,1.311,4.164,1.929c0.789-2.134,2.234-4.261,2.256-6.403c0.102-9.859,4.958-13.374,14.791-10.05
			c0-2.66,0-5.233,0-8.1c-2.669-0.13-5.092-0.248-7.678-0.374C509.162,198.078,509.035,196.45,508.85,194.05z M573.684,647.458
			c-0.493-0.656-0.145-0.078,0.312,0.396c4.604,4.785,9.079,5.443,13.66,2.035c4.112-3.06,4.595-7.151,0.557-12.72
			c-4.757-6.559-10.082-12.706-15.682-19.679c-5.924,7.565-11.781,14.195-16.623,21.498c-3.901,5.883-0.765,12.314,6.133,12.658
			C565.467,651.817,569.027,649.236,573.684,647.458z M112.445,277.647c5.96-7.769,11.523-14.596,16.569-21.785
			c2.388-3.402,2.274-7.333-1.398-10.258c-3.629-2.891-7.537-3.433-11.486-0.652c-1.455,1.024-2.679,2.375-4.057,3.62
			c-0.537-0.396-0.962-0.631-1.29-0.964c-4.93-5.021-9.5-5.738-13.947-2.169c-4.028,3.233-4.309,7.385,0.033,13.227
			C101.515,264.916,106.734,270.739,112.445,277.647z M623.629,690.801c-0.578-1.005-0.812-1.667-1.252-2.134
			c-4.643-4.914-9.006-5.586-13.587-2.139c-4.074,3.065-4.628,7.254-0.67,12.745c4.723,6.552,10.066,12.656,15.716,19.668
			c5.904-7.494,11.768-14.11,16.641-21.39c3.815-5.697,1.285-10.881-5.148-12.736C630.225,683.343,627.195,686.387,623.629,690.801z
			 M572.758,667.563c-5.195,6.112-9.842,11.512-14.396,16.988c-1.048,1.26-1.881,2.732-2.632,4.201
			c-2.496,4.883-1.926,8.097,1.827,10.952c3.846,2.926,8.633,2.642,12.216-0.765c0.913-0.869,1.733-1.834,2.625-2.785
			c0.624,0.541,1.021,0.839,1.362,1.189c4.639,4.746,9.705,5.511,14.055,2.109c4.093-3.202,4.383-7.221,0.05-13.136
			C583.282,680.062,578.148,674.208,572.758,667.563z M111.899,646.232c0.735,0.681,1.105,1.001,1.45,1.346
			c5.182,5.19,9.353,5.856,13.973,2.228c4.192-3.293,4.41-7.438-0.119-13.592c-4.517-6.139-9.566-11.887-15.12-18.715
			c-5.923,7.645-11.917,14.523-16.882,22.077c-3.513,5.345-0.65,10.511,5.589,12.118
			C105.842,652.996,108.878,649.993,111.899,646.232z M60.994,690.274c-0.613-0.646-0.949-0.982-1.266-1.335
			c-4.613-5.132-8.831-5.925-13.458-2.526c-4.377,3.214-4.953,7.322-0.747,13.08c4.778,6.539,10.224,12.591,15.83,19.402
			c5.823-7.474,11.527-14,16.29-21.152c3.895-5.849,1.248-11.343-5.356-13.021C67.218,683.435,64.232,686.655,60.994,690.274z
			 M623.451,213.183c-5.977,7.838-11.509,14.686-16.548,21.878c-2.423,3.459-2.14,7.328,1.548,10.209
			c3.684,2.877,7.594,3.252,11.504,0.499c1.443-1.017,2.643-2.378,3.892-3.525c0.533,0.304,0.913,0.393,1.075,0.63
			c4.277,6.283,10.832,5.344,14.291,2.417c3.99-3.375,4.146-7.664-0.425-13.682C634.18,225.542,629.054,219.869,623.451,213.183z
			 M572.877,327.346c5.893-7.683,11.535-14.621,16.669-21.916c2.451-3.482,1.993-7.297-1.687-10.188
			c-3.553-2.79-7.305-3.09-11.086-0.651c-1.611,1.039-2.94,2.512-4.348,3.743c-0.507-0.342-0.824-0.481-1.041-0.713
			c-4.839-5.176-9.346-6.024-13.887-2.598c-4.322,3.262-4.654,7.503-0.142,13.551C562.008,314.808,567.255,320.598,572.877,327.346z
			 M61.136,242.008c1.016,1.071,1.66,1.839,2.395,2.509c4.081,3.72,8.598,4.064,12.615,0.993c3.909-2.989,4.659-6.786,1.101-11.848
			c-4.815-6.851-10.312-13.221-16.223-20.689c-6.184,8.108-11.893,15.197-17.116,22.627c-2.205,3.137-1.64,6.768,1.493,9.43
			c3.362,2.857,7.15,3.583,11.036,1.179C58.077,245.196,59.368,243.62,61.136,242.008z M572.846,277.665
			c6.01-7.837,11.534-14.652,16.592-21.796c2.618-3.7,2.109-7.606-1.778-10.54c-3.771-2.845-7.64-3.004-11.435-0.074
			c-1.375,1.062-2.57,2.359-4.023,3.711c-0.505-0.635-0.789-1.042-1.123-1.404c-4.55-4.943-8.936-5.712-13.494-2.375
			c-4.273,3.127-4.782,7.283-0.562,13.065C561.704,264.667,567.04,270.603,572.846,277.665z M111.909,298.412
			c-0.591-0.543-0.974-0.856-1.312-1.211c-4.571-4.804-9.124-5.527-13.578-2.148c-4.048,3.071-4.571,7.319-0.568,12.75
			c4.805,6.521,10.225,12.589,15.99,19.597c5.949-7.785,11.549-14.743,16.696-22.022c2.158-3.053,2.065-6.709-0.989-9.534
			c-3.23-2.988-7.01-3.896-10.99-1.717C115.32,295.131,113.844,296.798,111.909,298.412z M112.102,667.258
			c-5.993,7.661-11.904,14.251-16.662,21.589c-4.258,6.566-0.003,13.057,7.854,12.343c3.094-0.281,6.004-2.595,9.575-4.251
			c-0.286-0.25,0.21,0.146,0.662,0.586c5.03,4.891,9.671,5.5,14.046,1.831c3.925-3.292,4.083-7.33-0.294-13.261
			C122.748,679.952,117.715,674.178,112.102,667.258z M461.484,186.564c6.035-0.497,10.756-2.682,14.537-6.717
			c5.795-6.182,6.448-15.517,1.721-22.607c-5.084-7.626-14.18-10.714-22.286-7.565c-5.882,2.285-7.858,6.886-5.476,11.272
			c2.354-1.292,4.587-3.325,7.074-3.709c4.72-0.729,7.894,2.044,9.484,6.411c1.715,4.707,0.385,8.643-3.725,11.338
			c-1.92,1.259-3.961,2.336-5.946,3.495C462.237,179.319,460.742,183.407,461.484,186.564z M450.357,771.673
			c-2.752,7.498,0.629,12.389,8.365,13.602c10.75,1.685,20.602-5.758,22.093-16.689c1.447-10.607-6.996-19.905-18.44-20.963
			c-1.493,2.857-2.877,5.506-4.553,8.713c0.535,0.274,1.922,0.997,3.317,1.7c4.079,2.053,6.497,5.066,5.896,9.922
			c-0.512,4.138-2.396,7.218-6.501,8.582C456.088,778.018,452.752,776.541,450.357,771.673z M234.55,772.418
			c-5.652,5.858-11.494,6.044-15.217,0.483c-3.69-5.509-2.144-11.303,3.89-14.695c1.54-0.866,3.024-1.831,4.534-2.75
			c-6.31-0.295-3.782-5.306-5.201-8.544c-3.292,1.282-6.682,2.146-9.601,3.826c-8.592,4.947-11.514,15.447-7.062,24.247
			c4.472,8.838,14.607,12.808,23.66,9.266C234.97,782.132,236.778,777.851,234.55,772.418z M228.647,178.973
			c-3.208-1.922-5.909-2.917-7.688-4.787c-1.701-1.788-3.347-4.48-3.367-6.789c-0.022-2.561,1.333-5.549,3.02-7.575
			c1.287-1.545,4.165-2.817,6.088-2.534c2.881,0.425,5.545,2.32,8.257,3.569c1.513-4.74,0.201-8.3-4.303-10.569
			c-6.668-3.359-15.098-1.981-20.769,3.395c-5.793,5.492-7.634,13.862-4.624,21.024c2.852,6.784,10.33,11.608,17.797,11.32
			c0.142-1.749,0.286-3.528,0.422-5.213C224.965,180.285,226.262,179.823,228.647,178.973z M79.657,182.424
			c0.78-6.805,3.417-9.784,8.397-10.154c5.467-0.407,10.643,3.973,12.259,10.374c1.976,7.823-1.572,12.434-13.9,18.068
			c0.233,7.08,2.621,9.728,8.86,9.826c8.021,0.125,14.707-7.187,15.487-16.938c-9.158-4.297-9.435-9.443-0.875-16.225
			c-4.17-9.651-12.998-13.621-22.225-9.996C80.412,170.226,77.254,175.753,79.657,182.424z M574.814,756.206
			c3.252,9.399,12.12,13.772,21.19,10.743c7.674-2.562,11.312-8.145,9.353-14.353c-1.554,6.423-4.557,9.166-9.877,9.024
			c-5.111-0.136-10.369-5.209-11.324-10.928c-1.38-8.248,2.49-13.087,13.796-17.246c0.497-7.266-3.335-10.97-10.377-10.026
			c-6.476,0.867-13.674,8.836-13.695,15.309c-0.003,0.801,0.491,1.916,1.123,2.361C583.008,746.723,583.043,751.081,574.814,756.206
			z M79.539,752.472c-2.521,5.713,1.097,11.695,8.695,14.375c9.553,3.369,19.05-1.408,21.518-10.95
			c-3.65-1.451-6.828-3.945-5.592-8.104c0.895-3.01,3.658-5.464,6.486-9.425c-0.779-6.662-5.5-12.809-12.533-14.598
			c-7.383-1.879-12.261,2.447-11.354,10.069c9.565,2.453,13.159,5.858,13.936,13.202c0.702,6.635-4.577,13.909-10.744,14.804
			C84.703,762.606,80.694,758.997,79.539,752.472z M574.899,194.463c-0.69,4.631,1.438,9.124,5.476,12.699
			c3.502,3.099,7.583,4.081,12.062,3.065c3.656-0.83,5.509-3.217,5.823-7.08c0.327-4.023-2.766-3.361-4.927-4.044
			c-5.507-1.741-8.896-6.212-9.275-12.275c-0.361-5.808,2.988-11.552,8.025-13.755c4.657-2.038,10.027-0.012,12.137,4.635
			c0.523,1.152,0.849,2.394,1.545,4.403c0.896-8.497-3.725-14.071-12.095-15.682c-8.027-1.545-17.695,3.431-17.992,11.11
			c2.104,2.735,5.034,5.849,4.815,8.722C580.275,189.121,576.895,191.739,574.899,194.463z M153.008,725.122
			c-4.803,2.69-9.677,3.39-12.373-1.203c-2.096-3.572-2.212-8.306-3.231-12.619c-2.179,1.102-4.328,2.189-6.571,3.324
			c1.218,1.858,2.224,3.392,3.755,5.728c-11.209,0.188-14.983-9.644-22.557-13.7c-1.074,1.709-2.111,3.359-2.482,3.949
			c7.375,9.77,14.327,18.996,21.318,28.193c0.44,0.578,1.175,1.302,1.791,1.32c4.054,0.117,8.114,0.061,12.185,0.061
			c0.191-2.423,0.318-4.043,0.463-5.877c2.645-0.252,5.061-0.482,7.702-0.734C153.008,730.89,153.008,728.446,153.008,725.122z
			 M312.635,760.615c-0.619-2.374-1.069-4.583-1.774-6.707c-1.721-5.18-4.175-10.198-5.219-15.501
			c-1.88-9.555,3.031-16.207,12.478-18.144c2.925-0.599,5.9-1.025,8.763-1.841c2.971-0.846,5.08-2.626,5.067-5.281
			c-5.018,0-9.593,0.249-14.132-0.049c-10.99-0.724-18.754,4.666-20.575,15.58c-0.886,5.305-0.83,10.974-0.041,16.306
			C298.552,754.093,304.43,759.748,312.635,760.615z M351.107,221.186c6.623,0,11.834-0.289,16.999,0.069
			c7.327,0.508,12.514-2.606,16.276-8.561c5.877-9.304,5.115-25.571-2.077-33.894c-2.36-2.73-6.049-4.312-9.13-6.418
			c-0.479,0.472-0.957,0.945-1.436,1.417c0.705,2.312,1.317,4.658,2.135,6.929c1.463,4.062,3.441,7.979,4.508,12.135
			c3.036,11.828-2.2,19.468-14.248,21.391c-2.133,0.34-4.504,0.333-6.303,1.326C355.52,216.855,353.676,218.979,351.107,221.186z
			 M351.33,713.196c2.391,1.94,4.278,4.168,6.682,5.235c2.658,1.181,5.791,1.28,8.71,1.886c8.196,1.7,12.696,6.646,12.154,15.006
			c-0.323,4.985-2.307,9.887-3.742,14.768c-1.04,3.534-2.406,6.972-3.842,11.064c6.385-0.908,10.077-3.694,12.718-8.03
			c4.592-7.539,5.047-15.731,3.299-24.06c-2.469-11.769-9.371-16.679-21.247-15.914C361.684,713.433,357.273,713.196,351.33,713.196
			z M332.917,220.741c-2.193-1.857-3.994-4.102-6.333-5.165c-2.491-1.133-5.505-1.078-8.265-1.662
			c-9.367-1.982-14.389-8.407-12.816-17.58c0.884-5.159,3.217-10.065,4.855-15.1c0.821-2.524,1.547-5.079,2.509-8.256
			c-6.253,1.035-9.992,3.762-12.559,8.146c-4.742,8.1-5.034,16.811-2.776,25.581c2.794,10.853,10.437,15.464,21.671,14.114
			C323.209,220.336,327.322,220.741,332.917,220.741z M350.938,134.095c4.863,2.301,9.234,4.19,13.42,6.424
			c2.171,1.159,3.827,3.737,6.047,4.254c4.863,1.134,6.139,4.926,8.211,8.523c2.973,5.163-0.143,7.912-3.461,10.83
			c-0.158,0.139-0.021,0.612-0.021,1.142c7.632-0.672,13.973,1.925,19.208,7.532c0.824,0.883,2.549,0.924,3.858,1.355
			c0.284-0.513,0.567-1.026,0.851-1.54c-6.548-9.804-12.572-20.02-19.838-29.259c-4.416-5.615-10.437-10.169-16.35-14.327
			c-3.09-2.172-7.506-2.458-11.867-3.758c-0.125,2.837-0.246,4.303-0.239,5.769C350.763,132.345,350.909,133.648,350.938,134.095z
			 M351.031,808.888c27.193-5.707,34.688-29.448,48.596-48.457c-6.456-1.243-7.679,4.922-11.633,5.874
			c-4.328,1.043-8.605,2.294-12.777,3.42c5.631,6.9,6.061,7.182,1.602,14.001c-2.048,3.132-6.014,5.146-9.367,7.258
			c-5.071,3.194-10.368,6.032-15.569,9.022c-0.283-0.346-0.567-0.69-0.851-1.035C351.031,801.883,351.031,804.795,351.031,808.888z
			 M286.285,760.151c-0.203,0.508-0.405,1.017-0.608,1.525c6.542,9.802,12.55,20.024,19.822,29.251
			c4.423,5.612,10.488,10.129,16.419,14.273c3.077,2.15,7.467,2.422,11.435,3.593c1.131-8.913,1.054-8.714-5.704-11.322
			c-3.193-1.232-6.052-3.355-9.013-5.157c-1.693-1.03-3.163-2.884-4.949-3.221c-4.845-0.915-5.705-4.939-7.636-8.331
			c-2.734-4.803-0.207-7.687,3.24-10.435c0.198-0.157,0.183-0.581,0.265-0.882c-9.183-1.219-9.164-1.246-20.077-8.96
			C288.717,759.947,287.364,760.243,286.285,760.151z M333.663,125.892c-2.735,0.343-5.461,0.011-7.45,1.067
			c-4.938,2.624-10.652,4.955-14.062,9.059c-9.603,11.562-18.203,23.957-27.198,36.023c0.598,0.891,1.197,1.782,1.795,2.674
			c7.163-4.707,13.588-11.473,23.71-9.268c-6.532-7.764-7.02-8.609-2.627-15.334c1.955-2.994,5.812-4.861,9.027-6.89
			c5.225-3.298,10.63-6.308,15.959-9.439c0.282,0.365,0.563,0.73,0.845,1.096C333.663,132.124,333.663,129.367,333.663,125.892z
			 M122.033,665.114c4.816,5.981,9.37,11.637,14.585,18.112c0-7.764,0-14.134,0-20.204
			C131.981,663.688,127.612,664.314,122.033,665.114z M548.182,683.398c5.442-6.753,10.115-12.552,14.81-18.377
			c-5.48-0.72-10.136-1.33-14.81-1.943C548.182,669.251,548.182,675.647,548.182,683.398z M563.762,280.235
			c-4.883-5.672-9.951-11.562-15.637-18.169c0,7.441,0,13.699,0,19.505C553.275,281.131,558.272,280.704,563.762,280.235z
			 M136.679,263.335c-0.327-0.222-0.654-0.444-0.98-0.666c-4.411,5.608-8.822,11.216-13.392,17.025
			c5.488,0.847,9.815,1.515,14.372,2.219C136.679,275.785,136.679,269.56,136.679,263.335z M88.063,682.517
			c5.692-6.672,10.568-12.389,15.278-17.908c-5.286-0.399-10.225-0.772-15.278-1.154C88.063,669.218,88.063,675.175,88.063,682.517z
			 M596.569,682.772c0-7.596,0-13.705,0-19.5c-4.642,0.564-8.95,1.088-14.148,1.721
			C587.062,670.825,591.408,676.287,596.569,682.772z M88.199,262.599c0,7.102,0,13.242,0,18.818
			c5.122-0.382,10.005-0.747,15.177-1.132C98.533,274.64,93.652,268.953,88.199,262.599z M596.503,281.658c0-5.942,0-12.077,0-19.52
			c-5.151,6.539-9.487,12.045-13.946,17.706C587.818,280.528,592.184,281.096,596.503,281.658z M74.553,489.075
			c-3.049,0.307-5.267,2.197-5.578,5.862c-0.292,3.436,2.66,6.521,6.101,6.383c3.656-0.147,5.841-2.155,6.118-5.849
			C81.459,491.938,78.649,489.085,74.553,489.075z M74.029,446.525c4.219,0.043,7.231-2.793,6.925-6.221
			c-0.32-3.596-2.471-5.753-6.1-6.009c-3.34-0.235-6.463,2.94-6.221,6.329C68.892,444.259,70.944,446.323,74.029,446.525z
			 M529.585,228.2c0.419-0.499,0.838-0.997,1.257-1.496c-1.375-2.327-2.346-5.135-4.299-6.773c-0.939-0.789-4.383,0.017-5.503,1.214
			c-1.177,1.256-0.93,3.844-1.305,5.851C523.019,227.396,526.302,227.798,529.585,228.2z M166.497,227.646
			c-1.886-3.361-2.792-5.944-4.544-7.665c-0.801-0.787-4.017-0.527-4.818,0.399c-1.501,1.735-2.041,4.302-3.296,7.266
			C158.33,227.646,161.415,227.646,166.497,227.646z M518.188,706.393c1.671,3.245,2.472,5.868,4.169,7.626
			c0.807,0.837,4.099,0.719,4.898-0.182c1.625-1.83,2.322-4.484,3.703-7.444C526.395,706.393,523.284,706.393,518.188,706.393z
			 M153.676,706.476c1.497,3.082,2.248,5.744,3.917,7.568c0.762,0.832,4.151,0.697,4.912-0.207c1.553-1.847,2.132-4.512,3.333-7.361
			C161.323,706.476,158.217,706.476,153.676,706.476z M167.163,184.984c-3.295-2.215-5.293-4.603-6.956-4.388
			c-1.752,0.226-4.407,2.939-4.405,4.562c0.002,1.569,2.783,4.219,4.536,4.387C162.013,189.705,163.935,187.279,167.163,184.984z
			 M525.528,179.574c-0.683-0.003-1.366-0.006-2.05-0.008c-1.231,1.831-3.568,3.78-3.389,5.459c0.188,1.745,2.809,3.228,4.366,4.826
			c1.58-1.585,4.226-3.044,4.435-4.792C529.089,183.387,526.751,181.414,525.528,179.574z M231.48,202.013
			c0.684,0.017,1.367,0.034,2.05,0.051c1.231-1.827,3.553-3.759,3.39-5.451c-0.167-1.739-2.762-3.244-4.295-4.851
			c-1.599,1.571-4.268,3.005-4.49,4.75C227.924,198.178,230.263,200.167,231.48,202.013z M165.696,750.177
			c0.025-0.704,0.05-1.407,0.076-2.111c-1.78-1.275-3.657-3.667-5.314-3.523c-1.766,0.152-3.324,2.703-4.973,4.207
			c1.533,1.611,2.902,4.262,4.645,4.535C161.782,753.543,163.825,751.312,165.696,750.177z M342.235,93.263
			c-2.234,3.322-4.617,5.311-4.412,6.982c0.219,1.787,2.88,3.273,4.475,4.891c1.583-1.63,4.239-3.139,4.439-4.924
			C346.926,98.538,344.516,96.573,342.235,93.263z M457.404,738.103c-3.251-2.229-5.227-4.625-6.808-4.389
			c-1.754,0.263-4.411,2.976-4.354,4.537c0.061,1.67,2.691,4.311,4.455,4.537C452.273,742.99,454.198,740.48,457.404,738.103z
			 M231.536,743.037c0.688,0,1.375-0.001,2.063-0.001c1.207-1.833,3.515-3.795,3.319-5.463c-0.207-1.75-2.814-3.216-4.373-4.807
			c-1.574,1.6-4.207,3.073-4.416,4.834C227.934,739.255,230.298,741.213,231.536,743.037z M336.778,832.969
			c0.035,0.694,0.07,1.389,0.104,2.082c1.878,1.151,3.94,3.417,5.584,3.146c1.732-0.285,3.066-2.993,4.574-4.644
			c-1.656-1.484-3.232-4.017-4.992-4.149C340.392,829.278,338.542,831.68,336.778,832.969z M529.887,750.049
			c0.018-0.699,0.035-1.398,0.053-2.098c-1.795-1.238-3.705-3.583-5.354-3.411c-1.73,0.18-3.21,2.77-4.799,4.307
			c1.543,1.591,2.94,4.226,4.672,4.468C526.084,753.542,528.063,751.238,529.887,750.049z M456.01,196.694
			c-0.026-0.7-0.053-1.4-0.078-2.101c-1.844-1.159-3.876-3.44-5.48-3.171c-1.732,0.291-3.066,2.965-4.574,4.599
			c1.634,1.492,3.17,4.006,4.931,4.174C452.416,200.349,454.266,197.962,456.01,196.694z M30.409,230.504
			c-2.839-2.036-4.588-4.268-6.164-4.151c-1.663,0.123-3.16,2.485-4.73,3.869c1.532,1.646,2.849,4.206,4.667,4.631
			C25.506,235.165,27.491,232.661,30.409,230.504z M24.011,695.333c-2.069,2.795-4.482,4.676-4.219,6.039
			c0.353,1.822,2.78,3.244,4.317,4.838c1.483-1.629,3.854-3.107,4.161-4.934C28.502,699.897,26.093,698.076,24.011,695.333z
			 M659.99,235.816c0.676-0.006,1.352-0.013,2.028-0.02c1.11-1.869,3.16-3.803,3.037-5.587c-0.102-1.47-2.825-3.889-4.3-3.828
			c-1.572,0.065-4.264,2.559-4.255,3.978C656.513,232.186,658.726,233.998,659.99,235.816z M667.139,701.935
			c-2.635-2.18-4.372-4.689-5.782-4.518c-1.854,0.227-3.451,2.563-5.159,3.993c1.558,1.599,2.914,4.095,4.738,4.505
			C662.316,706.226,664.295,703.872,667.139,701.935z"/>
		<path style="fill-rule:evenodd;clip-rule:evenodd;fill:#FFFFFF;" d="M136.654,311.567c0,107.849,0,214.193,0,321.799
			c-8.38-9.945-16.031-19.023-24.153-28.662c-8.089,9.213-15.906,18.115-24.274,27.646c0-106.874,0-212.89,0-319.788
			c8.268,9.433,16.082,18.349,24.243,27.661C120.429,330.792,128.109,321.691,136.654,311.567z"/>
		<path style="fill-rule:evenodd;clip-rule:evenodd;fill:#FFFFFF;" d="M572.908,340.203c8.092-9.583,15.541-18.407,23.75-28.129
			c0,107.318,0,213.316,0,320.745c-8.275-9.796-15.793-18.694-23.762-28.127c-8.227,9.382-16.186,18.459-24.592,28.045
			c0-106.99,0-213.406,0-320.58C556.675,321.698,564.603,330.735,572.908,340.203z"/>
		<path style="fill-rule:evenodd;clip-rule:evenodd;fill:#FFFFFF;" d="M342.434,213.933c-4.288-5.175-9.593-6.966-15.6-7.69
			c-10.623-1.281-13.789-6.239-9.574-16.111c4.931-11.547,6.578-22.635-1.438-33.839c4.99-4.374,10.625-6.415,16.745-7.305
			c11.236-1.635,22.197-1.19,32.495,4.385c2.796,1.513,3.905,2.917,1.961,6.157c-4.762,7.933-5.065,16.321-1.57,24.886
			c1.128,2.765,2.19,5.568,3.071,8.419c2.141,6.937,0.038,10.658-7.032,12.672c-1.116,0.318-2.253,0.666-3.399,0.755
			C352.057,206.73,346.743,208.702,342.434,213.933z"/>
		<path style="fill-rule:evenodd;clip-rule:evenodd;fill:#FFFFFF;" d="M368.816,777.62c-10.059,10.684-43.198,10.671-52.644,0.186
			c0.594-1.171,1.225-2.473,1.907-3.746c3.991-7.45,4.647-15.14,1.773-23.124c-1.405-3.902-2.881-7.792-4.013-11.776
			c-1.372-4.826,0.793-8.122,5.264-9.861c2.147-0.836,4.551-0.994,6.733-1.761c5.014-1.761,9.963-3.705,15.802-5.899
			c3.013,4.178,9.122,5.384,15.426,6.438c9.724,1.625,12.117,5.865,8.889,15.074c-0.386,1.098-0.725,2.222-1.226,3.266
			C361.556,757.193,361.847,767.647,368.816,777.62z"/>
		<path style="fill-rule:evenodd;clip-rule:evenodd;fill:#FFFFFF;" d="M276.223,186.348c1.618,0.874,3.03,1.636,4.238,2.289
			c0,7.172-0.676,14.132,0.187,20.895c0.894,7,4.307,13.204,10.243,18.413c-8.708,0-17.445,0.431-26.113-0.159
			c-5.313-0.362-10.617-1.989-15.727-3.655c-2.191-0.714-4.122-2.764-5.707-4.606c-0.973-1.13-1.953-3.846-1.41-4.425
			c2.967-3.166,2.771-8.608,8.236-10.083C260.991,202.094,269.028,194.848,276.223,186.348z"/>
		<path style="fill-rule:evenodd;clip-rule:evenodd;fill:#FFFFFF;" d="M408.473,186.58c7.532,9.172,16.826,15.957,28.557,19.662
			c2.586,0.816,4.802,5.422,5.5,8.648c0.437,2.023-1.693,5.616-3.701,6.939c-3.945,2.598-8.504,5.438-12.998,5.794
			c-10.549,0.836-21.211,0.268-33.158,0.268c9.927-8.223,12.594-18.286,12.345-29.432c-0.037-1.655-0.078-3.4-0.605-4.936
			C403.119,189.758,404.083,187.441,408.473,186.58z"/>
		<path style="fill-rule:evenodd;clip-rule:evenodd;fill:#FFFFFF;" d="M46.341,573.349c13.875,3.465,17.893,2.705,25.848-5.093
			c0,11.334,0,22.226,0,33.662c-5.139-3.267-10.224-4.699-15.808-2.507c-5.805,2.277-8.793,7.789-7.004,13.085
			c1.723,5.1,8.12,8.587,13.445,6.455c2.482-0.993,4.153-4.01,6.028-5.94c1.962,2.971,0.363,7.919-4.593,10.317
			c-5.422,2.624-10.717,1.972-15.493-1.649c-5.763-4.371-8.879-10.408-9.433-17.489C38.474,593.212,40.294,582.741,46.341,573.349z"
			/>
		<path style="fill-rule:evenodd;clip-rule:evenodd;fill:#FFFFFF;" d="M72.371,328.377c0,11.664,0,22.394,0,32.612
			c-4.094-1.901-7.98-4.656-12.223-5.409c-4.207-0.746-8.771,0.524-13.731,0.958c-9.126-9.88-10.065-33.833-1.131-44.356
			c4.454-5.247,9.981-7.706,16.861-5.851c5.824,1.57,8.534,6.719,5.991,13.813c-0.5-7.723-4.403-9.585-10.045-8.844
			c-4.6,0.604-7.809,3.118-8.866,7.583c-1.103,4.66,0.547,8.627,4.755,11.102C60.068,333.564,66.049,332.736,72.371,328.377z"/>
		<path style="fill-rule:evenodd;clip-rule:evenodd;fill:#FFFFFF;" d="M406.488,747.046c-2.578-0.426-2.744-2.763-2.143-6.549
			c2.031-12.787-0.281-24.425-11.09-33.824c1.477-0.176,2.639-0.43,3.803-0.435c8.471-0.034,17.015-0.686,25.389,0.218
			c5.521,0.595,11.188,2.75,16.075,5.484c5.169,2.894,3.586,5.739,1.626,11.126c-2.155,5.923-7.011,5.302-10.607,7.704
			C422.166,735.699,415.029,740.982,406.488,747.046z"/>
		<path style="fill-rule:evenodd;clip-rule:evenodd;fill:#FFFFFF;" d="M616.819,319.69c-3.148-5.916-0.501-11.585,5.564-13.319
			c6.653-1.901,12.086,0.341,16.574,5.303c7.622,8.427,7.551,18.564,5.64,28.717c-1.104,5.86-3.641,11.451-5.611,17.401
			c-10.407-3.992-19.033-3.911-26.637,4.65c0-11.674,0-22.398,0-32.016c4.996,0.313,10.191,1.497,15.078,0.727
			c6.019-0.949,9.311-6.612,8.234-11.728c-1.129-5.367-5.893-8.552-11.988-8.199C618.884,311.505,617.039,314.352,616.819,319.69z"
			/>
		<path style="fill-rule:evenodd;clip-rule:evenodd;fill:#FFFFFF;" d="M291.277,706.437c-10.993,11.129-13.952,22.204-10.312,38.505
			c-1.339,0.837-2.816,1.76-3.76,2.35c-6.074-4.929-11.64-9.605-17.401-14.026c-1.805-1.385-4.091-2.82-6.236-2.953
			c-6.194-0.385-8.213-5.552-11.003-9.424c-0.981-1.361-0.031-5.826,1.472-6.941c4.168-3.096,8.902-6.734,13.756-7.322
			c9.515-1.152,19.263-0.389,28.914-0.395C288.122,706.228,289.538,706.354,291.277,706.437z"/>
		<path style="fill-rule:evenodd;clip-rule:evenodd;fill:#FFFFFF;" d="M616.715,610.771c0.363,5.132,1.903,8.261,6.763,8.582
			c5.557,0.368,9.899-2.01,11.668-6.616c1.599-4.161,0.202-8.735-3.511-11.508c-5.189-3.874-10.659-3.793-19.123,0.502
			c0-11.131,0-22.047,0-33.641c7.205,8.627,15.828,8.67,25.413,5.104c0.701,0.997,1.563,1.969,2.142,3.087
			c4.972,9.629,6.494,19.889,4.873,30.513c-1.803,11.813-12.271,20.032-21.887,17.574
			C616.622,622.726,613.665,617.268,616.715,610.771z"/>
		<path style="fill-rule:evenodd;clip-rule:evenodd;fill:#FFFFFF;" d="M199.359,227.542c0.919-9.995-4.583-15.541-13.054-12.907
			c0.958,1.21,2.255,2.178,2.555,3.392c0.392,1.589,0.524,3.675-0.223,4.979c-0.62,1.081-3.163,2.215-3.984,1.759
			c-1.286-0.714-1.921-2.71-2.659-4.246c-0.255-0.53,0.025-1.307,0.026-1.971c0.026-10.283-4.693-13.615-14.584-9.903
			c0-2.613,0-5.119,0-8.213c2.289-0.117,4.696-0.241,7.486-0.384c0.264-1.798,0.518-3.526,0.876-5.964
			c5.42,0,10.827-0.039,16.232,0.046c0.724,0.011,1.615,0.479,2.131,1.02c6.154,6.448,14.171,9.144,22.53,10.815
			c4.895,0.979,5.458,5.504,7.248,8.543c0.827,1.405-1.626,6.063-3.773,7.644C214.207,226.541,207.407,229.217,199.359,227.542z"/>
		<path style="fill-rule:evenodd;clip-rule:evenodd;fill:#FFFFFF;" d="M186.039,719.576c9.38,1.771,14.404-3.382,13.221-12.937
			c8.749-1.627,16.311,0.895,22.658,6.764c2.823,2.61,2.854,5.224,0.446,9.403c-3.044,5.286-7.626,4.968-11.786,6.869
			c-5.52,2.522-10.68,5.829-16.016,8.758c-1.239,0.68-2.546,1.653-3.856,1.708c-4.805,0.206-9.623,0.082-14.713,0.082
			c-0.37-1.995-0.692-3.738-1.101-5.939c-2.284-0.205-4.697-0.422-7.455-0.668c0-2.754,0-5.322,0-8.157
			c1.573,0.554,3.063,1.269,4.634,1.595c4.639,0.959,8.804-2.048,9.664-7.094c0.359-2.106-0.153-4.38,0.321-6.441
			c0.358-1.562,1.365-3.346,2.64-4.18c0.718-0.469,3.33,0.443,3.732,1.342c0.702,1.564,0.662,3.656,0.337,5.418
			C188.564,717.19,187.266,718.082,186.039,719.576z"/>
		<path style="fill-rule:evenodd;clip-rule:evenodd;fill:#FFFFFF;" d="M485.045,706.575c-0.22,10.424,4.255,14.896,13.149,12.98
			c-0.978-1.29-2.333-2.314-2.538-3.532c-0.299-1.765-0.19-3.879,0.576-5.435c0.434-0.879,3.111-1.697,3.754-1.205
			c1.238,0.949,1.773,2.836,2.54,4.363c0.125,0.248-0.087,0.65-0.093,0.98c-0.159,10.822,4.031,14.029,14.625,10.99
			c0,2.512,0,4.967,0,7.855c-2.564,0.223-4.975,0.434-7.609,0.662c-0.236,1.869-0.459,3.63-0.754,5.962
			c-5.321,0-10.604,0.021-15.885-0.028c-0.609-0.005-1.41-0.209-1.795-0.625c-7.192-7.777-16.878-10.219-25.349-12.01
			c-1.92-2.529-3.038-4.139-4.295-5.631c-2.925-3.469-1.177-6.489,1.38-8.73C469.008,707.688,476.315,705.088,485.045,706.575z"/>
		<path style="fill-rule:evenodd;clip-rule:evenodd;fill:#FFFFFF;" d="M508.85,194.05c0.186,2.399,0.312,4.027,0.465,5.975
			c2.586,0.126,5.009,0.244,7.678,0.374c0,2.867,0,5.44,0,8.1c-9.833-3.324-14.689,0.19-14.791,10.05
			c-0.021,2.142-1.467,4.269-2.256,6.403c-1.419-0.618-3.314-0.858-4.164-1.929c-2.087-2.632-0.733-4.944,1.502-6.898
			c0.33-0.288,0.426-0.842,0.63-1.275c-7.231-3.394-12.95,2.009-12.997,12.161c-7.074,2.271-19.128-1.495-23.223-7.336
			c-1.984-2.832-1.514-4.901,0.312-8.327c3.21-6.027,8.884-5.28,13.489-7.511c4.895-2.371,9.504-5.327,14.246-8.012
			c1.103-0.624,2.225-1.652,3.367-1.693C498.233,193.946,503.37,194.05,508.85,194.05z"/>
		<path style="fill-rule:evenodd;clip-rule:evenodd;fill:#FFFFFF;" d="M573.684,647.458c-4.656,1.778-8.217,4.359-11.643,4.189
			c-6.897-0.344-10.034-6.775-6.133-12.658c4.842-7.303,10.699-13.933,16.623-21.498c5.6,6.973,10.925,13.12,15.682,19.679
			c4.038,5.568,3.556,9.66-0.557,12.72c-4.581,3.408-9.057,2.75-13.66-2.035C573.539,647.38,573.19,646.802,573.684,647.458z"/>
		<path style="fill-rule:evenodd;clip-rule:evenodd;fill:#FFFFFF;" d="M112.445,277.647c-5.711-6.908-10.931-12.731-15.576-18.981
			c-4.341-5.842-4.061-9.994-0.033-13.227c4.447-3.569,9.017-2.852,13.947,2.169c0.327,0.333,0.753,0.568,1.29,0.964
			c1.378-1.245,2.602-2.596,4.057-3.62c3.949-2.781,7.857-2.239,11.486,0.652c3.672,2.925,3.786,6.856,1.398,10.258
			C123.968,263.052,118.405,269.878,112.445,277.647z"/>
		<path style="fill-rule:evenodd;clip-rule:evenodd;fill:#FFFFFF;" d="M623.629,690.801c3.566-4.414,6.596-7.458,11.699-5.985
			c6.434,1.855,8.964,7.039,5.148,12.736c-4.873,7.279-10.736,13.896-16.641,21.39c-5.649-7.012-10.993-13.116-15.716-19.668
			c-3.958-5.491-3.404-9.68,0.67-12.745c4.581-3.447,8.944-2.775,13.587,2.139C622.817,689.134,623.051,689.796,623.629,690.801z"/>
		<path style="fill-rule:evenodd;clip-rule:evenodd;fill:#FFFFFF;" d="M572.758,667.563c5.391,6.645,10.524,12.498,15.106,18.755
			c4.333,5.915,4.043,9.934-0.05,13.136c-4.35,3.401-9.416,2.637-14.055-2.109c-0.342-0.351-0.738-0.648-1.362-1.189
			c-0.892,0.951-1.712,1.916-2.625,2.785c-3.583,3.406-8.37,3.69-12.216,0.765c-3.753-2.855-4.323-6.069-1.827-10.952
			c0.751-1.469,1.584-2.941,2.632-4.201C562.916,679.075,567.562,673.676,572.758,667.563z"/>
		<path style="fill-rule:evenodd;clip-rule:evenodd;fill:#FFFFFF;" d="M111.899,646.232c-3.021,3.761-6.057,6.764-11.109,5.462
			c-6.239-1.607-9.102-6.773-5.589-12.118c4.965-7.554,10.959-14.433,16.882-22.077c5.554,6.828,10.603,12.576,15.12,18.715
			c4.528,6.154,4.311,10.299,0.119,13.592c-4.62,3.629-8.791,2.963-13.973-2.228C113.004,647.233,112.634,646.913,111.899,646.232z"
			/>
		<path style="fill-rule:evenodd;clip-rule:evenodd;fill:#FFFFFF;" d="M60.994,690.274c3.239-3.619,6.225-6.84,11.293-5.553
			c6.604,1.679,9.25,7.173,5.356,13.021c-4.763,7.152-10.466,13.679-16.29,21.152c-5.606-6.812-11.052-12.863-15.83-19.402
			c-4.207-5.758-3.631-9.866,0.747-13.08c4.627-3.398,8.844-2.605,13.458,2.526C60.045,689.292,60.38,689.629,60.994,690.274z"/>
		<path style="fill-rule:evenodd;clip-rule:evenodd;fill:#FFFFFF;" d="M623.451,213.183c5.603,6.686,10.729,12.359,15.337,18.427
			c4.57,6.018,4.415,10.307,0.425,13.682c-3.459,2.927-10.014,3.866-14.291-2.417c-0.162-0.238-0.542-0.327-1.075-0.63
			c-1.249,1.147-2.448,2.508-3.892,3.525c-3.91,2.753-7.82,2.378-11.504-0.499c-3.688-2.881-3.971-6.75-1.548-10.209
			C611.942,227.869,617.475,221.021,623.451,213.183z"/>
		<path style="fill-rule:evenodd;clip-rule:evenodd;fill:#FFFFFF;" d="M572.877,327.346c-5.622-6.748-10.869-12.538-15.521-18.772
			c-4.513-6.048-4.181-10.289,0.142-13.551c4.541-3.426,9.048-2.578,13.887,2.598c0.217,0.232,0.534,0.372,1.041,0.713
			c1.407-1.231,2.736-2.705,4.348-3.743c3.781-2.439,7.533-2.139,11.086,0.651c3.68,2.891,4.138,6.705,1.687,10.188
			C584.412,312.726,578.77,319.663,572.877,327.346z"/>
		<path style="fill-rule:evenodd;clip-rule:evenodd;fill:#FFFFFF;" d="M61.136,242.008c-1.769,1.611-3.06,3.188-4.699,4.202
			c-3.886,2.404-7.674,1.678-11.036-1.179c-3.133-2.662-3.698-6.292-1.493-9.43c5.223-7.431,10.932-14.52,17.116-22.627
			c5.91,7.468,11.408,13.838,16.223,20.689c3.558,5.062,2.808,8.858-1.101,11.848c-4.017,3.071-8.535,2.728-12.615-0.993
			C62.796,243.848,62.152,243.079,61.136,242.008z"/>
		<path style="fill-rule:evenodd;clip-rule:evenodd;fill:#FFFFFF;" d="M572.846,277.665c-5.806-7.062-11.142-12.998-15.823-19.412
			c-4.221-5.782-3.712-9.938,0.562-13.065c4.559-3.337,8.944-2.569,13.494,2.375c0.334,0.362,0.618,0.77,1.123,1.404
			c1.453-1.353,2.648-2.649,4.023-3.711c3.795-2.93,7.664-2.771,11.435,0.074c3.888,2.934,4.396,6.84,1.778,10.54
			C584.38,263.013,578.855,269.827,572.846,277.665z"/>
		<path style="fill-rule:evenodd;clip-rule:evenodd;fill:#FFFFFF;" d="M111.909,298.412c1.935-1.613,3.412-3.281,5.25-4.287
			c3.98-2.179,7.76-1.271,10.99,1.717c3.054,2.825,3.147,6.481,0.989,9.534c-5.146,7.279-10.747,14.238-16.696,22.022
			c-5.766-7.008-11.185-13.076-15.99-19.597c-4.002-5.431-3.479-9.679,0.568-12.75c4.454-3.379,9.007-2.656,13.578,2.148
			C110.935,297.555,111.317,297.868,111.909,298.412z"/>
		<path style="fill-rule:evenodd;clip-rule:evenodd;fill:#FFFFFF;" d="M112.102,667.258c5.613,6.92,10.646,12.694,15.181,18.837
			c4.378,5.931,4.219,9.969,0.294,13.261c-4.375,3.669-9.016,3.06-14.046-1.831c-0.452-0.44-0.948-0.836-0.662-0.586
			c-3.571,1.656-6.481,3.97-9.575,4.251c-7.857,0.714-12.112-5.776-7.854-12.343C100.198,681.509,106.109,674.919,112.102,667.258z"
			/>
		<path style="fill-rule:evenodd;clip-rule:evenodd;fill:#FFFFFF;" d="M461.484,186.564c-0.742-3.157,0.753-7.245-4.616-8.082
			c1.985-1.159,4.026-2.236,5.946-3.495c4.109-2.695,5.439-6.631,3.725-11.338c-1.591-4.367-4.765-7.14-9.484-6.411
			c-2.487,0.384-4.72,2.417-7.074,3.709c-2.383-4.386-0.406-8.988,5.476-11.272c8.106-3.148,17.202-0.061,22.286,7.565
			c4.728,7.09,4.074,16.425-1.721,22.607C472.24,183.882,467.52,186.067,461.484,186.564z"/>
		<path style="fill-rule:evenodd;clip-rule:evenodd;fill:#FFFFFF;" d="M450.357,771.673c2.395,4.868,5.73,6.345,10.178,4.866
			c4.104-1.364,5.989-4.444,6.501-8.582c0.601-4.855-1.817-7.869-5.896-9.922c-1.396-0.703-2.782-1.426-3.317-1.7
			c1.676-3.207,3.06-5.855,4.553-8.713c11.444,1.058,19.888,10.355,18.44,20.963c-1.491,10.932-11.343,18.374-22.093,16.689
			C450.986,784.062,447.605,779.171,450.357,771.673z"/>
		<path style="fill-rule:evenodd;clip-rule:evenodd;fill:#FFFFFF;" d="M234.55,772.418c2.228,5.433,0.42,9.714-4.998,11.833
			c-9.052,3.542-19.188-0.428-23.66-9.266c-4.452-8.8-1.53-19.3,7.062-24.247c2.919-1.681,6.308-2.544,9.601-3.826
			c1.419,3.238-1.109,8.249,5.201,8.544c-1.51,0.919-2.994,1.884-4.534,2.75c-6.034,3.393-7.58,9.187-3.89,14.695
			C223.057,778.462,228.898,778.276,234.55,772.418z"/>
		<path style="fill-rule:evenodd;clip-rule:evenodd;fill:#FFFFFF;" d="M228.647,178.973c-2.385,0.85-3.682,1.312-5.167,1.841
			c-0.137,1.686-0.281,3.464-0.422,5.213c-7.467,0.289-14.945-4.536-17.797-11.32c-3.01-7.162-1.169-15.532,4.624-21.024
			c5.67-5.376,14.1-6.754,20.769-3.395c4.504,2.269,5.816,5.829,4.303,10.569c-2.712-1.249-5.376-3.145-8.257-3.569
			c-1.923-0.283-4.801,0.989-6.088,2.534c-1.687,2.026-3.042,5.014-3.02,7.575c0.02,2.309,1.666,5,3.367,6.789
			C222.738,176.056,225.439,177.05,228.647,178.973z"/>
		<path style="fill-rule:evenodd;clip-rule:evenodd;fill:#FFFFFF;" d="M79.657,182.424c-2.403-6.671,0.755-12.198,8.004-15.045
			c9.227-3.625,18.054,0.345,22.225,9.996c-8.56,6.782-8.283,11.927,0.875,16.225c-0.78,9.752-7.466,17.064-15.487,16.938
			c-6.24-0.098-8.627-2.746-8.86-9.826c12.329-5.634,15.876-10.245,13.9-18.068c-1.616-6.401-6.792-10.781-12.259-10.374
			C83.074,172.64,80.437,175.619,79.657,182.424z"/>
		<path style="fill-rule:evenodd;clip-rule:evenodd;fill:#FFFFFF;" d="M574.814,756.206c8.229-5.125,8.193-9.483,0.188-15.115
			c-0.632-0.445-1.126-1.561-1.123-2.361c0.021-6.473,7.22-14.441,13.695-15.309c7.042-0.943,10.874,2.761,10.377,10.026
			c-11.306,4.159-15.176,8.998-13.796,17.246c0.955,5.719,6.213,10.792,11.324,10.928c5.32,0.142,8.323-2.602,9.877-9.024
			c1.959,6.208-1.679,11.791-9.353,14.353C586.935,769.979,578.066,765.605,574.814,756.206z"/>
		<path style="fill-rule:evenodd;clip-rule:evenodd;fill:#FFFFFF;" d="M79.539,752.472c1.155,6.525,5.165,10.135,10.412,9.374
			c6.167-0.895,11.446-8.169,10.744-14.804c-0.777-7.344-4.371-10.749-13.936-13.202c-0.906-7.622,3.971-11.948,11.354-10.069
			c7.033,1.789,11.753,7.936,12.533,14.598c-2.829,3.961-5.591,6.415-6.486,9.425c-1.236,4.158,1.941,6.652,5.592,8.104
			c-2.467,9.542-11.964,14.319-21.518,10.95C80.636,764.167,77.017,758.185,79.539,752.472z"/>
		<path style="fill-rule:evenodd;clip-rule:evenodd;fill:#FFFFFF;" d="M574.899,194.463c1.995-2.724,5.376-5.342,5.595-8.202
			c0.219-2.873-2.711-5.987-4.815-8.722c0.297-7.679,9.965-12.655,17.992-11.11c8.37,1.611,12.991,7.186,12.095,15.682
			c-0.696-2.009-1.021-3.251-1.545-4.403c-2.109-4.647-7.479-6.673-12.137-4.635c-5.037,2.203-8.387,7.947-8.025,13.755
			c0.379,6.063,3.769,10.535,9.275,12.275c2.161,0.683,5.254,0.021,4.927,4.044c-0.314,3.863-2.167,6.25-5.823,7.08
			c-4.479,1.016-8.561,0.034-12.062-3.065C576.337,203.587,574.209,199.094,574.899,194.463z"/>
		<path style="fill-rule:evenodd;clip-rule:evenodd;fill:#FFFFFF;" d="M153.008,725.122c0,3.324,0,5.768,0,8.441
			c-2.641,0.252-5.057,0.482-7.702,0.734c-0.145,1.834-0.272,3.454-0.463,5.877c-4.071,0-8.131,0.057-12.185-0.061
			c-0.616-0.019-1.351-0.742-1.791-1.32c-6.991-9.197-13.942-18.424-21.318-28.193c0.371-0.59,1.408-2.24,2.482-3.949
			c7.573,4.057,11.347,13.888,22.557,13.7c-1.531-2.336-2.537-3.869-3.755-5.728c2.243-1.135,4.393-2.223,6.571-3.324
			c1.019,4.313,1.135,9.047,3.231,12.619C143.332,728.512,148.206,727.812,153.008,725.122z"/>
		<path style="fill-rule:evenodd;clip-rule:evenodd;fill:#FFFFFF;" d="M312.635,760.615c-8.205-0.867-14.083-6.522-15.433-15.637
			c-0.79-5.332-0.845-11.001,0.041-16.306c1.821-10.914,9.585-16.304,20.575-15.58c4.54,0.298,9.115,0.049,14.132,0.049
			c0.013,2.655-2.097,4.436-5.067,5.281c-2.863,0.815-5.838,1.242-8.763,1.841c-9.446,1.937-14.358,8.589-12.478,18.144
			c1.043,5.303,3.498,10.321,5.219,15.501C311.566,756.032,312.016,758.241,312.635,760.615z"/>
		<path style="fill-rule:evenodd;clip-rule:evenodd;fill:#FFFFFF;" d="M351.107,221.186c2.568-2.207,4.412-4.33,6.725-5.605
			c1.799-0.993,4.17-0.986,6.303-1.326c12.048-1.923,17.284-9.562,14.248-21.391c-1.066-4.156-3.045-8.073-4.508-12.135
			c-0.817-2.271-1.43-4.617-2.135-6.929c0.479-0.472,0.957-0.945,1.436-1.417c3.081,2.106,6.77,3.688,9.13,6.418
			c7.192,8.323,7.954,24.59,2.077,33.894c-3.763,5.954-8.949,9.068-16.276,8.561C362.941,220.896,357.73,221.186,351.107,221.186z"
			/>
		<path style="fill-rule:evenodd;clip-rule:evenodd;fill:#FFFFFF;" d="M351.33,713.196c5.943,0,10.354,0.236,14.731-0.045
			c11.876-0.765,18.778,4.146,21.247,15.914c1.748,8.328,1.293,16.521-3.299,24.06c-2.641,4.336-6.333,7.122-12.718,8.03
			c1.436-4.093,2.802-7.53,3.842-11.064c1.436-4.881,3.419-9.782,3.742-14.768c0.542-8.359-3.958-13.306-12.154-15.006
			c-2.919-0.605-6.052-0.705-8.71-1.886C355.608,717.364,353.721,715.137,351.33,713.196z"/>
		<path style="fill-rule:evenodd;clip-rule:evenodd;fill:#FFFFFF;" d="M332.917,220.741c-5.595,0-9.708-0.405-13.713,0.077
			c-11.234,1.351-18.877-3.261-21.671-14.114c-2.258-8.77-1.966-17.48,2.776-25.581c2.566-4.384,6.305-7.111,12.559-8.146
			c-0.961,3.178-1.688,5.732-2.509,8.256c-1.638,5.035-3.971,9.941-4.855,15.1c-1.572,9.172,3.45,15.598,12.816,17.58
			c2.76,0.584,5.774,0.529,8.265,1.662C328.923,216.639,330.724,218.884,332.917,220.741z"/>
		<path style="fill-rule:evenodd;clip-rule:evenodd;fill:#FFFFFF;" d="M350.938,134.095c-0.028-0.446-0.175-1.75-0.181-3.054
			c-0.007-1.466,0.114-2.932,0.239-5.769c4.361,1.3,8.777,1.585,11.867,3.758c5.913,4.158,11.934,8.711,16.35,14.327
			c7.266,9.24,13.29,19.455,19.838,29.259c-0.283,0.513-0.566,1.026-0.851,1.54c-1.31-0.431-3.034-0.472-3.858-1.355
			c-5.235-5.607-11.576-8.204-19.208-7.532c0-0.529-0.138-1.003,0.021-1.142c3.318-2.918,6.434-5.667,3.461-10.83
			c-2.072-3.597-3.348-7.389-8.211-8.523c-2.22-0.518-3.876-3.096-6.047-4.254C360.172,138.285,355.801,136.396,350.938,134.095z"/>
		<path style="fill-rule:evenodd;clip-rule:evenodd;fill:#FFFFFF;" d="M351.031,808.888c0-4.093,0-7.005,0-9.917
			c0.283,0.345,0.567,0.689,0.851,1.035c5.201-2.99,10.498-5.828,15.569-9.022c3.354-2.112,7.319-4.126,9.367-7.258
			c4.459-6.819,4.029-7.101-1.602-14.001c4.172-1.126,8.449-2.377,12.777-3.42c3.954-0.952,5.177-7.117,11.633-5.874
			C385.719,779.439,378.225,803.181,351.031,808.888z"/>
		<path style="fill-rule:evenodd;clip-rule:evenodd;fill:#FFFFFF;" d="M286.285,760.151c1.079,0.092,2.432-0.204,3.194,0.335
			c10.913,7.714,10.894,7.741,20.078,8.96c-0.083,0.301-0.068,0.725-0.266,0.882c-3.447,2.748-5.974,5.632-3.24,10.435
			c1.931,3.392,2.792,7.416,7.636,8.331c1.786,0.337,3.255,2.19,4.949,3.221c2.961,1.802,5.82,3.925,9.013,5.157
			c6.757,2.608,6.834,2.409,5.704,11.322c-3.968-1.171-8.358-1.442-11.435-3.593c-5.931-4.145-11.996-8.661-16.419-14.273
			c-7.271-9.227-13.28-19.449-19.822-29.251C285.88,761.168,286.083,760.659,286.285,760.151z"/>
		<path style="fill-rule:evenodd;clip-rule:evenodd;fill:#FFFFFF;" d="M333.663,125.892c0,3.475,0,6.231,0,8.988
			c-0.282-0.366-0.563-0.731-0.845-1.096c-5.329,3.131-10.735,6.141-15.959,9.439c-3.215,2.029-7.072,3.896-9.027,6.89
			c-4.393,6.726-3.904,7.57,2.627,15.334c-10.122-2.205-16.547,4.561-23.71,9.268c-0.598-0.892-1.197-1.783-1.795-2.674
			c8.995-12.066,17.595-24.461,27.198-36.023c3.409-4.104,9.124-6.436,14.062-9.059
			C328.202,125.903,330.928,126.235,333.663,125.892z"/>
		<path style="fill-rule:evenodd;clip-rule:evenodd;fill:#FFFFFF;" d="M122.033,665.114c5.58-0.8,9.949-1.427,14.585-2.092
			c0,6.07,0,12.44,0,20.204C131.402,676.751,126.849,671.096,122.033,665.114z"/>
		<path style="fill-rule:evenodd;clip-rule:evenodd;fill:#FFFFFF;" d="M548.182,683.398c0-7.751,0-14.147,0-20.32
			c4.674,0.613,9.329,1.224,14.81,1.943C558.297,670.847,553.624,676.646,548.182,683.398z"/>
		<path style="fill-rule:evenodd;clip-rule:evenodd;fill:#FFFFFF;" d="M563.762,280.235c-5.489,0.469-10.486,0.896-15.637,1.335
			c0-5.806,0-12.064,0-19.505C553.811,268.673,558.879,274.563,563.762,280.235z"/>
		<path style="fill-rule:evenodd;clip-rule:evenodd;fill:#FFFFFF;" d="M136.679,263.335c0,6.225,0,12.449,0,18.578
			c-4.557-0.704-8.884-1.372-14.372-2.219c4.569-5.809,8.98-11.417,13.392-17.025C136.025,262.892,136.352,263.113,136.679,263.335z
			"/>
		<path style="fill-rule:evenodd;clip-rule:evenodd;fill:#FFFFFF;" d="M88.063,682.517c0-7.342,0-13.299,0-19.062
			c5.053,0.382,9.992,0.755,15.278,1.154C98.632,670.128,93.755,675.845,88.063,682.517z"/>
		<path style="fill-rule:evenodd;clip-rule:evenodd;fill:#FFFFFF;" d="M596.569,682.772c-5.161-6.485-9.507-11.947-14.148-17.779
			c5.198-0.633,9.507-1.156,14.148-1.721C596.569,669.067,596.569,675.177,596.569,682.772z"/>
		<path style="fill-rule:evenodd;clip-rule:evenodd;fill:#FFFFFF;" d="M88.199,262.599c5.453,6.354,10.333,12.042,15.177,17.686
			c-5.172,0.386-10.056,0.75-15.177,1.132C88.199,275.841,88.199,269.701,88.199,262.599z"/>
		<path style="fill-rule:evenodd;clip-rule:evenodd;fill:#FFFFFF;" d="M596.503,281.658c-4.319-0.562-8.685-1.13-13.946-1.814
			c4.459-5.661,8.795-11.167,13.946-17.706C596.503,269.581,596.503,275.716,596.503,281.658z"/>
		<path style="fill-rule:evenodd;clip-rule:evenodd;fill:#FFFFFF;" d="M74.553,489.075c4.097,0.01,6.907,2.863,6.642,6.396
			c-0.277,3.693-2.462,5.701-6.118,5.849c-3.441,0.138-6.393-2.947-6.101-6.383C69.286,491.272,71.504,489.382,74.553,489.075z"/>
		<path style="fill-rule:evenodd;clip-rule:evenodd;fill:#FFFFFF;" d="M74.029,446.525c-3.084-0.203-5.137-2.266-5.396-5.901
			c-0.242-3.389,2.881-6.564,6.221-6.329c3.629,0.255,5.78,2.413,6.1,6.009C81.26,443.732,78.248,446.568,74.029,446.525z"/>
		<path style="fill-rule:evenodd;clip-rule:evenodd;fill:#FFFFFF;" d="M529.585,228.2c-3.283-0.402-6.566-0.804-9.85-1.205
			c0.375-2.006,0.128-4.594,1.305-5.851c1.12-1.197,4.563-2.002,5.503-1.214c1.953,1.639,2.924,4.446,4.299,6.773
			C530.423,227.203,530.004,227.702,529.585,228.2z"/>
		<path style="fill-rule:evenodd;clip-rule:evenodd;fill:#FFFFFF;" d="M166.497,227.646c-5.082,0-8.167,0-12.658,0
			c1.255-2.964,1.795-5.531,3.296-7.266c0.801-0.926,4.017-1.186,4.818-0.399C163.705,221.703,164.61,224.285,166.497,227.646z"/>
		<path style="fill-rule:evenodd;clip-rule:evenodd;fill:#FFFFFF;" d="M518.188,706.393c5.096,0,8.206,0,12.771,0
			c-1.381,2.96-2.078,5.614-3.703,7.444c-0.8,0.9-4.092,1.019-4.898,0.182C520.66,712.261,519.859,709.638,518.188,706.393z"/>
		<path style="fill-rule:evenodd;clip-rule:evenodd;fill:#FFFFFF;" d="M153.676,706.476c4.541,0,7.647,0,12.161,0
			c-1.201,2.85-1.78,5.515-3.333,7.361c-0.76,0.904-4.149,1.039-4.912,0.207C155.924,712.22,155.173,709.558,153.676,706.476z"/>
		<path style="fill-rule:evenodd;clip-rule:evenodd;fill:#FFFFFF;" d="M167.163,184.984c-3.228,2.295-5.15,4.721-6.825,4.561
			c-1.752-0.167-4.533-2.818-4.536-4.387c-0.002-1.623,2.653-4.336,4.405-4.562C161.869,180.382,163.867,182.77,167.163,184.984z"/>
		<path style="fill-rule:evenodd;clip-rule:evenodd;fill:#FFFFFF;" d="M525.528,179.574c1.223,1.84,3.561,3.813,3.362,5.484
			c-0.209,1.749-2.854,3.207-4.435,4.792c-1.558-1.598-4.179-3.081-4.366-4.826c-0.18-1.679,2.157-3.628,3.389-5.459
			C524.162,179.568,524.846,179.571,525.528,179.574z"/>
		<path style="fill-rule:evenodd;clip-rule:evenodd;fill:#FFFFFF;" d="M231.48,202.013c-1.218-1.846-3.557-3.835-3.345-5.5
			c0.222-1.746,2.891-3.18,4.49-4.75c1.533,1.607,4.127,3.112,4.295,4.851c0.163,1.692-2.159,3.624-3.39,5.451
			C232.847,202.047,232.164,202.03,231.48,202.013z"/>
		<path style="fill-rule:evenodd;clip-rule:evenodd;fill:#FFFFFF;" d="M165.696,750.177c-1.871,1.136-3.914,3.366-5.566,3.107
			c-1.743-0.273-3.112-2.924-4.645-4.535c1.649-1.504,3.207-4.055,4.973-4.207c1.657-0.144,3.534,2.248,5.314,3.523
			C165.747,748.77,165.721,749.473,165.696,750.177z"/>
		<path style="fill-rule:evenodd;clip-rule:evenodd;fill:#FFFFFF;" d="M342.235,93.263c2.281,3.31,4.691,5.275,4.502,6.949
			c-0.2,1.785-2.856,3.294-4.439,4.924c-1.595-1.618-4.255-3.104-4.475-4.891C337.618,98.574,340.001,96.585,342.235,93.263z"/>
		<path style="fill-rule:evenodd;clip-rule:evenodd;fill:#FFFFFF;" d="M457.404,738.103c-3.206,2.378-5.131,4.888-6.707,4.686
			c-1.764-0.227-4.395-2.867-4.455-4.537c-0.057-1.562,2.601-4.274,4.354-4.537C452.178,733.478,454.153,735.874,457.404,738.103z"
			/>
		<path style="fill-rule:evenodd;clip-rule:evenodd;fill:#FFFFFF;" d="M231.536,743.037c-1.238-1.824-3.603-3.782-3.406-5.437
			c0.208-1.761,2.841-3.234,4.416-4.834c1.559,1.591,4.167,3.057,4.373,4.807c0.196,1.668-2.112,3.63-3.319,5.463
			C232.912,743.036,232.224,743.037,231.536,743.037z"/>
		<path style="fill-rule:evenodd;clip-rule:evenodd;fill:#FFFFFF;" d="M336.778,832.969c1.765-1.289,3.614-3.69,5.271-3.564
			c1.759,0.133,3.335,2.665,4.992,4.149c-1.508,1.65-2.842,4.358-4.574,4.644c-1.644,0.271-3.706-1.995-5.584-3.146
			C336.848,834.357,336.812,833.663,336.778,832.969z"/>
		<path style="fill-rule:evenodd;clip-rule:evenodd;fill:#FFFFFF;" d="M529.887,750.049c-1.823,1.189-3.803,3.493-5.428,3.266
			c-1.731-0.242-3.129-2.877-4.672-4.468c1.589-1.537,3.068-4.127,4.799-4.307c1.648-0.172,3.559,2.173,5.354,3.411
			C529.922,748.65,529.904,749.35,529.887,750.049z"/>
		<path style="fill-rule:evenodd;clip-rule:evenodd;fill:#FFFFFF;" d="M456.01,196.694c-1.744,1.268-3.594,3.655-5.202,3.501
			c-1.761-0.168-3.297-2.683-4.931-4.174c1.508-1.634,2.842-4.308,4.574-4.599c1.604-0.269,3.637,2.013,5.48,3.171
			C455.957,195.294,455.983,195.994,456.01,196.694z"/>
		<path style="fill-rule:evenodd;clip-rule:evenodd;fill:#FFFFFF;" d="M30.409,230.504c-2.918,2.156-4.902,4.66-6.227,4.35
			c-1.817-0.426-3.135-2.986-4.667-4.631c1.57-1.384,3.067-3.747,4.73-3.869C25.82,226.237,27.569,228.469,30.409,230.504z"/>
		<path style="fill-rule:evenodd;clip-rule:evenodd;fill:#FFFFFF;" d="M24.011,695.333c2.083,2.743,4.491,4.564,4.259,5.943
			c-0.307,1.826-2.677,3.305-4.161,4.934c-1.537-1.594-3.964-3.016-4.317-4.838C19.528,700.009,21.942,698.128,24.011,695.333z"/>
		<path style="fill-rule:evenodd;clip-rule:evenodd;fill:#FFFFFF;" d="M659.99,235.816c-1.265-1.818-3.478-3.63-3.489-5.457
			c-0.009-1.419,2.683-3.913,4.255-3.978c1.475-0.062,4.198,2.357,4.3,3.828c0.123,1.784-1.927,3.718-3.037,5.587
			C661.342,235.803,660.666,235.81,659.99,235.816z"/>
		<path style="fill-rule:evenodd;clip-rule:evenodd;fill:#FFFFFF;" d="M667.139,701.935c-2.844,1.938-4.822,4.291-6.203,3.98
			c-1.824-0.41-3.181-2.906-4.738-4.505c1.708-1.43,3.305-3.767,5.159-3.993C662.767,697.245,664.504,699.755,667.139,701.935z"/>
	</g>
</g>
</svg>
