<?xml version="1.0" encoding="utf-8"?>
<!-- Generator: Adobe Illustrator 16.0.4, SVG Export Plug-In . SVG Version: 6.00 Build 0)  -->
<!DOCTYPE svg PUBLIC "-//W3C//DTD SVG 1.1//EN" "http://www.w3.org/Graphics/SVG/1.1/DTD/svg11.dtd">
<svg version="1.1" id="Layer_2" xmlns="http://www.w3.org/2000/svg" xmlns:xlink="http://www.w3.org/1999/xlink" x="0px" y="0px"
	 width="235px" height="413px" viewBox="0 0 235 413" style="enable-background:new 0 0 235 413;" xml:space="preserve">
<style type="text/css">
<![CDATA[
	.st0{fill:#FFFFFF;}
]]>
</style>
<path class="st0" d="M235,153H0V9h235V153z M24.103,0H0v9h24.103V0z M54.231,0H30.128v9h24.103V0z M84.359,0H60.256v9h24.103V0z
	 M114.487,0H90.385v9h24.103V0z M144.615,0h-24.103v9h24.103V0z M174.743,0h-24.103v9h24.103V0z M204.872,0H180.77v9h24.103V0z
	 M235,0h-24.103v9H235V0z M210.897,163.666L235,153H0l24.103,10.666V413h186.795V163.666z"/>
<path d="M132.564,222h-30.129v-19c0-6.627,5.373-12,12-12h6.129c6.627,0,12,5.373,12,12V222z"/>
</svg>
