<?xml version="1.0" encoding="utf-8"?>
<!-- Generator: Adobe Illustrator 16.0.4, SVG Export Plug-In . SVG Version: 6.00 Build 0)  -->
<!DOCTYPE svg PUBLIC "-//W3C//DTD SVG 1.1//EN" "http://www.w3.org/Graphics/SVG/1.1/DTD/svg11.dtd">
<svg version="1.1" id="Layer_1" xmlns="http://www.w3.org/2000/svg" xmlns:xlink="http://www.w3.org/1999/xlink" x="0px" y="0px"
	 width="720px" height="720px" viewBox="0 0 720 720" style="enable-background:new 0 0 720 720;" xml:space="preserve">
<style type="text/css">
<![CDATA[
	.st0{fill:#FFFFFF;}
]]>
</style>
<g>
	<g>
		<path class="st0" d="M720,184.945c0,0-248.424-6.645-388.769,2.95c98.945,78.86,388.766,331.138,388.766,331.138L720,184.945z"/>
	</g>
	<g>
		<path class="st0" d="M0,720h460l46.672-0.001c0,0-270.43-391.829-367.567-516.189C88.744,208.573,0,217.674,0,217.674V720z"/>
	</g>
	<g>
		<g>
			<path class="st0" d="M235.444,203.406c0,0,2.72,2.594,6.801,6.486c2.04,1.946,4.42,4.216,6.971,6.648
				c2.565,2.419,5.234,5.06,7.925,7.682c5.374,5.25,10.747,10.501,14.777,14.439c3.988,3.976,6.647,6.626,6.647,6.626l-3.691,3.361
				l-40.318-44.436L235.444,203.406z"/>
			<path class="st0" d="M299.83,266.5c0,0,10.52,10.708,21.04,21.416c2.63,2.677,5.26,5.354,7.726,7.864
				c2.458,2.517,4.784,4.836,6.722,6.875c3.9,4.056,6.501,6.759,6.501,6.759l-6.468,5.889l-40.317-44.436L299.83,266.5z"/>
			<path class="st0" d="M362.622,331.044c0,0,2.601,2.704,6.501,6.76c1.948,2.029,4.222,4.397,6.657,6.934
				c2.41,2.561,4.98,5.292,7.551,8.023c10.282,10.925,20.563,21.849,20.563,21.849l-8.068,7.347l-40.317-44.436L362.622,331.044z"/>
			<polygon class="st0" points="424.442,396.473 465.08,440.617 456.303,448.609 415.985,404.174 			"/>
			<polygon class="st0" points="485.301,462.778 525.453,507.364 516.962,515.096 476.492,470.799 			"/>
			<path class="st0" d="M545.354,529.817c0,0,9.916,11.258,19.832,22.515c2.479,2.814,4.959,5.629,7.283,8.268
				c2.316,2.645,4.509,5.087,6.337,7.226c3.674,4.263,6.123,7.104,6.123,7.104l-7.262,6.611l-40.47-44.296L545.354,529.817z"/>
			<path class="st0" d="M604.522,597.661c0,0,2.449,2.842,6.123,7.104c1.836,2.132,3.979,4.619,6.274,7.283
				c2.269,2.688,4.688,5.558,7.108,8.425c9.68,11.473,19.359,22.945,19.359,22.945l-5.016,4.567l-40.47-44.297L604.522,597.661z"/>
			<path class="st0" d="M662.582,666.514c0,0,2.392,2.895,5.979,7.236c1.788,2.176,3.898,4.691,6.115,7.428
				c2.216,2.737,4.579,5.657,6.942,8.576c2.363,2.92,4.727,5.84,6.942,8.577c2.227,2.728,4.266,5.309,6.009,7.524
				c3.495,4.425,5.825,7.375,5.825,7.375l-1.317,1.199l-40.47-44.296L662.582,666.514z"/>
		</g>
	</g>
</g>
</svg>
