<?xml version="1.0" encoding="utf-8"?>
<!-- Generator: Adobe Illustrator 16.0.4, SVG Export Plug-In . SVG Version: 6.00 Build 0)  -->
<!DOCTYPE svg PUBLIC "-//W3C//DTD SVG 1.1//EN" "http://www.w3.org/Graphics/SVG/1.1/DTD/svg11.dtd">
<svg version="1.1"
	 id="svg1782" xmlns:cc="http://web.resource.org/cc/" xmlns:dc="http://purl.org/dc/elements/1.1/" xmlns:inkscape="http://www.inkscape.org/namespaces/inkscape" xmlns:rdf="http://www.w3.org/1999/02/22-rdf-syntax-ns#" xmlns:sodipodi="http://inkscape.sourceforge.net/DTD/sodipodi-0.dtd" xmlns:svg="http://www.w3.org/2000/svg" sodipodi:version="0.32" sodipodi:docname="splatter.svg" sodipodi:docbase="/mnt/remedia/art" inkscape:version="0.41+cvs"
	 xmlns="http://www.w3.org/2000/svg" xmlns:xlink="http://www.w3.org/1999/xlink" x="0px" y="0px" width="135.195px"
	 height="265.975px" viewBox="235.19 258.433 135.195 265.975" style="enable-background:new 235.19 258.433 135.195 265.975;"
	 xml:space="preserve">
<sodipodi:namedview  borderopacity="1.0" bordercolor="#666666" id="base" inkscape:cx="353.70135" inkscape:cy="655.89638" inkscape:zoom="1.8545086" pagecolor="#ffffff" inkscape:pageopacity="0.0" inkscape:pageshadow="2" inkscape:window-height="720" inkscape:window-width="710" inkscape:window-x="0" inkscape:window-y="30" inkscape:current-layer="svg1782">
	</sodipodi:namedview>
<path id="path1801" d="M358.144,521.628c-3.392-3.54-3.478-7.496-0.232-10.74c3.861-3.861,8.636-2.927,11.382,2.229
	c1.697,3.186,1.434,5.703-0.909,8.681C365.6,525.338,361.635,525.272,358.144,521.628z"/>
<path id="path2027" d="M338.77,517.306c-4.11-1.157-7.313-5.271-7.313-9.393c0-2.363-0.682-3.697-2.5-4.889
	c-1.375-0.9-2.5-2.332-2.5-3.182c0-2.14,4.935-8.41,6.619-8.41c2.579,0,1.396-1.747-1.588-2.344
	c-1.633-0.326-3.931-1.556-5.106-2.732c-1.887-1.887-2.312-1.964-3.617-0.66c-1.304,1.305-2.008,1.277-5.984-0.232
	c-2.479-0.94-4.886-2.324-5.35-3.073c-2-3.237,1.793-11.114,5.993-12.447c1.275-0.405,1.596-1.6,1.412-5.268
	c-0.398-7.965-0.936-9.772-5.015-16.884c-2.164-3.772-4.768-9.109-5.784-11.859c-1.018-2.75-5.901-14.675-10.853-26.5
	s-11.673-28.25-14.936-36.5s-7.179-17.7-8.702-21c-1.522-3.3-4.428-10.578-6.456-16.173c-2.238-6.174-4.844-11.411-6.629-13.322
	c-3.434-3.675-5.014-9.751-2.886-11.099c2.111-1.337,3.292-1.104,6.984,1.382c6.19,4.167,7.209,10.527,1.954,12.195
	c-1.854,0.588-1.781,1.008,1.528,8.818c1.912,4.51,3.596,8.943,3.742,9.852c0.147,0.909,0.713,2.259,1.259,3
	c1.126,1.531,3.502,6.822,12.95,28.848c8.475,19.756,24.011,53.001,27.807,59.5c1.605,2.75,3.469,6.575,4.14,8.5
	s1.699,3.5,2.285,3.5c1.765,0,2.758,1.558,1.492,2.34c-0.862,0.533-0.5,2.205,1.334,6.165c1.523,3.287,2.803,4.972,3.24,4.265
	c0.462-0.747,1.796,0.431,3.694,3.259c2.838,4.229,5.642,5.624,6.972,3.472c0.973-1.573,5.223-1.167,5.887,0.563
	c0.329,0.86,0.973,1.333,1.429,1.051c1.219-0.753,4.362,3.291,3.562,4.584c-0.469,0.758-1.027,0.638-1.78-0.383
	c-1.061-1.439-4.839-3.815-6.066-3.815c-0.33,0,0.938,1.351,2.816,3c1.879,1.65,3.968,3,4.642,3s0.979,0.644,0.677,1.429
	c-1.446,3.771-1.752,8.541-0.676,10.552c1.573,2.939,0.495,3.769-1.983,1.525c-1.968-1.78-2.007-1.756-2.007,1.304
	c0,2.882-2.861,5.996-4.241,4.615c-0.277-0.277-0.734,0.377-1.017,1.454c-0.45,1.723-0.115,1.894,2.79,1.423
	c3.521-0.572,4.477-0.048,10.154,5.568c1.873,1.854,3.655,3.122,3.96,2.817c0.839-0.839-1.55-7.363-3.197-8.729
	c-1.682-1.396-1.906-2.958-0.424-2.958c0.563,0,1.416,1.013,1.896,2.25c0.479,1.237,2.526,3.705,4.552,5.482
	c4.054,3.56,4.38,6.572,0.768,7.087c-1.231,0.176-2.24-0.161-2.24-0.75c0-1.763-1.821-1.207-2.44,0.744
	c-0.946,2.982-6.878,8.82-9.56,9.408C343.081,517.956,340.522,517.799,338.77,517.306z"/>
<path id="path2025" d="M323.456,515.933c-0.993-1.196-0.993-1.803,0-3c1.632-1.966,3.63-1.908,4.411,0.127
	c0.611,1.595-0.92,4.373-2.411,4.373C325.041,517.433,324.142,516.758,323.456,515.933z"/>
<path id="path2023" d="M362.956,506.433c0.341-0.55,1.042-1,1.56-1s0.94,0.45,0.94,1s-0.701,1-1.559,1
	S362.616,506.982,362.956,506.433z"/>
<path id="path2021" d="M348.956,491.433c-0.34-0.55-0.141-1,0.441-1s1.059,0.45,1.059,1s-0.198,1-0.44,1
	S349.297,491.982,348.956,491.433z"/>
<path id="path2019" d="M311.456,462.433c0-0.55,0.45-1,1-1c0.551,0,1,0.45,1,1s-0.449,1-1,1
	C311.906,463.433,311.456,462.982,311.456,462.433z"/>
<path id="path2017" d="M329.706,458.771c-1.715-0.692-1.568-2.828,0.301-4.38c1.277-1.06,1.829-1.007,3.137,0.301
	C335.932,457.479,333.54,460.317,329.706,458.771z"/>
<path id="path2015" d="M314.456,455.433c0-0.55,0.424-1,0.941-1s1.219,0.45,1.559,1c0.341,0.55-0.083,1-0.94,1
	S314.456,455.982,314.456,455.433z"/>
<path id="path2013" d="M292.628,452.701c-2.532-2.842-2.19-5.736,1.002-8.499c1.816-1.571,2.268-1.593,4.913-0.225
	c2.145,1.109,2.909,2.226,2.898,4.23c-0.019,3.357-0.77,4.452-4.033,5.882C295.191,455.061,294.569,454.881,292.628,452.701z"/>
<path id="path2011" d="M311.428,452.897c-1.737-2.093-0.289-3.211,1.648-1.273c0.936,0.936,1.174,1.818,0.59,2.18
	C313.125,454.138,312.118,453.729,311.428,452.897z"/>
<path id="path2009" d="M276.028,446.861c-0.864-0.864-1.571-1.957-1.571-2.429c0-0.912,2.807-4,3.637-4
	c1.506,0,4.363,2.268,4.363,3.464c0,1.535-2.646,4.536-4,4.536C277.985,448.433,276.892,447.726,276.028,446.861z"/>
<path id="path2007" d="M324.021,445.726c-0.542-1.425-0.428-1.54,0.56-0.56c0.684,0.679,0.991,1.485,0.684,1.793
	C324.955,447.268,324.396,446.712,324.021,445.726z"/>
<path id="path2005" d="M339.675,444.278c0.52-1.559,2.663-1.812,3.031-0.359c0.138,0.543-0.589,1.148-1.615,1.346
	C339.877,445.498,339.383,445.154,339.675,444.278z"/>
<path id="path2003" d="M299.04,441.567c-0.431-0.697-0.513-1.538-0.183-1.868c0.895-0.895,1.871,0.422,1.387,1.872
	C299.905,442.587,299.669,442.586,299.04,441.567z"/>
<path id="path2001" d="M332.566,441.065c-0.858-1.034-0.797-1.647,0.251-2.518c1.863-1.546,4.639-0.354,4.639,1.992
	C337.456,442.777,334.271,443.119,332.566,441.065z"/>
<path id="path1999" d="M321.538,430.586c-1.165-2.178,0.332-4.153,3.149-4.153c2.348,0,3.355,2.588,1.759,4.513
	C324.77,432.965,322.731,432.816,321.538,430.586z"/>
<path id="path1997" d="M285.802,429.89c-0.326-0.849-0.323-1.812,0.007-2.143c0.712-0.712,3.648,1.548,3.648,2.808
	C289.457,432.064,286.424,431.512,285.802,429.89z"/>
<path id="path1995" d="M332.955,429.789c-1.821-1.822-1.333-5.869,0.995-8.249c1.159-1.185,1.671-0.886,3.431,2
	c2.571,4.218,2.599,5.542,0.142,6.857C335.011,431.741,334.893,431.726,332.955,429.789z"/>
<path id="path1993" d="M352.456,420.506c0-1.431,0.643-2.073,2.073-2.073c2.563,0,2.272,3.31-0.334,3.812
	C352.995,422.476,352.456,421.938,352.456,420.506z"/>
<path id="path1991" d="M303.802,404.89c-0.326-0.849-0.327-1.809-0.003-2.133s-0.52-1.463-1.876-2.529
	c-2.571-2.022-3.254-5.189-1.371-6.354c0.621-0.384-0.602-1.437-2.826-2.432c-3.653-1.636-5.677-4.473-6.427-9.009
	c-0.396-2.391,2.754-7.445,5.583-8.959c1.905-1.02,3.563-1.143,6.239-0.464c7.588,1.924,10.425,11.37,4.854,16.162
	c-2.553,2.196-2.69,2.586-1.2,3.42c2.026,1.134,2.212,5.269,0.315,7.04c-1.153,1.076-1.127,1.451,0.162,2.395
	c1.837,1.344,0.937,4.407-1.295,4.407C305.097,406.433,304.127,405.738,303.802,404.89z"/>
<path id="path1989" d="M348.706,365.714c-2.107-0.756-1.489-4.282,0.75-4.282c1.313,0,2,0.667,2,1.941
	C351.456,365.579,350.528,366.368,348.706,365.714z"/>
<path id="path1987" d="M295.669,363.245c-1.876-1.876-1.439-2.984,1.038-2.632c1.237,0.176,2.25,0.957,2.25,1.736
	C298.957,364.253,297.165,364.741,295.669,363.245z"/>
<path id="path1985" d="M339.049,362.812c-0.374-0.974-0.104-2.072,0.624-2.533c1.877-1.189,3.283-0.451,3.283,1.724
	C342.956,364.443,339.916,365.073,339.049,362.812z"/>
<path id="path1983" d="M260.457,361.433c0-0.55,0.675-1,1.5-1c0.825,0,1.5,0.45,1.5,1c0,0.55-0.675,1-1.5,1
	C261.131,362.433,260.457,361.983,260.457,361.433z"/>
<path id="path1981" d="M311.865,361.057c-0.835-2.177-0.25-2.762,1.611-1.611c1.145,0.707,1.199,1.168,0.254,2.113
	C312.786,362.503,312.379,362.394,311.865,361.057z"/>
<path id="path1979" d="M329.456,359.85c0-1.766,2.153-1.458,2.771,0.396c0.218,0.653-0.317,1.188-1.188,1.188
	C330.169,361.433,329.456,360.72,329.456,359.85z"/>
<path id="path1977" d="M333.456,360.433c0-0.55,0.199-1,0.441-1s0.719,0.45,1.059,1c0.341,0.55,0.142,1-0.44,1
	C333.933,361.433,333.456,360.983,333.456,360.433z"/>
<path id="path1975" d="M252.179,357.658c-1.958-1.214-2.955-2.83-3.378-5.474c-0.355-2.221-1.16-3.751-1.972-3.751
	c-0.755,0-1.372-0.45-1.372-1c0-0.926,1.706-1.381,4.75-1.269c1.485,0.055,1.686-3.344,0.25-4.231c-0.55-0.34-1-1.068-1-1.618
	c0-0.55,0.546-0.663,1.213-0.25c0.667,0.413,2.805,0.896,4.75,1.074c4.744,0.434,7.586,2.011,8.926,4.952
	c1.857,4.077,1.294,7.312-1.813,10.42C259.219,359.824,256.211,360.157,252.179,357.658z"/>
<path id="path1973" d="M321.456,356.933c0-0.825,0.676-1.5,1.5-1.5c0.825,0,1.5,0.675,1.5,1.5c0,0.825-0.675,1.5-1.5,1.5
	C322.132,358.433,321.456,357.758,321.456,356.933z"/>
<path id="path1971" d="M239.457,355.933c0-0.917,0.562-1.479,1.25-1.25c1.416,0.472,1.26,2.08-0.25,2.583
	C239.906,357.449,239.457,356.85,239.457,355.933z"/>
<path id="path1969" d="M283.848,353.907c-1.55-2.365-1.541-2.651,0.132-4.5c3.14-3.469,7.477-1.909,7.477,2.69
	c0,2.112-2.519,4.335-4.911,4.335C285.972,356.433,284.758,355.296,283.848,353.907z"/>
<path id="path1967" d="M311.978,354.812c-2.3-2.301-1.488-4.823,1.67-5.188c1.855-0.215,3,0.298,3.738,1.677
	C319.664,355.558,315.456,358.29,311.978,354.812z"/>
<path id="path1965" d="M239.813,344.92c-0.663-1.727,1.271-4.487,3.144-4.487c0.69,0,1.855,0.724,2.59,1.608
	c1.134,1.366,1.048,1.817-0.569,3C242.499,346.854,240.538,346.808,239.813,344.92z"/>
<path id="path1963" d="M247.186,339.829c-0.401-0.401-0.729-1.419-0.729-2.263c0-1.125,0.296-1.237,1.112-0.42
	c0.612,0.612,0.94,1.63,0.729,2.262C248.087,340.04,247.587,340.229,247.186,339.829z"/>
<path id="path1961" d="M292.018,322.493c0.216-3.029-0.278-4.542-2.14-6.551c-3.094-3.338-3.07-6.584,0.076-10.323
	c5.399-6.417,11.958-4.272,11.958,3.91c0,3.424-0.543,4.528-3.356,6.824c-1.846,1.506-3.465,3.828-3.6,5.16
	s-0.301,2.983-0.372,3.671s-0.739,1.25-1.487,1.25C292.133,326.433,291.819,325.285,292.018,322.493z"/>
<path id="path1959" d="M314.456,322.433c-2.491-2.491-2.554-5.188-0.171-7.345c4.519-4.089,11.82,0.35,9.093,5.528
	C321.086,324.967,317.684,325.66,314.456,322.433z"/>
<path id="path1957" d="M237.966,317.449c-0.345-0.559,0.074-1.017,0.931-1.017c1.756,0,2.015,0.6,0.628,1.458
	C239.014,318.207,238.312,318.008,237.966,317.449z"/>
<path id="path1955" d="M247.03,287.575c-0.866-1.674-1.554-3.628-1.53-4.343c0.024-0.715,0.957,0.43,2.072,2.545
	c1.116,2.114,1.804,4.068,1.53,4.343C248.828,290.394,247.896,289.249,247.03,287.575z"/>
<path id="path1953" d="M242.631,278.917c-0.688-1.509-1.044-2.948-0.793-3.199c0.679-0.679,2.805,3.655,2.396,4.884
	C244.04,281.184,243.318,280.425,242.631,278.917z"/>
<path id="path1951" d="M314.456,274.492c0-0.583,0.45-1.059,1-1.059c0.551,0,1,0.199,1,0.441c0,0.243-0.449,0.719-1,1.059
	C314.906,275.272,314.456,275.074,314.456,274.492z"/>
<path id="path1949" d="M236.137,264.89c-0.907-1.901-1.217-3.457-0.69-3.457c1.333,0,4.191,5.77,3.171,6.4
	C238.16,268.116,237.044,266.792,236.137,264.89z"/>
<path id="path1947" d="M329.15,261.793c-0.799-0.799,0.104-2.361,1.365-2.361c0.518,0,0.94,0.675,0.94,1.5
	C331.456,262.479,330.276,262.919,329.15,261.793z"/>
<path id="path1945" d="M333.15,260.793c-0.934-0.934,0.194-2.361,1.865-2.361c0.792,0,1.44,0.675,1.44,1.5
	C336.456,261.439,334.346,261.988,333.15,260.793z"/>
</svg>
