<?xml version="1.0" encoding="utf-8"?>
<!-- Generator: Adobe Illustrator 16.0.4, SVG Export Plug-In . SVG Version: 6.00 Build 0)  -->
<!DOCTYPE svg PUBLIC "-//W3C//DTD SVG 1.1//EN" "http://www.w3.org/Graphics/SVG/1.1/DTD/svg11.dtd">
<svg version="1.1" id="Layer_1" xmlns="http://www.w3.org/2000/svg" xmlns:xlink="http://www.w3.org/1999/xlink" x="0px" y="0px"
	 width="89.156px" height="95.039px" viewBox="0 0 89.156 95.039" enable-background="new 0 0 89.156 95.039" xml:space="preserve">
<g>
	<path d="M89.156,0.251C55.627-3.372,30.218,33.119,27.398,55.062c10.061-14.313,27.29-34.562,46.098-45.604
		C56.754,21.411,39.472,40.007,27.121,59.18c-0.558,0.866-1.104,1.735-1.644,2.604c-0.082,0.131-0.161,0.263-0.241,0.396
		c-0.24,0.391-0.473,0.781-0.71,1.174h-13.54c-0.761,0-1.382,0.623-1.382,1.383v3.574c0,0.76,0.622,1.381,1.382,1.381h1.641v5.119
		H5.503c-1.897,0-3.641,1.543-3.864,3.431L0.024,91.609c-0.229,1.886,1.142,3.43,3.042,3.43h40.865c1.897,0,3.268-1.544,3.042-3.43
		l-1.611-13.371c-0.229-1.887-1.968-3.43-3.868-3.43h-7.123v-5.119h1.642c0.761,0,1.382-0.621,1.382-1.381v-3.574
		c0-0.76-0.622-1.383-1.382-1.383H27.71c0.799-1.36,1.628-2.736,2.499-4.133c12.55,0.062,22.309-3.002,30.015-8.101
		c-4.938-2.479-12.688-5.291-18.221-6.403c6.659,0.199,12.626,0.215,22.199,3.448c10.196-8.455,16.326-20.814,20.717-33.702
		c-3.956-0.661-8.125-1.104-11.434-1.119c3.994-0.66,7.729-1.335,12.29-1.468C87.021,7.998,88.129,4.093,89.156,0.251z
		 M37.392,76.922l1.947,16.329h-4.874l-1.948-16.329H37.392z M30.355,64.206h1.949v4.631h-1.949V64.206z M29.623,71.964h1.543v2.847
		h-1.543V71.964z"/>
</g>
</svg>
