<?xml version="1.0" encoding="utf-8"?>
<!-- Generator: Adobe Illustrator 16.0.4, SVG Export Plug-In . SVG Version: 6.00 Build 0)  -->
<!DOCTYPE svg PUBLIC "-//W3C//DTD SVG 1.1//EN" "http://www.w3.org/Graphics/SVG/1.1/DTD/svg11.dtd">
<svg version="1.1" id="Layer_1" xmlns="http://www.w3.org/2000/svg" xmlns:xlink="http://www.w3.org/1999/xlink" x="0px" y="0px"
	 width="595.586px" height="701.096px" viewBox="0 0 595.586 701.096" style="enable-background:new 0 0 595.586 701.096;"
	 xml:space="preserve">
<style type="text/css">
<![CDATA[
	.st0{fill:#FFFFFF;}
]]>
</style>
<g>
	<g>
		<path class="st0" d="M512.702,483.28c1.103,130.505-92.559,221.129-211.3,217.724C187.318,700.755,89.655,611.532,90.103,483.28
			c-1.781-111.064,92.133-227.981,211.299-217.725C418.228,270.373,514.15,361.323,512.702,483.28z"/>
	</g>
	<g>
		<path class="st0" d="M140.072,239.857c-0.262,48.03-32.734,96.523-69.957,98.511c-39.971,9.472-72.669-49.708-69.958-98.511
			c0.127-57.117,31.501-89.734,69.958-98.511C109.812,128.571,138.617,199.716,140.072,239.857z"/>
	</g>
	<g>
		<path class="st0" d="M327.1,124.927c1.192,63.721-42.658,126.787-89.231,124.923c-46.968,11.702-88.25-65.431-89.231-124.923
			c0.99-59.72,41.514-121.862,89.231-124.924C289.371-0.491,325.712,51.168,327.1,124.927z"/>
	</g>
	<g>
		<path class="st0" d="M498.424,161.333c-0.688,62.568-30.713,91.75-69.957,98.511c-41.486-2.756-69.496-57.999-69.958-98.511
			c-1.534-42.158,31.968-98.322,69.958-98.511C465.256,62.238,497.022,115.697,498.424,161.333z"/>
	</g>
	<g>
		<path class="st0" d="M595.507,306.245c0.683,56.044-23.865,81.181-56.27,79.237c-31.961-1.393-54.729-48.27-56.271-79.237
			c1.663-48.588,27.024-80.942,56.271-79.237C570.024,230.89,597.243,266.473,595.507,306.245z"/>
	</g>
</g>
</svg>
