<?xml version="1.0" encoding="utf-8"?>
<!-- Generator: Adobe Illustrator 16.0.0, SVG Export Plug-In . SVG Version: 6.00 Build 0)  -->
<!DOCTYPE svg PUBLIC "-//W3C//DTD SVG 1.1//EN" "http://www.w3.org/Graphics/SVG/1.1/DTD/svg11.dtd">
<svg version="1.1"
	 id="svg3025" inkscape:version="0.48.3.1 r9886" sodipodi:docname="search_font_awesome.svg" xmlns:dc="http://purl.org/dc/elements/1.1/" xmlns:sodipodi="http://sodipodi.sourceforge.net/DTD/sodipodi-0.dtd" xmlns:cc="http://creativecommons.org/ns#" xmlns:rdf="http://www.w3.org/1999/02/22-rdf-syntax-ns#" xmlns:inkscape="http://www.inkscape.org/namespaces/inkscape" xmlns:svg="http://www.w3.org/2000/svg"
	 xmlns="http://www.w3.org/2000/svg" xmlns:xlink="http://www.w3.org/1999/xlink" x="0px" y="0px" width="742.857px"
	 height="742.857px" viewBox="267.119 -233.724 742.857 742.857" enable-background="new 267.119 -233.724 742.857 742.857"
	 xml:space="preserve">
<path id="path3029" inkscape:connector-curvature="0" d="M781.404,80.562c0-55.059-19.568-102.157-58.705-141.294
	c-39.137-39.137-86.235-58.706-141.295-58.706S479.247-99.87,440.109-60.733c-39.137,39.137-58.705,86.235-58.705,141.294
	c0,55.06,19.568,102.158,58.705,141.295c39.138,39.137,86.235,58.705,141.295,58.705s102.158-19.568,141.295-58.705
	S781.404,135.621,781.404,80.562z M1009.976,451.99c0,15.477-5.654,28.869-16.964,40.179s-24.703,16.964-40.179,16.964
	c-16.071,0-29.464-5.654-40.179-16.964L759.529,339.49c-53.273,36.905-112.648,55.357-178.125,55.357
	c-42.56,0-83.259-8.259-122.098-24.777c-38.84-16.518-72.322-38.839-100.447-66.964s-50.447-61.607-66.964-100.446
	c-16.518-38.839-24.777-79.539-24.777-122.099c0-42.559,8.259-83.259,24.777-122.098c16.518-38.839,38.839-72.321,66.964-100.446
	s61.607-50.446,100.447-66.964c38.839-16.518,79.538-24.777,122.098-24.777s83.259,8.259,122.099,24.777
	c38.839,16.518,72.321,38.839,100.446,66.964s50.446,61.607,66.964,100.446C887.432-2.697,895.69,38.002,895.69,80.562
	c0,65.477-18.453,124.852-55.357,178.125l153.125,153.125C1004.47,422.823,1009.976,436.217,1009.976,451.99z"/>
</svg>
