<?xml version="1.0" encoding="utf-8"?>
<!-- Generator: Adobe Illustrator 16.0.4, SVG Export Plug-In . SVG Version: 6.00 Build 0)  -->
<!DOCTYPE svg PUBLIC "-//W3C//DTD SVG 1.1//EN" "http://www.w3.org/Graphics/SVG/1.1/DTD/svg11.dtd">
<svg version="1.1" id="Layer_1" xmlns="http://www.w3.org/2000/svg" xmlns:xlink="http://www.w3.org/1999/xlink" x="0px" y="0px"
	 width="328.41px" height="493.637px" viewBox="0 0 328.41 493.637" style="enable-background:new 0 0 328.41 493.637;"
	 xml:space="preserve">
<style type="text/css">
<![CDATA[
	.st0{fill:#FFFFFF;}
]]>
</style>
<g>
	<g>
		<g>
			<path class="st0" d="M329.799,177.226c0.134-6.63-5.096-10.616-11.706-9.05c-101.187,24-206.588,24-307.775,0
				c-6.611-1.566-11.841,2.42-11.707,9.05c2.025,101.47,4.051,202.941,6.076,304.411c0.134,6.626,5.368,13.33,11.714,14.834
				c97.187,23.051,198.423,23.051,295.609,0c6.346-1.504,11.58-8.208,11.714-14.834
				C325.749,380.167,327.773,278.696,329.799,177.226z"/>
		</g>
		<g>
			<g>
				<path class="st0" d="M28.94,149.23c0,0-0.094-0.59-0.271-1.697c-0.152-1.101-0.419-2.725-0.672-4.774
					c-0.068-1.031-0.144-2.172-0.226-3.416c-0.091-1.254-0.151-2.609-0.107-4.021c0.002-2.851,0.203-6.055,0.775-9.442
					c0.505-3.426,1.544-6.934,2.698-10.501c1.191-3.562,2.519-7.078,3.526-10.766c0.991-3.701,1.816-7.529,2.169-11.666
					c0.059-0.511,0.117-1.021,0.175-1.532c0.027-0.526,0.054-1.053,0.082-1.579c0.047-1.058,0.103-2.115,0.176-3.169
					c0.071-2.14,0.033-4.333,0.06-6.5c-0.04-1.099-0.079-2.198-0.118-3.297c-0.053-1.125-0.048-2.325-0.15-3.385
					c-0.102-1.061-0.2-2.12-0.274-3.173c-0.042-0.527-0.084-1.055-0.126-1.583c-0.075-0.536-0.149-1.072-0.223-1.608
					c-0.493-4.296-1.431-8.468-2.557-12.582c-1.135-4.107-2.592-8.176-3.917-12.247c-1.285-4.062-2.457-8.025-3.083-11.685
					c-0.692-3.651-1.003-6.962-1.099-9.834c-0.091-1.444-0.073-2.77-0.02-3.987c0.044-1.213,0.084-2.327,0.121-3.333
					c0.191-1.98,0.412-3.509,0.532-4.554c0.146-1.038,0.224-1.591,0.224-1.591s0.127,0.592,0.364,1.704
					c0.212,1.104,0.564,2.726,0.929,4.756c0.237,1.017,0.499,2.143,0.784,3.368c0.136,0.607,0.277,1.24,0.424,1.896
					c0.139,0.653,0.359,1.332,0.543,2.028c0.73,2.786,1.651,5.891,2.886,9.211c0.307,0.828,0.62,1.672,0.939,2.533
					c0.36,0.856,0.726,1.728,1.099,2.615c0.36,0.88,0.765,1.788,1.179,2.705c0.413,0.92,0.812,1.839,1.272,2.803
					c1.733,3.791,3.735,7.966,5.377,12.507c0.441,1.124,0.838,2.275,1.184,3.446c0.348,1.168,0.768,2.342,1.035,3.533
					c0.298,1.191,0.597,2.39,0.898,3.593c0.241,1.201,0.433,2.403,0.652,3.615c0.106,0.606,0.212,1.213,0.318,1.819
					c0.087,0.611,0.147,1.228,0.222,1.843c0.148,1.232,0.272,2.467,0.394,3.705c0.124,1.238,0.126,2.312,0.195,3.478
					c0.053,1.19,0.107,2.38,0.161,3.57c-0.057,2.363-0.054,4.727-0.168,7.075c-0.084,1.173-0.186,2.341-0.295,3.5
					c-0.056,0.581-0.099,1.161-0.167,1.737c-0.089,0.572-0.178,1.144-0.267,1.716c-0.187,1.139-0.339,2.281-0.555,3.398
					c-0.267,1.103-0.533,2.199-0.796,3.29c-0.234,1.101-0.62,2.129-0.934,3.177c-0.316,1.05-0.679,2.063-1.086,3.032
					c-1.508,3.966-3.383,7.415-4.997,10.565c-0.818,1.584-1.588,3.103-2.273,4.597c-0.344,0.748-0.681,1.482-1.012,2.203
					c-0.291,0.741-0.577,1.467-0.857,2.179c-1.123,2.854-1.939,5.61-2.575,8.121c-0.161,0.625-0.357,1.224-0.474,1.819
					c-0.125,0.597-0.244,1.171-0.359,1.724c-0.243,1.114-0.466,2.137-0.668,3.061c-0.294,1.92-0.59,3.414-0.764,4.439
					C29.046,148.686,28.94,149.23,28.94,149.23z"/>
			</g>
			<g>
				<path class="st0" d="M92.647,159.214c0,0-0.091-0.581-0.262-1.671c-0.145-1.086-0.403-2.686-0.643-4.71
					c-0.061-1.024-0.129-2.159-0.203-3.395c-0.083-1.246-0.133-2.596-0.077-4.012c0.025-2.853,0.253-6.077,0.86-9.522
					c0.539-3.476,1.619-7.087,2.816-10.769c1.234-3.679,2.606-7.327,3.655-11.114c1.032-3.8,1.897-7.71,2.287-11.882
					c0.063-0.517,0.125-1.033,0.188-1.549c0.032-0.529,0.064-1.059,0.096-1.588c0.056-1.063,0.121-2.126,0.203-3.188
					c0.089-2.147,0.067-4.338,0.111-6.509c-0.031-1.096-0.062-2.191-0.094-3.287c-0.044-1.12-0.03-2.321-0.125-3.372
					c-0.095-1.051-0.186-2.101-0.253-3.147c-0.039-0.523-0.077-1.047-0.116-1.571c-0.071-0.529-0.142-1.058-0.213-1.587
					c-0.465-4.25-1.381-8.331-2.49-12.337c-1.116-3.998-2.559-7.926-3.869-11.869c-1.27-3.938-2.426-7.788-3.031-11.388
					c-0.673-3.585-0.961-6.867-1.036-9.731c-0.081-1.436-0.052-2.764,0.011-3.987c0.054-1.217,0.104-2.335,0.148-3.346
					c0.209-2,0.444-3.551,0.574-4.608c0.156-1.052,0.239-1.613,0.239-1.613s0.124,0.58,0.355,1.669
					c0.207,1.084,0.55,2.671,0.903,4.667c0.231,0.994,0.488,2.095,0.767,3.292c0.133,0.595,0.271,1.213,0.415,1.854
					c0.136,0.641,0.353,1.297,0.534,1.976c0.718,2.716,1.626,5.732,2.851,8.933c0.304,0.798,0.615,1.613,0.931,2.442
					c0.357,0.821,0.721,1.658,1.091,2.509c0.357,0.845,0.76,1.714,1.172,2.591c0.411,0.879,0.808,1.76,1.265,2.679
					c1.724,3.624,3.717,7.604,5.341,11.988c0.438,1.081,0.83,2.195,1.17,3.333c0.342,1.134,0.758,2.268,1.02,3.433
					c0.291,1.163,0.584,2.333,0.879,3.507c0.234,1.178,0.419,2.362,0.631,3.553c0.103,0.596,0.205,1.193,0.307,1.789
					c0.083,0.603,0.14,1.214,0.21,1.822c0.14,1.219,0.256,2.442,0.369,3.667c0.115,1.227,0.109,2.301,0.17,3.46
					c0.045,1.185,0.089,2.371,0.134,3.556c-0.076,2.37-0.091,4.734-0.225,7.094c-0.095,1.182-0.206,2.36-0.327,3.531
					c-0.062,0.586-0.108,1.171-0.183,1.754c-0.094,0.581-0.189,1.162-0.284,1.743c-0.197,1.157-0.36,2.315-0.587,3.454
					c-0.278,1.129-0.556,2.252-0.83,3.368c-0.245,1.124-0.644,2.191-0.969,3.27c-0.328,1.081-0.702,2.13-1.122,3.139
					c-1.556,4.114-3.479,7.748-5.138,11.057c-0.839,1.664-1.631,3.259-2.336,4.82c-0.354,0.782-0.701,1.549-1.042,2.303
					c-0.301,0.769-0.595,1.524-0.884,2.263c-1.159,2.965-2.008,5.801-2.671,8.375c-0.167,0.642-0.371,1.259-0.494,1.867
					c-0.13,0.609-0.256,1.196-0.377,1.759c-0.255,1.139-0.489,2.183-0.7,3.127c-0.313,1.95-0.625,3.473-0.809,4.515
					C92.758,158.66,92.647,159.214,92.647,159.214z"/>
			</g>
			<g>
				<path class="st0" d="M156.855,163.013c0,0-0.086-0.573-0.25-1.646c-0.138-1.073-0.384-2.648-0.61-4.65
					c-0.053-1.019-0.112-2.148-0.177-3.376c-0.073-1.238-0.113-2.584-0.046-4.005c0.047-2.856,0.302-6.104,0.938-9.609
					c0.568-3.53,1.682-7.247,2.914-11.045c1.269-3.8,2.675-7.581,3.758-11.471c1.066-3.901,1.965-7.896,2.389-12.107
					c0.066-0.523,0.135-1.045,0.202-1.568c0.036-0.533,0.072-1.065,0.108-1.598c0.063-1.068,0.137-2.138,0.228-3.208
					c0.106-2.157,0.102-4.347,0.163-6.522c-0.023-1.093-0.046-2.186-0.069-3.279c-0.036-1.117-0.014-2.319-0.1-3.361
					c-0.086-1.042-0.17-2.084-0.229-3.124c-0.034-0.52-0.069-1.041-0.104-1.561c-0.067-0.522-0.135-1.045-0.202-1.567
					c-0.434-4.207-1.322-8.201-2.404-12.102c-1.09-3.891-2.509-7.682-3.795-11.5c-1.245-3.816-2.377-7.557-2.958-11.1
					c-0.648-3.521-0.913-6.777-0.966-9.634c-0.07-1.429-0.031-2.76,0.042-3.99c0.064-1.223,0.122-2.347,0.175-3.361
					c0.225-2.021,0.475-3.596,0.613-4.666c0.165-1.068,0.253-1.637,0.253-1.637s0.119,0.569,0.344,1.635
					c0.199,1.064,0.533,2.62,0.872,4.582c0.226,0.972,0.475,2.048,0.746,3.22c0.128,0.582,0.263,1.188,0.402,1.815
					c0.132,0.627,0.345,1.263,0.521,1.924c0.7,2.648,1.59,5.578,2.794,8.661c0.299,0.769,0.605,1.554,0.917,2.353
					c0.352,0.787,0.711,1.589,1.077,2.404c0.352,0.811,0.75,1.641,1.156,2.479c0.406,0.84,0.798,1.683,1.25,2.558
					c1.703,3.458,3.672,7.249,5.269,11.477c0.43,1.04,0.813,2.116,1.147,3.221c0.334,1.102,0.742,2.196,0.995,3.336
					c0.284,1.135,0.568,2.277,0.855,3.424c0.226,1.156,0.402,2.322,0.605,3.493c0.098,0.587,0.195,1.174,0.293,1.761
					c0.079,0.595,0.131,1.201,0.197,1.802c0.13,1.206,0.237,2.418,0.341,3.634c0.106,1.216,0.092,2.291,0.144,3.445
					c0.036,1.181,0.072,2.362,0.107,3.544c-0.094,2.377-0.128,4.745-0.279,7.119c-0.104,1.191-0.225,2.38-0.355,3.563
					c-0.065,0.593-0.117,1.182-0.197,1.772c-0.099,0.59-0.198,1.181-0.297,1.771c-0.208,1.177-0.38,2.351-0.617,3.512
					c-0.287,1.156-0.573,2.306-0.858,3.45c-0.254,1.148-0.662,2.253-0.996,3.364c-0.339,1.113-0.722,2.199-1.151,3.248
					c-1.592,4.266-3.551,8.086-5.241,11.557c-0.855,1.746-1.663,3.417-2.383,5.048c-0.361,0.816-0.715,1.617-1.064,2.404
					c-0.308,0.799-0.609,1.582-0.906,2.35c-1.188,3.078-2.062,5.998-2.749,8.637c-0.173,0.658-0.382,1.295-0.511,1.915
					c-0.136,0.622-0.267,1.221-0.393,1.796c-0.266,1.164-0.509,2.231-0.729,3.196c-0.33,1.98-0.655,3.535-0.848,4.595
					C156.971,162.448,156.855,163.013,156.855,163.013z"/>
			</g>
			<g>
				<path class="st0" d="M221.114,160.627c0,0-0.082-0.564-0.236-1.623c-0.129-1.06-0.363-2.612-0.572-4.593
					c-0.045-1.014-0.096-2.138-0.15-3.361c-0.063-1.232-0.093-2.574-0.015-4.002c0.068-2.862,0.349-6.135,1.011-9.703
					c0.593-3.585,1.733-7.411,2.99-11.33c1.295-3.923,2.725-7.841,3.834-11.836c1.093-4.005,2.02-8.088,2.475-12.342
					c0.07-0.529,0.142-1.059,0.213-1.588c0.04-0.536,0.081-1.072,0.121-1.609c0.071-1.075,0.153-2.152,0.252-3.231
					c0.122-2.168,0.135-4.358,0.212-6.54c-0.015-1.091-0.028-2.182-0.043-3.273c-0.027-1.113,0.004-2.319-0.073-3.352
					c-0.078-1.035-0.154-2.068-0.205-3.104c-0.03-0.517-0.061-1.034-0.091-1.551c-0.062-0.516-0.126-1.032-0.189-1.549
					c-0.399-4.167-1.254-8.077-2.303-11.875c-1.055-3.788-2.44-7.443-3.692-11.139c-1.213-3.698-2.312-7.331-2.864-10.819
					c-0.62-3.46-0.858-6.691-0.889-9.545c-0.059-1.422-0.009-2.758,0.072-3.996c0.073-1.229,0.141-2.359,0.2-3.379
					c0.241-2.043,0.502-3.643,0.648-4.726c0.173-1.084,0.265-1.662,0.266-1.662c-0.001,0,0.114,0.558,0.33,1.603
					c0.19,1.045,0.511,2.569,0.833,4.5c0.218,0.951,0.458,2.003,0.719,3.149c0.124,0.57,0.255,1.163,0.389,1.777
					c0.126,0.615,0.334,1.23,0.505,1.875c0.677,2.582,1.542,5.427,2.718,8.396c0.293,0.74,0.591,1.496,0.896,2.265
					c0.346,0.753,0.697,1.521,1.056,2.302c0.344,0.778,0.733,1.57,1.132,2.368c0.398,0.802,0.782,1.607,1.225,2.439
					c1.671,3.295,3.602,6.898,5.159,10.974c0.42,0.999,0.793,2.039,1.117,3.112c0.324,1.07,0.722,2.125,0.965,3.242
					c0.273,1.108,0.548,2.223,0.824,3.343c0.217,1.134,0.383,2.285,0.576,3.436c0.093,0.578,0.186,1.155,0.278,1.733
					c0.073,0.588,0.12,1.188,0.182,1.784c0.12,1.194,0.218,2.396,0.312,3.602c0.097,1.207,0.074,2.283,0.116,3.433
					c0.026,1.179,0.053,2.357,0.079,3.535c-0.111,2.388-0.163,4.759-0.333,7.148c-0.113,1.202-0.242,2.403-0.381,3.599
					c-0.07,0.599-0.126,1.194-0.21,1.792c-0.103,0.6-0.206,1.2-0.31,1.8c-0.216,1.197-0.396,2.388-0.641,3.573
					c-0.295,1.185-0.589,2.362-0.882,3.534c-0.262,1.172-0.677,2.318-1.018,3.461c-0.345,1.146-0.734,2.269-1.171,3.36
					c-1.618,4.42-3.598,8.431-5.309,12.065c-0.866,1.829-1.684,3.579-2.414,5.279c-0.366,0.851-0.726,1.687-1.079,2.507
					c-0.312,0.828-0.619,1.641-0.92,2.437c-1.208,3.194-2.103,6.199-2.808,8.905c-0.178,0.675-0.392,1.333-0.523,1.964
					c-0.141,0.635-0.276,1.247-0.405,1.835c-0.274,1.189-0.524,2.281-0.751,3.268c-0.345,2.013-0.681,3.599-0.881,4.678
					C221.234,160.051,221.114,160.628,221.114,160.627z"/>
			</g>
			<g>
				<path class="st0" d="M284.976,152.057c0,0-0.077-0.556-0.222-1.6c-0.119-1.048-0.339-2.578-0.53-4.54
					c-0.037-1.01-0.079-2.129-0.123-3.348c-0.053-1.226-0.072-2.565,0.016-4.002c0.091-2.87,0.394-6.171,1.076-9.804
					c0.615-3.645,1.772-7.581,3.046-11.623c1.312-4.049,2.756-8.106,3.885-12.21c1.112-4.112,2.06-8.286,2.542-12.585
					c0.074-0.537,0.148-1.073,0.223-1.61c0.044-0.54,0.089-1.081,0.133-1.621c0.079-1.082,0.167-2.167,0.273-3.257
					c0.138-2.181,0.167-4.373,0.261-6.563c-0.006-1.09-0.012-2.18-0.018-3.271c-0.019-1.111,0.022-2.32-0.046-3.347
					c-0.069-1.027-0.136-2.054-0.179-3.084c-0.025-0.514-0.052-1.028-0.078-1.543c-0.058-0.51-0.116-1.021-0.175-1.531
					c-0.363-4.129-1.177-7.959-2.185-11.657c-1.014-3.688-2.355-7.21-3.565-10.787c-1.172-3.583-2.231-7.111-2.751-10.547
					c-0.587-3.401-0.797-6.611-0.805-9.463c-0.048-1.417,0.012-2.758,0.103-4.004c0.082-1.237,0.157-2.374,0.225-3.4
					c0.254-2.067,0.524-3.692,0.678-4.791c0.18-1.101,0.275-1.688,0.275-1.688s0.108,0.546,0.314,1.571
					c0.18,1.028,0.485,2.521,0.79,4.421c0.208,0.93,0.437,1.96,0.687,3.081c0.118,0.558,0.242,1.139,0.37,1.741
					c0.121,0.603,0.321,1.199,0.485,1.827c0.649,2.517,1.482,5.28,2.623,8.136c0.284,0.712,0.573,1.439,0.868,2.18
					c0.335,0.721,0.677,1.455,1.025,2.201c0.334,0.745,0.714,1.5,1.102,2.26c0.387,0.763,0.76,1.532,1.191,2.322
					c1.626,3.135,3.506,6.553,5.012,10.48c0.406,0.958,0.769,1.962,1.079,3.005c0.312,1.04,0.697,2.056,0.928,3.15
					c0.262,1.082,0.524,2.17,0.789,3.265c0.204,1.113,0.36,2.248,0.541,3.381c0.088,0.569,0.175,1.138,0.262,1.707
					c0.068,0.581,0.109,1.178,0.166,1.768c0.109,1.182,0.195,2.376,0.279,3.573c0.086,1.197,0.055,2.276,0.088,3.422
					c0.017,1.176,0.034,2.353,0.051,3.529c-0.129,2.399-0.198,4.776-0.385,7.183c-0.121,1.213-0.257,2.427-0.403,3.637
					c-0.074,0.606-0.135,1.207-0.222,1.813c-0.106,0.61-0.213,1.22-0.319,1.831c-0.222,1.218-0.409,2.427-0.66,3.636
					c-0.301,1.213-0.601,2.42-0.898,3.62c-0.268,1.199-0.687,2.384-1.032,3.561c-0.35,1.18-0.742,2.341-1.182,3.474
					c-1.633,4.579-3.62,8.781-5.34,12.582c-0.87,1.913-1.692,3.742-2.427,5.514c-0.369,0.887-0.731,1.757-1.087,2.612
					c-0.315,0.859-0.626,1.701-0.929,2.527c-1.219,3.311-2.127,6.403-2.846,9.178c-0.181,0.692-0.397,1.371-0.534,2.016
					c-0.143,0.649-0.282,1.274-0.415,1.875c-0.279,1.216-0.536,2.333-0.768,3.341c-0.357,2.047-0.702,3.666-0.908,4.765
					C285.099,151.469,284.976,152.057,284.976,152.057z"/>
			</g>
		</g>
	</g>
</g>
</svg>
