<?xml version="1.0" encoding="utf-8"?>
<!-- Generator: Adobe Illustrator 16.0.0, SVG Export Plug-In . SVG Version: 6.00 Build 0)  -->
<!DOCTYPE svg PUBLIC "-//W3C//DTD SVG 1.1//EN" "http://www.w3.org/Graphics/SVG/1.1/DTD/svg11.dtd">
<svg version="1.1" id="Layer_1" xmlns="http://www.w3.org/2000/svg" xmlns:xlink="http://www.w3.org/1999/xlink" x="0px" y="0px"
	 width="720px" height="720px" viewBox="0 0 720 720" style="enable-background:new 0 0 720 720;" xml:space="preserve">
<g id="Chair">
	<polyline style="fill:#CCCCCC;stroke:#000000;stroke-miterlimit:10;" points="643.362,102.5 790.5,720 790.5,720.5 -76,720.5 
		-76.388,720 71,102.5 647,102.5 	"/>
	<line style="fill:none;stroke:#000000;stroke-miterlimit:10;" x1="59" y1="174.5" x2="659" y2="174.5"/>
	<line style="fill:none;stroke:#000000;stroke-miterlimit:10;" x1="38" y1="255.5" x2="680" y2="255.5"/>
	<line style="fill:none;stroke:#000000;stroke-miterlimit:10;" x1="16" y1="345.5" x2="702" y2="345.5"/>
	<line style="fill:none;stroke:#000000;stroke-miterlimit:10;" x1="-7" y1="444.5" x2="725" y2="444.5"/>
	<line style="fill:none;stroke:#000000;stroke-miterlimit:10;" x1="-37" y1="552.5" x2="755" y2="552.5"/>
	<line style="fill:none;stroke:#000000;stroke-miterlimit:10;" x1="-59" y1="669.5" x2="777" y2="669.5"/>
</g>
<path id="Pad" style="fill:#4D4D4D;stroke:#000000;stroke-miterlimit:10;" d="M768.5,707.5c0,6.627-5.373,12-12,12h-793
	c-6.627,0-12-5.373-12-12l132-580c0-6.627,5.373-12,12-12h535c6.627,0,12,5.373,12,12L768.5,707.5z"/>
<g id="Computer">
	<path d="M582,378c0,3.314-2.687,6-6,6H145c-3.313,0-6-2.686-6-6l0,0c0-3.312,2.687-6,6-6h431C579.313,372,582,374.688,582,378
		L582,378z"/>
	<g>
		<path style="fill:#FFFFFF;" d="M112.276,650C103.961,650,88,641.413,88,633.73v-0.404l36.276-243.561
			c0.179-2.031,1.58-6.306,9.106-6.306c2.071,0,4.581,0.483,7.171,0.751c2.653,0.274,5.458,0.789,7.722,0.789h434.448
			c2.706,0,3.896-0.624,4.606-0.859c0.575-0.19,1.363-0.565,2.389-0.565c1.54,0,2.98,0.536,4.058,1.615
			c1.653,1.658,1.474,3.558,1.474,4.786L631,633.326v0.641c1,2.681,0.266,8.49-3.623,12.388c-1.555,1.558-4.112,3.646-8.653,3.646
			H112.276z"/>
		<path d="M589.719,388.94c0.309,0,0.28,0.347,0.28,1.397l36,243.368c0,2.932,0.223,10.294-7.275,10.294H112.276
			C104.778,644,94,636.643,94,633.711l36-243.373c0-1.051,1.385-1.402,3.508-1.402c3.798,0,9.958,1.064,14.768,1.064h434.448
			C587.533,390,589.166,388.94,589.719,388.94 M589.719,378h-0.002h-0.002c-1.91,0-3.343,0.436-4.112,0.689
			c-0.422,0.139-1.059,0.311-2.879,0.311H148.276c-1.979,0-4.579-0.249-7.093-0.51c-2.736-0.283-5.32-0.54-7.675-0.54
			c-10.306,0-13.812,6.311-14.411,10.926L83.118,632.119L83,632.922v0.809c0,5.696,3.905,10.942,11.606,15.63
			c3.472,2.114,10.384,5.64,17.669,5.64h506.448c6.427,0,10.505-2.716,12.796-5.01c5.502-5.512,5.48-12.88,5.48-16.034v-0.226
			v-0.809l-0.119-0.801l-35.885-242.604c-0.034-1.81-0.364-5.281-3.326-8.25C595.555,379.146,592.73,378,589.719,378L589.719,378z"
			/>
		<path style="fill:#CCCCCC;" d="M589.719,388.94c0.309,0,0.28,0.347,0.28,1.397l36,243.368c0,2.932,0.223,10.294-7.275,10.294
			H112.276C104.778,644,94,636.643,94,633.711l36-243.373c0-1.051,1.385-1.402,3.508-1.402c3.798,0,9.958,1.064,14.768,1.064
			h434.448C587.533,390,589.166,388.94,589.719,388.94 M589.719,379H590v-0.02c-2,0-3.225,0.411-3.941,0.648
			c-0.482,0.159-1.354,0.371-3.335,0.371H148.276c-2.031,0-4.657-0.252-7.196-0.515c-2.71-0.28-5.27-0.535-7.572-0.535
			c-9.6,0-12.863,5.807-13.418,10.05L84.107,632.266L84,632.995v0.735c0,5.323,3.744,10.282,11.126,14.776
			c3.382,2.059,10.108,5.493,17.149,5.493h506.448c6.084,0,9.933-2.556,12.087-4.716c5.209-5.219,5.189-12.296,5.189-15.326v-0.228
			v-0.735l-0.107-0.728l-35.896-242.666c-0.023-1.725-0.293-4.879-3.035-7.627c-1.927-1.932-4.357-2.975-7.102-2.975H589.719z"/>
	</g>
	<polygon id="Keyboard" style="fill:#CCCCCC;" points="582.833,398 138.833,398 116.478,540 603.953,540 	"/>
	<polygon id="Trackpad" style="fill:#CCCCCC;stroke:#000000;stroke-miterlimit:10;" points="437.462,632.5 278.47,632.5 
		290.833,554.5 429.833,554.5 	"/>
	<g>
		<path style="fill:#FFFFFF;" d="M586.242,370.54c-2.071,0-4.394-0.483-6.984-0.751c-2.652-0.274-5.271-0.789-7.534-0.789H137.276
			c-2.707,0-3.896,0.624-4.607,0.859c-0.575,0.19-1.362,0.565-2.388,0.565c-1.54,0.001-3.231-0.536-4.308-1.615
			c-1.732-1.735-1.974-3.71-1.974-4.924V86.033c0-2.681,0.234-8.49,4.124-12.389c1.555-1.558,4.611-3.645,9.152-3.645h434.447
			C580.039,70,595,78.586,595,86.269v277.383C595,365.269,594.601,370.54,586.242,370.54z"/>
		<path d="M571.724,76C579.222,76,590,83.337,590,86.269v277.383c0,1.051-1.386,1.407-3.508,1.407c-3.799,0-9.958-1.06-14.769-1.06
			H137.276c-4.81,0-6.443,1.06-6.996,1.06c-0.309,0-0.28-0.356-0.28-1.407V86.269C130,83.337,129.778,76,137.276,76H572 M571.724,65
			H137.276c-6.427,0-10.505,2.715-12.795,5.01c-5.501,5.513-5.487,12.88-5.481,16.034v0.225v277.383v0.22
			c0,1.513-0.013,5.528,3.33,8.88c2.116,2.12,4.939,3.288,7.951,3.288c1.912,0,3.346-0.454,4.116-0.709
			c0.422-0.14,1.06-0.331,2.88-0.331h434.447c1.979,0,4.579,0.249,7.093,0.51c2.736,0.283,5.321,0.54,7.676,0.54
			c11.452,0,14.508-7.796,14.508-12.397V86.269c0-5.696-3.905-10.942-11.607-15.63C585.921,68.525,579.009,65,571.724,65L571.724,65
			z"/>
		<path style="fill:#CCCCCC;" d="M571.724,76C579.222,76,590,83.337,590,86.269v277.383c0,1.051-1.386,1.407-3.508,1.407
			c-3.799,0-9.958-1.06-14.769-1.06H137.276c-4.81,0-6.443,1.06-6.996,1.06c-0.309,0-0.28-0.356-0.28-1.407V86.269
			C130,83.337,129.778,76,137.276,76H572 M571.724,66H137.276c-6.084,0-9.931,2.556-12.087,4.716
			c-5.208,5.219-5.195,12.296-5.189,15.326v0.227v277.383v0.223c0,1.53-0.012,5.113,3.038,8.171
			c1.927,1.931,4.499,2.994,7.243,2.994c1.75,0,3.085-0.421,3.802-0.658c0.483-0.16,1.212-0.382,3.194-0.382h434.447
			c2.031,0,4.657,0.252,7.196,0.515c2.71,0.28,5.27,0.535,7.572,0.535c10.663,0,13.508-7.168,13.508-11.397V86.269
			c0-5.324-3.744-10.282-11.127-14.776C585.49,69.435,578.765,66,571.724,66L571.724,66z"/>
	</g>
	<g id="Screen">
		<defs>
			<path id="Clip" d="M571.724,76C579.222,76,590,83.337,590,86.269v277.383c0,2.932-10.778,0.348-18.276,0.348H137.276
				c-7.498,0-7.276,2.584-7.276-0.348V86.269C130,83.337,129.778,76,137.276,76H571.724z"/>
		</defs>
		<clipPath id="Clip_1_">
			<use xlink:href="#Clip"  style="overflow:visible;"/>
		</clipPath>
		<g id="Review" style="clip-path:url(#Clip_1_);">
			<defs>
				<rect id="SVGID_1_" x="138.5" y="116.5" width="443" height="282"/>
			</defs>
			<clipPath id="SVGID_2_">
				<use xlink:href="#SVGID_1_"  style="overflow:visible;"/>
			</clipPath>
			
				<rect id="Review_Text" x="139.5" y="115.5" style="clip-path:url(#SVGID_2_);fill:#1A1A1A;stroke:#000000;stroke-miterlimit:10;" width="443" height="25"/>
			<g style="clip-path:url(#SVGID_2_);">
				<text transform="matrix(1 0 0 1 266.8853 180.6641)" style="font-family:'Helvetica'; font-size:32;">Hotel Review</text>
			</g>
			<g style="clip-path:url(#SVGID_2_);">
				<line style="fill:none;stroke:#000000;stroke-width:3;stroke-miterlimit:10;" x1="181" y1="199.5" x2="540" y2="199.5"/>
				<line style="fill:none;stroke:#000000;stroke-width:3;stroke-miterlimit:10;" x1="181" y1="217.5" x2="540" y2="217.5"/>
				<line style="fill:none;stroke:#000000;stroke-width:3;stroke-miterlimit:10;" x1="181" y1="235.5" x2="540" y2="235.5"/>
				<line style="fill:none;stroke:#000000;stroke-width:3;stroke-miterlimit:10;" x1="181" y1="253.5" x2="540" y2="253.5"/>
				<line style="fill:none;stroke:#000000;stroke-width:3;stroke-miterlimit:10;" x1="181" y1="271.5" x2="540" y2="271.5"/>
				<line style="fill:none;stroke:#000000;stroke-width:3;stroke-miterlimit:10;" x1="181" y1="289.5" x2="540" y2="289.5"/>
				<line style="fill:none;stroke:#000000;stroke-width:3;stroke-miterlimit:10;" x1="181" y1="307.5" x2="540" y2="307.5"/>
				<line style="fill:none;stroke:#000000;stroke-width:3;stroke-miterlimit:10;" x1="181" y1="325.5" x2="540" y2="325.5"/>
				<line style="fill:none;stroke:#000000;stroke-width:3;stroke-miterlimit:10;" x1="181" y1="343.5" x2="540" y2="343.5"/>
				<line style="fill:none;stroke:#000000;stroke-width:3;stroke-miterlimit:10;" x1="181" y1="361.5" x2="540" y2="361.5"/>
				<line style="fill:none;stroke:#000000;stroke-width:3;stroke-miterlimit:10;" x1="181" y1="379.5" x2="540" y2="379.5"/>
				<line style="fill:none;stroke:#000000;stroke-width:3;stroke-miterlimit:10;" x1="181" y1="397.5" x2="540" y2="397.5"/>
			</g>
			<g style="clip-path:url(#SVGID_2_);">
				<circle style="fill:#FFFFFF;" cx="152.028" cy="126.713" r="6.529"/>
				<path style="fill:#FFFFFF;" d="M175.316,124.713c0,3.606-2.923,8.529-6.529,8.529s-6.529-2.923-6.529-6.529
					s2.923-6.529,6.529-6.529S175.316,121.107,175.316,124.713z"/>
				<circle style="fill:#FFFFFF;" cx="185.546" cy="126.713" r="6.529"/>
			</g>
			<use xlink:href="#SVGID_1_"  style="overflow:visible;fill:none;stroke:#000000;stroke-miterlimit:10;"/>
		</g>
		
			<rect id="OS_Bar" x="84.5" y="55.5" style="clip-path:url(#Clip_1_);fill:none;stroke:#000000;stroke-miterlimit:10;" width="541" height="45"/>
		<g style="clip-path:url(#Clip_1_);">
			<g>
				<g>
					<g>
						<path style="fill:none;stroke:#333333;stroke-width:4;stroke-linecap:round;stroke-linejoin:round;" d="M336.711,91.637
							c0.007,0.007,1.065-1.082,1.074-1.074c0.068,0.068,5.3,4.37,5.357,4.427c0.019,0.018,4.214-4.281,4.248-4.248
							c0.07,0.07,6.05,3.79,6.098,3.838c0.032,0.032,2.773-2.806,2.789-2.79c0.04,0.04,6.631,3.039,6.667,3.075
							c0.033,0.034,5.034-5.079,5.057-5.057c0.074,0.074,6.008,3.651,6.054,3.698c0.033,0.033,1.156-1.211,1.184-1.184
							c0.03,0.029,8.179,1.551,8.235,1.608c0.035,0.034,1.625-1.692,1.658-1.658"/>
					</g>
				</g>
			</g>
			<g>
				<g>
					<g>
						<path style="fill:none;stroke:#333333;stroke-width:4;stroke-linecap:round;stroke-linejoin:round;" d="M415.006,91.341
							c0.019,0.018,1.238-1.271,1.255-1.255c0.061,0.061,5.026,5.07,5.061,5.105c0.029,0.029,4.861-4.893,4.878-4.877
							c0.069,0.069,6.818,2.93,6.861,2.973c0.021,0.02,1.747-1.783,1.765-1.765c0.049,0.048,8.295,1.558,8.333,1.596
							c0.016,0.015,0.82-0.855,0.838-0.837c0.071,0.071,8.247,1.47,8.292,1.515c0.029,0.029,3.045-3.123,3.084-3.084
							c0.061,0.06,7.619,1.889,7.691,1.961c0.045,0.045,1.312-1.361,1.337-1.336"/>
					</g>
				</g>
			</g>
			<g>
				<g>
					<g>
						<path style="fill:none;stroke:#333333;stroke-width:4;stroke-linecap:round;stroke-linejoin:round;" d="M203.864,92.484
							c0.009,0.009,1.408-1.422,1.416-1.415c0.041,0.041,6.461,3.434,6.495,3.467c0.015,0.015,3.831-3.887,3.859-3.858
							c0.049,0.049,6.825,2.768,6.901,2.844c0.034,0.034,2.929-3.017,2.973-2.973c0.066,0.066,7.103,2.857,7.179,2.934
							c0.017,0.017,2.986-3.026,3.006-3.006c0.027,0.027,6.195,3.477,6.251,3.533c0.028,0.028,3.722-3.803,3.762-3.762"/>
					</g>
				</g>
			</g>
			<g>
				<g>
					<g>
						<path style="fill:none;stroke:#333333;stroke-width:4;stroke-linecap:round;stroke-linejoin:round;" d="M139.284,92.063
							c0.01,0.01,2.272-2.309,2.291-2.291c0.067,0.066,6.244,3.811,6.3,3.867c0.035,0.034,2.252-2.316,2.284-2.284
							c0.058,0.058,6.154,3.845,6.219,3.909c0.017,0.016,4.697-4.757,4.727-4.727c0.064,0.064,5.417,4.146,5.474,4.204
							c0.026,0.026,3.907-3.99,3.949-3.949c0.049,0.05,7.14,2.688,7.184,2.731c0.044,0.043,2.261-2.294,2.277-2.277"/>
					</g>
				</g>
			</g>
			<g>
				<g>
					<g>
						<path style="fill:none;stroke:#333333;stroke-width:4;stroke-linecap:round;stroke-linejoin:round;" d="M271.721,92.627
							c0.019,0.019,0.367-0.388,0.377-0.377c0.079,0.079,9.085,0.986,9.125,1.025c0.038,0.038,2.269-2.317,2.293-2.293
							c0.062,0.062,6.564,2.979,6.635,3.05c0.025,0.025,3.401-3.46,3.431-3.431c0.082,0.082,7.575,1.997,7.635,2.057
							c0.024,0.023,2.224-2.308,2.266-2.266c0.034,0.034,4.932,4.792,4.983,4.843c0.018,0.018,5.439-5.519,5.479-5.479"/>
					</g>
				</g>
			</g>
		</g>
	</g>
</g>
</svg>
