<?xml version="1.0" encoding="utf-8"?>
<!-- Generator: Adobe Illustrator 16.0.4, SVG Export Plug-In . SVG Version: 6.00 Build 0)  -->
<!DOCTYPE svg PUBLIC "-//W3C//DTD SVG 1.1//EN" "http://www.w3.org/Graphics/SVG/1.1/DTD/svg11.dtd">
<svg version="1.1" id="Layer_2" xmlns="http://www.w3.org/2000/svg" xmlns:xlink="http://www.w3.org/1999/xlink" x="0px" y="0px"
	 width="233.069px" height="405px" viewBox="0 0 233.069 405" style="enable-background:new 0 0 233.069 405;" xml:space="preserve"
	>
<style type="text/css">
<![CDATA[
	.st0{fill:none;stroke:#FFFFFF;stroke-width:20;stroke-miterlimit:10;}
	.st1{fill:#FFFFFF;stroke:#000000;stroke-width:10;stroke-miterlimit:10;}
	.st2{fill:none;stroke:#FFFFFF;stroke-width:5;stroke-miterlimit:10;}
	.st3{fill:#FFFFFF;}
]]>
</style>
<rect x="103.069" class="st3" width="30" height="94"/>
<line class="st2" x1="7.069" y1="261.5" x2="233.069" y2="261.5"/>
<g>
	<path class="st3" d="M133.069,119c0,0,0.207,0.242,0.607,0.709c0.397,0.469,1.007,1.159,1.751,2.074
		c1.515,1.823,3.682,4.515,6.329,7.978c2.662,3.458,5.771,7.696,9.248,12.588c1.7,2.458,3.51,5.075,5.417,7.833
		c0.482,0.688,0.87,1.417,1.143,2.196c0.271,0.778,0.417,1.608,0.588,2.441c0.31,1.675,0.955,3.281,1.479,4.966
		c8.812,26.812,20.562,62.562,32.312,98.312s23.5,71.5,32.312,98.312c0.275,0.838,0.548,1.667,0.817,2.487
		c0.258,0.824,0.544,1.629,0.905,2.398c0.352,0.773,0.744,1.522,0.955,2.321c0.229,0.792,0.269,1.636,0.282,2.478
		c0.094,3.354,0.219,6.523,0.271,9.524c0.108,5.999,0.13,11.253,0.062,15.607c-0.05,4.349-0.172,7.793-0.28,10.149
		c-0.131,2.364-0.2,3.625-0.2,3.625s-0.804-0.974-2.312-2.799c-1.485-1.833-3.627-4.533-6.247-8.005
		c-2.638-3.466-5.737-7.708-9.209-12.602c-1.738-2.445-3.518-5.071-5.433-7.827c-0.488-0.686-0.957-1.389-1.242-2.162
		c-0.305-0.768-0.433-1.604-0.608-2.435c-0.165-0.835-0.413-1.652-0.694-2.468c-0.27-0.82-0.542-1.649-0.817-2.487
		c-8.812-26.812-20.562-62.562-32.312-98.312s-23.5-71.5-32.312-98.313c-0.577-1.667-1.01-3.343-1.755-4.875
		c-0.356-0.771-0.73-1.527-0.975-2.314c-0.242-0.788-0.363-1.605-0.383-2.445c-0.101-3.352-0.196-6.531-0.286-9.519
		c-0.104-6-0.115-11.258-0.023-15.621c0.077-4.358,0.225-7.811,0.362-10.177c0.056-1.179,0.138-2.095,0.179-2.708
		C133.046,119.317,133.069,119,133.069,119z"/>
</g>
<g>
	<path class="st3" d="M105.069,119c0,0,0.011,0.321,0.033,0.943c0.018,0.621,0.064,1.549,0.075,2.742
		c0.048,2.395,0.063,5.886-0.026,10.291c-0.074,4.41-0.287,9.72-0.62,15.778c-0.204,3.015-0.421,6.224-0.65,9.606
		c-0.052,0.848-0.205,1.669-0.477,2.458c-0.274,0.788-0.678,1.54-1.063,2.308c-0.805,1.525-1.301,3.205-1.943,4.871
		c-9.844,26.812-22.969,62.562-36.094,98.312s-26.25,71.5-36.094,98.312c-0.308,0.838-0.612,1.667-0.913,2.487
		c-0.313,0.816-0.592,1.634-0.789,2.472c-0.208,0.834-0.368,1.675-0.702,2.44c-0.315,0.773-0.812,1.469-1.326,2.146
		c-2.021,2.725-3.903,5.322-5.736,7.739c-3.661,4.836-6.925,9.025-9.697,12.445c-2.755,3.426-5.001,6.088-6.558,7.894
		C0.911,404.041,0.069,405,0.069,405s-0.021-1.275-0.062-3.668c-0.019-2.384-0.009-5.866,0.107-10.261
		c0.099-4.4,0.322-9.707,0.66-15.764c0.167-3.029,0.413-6.227,0.634-9.612c0.046-0.85,0.118-1.701,0.378-2.494
		c0.241-0.8,0.663-1.545,1.044-2.314c0.392-0.767,0.708-1.57,0.998-2.395c0.301-0.82,0.605-1.649,0.913-2.487
		c9.844-26.812,22.969-62.562,36.094-98.312s26.25-71.5,36.094-98.313c0.589-1.686,1.297-3.288,1.67-4.97
		c0.203-0.835,0.381-1.669,0.682-2.448c0.303-0.777,0.718-1.502,1.227-2.183c2.014-2.727,3.924-5.314,5.72-7.745
		c3.666-4.834,6.94-9.021,9.737-12.431c2.781-3.416,5.052-6.069,6.639-7.864c0.779-0.902,1.416-1.58,1.831-2.042
		C104.853,119.238,105.069,119,105.069,119z"/>
</g>
<circle class="st0" cx="118.569" cy="136.5" r="68.5"/>
<circle class="st1" cx="119.069" cy="191" r="49"/>
<path class="st3" d="M144.069,36.615c0,5.735-5.373,10.385-12,10.385h-28c-6.627,0-12-4.649-12-10.385v-24.23
	c0-5.735,5.373-10.385,12-10.385h28c6.627,0,12,4.649,12,10.385V36.615z"/>
</svg>
