<?xml version="1.0" encoding="utf-8"?>
<!-- Generator: Adobe Illustrator 16.0.4, SVG Export Plug-In . SVG Version: 6.00 Build 0)  -->
<!DOCTYPE svg PUBLIC "-//W3C//DTD SVG 1.1//EN" "http://www.w3.org/Graphics/SVG/1.1/DTD/svg11.dtd">
<svg version="1.1" id="South_America" xmlns="http://www.w3.org/2000/svg" xmlns:xlink="http://www.w3.org/1999/xlink" x="0px"
	 y="0px" width="541.48px" height="541.48px" viewBox="0 0 541.48 541.48" enable-background="new 0 0 541.48 541.48"
	 xml:space="preserve">
<path id="outer" fill="#E6165E" d="M360.764,535.104c-0.889,0-1.767-0.324-2.443-0.954l-6.696-6.199
	c-1.206-1.116-1.503-2.906-0.724-4.354c0.641-1.183,1.865-1.89,3.168-1.89c0.285,0,0.576,0.035,0.865,0.104l6.197,1.539
	c1.469,0.365,2.553,1.607,2.713,3.111l0.497,4.66c0.16,1.492-0.623,2.927-1.964,3.601
	C361.864,534.979,361.312,535.104,360.764,535.104z M215.837,533.026c-0.287,0-0.577-0.034-0.866-0.106l-3.536-0.875
	c-0.554,0.319-1.175,0.479-1.797,0.479c-0.733,0-1.467-0.227-2.096-0.677l-3.598-2.574c-0.592-0.429-1.027-1.011-1.273-1.66
	l-6.076-0.251c-1.641-0.067-3.027-1.236-3.372-2.844c-0.104-0.483-0.105-0.976-0.015-1.438l-0.333,0.19
	c-0.562,0.317-1.177,0.477-1.786,0.477c-0.088,0-0.176-0.004-0.263-0.01c-0.086,0.006-0.173,0.009-0.259,0.009
	c-0.693,0-1.387-0.199-1.992-0.604l-3.1-2.061c-0.899-0.598-1.483-1.567-1.59-2.641c-0.018-0.18-0.021-0.354-0.014-0.524
	c-0.383-0.113-0.746-0.289-1.072-0.521l-3.619-2.579c-1.49-1.062-1.946-3.073-1.061-4.675c0.651-1.181,1.876-1.857,3.152-1.857
	c0.086,0,0.173,0.003,0.26,0.01l-0.172-0.853c-0.021-0.104-0.036-0.202-0.048-0.307l-0.271-0.228
	c-0.951-0.797-1.425-2.026-1.255-3.255l0.09-0.648l-0.256-0.087c-1.372-0.464-2.332-1.704-2.437-3.146
	c-0.023-0.318-0.004-0.638,0.055-0.939c-0.67,0.736-1.63,1.178-2.663,1.178c-1.468,0.001-2.789-0.891-3.338-2.252l-1.042-2.577
	c-0.371-0.92-0.344-1.938,0.057-2.826l-1.138-1.521c-0.817-1.091-0.948-2.55-0.337-3.77c0.37-0.738,0.974-1.312,1.696-1.649
	c-0.534-0.861-0.682-1.913-0.397-2.896l0.911-3.146c-0.421-0.421-0.744-0.95-0.917-1.562c-0.264-0.927-0.141-1.875,0.279-2.669
	c-0.303,0.08-0.618,0.122-0.934,0.122c-0.549,0-1.104-0.126-1.622-0.388l-2.059-1.041c-1.091-0.552-1.828-1.619-1.956-2.834
	c-0.128-1.216,0.369-2.413,1.32-3.181l0.069-0.06c0.184-0.217,0.395-0.411,0.631-0.576l0.229-0.16l0.476-0.407
	c-0.765-0.684-1.226-1.677-1.208-2.751c0.027-1.626,1.141-3.033,2.719-3.435l2.059-0.52c0.291-0.073,0.587-0.109,0.881-0.109
	c0.469,0,0.934,0.095,1.368,0.271c0.401-0.321,0.861-0.55,1.347-0.675c0.011-0.043,0.022-0.085,0.035-0.125
	c-0.018-0.062-0.034-0.119-0.048-0.183c-0.21-0.865-0.089-1.771,0.32-2.541c-0.496-0.544-0.82-1.23-0.913-1.979
	c-0.121-0.972,0.158-1.94,0.762-2.694c-0.114-0.273-0.193-0.565-0.235-0.87c-0.157-1.115,0.22-2.243,1.019-3.044l0.034-0.034
	c0,0-0.043-0.044-0.048-0.049l-0.35,0.28c-0.643,0.514-1.437,0.786-2.246,0.786c-0.236,0-0.473-0.022-0.708-0.07l-2.579-0.518
	c-1.682-0.338-2.892-1.814-2.892-3.529V433.5c0-1.127,0.519-2.134,1.33-2.794l-0.464-0.542c-0.726-0.848-1.018-1.983-0.791-3.076
	l2.385-11.44l-4.866-15.091c-0.495-1.53,0.091-3.211,1.434-4.104l1.923-1.276l6.21-25.827l-3.014-23.071
	c-0.086-0.658,0.013-1.329,0.285-1.938l1.991-4.438l-2.121-6.361c-0.19-0.57-0.234-1.18-0.128-1.771l5.058-28.331l-1.981-14.391
	c-0.052-0.378-0.043-0.762,0.025-1.137l3.011-16.529l-0.985-10.744l-1.847-11.569l-7.94-7.495l-28.333-12.646
	c-0.355-0.159-0.683-0.374-0.969-0.637l-6.176-5.678c-0.175-0.161-0.333-0.338-0.473-0.53l-4.14-5.679
	c-0.63-0.865-0.843-1.965-0.581-3.002l0.622-2.461l-10.857-14.623c-0.141-0.189-0.263-0.392-0.364-0.605l-4.639-9.797l-6.512-13.044
	l-7.571-9.936l-8.077-4.268c-0.903-0.477-1.561-1.314-1.81-2.304c-0.249-0.99-0.066-2.039,0.503-2.886l1.076-1.602l-3.022-8.614
	c-0.484-1.379-0.086-2.914,1.007-3.884l7.76-6.891l-0.315-0.629l-4.087-2.044c-1.22-0.609-1.99-1.856-1.99-3.22v-9.796
	c0-1.113,0.515-2.163,1.394-2.845l1.82-1.412c-0.271-1.048-0.064-2.199,0.64-3.108l2.917-3.761
	c-0.003-0.017-0.507-2.629-0.507-2.629c-0.221-1.146,0.127-2.327,0.934-3.17l0.498-0.52c0.374-0.39,0.83-0.692,1.336-0.881
	l5.26-1.975l-0.249-1.008c-0.476-1.923,0.692-3.869,2.612-4.354l1.4-0.354v-2.355c0-1.454,0.875-2.765,2.217-3.324l5.104-2.124
	l3.097-5.167c-1.453-0.633-2.321-2.144-2.136-3.72l1.913-16.284l-2.739-4.414c-0.568-0.915-0.696-2.036-0.351-3.055
	c0.346-1.02,1.13-1.831,2.137-2.211l1.854-0.7L117,44.755c0.364-0.664,0.918-1.181,1.572-1.502l-0.108-0.492
	c-0.31-1.419,0.263-2.886,1.453-3.719l8.499-5.946l-0.203-1.404c-0.024-0.17-0.037-0.343-0.037-0.516v-1.04
	c0-0.737,0.226-1.456,0.647-2.06l3.598-5.158c0.307-0.439,0.707-0.805,1.173-1.07l3.62-2.059c0.544-0.31,1.158-0.471,1.78-0.471
	c0.15,0,0.301,0.009,0.451,0.028l1.365,0.172l0.002-0.006c0.511-1.268,1.697-2.137,3.06-2.243l5.743-0.446l12.104-8.238
	c0.609-0.415,1.316-0.624,2.026-0.624c0.601,0,1.204,0.15,1.75,0.454l4.637,2.581c1.166,0.648,1.877,1.889,1.849,3.223
	c-0.006,0.302-0.05,0.597-0.129,0.881l0.014-0.007l1.402-3.75c0.484-1.294,1.667-2.198,3.043-2.324c0.11-0.01,0.22-0.015,0.33-0.015
	c1.255,0,2.43,0.656,3.085,1.746l2.183,3.633l7.508,0.842c1.314,0.147,2.442,1.004,2.937,2.231l1.03,2.552l12.171-1.693
	c0.165-0.023,0.331-0.035,0.496-0.035c0.504,0,1.003,0.104,1.467,0.312l8.102,3.615l9.983-2.725l3.207-1.145
	c0.393-0.141,0.803-0.21,1.211-0.21c0.647,0,1.291,0.175,1.858,0.517l2.839,1.711c0.156,0.094,0.304,0.2,0.444,0.316l3.1,2.579
	c0.132,0.109,0.255,0.228,0.37,0.355l3.387-0.61c0.212-0.038,0.425-0.057,0.638-0.057c0.631,0,1.255,0.166,1.807,0.487l6.199,3.598
	c1.11,0.644,1.793,1.83,1.793,3.113v2.079h1.558c0.297,0,0.594,0.037,0.882,0.11l2.058,0.52c0.315,0.08,0.619,0.202,0.902,0.363
	l7.217,4.118c0.276,0.158,0.53,0.351,0.755,0.575l4.661,4.638c0.812,0.808,1.188,1.95,1.022,3.072l8.535,6.743l22.524,0.495
	c0.528,0.012,1.055,0.141,1.528,0.379l15.478,7.737c0.485,0.243,0.91,0.593,1.241,1.023l2.143,2.781
	c0.229-0.044,0.456-0.066,0.688-0.066c0.771,0,1.541,0.25,2.176,0.731l2.058,1.56c0.617,0.468,1.066,1.122,1.282,1.865l4.218,14.524
	l5.394,2.903c1.644,0.885,2.338,2.88,1.599,4.595l-0.178,0.413c0.104,0.181,0.188,0.373,0.263,0.573
	c0.512,1.434,0.064,3.034-1.113,3.997l-0.391,0.319c0.057-0.002,0.111-0.004,0.169-0.004c1.327,0,2.562,0.734,3.187,1.925
	c0.432,0.815,0.521,1.743,0.297,2.597l7.412,1.195c1.115,0.18,2.086,0.875,2.61,1.877c0.22,0.416,0.354,0.864,0.396,1.32
	c0.009,0.002,2.354,0.703,2.354,0.703c0.316-0.267,0.683-0.479,1.077-0.625c0.402-0.147,0.822-0.221,1.241-0.221
	c0.645,0,1.284,0.173,1.852,0.513l5.097,3.054c0.545-0.317,1.17-0.489,1.811-0.489c0.246,0,0.493,0.025,0.739,0.077
	c0.778,0.164,1.466,0.577,1.97,1.151c0.745,0.251,1.4,0.744,1.852,1.42l0.724,1.084l0.207-0.042
	c0.233-0.048,0.477-0.071,0.713-0.071c0.087,0,0.174,0.003,0.261,0.009c0.087-0.006,0.174-0.009,0.262-0.009
	c0.396,0,0.797,0.066,1.188,0.201c0.631,0.22,1.174,0.606,1.584,1.1c0.427-0.172,0.884-0.261,1.347-0.261
	c0.238,0,0.479,0.024,0.716,0.072c1.084,0.22,2.006,0.924,2.502,1.912l2.58,5.136c0.27,0.532,0.394,1.102,0.383,1.665
	c0.324,0.328,0.592,0.722,0.771,1.166l2.053-1.213c0.564-0.334,1.198-0.502,1.832-0.502c0.633,0,1.268,0.166,1.827,0.499
	l8.108,4.777l16.288,1.969c0.606,0.074,1.188,0.303,1.688,0.665l11.334,8.258c0.226,0.162,0.426,0.35,0.605,0.558l9.035,10.475
	l9.702,2.31c0.847,0.201,1.586,0.699,2.096,1.404l2.577,3.597c0.306,0.423,0.514,0.907,0.608,1.419l2.578,13.416
	c0.08,0.418,0.086,0.847,0.017,1.267l-1.537,9.297c-0.101,0.596-0.348,1.158-0.721,1.633c0,0-9.345,11.917-9.37,11.946
	l-15.974,19.072c-0.218,0.26-0.472,0.488-0.753,0.677l-3.1,2.081c-0.532,0.357-1.146,0.562-1.771,0.603l-5.463,34.104
	c-0.12,0.749-0.473,1.44-1.009,1.977l-3.881,3.88l-1.843,8.769c-0.082,0.39-0.228,0.763-0.432,1.104l-1.538,2.58
	c-0.078,0.132-0.165,0.258-0.26,0.379l-8.371,10.671l0.332,2.627c0.206,1.625-0.712,3.185-2.232,3.793l-5.809,2.328l-0.226,1.562
	c-0.258,1.782-1.783,3.088-3.562,3.089c-0.081,0-0.162-0.003-0.244-0.009l-7.736-0.521c-0.565-0.039-1.098-0.207-1.561-0.477
	c-0.549,0.312-1.17,0.479-1.798,0.479c-0.313,0-0.632-0.041-0.94-0.125l-3.982-1.078l-6.854,5.127
	c-0.623,0.468-1.379,0.719-2.154,0.719h-5.686l-7.928,4.841l-4.776,5.725c-0.377,0.45-0.849,0.793-1.37,1.015l-2.582,3.542
	l1.529,4.975c0.199,0.647,0.211,1.345,0.033,1.999l-3.077,11.355c-0.203,0.75-0.644,1.412-1.253,1.893l-6.814,5.348l-3.256,4.666
	l-5.646,8.707c-0.195,0.304-0.438,0.572-0.715,0.808l-9.275,7.735c-0.494,0.411-1.069,0.672-1.664,0.777l-1.35,4.261
	c-0.157,0.5-0.426,0.96-0.777,1.348l-11.335,12.375c-0.585,0.642-1.382,1.048-2.244,1.146l-13.416,1.54
	c-0.137,0.019-0.272,0.021-0.41,0.021c-0.436,0-0.868-0.077-1.276-0.232l-1.818-0.689c-0.01,0.314-0.061,0.636-0.153,0.945
	l-0.827,2.744l2.118,1.589c0.908,0.684,1.442,1.748,1.442,2.882v4.119c0,0.662-0.186,1.312-0.527,1.876l-5.678,9.297
	c-0.354,0.576-0.857,1.042-1.462,1.348l-6.2,3.1c-0.275,0.138-0.568,0.24-0.87,0.304l-9.796,2.062l-6.63,1.521
	c-0.265,0.062-0.536,0.091-0.807,0.091c-0.235,0-0.471-0.021-0.703-0.065l-1.378-0.273c-0.041,0.909-0.425,1.792-1.114,2.448
	c-0.283,0.271-0.603,0.485-0.942,0.646v8.104c0,1.672-1.15,3.123-2.778,3.505l-8.777,2.062c-0.271,0.062-0.547,0.096-0.822,0.096
	c-0.456,0-0.911-0.086-1.339-0.258l-2.519-1.012l0.149,2.965l0.241,0.172l2.078-1.305c0.58-0.36,1.244-0.55,1.911-0.55
	c0.438,0,0.877,0.079,1.296,0.241c1.058,0.408,1.861,1.291,2.169,2.383l1.019,3.619c0.422,1.5-0.168,3.103-1.463,3.968
	c0,0-3.114,2.083-3.132,2.099c-0.16,0.234-0.35,0.459-0.567,0.652l-4.583,4.166l-0.42,7.82c-0.081,1.501-1.086,2.795-2.521,3.243
	l-6.799,2.122l-1.401,2.794l2.936,3.821l4.308,0.772c1.582,0.284,2.784,1.582,2.945,3.181l0.521,5.157
	c0.116,1.15-0.327,2.286-1.191,3.055l-8.326,7.396l-0.782,5.142v0.247c0,1.651-1.124,3.093-2.725,3.492l-0.333,0.083l-2.591,3.742
	l0.975,0.975c0.478,0.479,0.801,1.068,0.954,1.7l2.957,3.79c0.891,1.146,1.011,2.707,0.304,3.973
	c-0.103,0.187-0.22,0.354-0.35,0.519l3.139,4.562l12.373,4.76c1.405,0.539,2.326,1.896,2.308,3.4
	c-0.018,1.506-0.97,2.841-2.388,3.35l-7.217,2.578c-0.389,0.143-0.799,0.213-1.212,0.213c-0.049,0-2.26-0.094-2.26-0.094
	c0.276,0.836,0.246,1.771-0.14,2.617C218.52,532.223,217.222,533.026,215.837,533.026z M256.057,510.332
	c-0.75,0-1.506-0.234-2.153-0.718l-2.058-1.539c-0.073-0.054-0.143-0.11-0.21-0.169l-3.471,0.35
	c-0.122,0.012-0.243,0.021-0.363,0.021c-1.588,0-3.008-1.054-3.457-2.604c-0.435-1.507,0.158-3.1,1.42-3.966
	c-0.013-0.354,0.026-0.713,0.123-1.07c0.008-0.026,0.017-0.061,0.026-0.092c-0.227-0.761-0.203-1.596,0.11-2.374
	c0.555-1.377,1.887-2.256,3.337-2.256c0.171,0,0.344,0.013,0.518,0.038l3.34,0.479h2.37c0.293-0.29,0.639-0.528,1.026-0.711
	c0.479-0.222,0.995-0.329,1.505-0.329c0.843,0,1.677,0.3,2.342,0.865l0.869,0.743c0.575-0.369,1.249-0.57,1.945-0.57
	c0.104,0,0.207,0.005,0.312,0.017c1.242,0.104,2.34,0.851,2.902,1.964l1.041,2.061c0.54,1.067,0.513,2.334-0.071,3.379
	s-1.648,1.731-2.841,1.831l-1.752,0.147c-0.47,0.895-1.303,1.562-2.306,1.812l-0.835,0.21l-0.797,1.057
	C258.221,509.84,257.146,510.332,256.057,510.332z M12.088,131.75c-1.516,0-2.87-0.95-3.385-2.375
	c-0.516-1.426-0.083-3.022,1.083-3.992l0.272-0.227l-1.185-1.364c-1.24-1.427-1.165-3.57,0.172-4.907l1.539-1.539
	c0.678-0.679,1.595-1.055,2.545-1.055c0.119,0,0.238,0.006,0.358,0.018c1.074,0.107,2.043,0.69,2.641,1.59l4.118,6.198
	c0.949,1.427,0.759,3.326-0.453,4.538l-2.06,2.06c-0.675,0.675-1.591,1.055-2.545,1.055H12.088z"/>
<path id="path6219" display="none" fill="#231F20" d="M120.15,46.484l-2.103,3.836l-3.099,1.17l3.403,5.483l-2.06,17.534
	l3.598,1.539l-1.019,2.059l-4.637,7.737l-6.199,2.579v5.158l-4.118,1.041l1.018,4.117l-8.258,3.1l-0.498,0.52l0.498,2.58
	l0.521,1.538l-0.521,0.521l-3.597,4.639l1.539,1.56l-4.638,3.598v9.796l5.158,2.579l1.539-3.078l1.041-1.04l1.539,2.579l-2.58,6.199
	l-9.275,8.236l3.619,10.316l-2.082,3.099l8.778,4.638l8.257,10.836l6.697,13.416l4.639,9.797l11.876,15.994l-1.04,4.118l4.14,5.679
	l6.176,5.678l28.891,12.896l9.276,8.756l2.059,12.896l1.041,11.355l-3.099,17.014l2.059,14.954l-5.158,28.892l2.579,7.735
	l-0.499,1.039l-2.081,4.639l3.1,23.732l-6.697,27.85l-3.1,2.062l5.158,15.995l-2.579,12.375l3.1,3.619l-1.041,1.536l4.139-2.575
	l2.579,1.039l1.539-1.562l-3.099,4.141l3.62,1.537l-0.521,2.578l-2.579-1.539l2.579,2.58l-2.059-1.041l-0.521,7.219l2.579,2.578
	l-2.579,2.58l4.638,2.578l-4.638,5.158l4.118,1.562l-4.118,0.497v2.579l2.579-1.538l-1.538,6.696l-2.082-2.578l-3.078,0.521
	l2.579-0.521h-2.081l1.041-2.58l-1.538,2.081l-2.082-1.561l-2.059,0.52l3.62,1.041l-1.561,2.578l-2.708,2.319l2.708-1.82
	l1.041,2.579l3.1-0.498l2.059,3.077l-2.579,2.081h3.099l-4.14,1.539l5.158-1.042l3.62,2.58l-2.579-0.499l2.059,2.58l-7.217-1.562
	l4.638,2.579L176.628,483l2.06,1.039l-1.019,4.639l1.539-1.539l3.1,3.603l-3.619-0.497l1.56,2.578l1.539,2.059l-4.118-0.521
	l3.598,1.041l0.52,3.598l1.561-3.598l1.539,2.059l-3.1,1.539l-1.018,0.52l3.078,1.041l-0.499,3.603l3.078,2.576l-0.499-2.576
	l1.539,2.576l-1.539-3.6l4.118,1.538l-4.638-2.059l2.059-2.062l-0.521,2.579l3.619,1.538l-1.04,4.639v-3.1l-0.52,2.58l-0.499-2.06
	h-1.041h-1.04h-1.539l1.041,5.152l3.597-2.059h6.719l1.539,3.619l-2.579,3.078l0.52-2.062l-3.099,1.039l6.198,3.102l0.499-8.258
	l7.737-3.617l4.66,0.521l-3.619-4.639H205l3.1-0.521l-3.1-3.1l4.638-6.697l-1.019-1.041l-1.04-2.059l1.561,2.059l0.499,0.521
	l2.081-0.521v-0.521l1.021-6.696l9.298-8.258l-0.521-5.157l-5.678-1.021l-5.158-6.718l3.099-6.177l8.258-2.578l0.499-9.297
	l5.678-5.16l-4.118-2.578l3.598-1.02l1.56,2.576l3.078-2.062l-1.019-3.619l-4.118,2.58l-3.62-2.58l-0.521-10.312l7.737,3.1
	l8.777-2.059V411.3l2.06,1.039l-2.06-4.638l7.737,1.54l6.697-1.54l9.796-2.062l6.199-3.101l5.679-9.297v-4.119l-4.142-3.104
	l1.562-5.154l-9.299-7.218l1.562-10.314l-0.521,6.719l4.119,4.118l10.836,4.117l13.416-1.54l11.335-12.375l3.104-9.795l9.298-10.838
	l-1.562-3.103l4.641,4.117l-11.336,12.896l9.273-7.738l5.68-8.758l3.601-5.156l7.235-5.678l3.076-11.357l-2.059-6.697l4.141-5.678
	l-2.58-1.537l3.603,1.021l5.157-6.182l9.298-5.679h6.692l8.262-6.177l5.679,1.537l3.599-2.578v2.578l7.737,0.521l0.521-3.616
	l7.737-3.103l-0.521-4.119l9.299-11.854l1.538-2.58l2.059-9.818l4.642-4.638l6.194-38.688l1.021-2.059l1.561,3.62l3.104-2.081
	l15.974-19.072l9.297-11.856l1.539-9.297l-2.578-13.416l-2.58-3.597l-10.836-2.579l-9.797-11.356l-11.334-8.258l-17.035-2.059
	l-8.757-5.159l-11.354,6.719l1.041-5.158l3.101-2.081l-5.157,0.52l4.118-3.099l-2.58-5.136l-3.618,3.078l-0.498-4.118l-1.562,1.539
	l1.039-1.539l-2.578,0.52l-2.062-3.099l-1.041,2.059l-0.521-3.099l-1.021,1.56l-7.733-4.638l-0.521,1.539l-5.156-1.539l-3.617,5.656
	l3.1,1.041l-2.578,1.04l-2.061-2.579l-6.723,7.217l2.082-5.158l-9.299,1.019l12.377-2.58l4.143-8.756l-15.996-2.579l-3.619,6.697
	v-3.598l-3.598,3.077v-3.598l-3.619,3.598l3.1-6.697l11.356-9.275H335.5l1.562-3.62l-6.723-3.619l-4.64-15.961l-2.062-1.562
	l-0.521,2.579l-5.158-6.697l-15.476-7.737l-23.729-0.521l-9.797-7.737l-2.58,3.62l1.561-6.719l-4.661-4.638l-7.217-4.118
	l-2.058-0.52h-5.158v-5.679l-6.199-3.598l-5.656,1.019l-1.041-1.539l-3.1-2.579l-2.839-1.711l-3.337,1.192l-11.356,3.099
	l-9.276-4.139l-14.955,2.08l-2.081-5.158l-9.276-1.041L176.63,12.6l-1.539,4.117l3.099-0.498v1.539l-2.579-0.521l-11.356,5.679
	l2.579,5.678l1.539,1.539l-0.499,3.1l-5.158,2.059l-3.099-5.158l1.018-1.041l3.62-5.137l-3.099-6.198l7.216-3.619l-4.637-2.58
	l-12.896,8.777l-6.697,0.521l-1.04,2.579l-4.118-0.52l-3.62,2.059l-3.598,5.158v1.04l0.521,3.598l-10.316,7.217l1.019,4.66
	L120.15,46.484L120.15,46.484z M189.525,509.831l-1.539,3.1l2.059,0.521L189.525,509.831L189.525,509.831z M168.242,469.866
	l-0.368,0.261l0.043,0.044L168.242,469.866L168.242,469.866z M167.917,470.171l-0.563,0.454l2.059,1.041L167.917,470.171z
	 M95.139,129.167l1.041,2.081l0.498-1.561l1.041-1.018l-1.041,0.499L95.139,129.167L95.139,129.167z M236.989,28.085l2.058,7.217
	l3.598,0.521l-19.332,5.071l14.174-5.071l0.52-2.062L236.989,28.085L236.989,28.085z M211.198,40.98l5.917,1.972l5.938-1.972
	l-5.679,2.059l-0.26-0.086l-0.239,0.086l-5.678-1.539L205,43.56l-9.276,10.836l3.099-7.239L205,43.039L211.198,40.98L211.198,40.98z
	 M233.889,41.999l-1.04,6.719l-1.539-5.679L233.889,41.999z M296.309,63.152l1.021,3.099h-4.119L296.309,63.152z M339.111,99.779
	l-5.684,0.52l3.104,2.579L339.111,99.779z M208.619,101.838h17.533l17.013,8.258l12.895,13.415l12.377,0.499l7.238-6.176
	l7.218,1.538l5.157-4.638l9.277,0.521l2.578,1.539v2.059h2.577l12.377-5.657l-11.336,5.657l-7.217,0.52l-3.104,8.777l1.539-9.796
	l3.619,0.499l-7.223-1.539h4.643l-4.643-2.059l-8.256,4.638l-7.218-1.539l-8.779,7.218l-8.776-1.562l-2.059,0.521l-14.956,5.679
	l-4.638-2.579l-9.276,6.199l-0.521-2.579l2.579-1.041l-11.357-4.637l-0.52,1.538l-4.118-6.176l-5.679-2.081l-11.335,1.041
	l-6.198,7.737h-8.778l-2.579,3.62l1.561,1.019l-3.62,2.578l-0.173-0.217l-0.347,0.217l-3.078-3.597l-9.297-0.52h9.297l3.425,3.9
	l3.793-2.361l-2.06-0.521l3.078-4.638l9.298-0.521l5.678-6.697l15.974-1.539l8.777,8.236l10.316,4.14l5.158-3.1l4.118,2.059
	l7.737-2.578l1.042-3.598l6.697,0.499l-4.639-1.539l-8.778-11.855l-15.973-7.737H204.47L208.619,101.838L208.619,101.838z
	 M282.373,109.575l6.197,1.561l0.5,2.579L282.373,109.575z M323.639,115.254l7.221,0.52l-2.535,3.013l1.494,2.146l-1.539-2.081
	l0.045-0.065l-2.104-3.013l-1.041,3.598L323.639,115.254L323.639,115.254z M13.129,119.892l-1.539,1.539l3.597,4.14l-3.099,2.579
	h3.099l2.06-2.06L13.129,119.892z M160.635,126.588l-9.276,3.1l2.579-1.539l-1.539-1.041l3.598,0.52L160.635,126.588
	L160.635,126.588z M178.688,222.014l2.579,0.521l7.737,6.697l-2.059,2.579l-1.539-3.597l-1.562,1.539l-6.176-3.598L178.688,222.014
	L178.688,222.014z M200.882,243.167l1.539,8.777l-2.579-4.14L200.882,243.167z M366.962,249.366l3.104,5.158l-2.062,1.539
	l-2.578-0.52l2.062-3.598l-2.578,0.499L366.962,249.366z M363.861,267.918l-0.521,1.561l2.578,3.598l-4.637-4.119l-2.58,1.042
	l4.139,6.177l-2.577-2.579l-2.08,1.041l2.08-2.062l-2.58-4.137L363.861,267.918L363.861,267.918z M334.475,287.531h4.643
	l-0.521,2.58L334.475,287.531L334.475,287.531z M266.897,316.92l18.574,2.062l-22.193-0.5l-5.156,15.978v4.142l-0.5,5.155
	l-0.52,0.693v0.323l-1.042,1.038l-1.539,2.062l-4.638,6.198l1.54,9.798l-2.06-10.316l5.158-6.193v-2.58l0.521-1.021V338.6h2.059
	l0.52-5.68l1.539-2.062l3.619-12.375L266.897,316.92L266.897,316.92z M239.047,343.751l-3.099,2.58l-2.06-2.06L239.047,343.751z
	 M304.543,357.667l-0.498,5.156l-2.58-0.498l-3.619,6.176v-4.637L304.543,357.667L304.543,357.667z M285.471,358.706l-4.639,2.58
	l1.02,1.536l-5.158-1.021h-0.52L285.471,358.706L285.471,358.706z M182.308,424.721l3.619,2.58l-3.099,0.521L182.308,424.721
	L182.308,424.721z M175.611,426.781l2.06,1.559l-2.06,1.021V426.781z M169.413,433.5v11.336l2.579,0.518l2.579-2.059l-2.059-9.795
	H169.413z M178.688,452.074l-2.059,2.059l2.579,1.537L178.688,452.074z M172.512,466.508l2.059,0.521l-1.041,2.061L172.512,466.508z
	 M182.829,467.027h8.755l-6.176,0.52l-3.1,3.601L182.829,467.027L182.829,467.027z M174.571,479.924l-1.041,3.599h3.1
	L174.571,479.924L174.571,479.924z M183.847,480.94l2.081,3.1v-2.578l2.579,4.637l-4.66-1.017V480.94L183.847,480.94z
	 M175.091,484.04l0.52,4.639h-3.619l3.1,4.145l1.539-4.659l-0.521,5.158l2.579-1.539L175.091,484.04L175.091,484.04z
	 M184.367,492.818l6.718,0.499l-5.158,1.56l0.499,2.061L184.367,492.818z M173.53,493.837l1.041,2.578l1.04-2.578H173.53
	L173.53,493.837z M258.121,498.995v3.619l6.197-0.521l-1.041-2.061l-1.537,2.061L258.121,498.995L258.121,498.995z M258.121,502.614
	l-4.119,2.578l2.058,1.539l1.561-2.062l2.06-0.52L258.121,502.614L258.121,502.614z M249.364,499.515l3.597,2.58l-3.597-0.521
	l2.58,1.041l-4.14,2.059l5.157-0.52l4.141-4.119h-4.141L249.364,499.515z M209.638,508.792l-7.737,2.08l0.521,4.117h5.158
	l-2.58,4.119l5.678,2.573l-1.539,1.562l-1.04-2.062l-1.04,1.538l-6.177-2.579L205,522.72l-2.579,0.521l-0.521-2.062l-5.158,2.577
	l24.772,1.021l7.217-2.58l-13.415-5.158L209.638,508.792L209.638,508.792z M191.085,510.872l-1.041,3.598l2.579,1.562l-1.04-1.562
	l4.66-3.598H191.085L191.085,510.872z M181.268,511.89l3.619,2.58l5.158,1.039L181.268,511.89L181.268,511.89z M190.045,515.509
	l-2.579,2.58l3.1,2.062l2.059-1.539l-1.539,1.539l3.598-2.062L190.045,515.509z M202.421,516.03l-1.539,3.078l3.598,1.561
	L202.421,516.03z M197.263,519.108l0.52,1.561l3.1,0.521L197.263,519.108L197.263,519.108z M213.257,524.786l-7.217,1.561
	l3.598,2.578l-1.019-2.08h3.099v1.562l4.118,1.02l-5.158-3.6L213.257,524.786z M354.064,525.306l6.693,6.199l-0.498-4.66
	L354.064,525.306z"/>
</svg>
